<svg width="15" height="14" viewBox="0 0 15 14" fill="none" xmlns="http://www.w3.org/2000/svg">
<path d="M14.1663 2.33398C14.1663 3.43855 13.2709 4.33398 12.1663 4.33398C11.0618 4.33398 10.1663 3.43855 10.1663 2.33398C10.1663 1.22941 11.0618 0.333984 12.1663 0.333984C13.2709 0.333984 14.1663 1.22941 14.1663 2.33398Z" fill="url(#paint0_linear_5792_25492)"/>
<path fill-rule="evenodd" clip-rule="evenodd" d="M3.66634 8.33398C3.66634 8.05784 3.8902 7.83398 4.16634 7.83398H10.1663C10.4425 7.83398 10.6663 8.05784 10.6663 8.33398C10.6663 8.61013 10.4425 8.83398 10.1663 8.83398H4.16634C3.8902 8.83398 3.66634 8.61013 3.66634 8.33398Z" fill="url(#paint1_linear_5792_25492)"/>
<path fill-rule="evenodd" clip-rule="evenodd" d="M1.80932 12.691C2.78563 13.6673 4.35698 13.6673 7.49967 13.6673C10.6424 13.6673 12.2137 13.6673 13.19 12.691C14.1663 11.7147 14.1663 10.1433 14.1663 7.00065C14.1663 6.06814 14.1663 5.27398 14.1408 4.59266C13.6132 5.05426 12.9225 5.33398 12.1663 5.33398C10.5095 5.33398 9.16634 3.99084 9.16634 2.33398C9.16634 1.57788 9.44606 0.887099 9.90766 0.35949C9.22635 0.333984 8.43218 0.333984 7.49967 0.333984C4.35698 0.333984 2.78563 0.333984 1.80932 1.3103C0.833008 2.28661 0.833008 3.85795 0.833008 7.00065C0.833008 10.1433 0.833008 11.7147 1.80932 12.691ZM3.66634 10.6673C3.66634 10.3912 3.8902 10.1673 4.16634 10.1673H8.16634C8.44248 10.1673 8.66634 10.3912 8.66634 10.6673C8.66634 10.9435 8.44248 11.1673 8.16634 11.1673H4.16634C3.8902 11.1673 3.66634 10.9435 3.66634 10.6673Z" fill="url(#paint2_linear_5792_25492)"/>
<defs>
<linearGradient id="paint0_linear_5792_25492" x1="0.833008" y1="7.00065" x2="14.1663" y2="7.00065" gradientUnits="userSpaceOnUse">
<stop stop-color="#982214"/>
<stop offset="1" stop-color="#F8CB48"/>
</linearGradient>
<linearGradient id="paint1_linear_5792_25492" x1="0.833008" y1="7.00065" x2="14.1663" y2="7.00065" gradientUnits="userSpaceOnUse">
<stop stop-color="#982214"/>
<stop offset="1" stop-color="#F8CB48"/>
</linearGradient>
<linearGradient id="paint2_linear_5792_25492" x1="0.833008" y1="7.00065" x2="14.1663" y2="7.00065" gradientUnits="userSpaceOnUse">
<stop stop-color="#982214"/>
<stop offset="1" stop-color="#F8CB48"/>
</linearGradient>
</defs>
</svg>
