<svg width="128" height="128" viewBox="0 0 128 128" fill="none" xmlns="http://www.w3.org/2000/svg">
  <rect x="12" y="12" width="104" height="104" rx="24" fill="var(--brand-accent-10)" />
  <circle cx="64" cy="46" r="12" stroke="var(--brand-primary)" stroke-width="3.5" fill="white"/>
  <circle cx="40" cy="54" r="10" stroke="var(--brand-primary)" stroke-width="3.5" fill="white"/>
  <circle cx="88" cy="54" r="10" stroke="var(--brand-primary)" stroke-width="3.5" fill="white"/>
  <path d="M48 82c2-8 8-12 16-12s14 4 16 12" stroke="var(--brand-primary)" stroke-width="3.5" stroke-linecap="round"/>
  <path d="M24 88c1-8 7-14 15-14h6" stroke="var(--brand-primary)" stroke-width="3.5" stroke-linecap="round"/>
  <path d="M104 88c-1-8-7-14-15-14h-6" stroke="var(--brand-primary)" stroke-width="3.5" stroke-linecap="round"/>
  <path d="M64 30L70 36L64 42L58 36L64 30Z" fill="var(--brand-primary)" />
  <path d="M32 40L36 44L32 48L28 44L32 40Z" fill="var(--brand-primary)" opacity="0.8"/>
  <path d="M96 40L100 44L96 48L92 44L96 40Z" fill="var(--brand-primary)" opacity="0.8"/>
</svg>
