<svg width="128" height="128" viewBox="0 0 128 128" fill="none" xmlns="http://www.w3.org/2000/svg">
  <rect x="12" y="12" width="104" height="104" rx="24" fill="var(--brand-accent-10)" />
  <path d="M52 56c0 6.627-5.373 12-12 12s-12-5.373-12-12 5.373-12 12-12 12 5.373 12 12Z" stroke="var(--brand-primary)" stroke-width="3.5" fill="white"/>
  <path d="M100 56c0 6.627-5.373 12-12 12s-12-5.373-12-12 5.373-12 12-12 12 5.373 12 12Z" stroke="var(--brand-primary)" stroke-width="3.5" fill="white"/>
  <path d="M76 52c0 8.284-5.373 15-12 15s-12-6.716-12-15 5.373-15 12-15 12 6.716 12 15Z" stroke="var(--brand-primary)" stroke-width="3.5" fill="white"/>
  <path d="M26 88c1.5-10 9-16 18-16h8" stroke="var(--brand-primary)" stroke-width="3.5" stroke-linecap="round"/>
  <path d="M102 88c-1.5-10-9-16-18-16h-8" stroke="var(--brand-primary)" stroke-width="3.5" stroke-linecap="round"/>
  <path d="M48 88c2-12 10-18 20-18s18 6 20 18" stroke="var(--brand-primary)" stroke-width="3.5" stroke-linecap="round"/>
  <path d="M44 40l2.5 4.5L51 45l-3.5 3.5.8 4.9L44 50.5l-4.3 2 1-4.9L37 45l4.5-.5L44 40Z" fill="var(--brand-primary)" opacity="0.9"/>
  <path d="M84 40l2.5 4.5 4.5.5-3.5 3.5.8 4.9L84 50.5l-4.3 2 1-4.9L77 45l4.5-.5L84 40Z" fill="var(--brand-primary)" opacity="0.9"/>
</svg>
