<svg xmlns="http://www.w3.org/2000/svg" viewBox="0 0 320 120" role="img" aria-labelledby="title desc">
  <title id="title">Freewave Consult Limited</title>
  <desc id="desc">Freewave logo with blue abstract mark and company wordmark.</desc>
  <defs>
    <linearGradient id="freewaveMark" x1="0%" x2="100%" y1="0%" y2="100%">
      <stop offset="0%" stop-color="#23B4F5" />
      <stop offset="100%" stop-color="#156CB8" />
    </linearGradient>
  </defs>
  <g transform="translate(8 14)">
    <path d="M24 8c0-4.418 3.582-8 8-8h42c13.255 0 24 10.745 24 24s-10.745 24-24 24H44c-11.046 0-20 8.954-20 20V8Z" fill="url(#freewaveMark)"/>
    <path d="M24 50c0-13.255 10.745-24 24-24h26c11.046 0 20 8.954 20 20s-8.954 20-20 20H54c-8.837 0-16 7.163-16 16v10c-8.837 0-16-7.163-16-16V50Z" fill="url(#freewaveMark)"/>
  </g>
  <g font-family="Arial, Helvetica, sans-serif">
    <text x="122" y="58" font-size="34" font-weight="700" fill="#1879C5" letter-spacing="1">FREEWAVE</text>
    <text x="122" y="82" font-size="20" font-weight="400" fill="#1E2A36">CONSULT LIMITED</text>
  </g>
</svg>
