<?xml version="1.0" encoding="UTF-8"?>
<svg version="1.1" xmlns="http://www.w3.org/2000/svg" width="502" height="403">
<path d="M0 0 C165.66 0 331.32 0 502 0 C502 132.99 502 265.98 502 403 C336.34 403 170.68 403 0 403 C0 270.01 0 137.02 0 0 Z " fill="#D0D1D3" transform="translate(0,0)"/>
<path d="M0 0 C0.73879395 0.20286621 1.47758789 0.40573242 2.23876953 0.61474609 C10.92744741 3.02279134 17.94590252 6.33239754 25 12 C25.76828125 12.58007812 26.5365625 13.16015625 27.328125 13.7578125 C32.41652861 17.61738394 37.24576347 21.73802774 42 26 C41.67 26.99 41.34 27.98 41 29 C40.40241619 34.73680453 41.85107234 38.85207594 44.02734375 44.15625 C46.64395422 51.80642038 46.15289507 59.7578173 46.125 67.75 C46.12378143 68.43299164 46.12256287 69.11598328 46.12130737 69.81967163 C46.09108796 84.65233221 45.83211082 99.48260256 45.5625 114.3125 C45.5429425 115.45738892 45.52338501 116.60227783 45.50323486 117.78186035 C45.44603712 121.05912069 45.38229438 124.33618541 45.31640625 127.61328125 C45.2913224 129.09871178 45.2913224 129.09871178 45.26573181 130.614151 C45.24579666 131.52950119 45.22586151 132.44485138 45.20532227 133.38793945 C45.18977798 134.18553177 45.1742337 134.98312408 45.15821838 135.80488586 C45.00166454 137.9769063 44.59502056 139.90929303 44 142 C39.98423742 140.43675443 37.58346127 137.60011657 34.8125 134.4375 C33.83634829 133.3461218 32.85846232 132.25629244 31.87890625 131.16796875 C31.39437988 130.62962402 30.90985352 130.0912793 30.41064453 129.53662109 C27.80127167 126.69422013 25.03645578 124.01168552 22.265625 121.328125 C19.69274833 118.68427242 17.29573569 115.91703461 14.87792969 113.13183594 C11.83447485 109.67688955 8.66604679 106.34230094 5.5 103 C1.09086194 98.34540477 -3.23333101 93.64081324 -7.43701172 88.79931641 C-9.37096027 86.57294952 -11.33738728 84.37738226 -13.3125 82.1875 C-14.07175781 81.34445313 -14.83101563 80.50140625 -15.61328125 79.6328125 C-17.22890208 77.85060556 -18.85152269 76.07472337 -20.48046875 74.3046875 C-24.69171082 69.72128915 -28.7815471 65.09762575 -32.6875 60.25 C-35.67531763 56.54531544 -38.76003286 53.17149621 -42.1875 49.87890625 C-44.4606334 47.52248994 -46.45999298 44.99784665 -48.5 42.4375 C-51.16603095 39.10839103 -53.7702756 36.15109102 -57.0625 33.4375 C-58.5165625 32.2309375 -58.5165625 32.2309375 -60 31 C-60 30.34 -60 29.68 -60 29 C-60.70125 28.731875 -61.4025 28.46375 -62.125 28.1875 C-65 27 -65 27 -67.8125 25.375 C-71.68159476 23.70597873 -74.91166275 22.91129939 -79 24 C-83.08621792 26.65568756 -86.4382549 29.31476471 -88 34 C-86.515 34.495 -86.515 34.495 -85 35 C-83.46484375 36.93359375 -83.46484375 36.93359375 -81.9375 39.4375 C-81.43089844 40.24058594 -80.92429687 41.04367188 -80.40234375 41.87109375 C-76.68526003 50.16464266 -76.70292338 58.9824493 -76.734375 67.92578125 C-76.73246155 69.14919724 -76.7305481 70.37261322 -76.72857666 71.63310242 C-76.72722115 74.21577155 -76.73087309 76.79844764 -76.73925781 79.38110352 C-76.74986391 83.26269552 -76.73939334 87.14381384 -76.7265625 91.02539062 C-76.71584467 108.99702795 -77.11850697 127.02921076 -80.8125 144.6875 C-80.9784668 145.50855225 -81.14443359 146.32960449 -81.31542969 147.17553711 C-82.49628512 152.62751416 -84.15582562 157.40714328 -87.046875 162.22265625 C-88.23629881 164.10450931 -88.23629881 164.10450931 -88 167 C-80.93569289 169.87361645 -73.61480485 171.54946498 -66 170 C-62.28427172 166.25304711 -60.88756938 163.05611426 -60.84178162 157.84284973 C-60.8319928 156.99731033 -60.82220398 156.15177094 -60.81211853 155.28060913 C-60.80636307 154.35632111 -60.8006076 153.43203308 -60.79467773 152.47973633 C-60.78477814 151.50394119 -60.77487854 150.52814606 -60.76467896 149.52278137 C-60.73305329 146.29255614 -60.70830223 143.06231619 -60.68359375 139.83203125 C-60.66302515 137.59429031 -60.6420287 135.35655326 -60.62062073 133.11882019 C-60.56539037 127.22518057 -60.5159853 121.33150583 -60.46777344 115.43780518 C-60.41756549 109.42530181 -60.36187573 103.41284953 -60.30664062 97.40039062 C-60.19904724 85.60030404 -60.09760485 73.80017313 -60 62 C-56.00044115 62.81479288 -54.37949634 64.32951081 -51.5625 67.3125 C-49.22542286 69.73726519 -47.02493377 71.98040918 -44.375 74.0625 C-41.4901213 76.41595367 -39.23340563 79.10005964 -36.8203125 81.92578125 C-35.11405175 83.87003974 -33.34703515 85.69023686 -31.5 87.5 C-28.46484607 90.48794042 -25.65720624 93.6167075 -22.875 96.83984375 C-20.05872453 100.08442778 -17.17499693 103.2669632 -14.29296875 106.453125 C-12.84770109 108.05843082 -11.41146492 109.6719585 -9.98828125 111.296875 C-4.52645884 117.49734387 1.25881173 123.32910607 7.15258789 129.11572266 C10.39188061 132.3130815 13.52095192 135.54286075 16.4921875 138.9921875 C20.12520787 143.20895768 24.02821082 147.10429874 28 151 C40.5202952 163.2804428 40.5202952 163.2804428 45 170 C44.625 172.1875 44.625 172.1875 44 174 C43.67 173.34 43.34 172.68 43 172 C42.34257812 172.60134766 42.34257812 172.60134766 41.671875 173.21484375 C25.34083456 187.85303244 8.32537259 198.66729115 -13.70703125 201.640625 C-16.02219508 201.88471091 -16.02219508 201.88471091 -18 203 C-22.61999466 203.24867892 -27.24908946 203.18522794 -31.875 203.1875 C-33.78539062 203.20586914 -33.78539062 203.20586914 -35.734375 203.22460938 C-46.18983124 203.24064535 -56.17745285 202.51328832 -65.9375 198.5625 C-66.97777344 198.15128906 -68.01804688 197.74007812 -69.08984375 197.31640625 C-71.87642881 196.0558973 -74.39302116 194.59144408 -77 193 C-78.03125 192.608125 -79.0625 192.21625 -80.125 191.8125 C-88.92688943 188.13866789 -97.46894767 180.86969949 -104 174 C-104 173.34 -104 172.68 -104 172 C-99.05 170.02 -99.05 170.02 -94 168 C-94.45715147 164.43421852 -95.23219111 161.2064478 -96.43960571 157.83598328 C-101.92253383 141.58379142 -101.50108701 123.95155909 -101.5390625 107.01171875 C-101.5512752 104.56842414 -101.56376213 102.12513088 -101.57650757 99.68183899 C-101.59879096 94.60499727 -101.60851885 89.52830381 -101.61083984 84.45141602 C-101.61616675 77.952586 -101.66785178 71.45498217 -101.73035622 64.95648479 C-101.77118712 59.93013095 -101.78048164 54.90407784 -101.78095627 49.87757301 C-101.78633089 47.48017898 -101.8031536 45.08278143 -101.83180618 42.6855526 C-101.86847518 39.34502637 -101.86084146 36.00736189 -101.84228516 32.66674805 C-101.87296585 31.19473183 -101.87296585 31.19473183 -101.90426636 29.69297791 C-101.82614903 24.57386921 -101.30999408 21.71780496 -97.65951538 17.9881134 C-94.38201933 15.13478236 -90.8860716 12.64939697 -87.1875 10.375 C-86.26976807 9.8032605 -86.26976807 9.8032605 -85.33349609 9.2199707 C-83.5646283 8.13084757 -81.78546373 7.06164124 -80 6 C-79.15308594 5.49082031 -78.30617188 4.98164062 -77.43359375 4.45703125 C-71.18717912 1.02203167 -64.63258155 -0.5392464 -57.734375 -2.10546875 C-54.11794915 -2.87800224 -54.11794915 -2.87800224 -51.265625 -4.0859375 C-34.92218893 -8.66053564 -15.89593004 -4.60204751 0 0 Z " fill="#D0D1D2" transform="translate(204,99)"/>
<path d="M0 0 C13.00791531 0.10321121 24.71883194 2.067231 37.06884766 6.25317383 C37.06884766 6.91317383 37.06884766 7.57317383 37.06884766 8.25317383 C37.83970703 8.45813477 38.61056641 8.6630957 39.40478516 8.87426758 C40.40767578 9.14368164 41.41056641 9.4130957 42.44384766 9.69067383 C43.94044922 10.09092773 43.94044922 10.09092773 45.46728516 10.49926758 C48.06884766 11.25317383 48.06884766 11.25317383 50.06884766 12.25317383 C50.06884766 12.91317383 50.06884766 13.57317383 50.06884766 14.25317383 C50.91962891 14.48907227 51.77041016 14.7249707 52.64697266 14.96801758 C56.4818676 16.40829205 59.54725528 18.41018505 62.81884766 20.81567383 C63.42865479 21.2582251 64.03846191 21.70077637 64.66674805 22.15673828 C72.79668984 28.14716552 80.01441415 35.05005203 87.06884766 42.25317383 C87.85904297 42.96473633 88.64923828 43.67629883 89.46337891 44.40942383 C92.7276087 47.97218138 94.75654664 51.72073701 96.94384766 56.00317383 C97.37366943 56.83212158 97.80349121 57.66106934 98.24633789 58.51513672 C110.30156588 82.15182606 110.30156588 82.15182606 110.06884766 94.25317383 C106.10884766 94.25317383 102.14884766 94.25317383 98.06884766 94.25317383 C97.07884766 90.62317383 96.08884766 86.99317383 95.06884766 83.25317383 C94.40884766 83.25317383 93.74884766 83.25317383 93.06884766 83.25317383 C93.08044922 83.94797852 93.09205078 84.6427832 93.10400391 85.35864258 C93.15563528 91.17823568 93.05996079 96.95232261 92.73631287 102.76167297 C91.91240971 117.64259889 91.74528294 132.53691491 91.53662109 147.43597412 C91.48543025 151.03718802 91.43026577 154.63834114 91.37548828 158.23950195 C91.26950167 165.24400617 91.16773681 172.2485655 91.06884766 179.25317383 C92.38884766 179.25317383 93.70884766 179.25317383 95.06884766 179.25317383 C95.06884766 182.25317383 95.06884766 182.25317383 93.74462891 183.70239258 C93.19162109 184.21415039 92.63861328 184.7259082 92.06884766 185.25317383 C91.11909128 186.51487365 90.18301583 187.78692065 89.25634766 189.06567383 C81.44672257 199.17516731 72.03755897 208.64256656 61.06884766 215.25317383 C59.95509766 215.92993164 58.84134766 216.60668945 57.69384766 217.30395508 C40.97117538 227.25317383 40.97117538 227.25317383 35.06884766 227.25317383 C35.06884766 227.91317383 35.06884766 228.57317383 35.06884766 229.25317383 C11.67816918 238.2046814 -23.44807447 237.16177317 -46.26318359 227.05004883 C-56.93857355 221.93878403 -68.01434839 216.13094342 -76.93115234 208.25317383 C-76.93115234 207.59317383 -76.93115234 206.93317383 -76.93115234 206.25317383 C-77.52283203 205.98762695 -78.11451172 205.72208008 -78.72412109 205.44848633 C-82.45272931 203.42909851 -85.04598389 200.31523422 -87.93115234 197.25317383 C-88.76839844 196.40625977 -88.76839844 196.40625977 -89.62255859 195.54223633 C-110.93630714 172.89328775 -118.76191243 140.58899882 -118.31396484 110.47192383 C-117.94156634 100.36626071 -115.83237854 90.90630766 -112.93115234 81.25317383 C-112.72828613 80.56030273 -112.52541992 79.86743164 -112.31640625 79.15356445 C-110.31429648 72.48321042 -107.73005858 66.72745549 -104.05615234 60.81567383 C-101.43035809 56.60395915 -101.43035809 56.60395915 -100.93115234 51.75317383 C-101.26115234 50.59817383 -101.59115234 49.44317383 -101.93115234 48.25317383 C-102.22484786 46.17555001 -102.47137669 44.09094105 -102.68115234 42.00317383 C-102.79974609 40.98739258 -102.91833984 39.97161133 -103.04052734 38.92504883 C-102.93115234 36.25317383 -102.93115234 36.25317383 -101.90771484 34.42504883 C-98.866209 32.62178449 -96.05706928 32.83571018 -92.55615234 32.75317383 C-84.42042978 32.56061235 -80.85794931 30.16978258 -74.80615234 25.00317383 C-60.59461388 13.25317383 -60.59461388 13.25317383 -53.93115234 13.25317383 C-53.93115234 12.59317383 -53.93115234 11.93317383 -53.93115234 11.25317383 C-52.61115234 11.25317383 -51.29115234 11.25317383 -49.93115234 11.25317383 C-49.93115234 10.59317383 -49.93115234 9.93317383 -49.93115234 9.25317383 C-40.27709953 5.17074192 -31.42901109 2.50041664 -20.96630859 1.57739258 C-6.24761578 0.00512552 -6.24761578 0.00512552 0 0 Z M-31.93115234 17.25317383 C-33.71857843 17.68767187 -35.51041609 18.10441092 -37.30615234 18.50317383 C-48.75280398 21.59460529 -59.2201475 28.3551961 -67.93115234 36.25317383 C-68.62277466 36.73985535 -69.31439697 37.22653687 -70.02697754 37.72796631 C-73.02444532 41.70303632 -72.48856419 45.66589053 -72.44873047 50.51586914 C-72.45573975 51.56054855 -72.46274902 52.60522797 -72.4699707 53.68156433 C-72.48762039 57.14841068 -72.4758857 60.61444353 -72.46240234 64.08129883 C-72.46509928 66.50673579 -72.46898339 68.9321717 -72.47399902 71.35760498 C-72.47990686 76.45880353 -72.4713044 81.55972259 -72.45263672 86.66088867 C-72.43008923 93.13131219 -72.44280687 99.60106309 -72.46692657 106.07146072 C-72.48155852 111.09424664 -72.47669591 116.11688016 -72.46641541 121.13967133 C-72.46378307 123.52017042 -72.4668918 125.90068426 -72.47633362 128.28116608 C-72.53402471 146.95029401 -71.76559056 165.68497085 -64.93115234 183.25317383 C-64.93115234 184.24317383 -64.93115234 185.23317383 -64.93115234 186.25317383 C-69.88115234 188.23317383 -69.88115234 188.23317383 -74.93115234 190.25317383 C-70.07522858 199.96502135 -57.76268438 208.33896278 -47.68115234 212.00317383 C-46.44365234 212.41567383 -45.20615234 212.82817383 -43.93115234 213.25317383 C-42.62998507 213.90110202 -41.33842554 214.56861363 -40.05615234 215.25317383 C-28.36882122 221.2343374 -16.29025635 221.43419895 -3.43115234 221.44067383 C-2.15111328 221.45291992 -0.87107422 221.46516602 0.44775391 221.4777832 C7.05134082 221.48802662 12.75715246 221.19196809 19.06884766 219.25317383 C21.15177136 218.81372773 23.23508547 218.37612669 25.31884766 217.94067383 C35.68616816 215.54083112 44.49644216 211.50633263 53.06884766 205.25317383 C53.96603516 204.6215332 54.86322266 203.98989258 55.78759766 203.33911133 C61.50373614 199.27185894 66.8978922 194.99445103 72.06884766 190.25317383 C72.39884766 190.91317383 72.72884766 191.57317383 73.06884766 192.25317383 C73.83763504 190.44296518 73.83763504 190.44296518 74.06884766 188.25317383 C72.97039298 186.35870674 72.97039298 186.35870674 71.19384766 184.62817383 C70.53642578 183.92563477 69.87900391 183.2230957 69.20166016 182.49926758 C68.49783203 181.75805664 67.79400391 181.0168457 67.06884766 180.25317383 C65.7341448 178.73354226 64.40088596 177.21264155 63.06884766 175.69067383 C58.38311142 170.48161654 53.41859329 165.57425333 48.44238281 160.64599609 C44.77232355 156.99861437 41.27157719 153.296827 37.93603516 149.33911133 C35.26617537 146.35646462 32.41443082 143.56729428 29.56884766 140.75317383 C24.03280424 135.27282817 18.77965773 129.68155128 13.94384766 123.56567383 C12.26010488 121.48905774 10.46734422 119.64687552 8.57177734 117.76757812 C5.56859103 114.74146301 2.6700763 111.61507551 -0.24365234 108.50317383 C-0.91082275 107.79233643 -1.57799316 107.08149902 -2.26538086 106.34912109 C-5.6973413 102.68191712 -9.077987 98.98608266 -12.36865234 95.19067383 C-15.39895566 91.73124259 -18.66046188 88.72031551 -22.17724609 85.76098633 C-23.93115234 84.25317383 -23.93115234 84.25317383 -26.24365234 81.81567383 C-27.91473332 79.91346981 -27.91473332 79.91346981 -30.93115234 80.25317383 C-30.93701859 81.49265778 -30.94288483 82.73214172 -30.94892883 84.00918579 C-31.00615005 95.69206375 -31.07890879 107.37475546 -31.16686726 119.05744362 C-31.21158826 125.06359134 -31.25084078 131.06967095 -31.27758789 137.07592773 C-31.30360328 142.87266301 -31.34399372 148.66913644 -31.39433861 154.46570969 C-31.41101916 156.67684039 -31.42252602 158.88801639 -31.42876625 161.0992012 C-31.43839416 164.19719114 -31.46643872 167.29450939 -31.4987793 170.39233398 C-31.49734421 171.30583618 -31.49590912 172.21933838 -31.49443054 173.16052246 C-31.58439049 179.25677239 -32.44252459 183.76454607 -36.93115234 188.25317383 C-44.83214085 189.12602335 -51.61259092 188.23021577 -58.93115234 185.25317383 C-58.52055793 181.96841852 -57.59074057 179.50325752 -56.01708984 176.63989258 C-53.77266713 172.21854101 -52.71420691 167.91784365 -51.80615234 163.06567383 C-51.65017578 162.32381836 -51.49419922 161.58196289 -51.33349609 160.81762695 C-47.76594926 142.55237685 -47.60912686 123.97736338 -47.67041016 105.43798828 C-47.68124262 101.53313047 -47.67039212 97.6287219 -47.65771484 93.72387695 C-47.65903483 91.20890199 -47.66159387 88.69392731 -47.66552734 86.17895508 C-47.66147888 85.02776688 -47.65743042 83.87657867 -47.65325928 82.69050598 C-47.70385332 73.92153154 -48.07541709 65.28911037 -52.86865234 57.69067383 C-53.37267578 56.86438477 -53.87669922 56.0380957 -54.39599609 55.18676758 C-55.86849981 52.97052503 -55.86849981 52.97052503 -58.93115234 52.25317383 C-56.6548228 47.82697749 -54.09502347 45.00290005 -49.93115234 42.25317383 C-44.16052486 41.4155021 -40.71721796 42.43712452 -35.69287109 45.28051758 C-33.78794379 46.4018509 -33.78794379 46.4018509 -30.93115234 47.25317383 C-30.60115234 48.24317383 -30.27115234 49.23317383 -29.93115234 50.25317383 C-28.36867506 51.75978045 -28.36867506 51.75978045 -26.43115234 53.25317383 C-22.07339417 56.93392314 -18.68929115 61.10722858 -15.14990234 65.56176758 C-13.17953649 67.95187687 -11.15593389 70.10343452 -8.93115234 72.25317383 C-5.00350475 76.06415862 -1.62987836 80.21708564 1.79931641 84.47583008 C7.97542623 92.03385776 14.7558168 99.07918404 21.40722656 106.21679688 C24.76936653 109.83136903 28.06247653 113.49152703 31.29150391 117.22583008 C35.46100346 121.98180869 39.77434506 126.61021955 44.06884766 131.25317383 C44.64151367 131.87240723 45.21417969 132.49164063 45.80419922 133.12963867 C51.91636289 139.72991504 58.02475322 146.30772167 64.45556641 152.60083008 C66.06269769 154.24687495 67.50584397 155.9587773 68.94384766 157.75317383 C69.64509766 158.57817383 70.34634766 159.40317383 71.06884766 160.25317383 C71.72884766 160.25317383 72.38884766 160.25317383 73.06884766 160.25317383 C73.90149234 157.32753367 74.21496572 154.67893914 74.27416992 151.64111328 C74.29410004 150.72574799 74.31403015 149.81038269 74.33456421 148.86727905 C74.35129181 147.87700714 74.36801941 146.88673523 74.38525391 145.86645508 C74.41662949 144.30950424 74.41662949 144.30950424 74.44863892 142.72109985 C74.5149461 139.33603453 74.57380142 135.95089874 74.63134766 132.56567383 C74.65186188 131.41801544 74.6723761 130.27035706 74.69351196 129.08792114 C74.8348545 121.14322037 74.95859644 113.19836474 75.06884766 105.25317383 C75.0819397 104.31735474 75.09503174 103.38153564 75.10852051 102.4173584 C75.17212393 97.69081508 75.22178796 92.96456178 75.24508667 88.23764038 C75.25601222 86.25164716 75.27569465 84.26570813 75.2956543 82.27978516 C75.30422682 73.79584659 74.67472295 65.97077419 71.44384766 58.06567383 C69.95854487 54.37107646 69.83824063 51.25036229 70.06884766 47.25317383 C70.49366773 43.33274462 70.49366773 43.33274462 68.40869141 41.24536133 C52.72990868 27.42763737 37.30746423 20.01929939 17.06884766 15.25317383 C15.89358521 14.96627686 15.89358521 14.96627686 14.69458008 14.67358398 C7.87666224 13.13864209 1.23059416 12.86851068 -5.74365234 12.87817383 C-7.46950562 12.87950317 -7.46950562 12.87950317 -9.23022461 12.88085938 C-17.62191806 12.99808008 -24.12876223 14.13911238 -31.93115234 17.25317383 Z " fill="#9B1724" transform="translate(174.93115234375,80.746826171875)"/>
<path d="M0 0 C12.3677066 2.95854942 21.03237859 14.2921676 28.9921875 23.4765625 C30.15867502 24.81005257 31.32533094 26.14339535 32.4921875 27.4765625 C33.05164063 28.11980469 33.61109375 28.76304687 34.1875 29.42578125 C36.22176891 31.73745047 38.2944106 34.0118768 40.3671875 36.2890625 C43.53087825 39.78520889 46.54311083 43.36042331 49.4921875 47.0390625 C53.04697367 51.43609766 56.83118416 55.42131875 60.875 59.3671875 C63.44961729 61.93230435 65.81981727 64.63169622 68.1875 67.38671875 C70.97338217 70.61279442 73.83868036 73.76630292 76.6953125 76.9296875 C78.14774591 78.5402089 79.59619426 80.15434107 81.0390625 81.7734375 C90.23636807 92.07718585 99.61695721 102.25873909 109.48046875 111.9296875 C111.4850333 113.98086984 113.21881461 116.22574306 114.9921875 118.4765625 C115.6521875 118.8065625 116.3121875 119.1365625 116.9921875 119.4765625 C117.77284966 83.33474785 117.77284966 83.33474785 118.16943359 47.18746948 C118.17937728 45.22527779 118.19890935 43.26314197 118.21875 41.30102539 C118.22797064 32.89122989 117.5695849 25.12437985 114.3671875 17.2890625 C112.89146942 13.58853088 112.59941957 10.48279542 112.9921875 6.4765625 C113.6521875 5.4865625 114.3121875 4.4965625 114.9921875 3.4765625 C118.21484375 3.03515625 118.21484375 3.03515625 122.0546875 2.9140625 C124.370482 2.83647751 126.68656417 2.70683335 128.9921875 2.4765625 C129.3221875 1.8165625 129.6521875 1.1565625 129.9921875 0.4765625 C135.1353202 5.48069161 138.55897011 10.24614711 141.7421875 16.6640625 C142.25954468 17.70288574 142.25954468 17.70288574 142.78735352 18.76269531 C154.21162897 42.06560598 154.21162897 42.06560598 153.9921875 53.4765625 C150.0321875 53.4765625 146.0721875 53.4765625 141.9921875 53.4765625 C141.0021875 49.8465625 140.0121875 46.2165625 138.9921875 42.4765625 C138.3321875 42.4765625 137.6721875 42.4765625 136.9921875 42.4765625 C137.00958984 43.51876953 137.00958984 43.51876953 137.02734375 44.58203125 C137.07897512 50.40162435 136.98330063 56.17571129 136.65965271 61.98506165 C135.83574955 76.86598757 135.66862278 91.76030358 135.45996094 106.65936279 C135.40877009 110.26057669 135.35360561 113.86172981 135.29882812 117.46289062 C135.19284152 124.46739484 135.09107666 131.47195417 134.9921875 138.4765625 C136.3121875 138.4765625 137.6321875 138.4765625 138.9921875 138.4765625 C138.9921875 141.4765625 138.9921875 141.4765625 137.7421875 142.7890625 C136.8759375 143.624375 136.8759375 143.624375 135.9921875 144.4765625 C135.2496875 146.054375 135.2496875 146.054375 134.4921875 147.6640625 C131.9921875 150.4765625 131.9921875 150.4765625 129.39453125 150.8984375 C125.32851631 150.91986577 121.86438625 150.76729542 117.9921875 149.4765625 C117.04550628 148.07867909 116.10549318 146.67562782 115.20654297 145.24658203 C112.85847536 141.82408703 109.91204243 138.91151247 107.0546875 135.9140625 C106.39662109 135.21732422 105.73855469 134.52058594 105.06054688 133.80273438 C100.24435062 128.7274536 95.32173581 123.76759609 90.34594727 118.84936523 C87.03711621 115.56621987 83.94090636 112.18605075 80.9296875 108.6328125 C77.69473748 105.03262619 74.21295208 101.67778959 70.77197266 98.27587891 C67.1379505 94.66723253 63.66185841 90.98099067 60.359375 87.0625 C58.99454288 85.42453245 58.99454288 85.42453245 57.3125 83.890625 C55.9921875 82.4765625 55.9921875 82.4765625 55.9921875 80.4765625 C54.5071875 79.9815625 54.5071875 79.9815625 52.9921875 79.4765625 C51.484375 77.98046875 51.484375 77.98046875 49.8671875 76.0390625 C46.42114332 71.97765329 42.88990375 68.00824888 39.31640625 64.05859375 C37.76637865 62.33663032 36.22726237 60.60478241 34.69921875 58.86328125 C30.60426218 54.21857148 26.45091615 49.93291359 21.7109375 45.9453125 C19.9921875 44.4765625 19.9921875 44.4765625 17.6796875 42.1015625 C15.98296009 40.23445279 15.98296009 40.23445279 12.9921875 39.4765625 C12.99884933 40.71604645 13.00551117 41.9555304 13.01237488 43.23257446 C13.07319811 54.91529698 13.11816605 66.59798735 13.14762402 78.28083229 C13.16327777 84.28706081 13.18451107 90.29316147 13.21850586 96.29931641 C13.25110918 102.09592317 13.2690427 107.89240697 13.27681923 113.68909836 C13.28236095 115.90028189 13.29318254 118.11145871 13.30937767 120.32258987 C13.33116449 123.42044859 13.33415385 126.51779962 13.33276367 129.61572266 C13.3435495 130.52922485 13.35433533 131.44272705 13.365448 132.38391113 C13.33629698 138.38987429 12.21440603 142.3389226 8.68359375 147.32421875 C4.62490467 150.08937644 -1.35287067 148.97681077 -6.0078125 148.4765625 C-9.51662103 147.44796508 -12.74732867 146.12520444 -16.0078125 144.4765625 C-15.59376194 141.16415798 -14.63981977 138.64288791 -13.078125 135.73828125 C-10.81434951 131.36512508 -9.78448745 127.10714299 -8.8828125 122.2890625 C-8.64884766 121.1762793 -8.64884766 121.1762793 -8.41015625 120.04101562 C-4.84260942 101.77576552 -4.68578702 83.20075206 -4.74707031 64.66137695 C-4.75790278 60.75651914 -4.74705228 56.85211058 -4.734375 52.94726562 C-4.73569498 50.43229066 -4.73825402 47.91731598 -4.7421875 45.40234375 C-4.73813904 44.25115555 -4.73409058 43.09996735 -4.72991943 41.91389465 C-4.78065499 33.12039384 -5.1376647 24.4993177 -10.0078125 16.9140625 C-10.78125 15.67462891 -10.78125 15.67462891 -11.5703125 14.41015625 C-12.87098895 12.35706599 -12.87098895 12.35706599 -15.0078125 11.4765625 C-14.28039877 6.84570324 -11.74876655 4.80696559 -8.25390625 1.91015625 C-5.34152665 0.05129831 -3.40687571 -0.35792079 0 0 Z " fill="#9A1824" transform="translate(131.0078125,121.5234375)"/>
<path d="M0 0 C2.15941563 1.36060741 3.39289736 2.82038679 5.00390625 4.79296875 C10.97025613 11.38981353 19.61923655 16.91005665 27.86328125 20.140625 C30.31628541 21.12720803 32.59902517 22.32981559 34.9375 23.5625 C47.12240606 29.70218135 59.07805612 30.18074172 72.5 30.1875 C74.42005859 30.20586914 74.42005859 30.20586914 76.37890625 30.22460938 C82.98249316 30.23485279 88.6883048 29.93879427 95 28 C97.0829237 27.5605539 99.16623782 27.12295287 101.25 26.6875 C111.61993416 24.28705228 120.42325465 20.24960796 129 14 C129.92039063 13.35675781 130.84078125 12.71351563 131.7890625 12.05078125 C135.96373548 9.0970032 139.93887399 6.2460036 143.4375 2.5 C147.94794294 -1.90043214 156.80431049 0 163 0 C160.96518989 4.47451829 157.95622593 7.38810773 154.5 10.8125 C153.55060547 11.75343506 153.55060547 11.75343506 152.58203125 12.71337891 C147.7338056 17.43744867 142.8109104 21.49788882 137 25 C135.88625 25.67675781 134.7725 26.35351562 133.625 27.05078125 C116.90232772 37 116.90232772 37 111 37 C111 37.66 111 38.32 111 39 C87.60932152 47.95150757 52.48307788 46.90859934 29.66796875 36.796875 C18.99257879 31.68561021 7.91680395 25.87776959 -1 18 C-1 17.34 -1 16.68 -1 16 C-1.58652344 15.73960937 -2.17304687 15.47921875 -2.77734375 15.2109375 C-7.63182567 12.56614067 -12.06590952 7.66002606 -15 3 C-15 2.34 -15 1.68 -15 1 C-10.49463405 -1.25268298 -4.86479398 -0.6932919 0 0 Z " fill="#0A0A0A" transform="translate(99,271)"/>
<path d="M0 0 C13.00791531 0.10321121 24.71883194 2.067231 37.06884766 6.25317383 C37.06884766 6.91317383 37.06884766 7.57317383 37.06884766 8.25317383 C37.83970703 8.45813477 38.61056641 8.6630957 39.40478516 8.87426758 C40.40767578 9.14368164 41.41056641 9.4130957 42.44384766 9.69067383 C43.44158203 9.95750977 44.43931641 10.2243457 45.46728516 10.49926758 C48.06884766 11.25317383 48.06884766 11.25317383 50.06884766 12.25317383 C50.06884766 12.91317383 50.06884766 13.57317383 50.06884766 14.25317383 C50.91962891 14.48907227 51.77041016 14.7249707 52.64697266 14.96801758 C56.48191094 16.40830833 59.54712116 18.41032787 62.81884766 20.81567383 C63.42720459 21.2567749 64.03556152 21.69787598 64.66235352 22.15234375 C70.12277478 26.17312757 75.16415403 30.57142083 80.06884766 35.25317383 C80.62572266 35.75848633 81.18259766 36.26379883 81.75634766 36.78442383 C84.33333749 39.1857098 85.37361905 40.83436925 86.06884766 44.25317383 C84.00881055 44.50351509 81.945573 44.72760728 79.88134766 44.94067383 C78.73279297 45.06829102 77.58423828 45.1959082 76.40087891 45.32739258 C70.32465167 45.19204871 66.86659921 41.34178838 62.44384766 37.50317383 C48.59166786 25.73795548 34.5185328 20.3625155 17.06884766 16.25317383 C16.28533936 16.06190918 15.50183105 15.87064453 14.69458008 15.67358398 C7.87666224 14.13864209 1.23059416 13.86851068 -5.74365234 13.87817383 C-7.46950562 13.87950317 -7.46950562 13.87950317 -9.23022461 13.88085938 C-17.62191806 13.99808008 -24.12876223 15.13911238 -31.93115234 18.25317383 C-33.71857843 18.68767187 -35.51041609 19.10441092 -37.30615234 19.50317383 C-47.97917216 22.38566823 -57.65218302 28.42492974 -65.88037109 35.68676758 C-67.9907111 37.29866538 -69.3168568 37.92368617 -71.93115234 38.25317383 C-75.46726226 37.39070799 -76.65279858 36.65630686 -78.74365234 33.62817383 C-79.13552734 32.84442383 -79.52740234 32.06067383 -79.93115234 31.25317383 C-79.41166016 30.80586914 -78.89216797 30.35856445 -78.35693359 29.89770508 C-75.29326212 27.24176807 -72.2902781 24.63071629 -69.49365234 21.69067383 C-64.9221764 17.34219671 -60.38921598 13.25317383 -53.93115234 13.25317383 C-53.93115234 12.59317383 -53.93115234 11.93317383 -53.93115234 11.25317383 C-52.61115234 11.25317383 -51.29115234 11.25317383 -49.93115234 11.25317383 C-49.93115234 10.59317383 -49.93115234 9.93317383 -49.93115234 9.25317383 C-40.27709953 5.17074192 -31.42901109 2.50041664 -20.96630859 1.57739258 C-6.24761578 0.00512552 -6.24761578 0.00512552 0 0 Z " fill="#0B0B0B" transform="translate(174.93115234375,80.746826171875)"/>
<path d="M0 0 C8.58 0 17.16 0 26 0 C26 0.66 26 1.32 26 2 C27.0209375 2.061875 27.0209375 2.061875 28.0625 2.125 C32.2271256 3.36552678 34.97626254 5.93562091 38 9 C40.12544229 13.25088458 39.66543949 18.79834593 38.31640625 23.26171875 C36.10645923 28.07591869 33.33176908 30.98659542 29 34 C28.34 34 27.68 34 27 34 C31.28145323 39.2447802 35.82442331 43.64893936 41 48 C42.3340927 49.14494912 43.66747788 50.29072339 45 51.4375 C45.99 52.283125 46.98 53.12875 48 54 C47.125 58.875 47.125 58.875 46 60 C43.28515625 60.38671875 43.28515625 60.38671875 40 60 C37.86571538 58.30974131 36.23086213 56.80540885 34.4375 54.8125 C33.98181641 54.32974609 33.52613281 53.84699219 33.05664062 53.34960938 C31.69598323 51.90766093 30.34791613 50.45386587 29 49 C21.40965621 40.96700631 21.40965621 40.96700631 11.1875 37.875 C10.465625 37.91625 9.74375 37.9575 9 38 C8.88955039 44.73742646 9.29867087 51.29980211 10 58 C7.01787087 59.49106457 4.28390342 59.11941467 1 59 C0 58 0 58 -0.12025452 55.67784119 C-0.11803391 54.64969803 -0.11581329 53.62155487 -0.11352539 52.56225586 C-0.11344986 51.40112778 -0.11337433 50.23999969 -0.11329651 49.04368591 C-0.10813522 47.780168 -0.10297394 46.51665009 -0.09765625 45.21484375 C-0.0962413 43.92888809 -0.09482635 42.64293243 -0.09336853 41.31800842 C-0.08954418 37.89356557 -0.07971462 34.46916491 -0.06866455 31.04473877 C-0.05844864 27.55261822 -0.05381582 24.06049067 -0.04882812 20.56835938 C-0.03862247 13.71220228 -0.01905077 6.85616115 0 0 Z " fill="#242528" transform="translate(270,202)"/>
<path d="M0 0 C0.99 0 1.98 0 3 0 C3.40373163 3.66242262 3.72016806 7.32607739 4 11 C4.07992187 11.92554688 4.15984375 12.85109375 4.2421875 13.8046875 C4.58060118 20.99100152 3.11853153 27.02158933 0.86669922 33.77392578 C-5.85515163 54.18249536 -3.280432 79.02159264 4.06835938 98.88818359 C5.03750533 102.1252733 5.23003468 104.6866364 5.1953125 108.0546875 C5.18886719 109.16328125 5.18242188 110.271875 5.17578125 111.4140625 C5.15902344 112.55617188 5.14226562 113.69828125 5.125 114.875 C5.11597656 116.0403125 5.10695313 117.205625 5.09765625 118.40625 C5.07417432 121.27104577 5.04133141 124.13541535 5 127 C0.4003956 122.95915036 -1.96501956 118.71932642 -4.5 113.1875 C-5.08309937 111.93151001 -5.08309937 111.93151001 -5.67797852 110.65014648 C-18.05592223 83.34943031 -19.66365061 53.69985095 -11 25 C-10.68772461 23.95271729 -10.68772461 23.95271729 -10.36914062 22.88427734 C-7.86308068 14.71930696 -4.35474492 7.332732 0 0 Z " fill="#0A0808" transform="translate(73,137)"/>
<path d="M0 0 C4.39656173 -0.02465504 8.7930872 -0.04283842 13.18969727 -0.05493164 C14.68644918 -0.05997121 16.18319616 -0.06680287 17.67993164 -0.07543945 C19.82699807 -0.08752159 21.97399962 -0.09323191 24.12109375 -0.09765625 C26.06133423 -0.10551147 26.06133423 -0.10551147 28.04077148 -0.11352539 C31 0 31 0 32 1 C32.04092937 3.33297433 32.04241723 5.66705225 32 8 C31.27296875 7.93941406 30.5459375 7.87882813 29.796875 7.81640625 C28.28867187 7.69072266 28.28867187 7.69072266 26.75 7.5625 C23.34375 7.27864583 19.9375 6.99479167 16.53125 6.7109375 C15.4484375 6.62070313 14.365625 6.53046875 13.25 6.4375 C11.5175 6.293125 9.785 6.14875 8 6 C8 11.61 8 17.22 8 23 C14.6 23 21.2 23 28 23 C28.33 24.65 28.66 26.3 29 28 C28 29 28 29 26.05053711 29.11352539 C25.2178833 29.10828857 24.38522949 29.10305176 23.52734375 29.09765625 C22.71773193 29.09515869 21.90812012 29.09266113 21.07397461 29.09008789 C20.03893799 29.08098389 19.00390137 29.07187988 17.9375 29.0625 C14.658125 29.041875 11.37875 29.02125 8 29 C7.67 35.6 7.34 42.2 7 49 C14.26 48.67 21.52 48.34 29 48 C29.33 49.65 29.66 51.3 30 53 C29 54 29 54 26.13256836 54.11352539 C24.88096924 54.10828857 23.62937012 54.10305176 22.33984375 54.09765625 C21.34314415 54.09553383 21.34314415 54.09553383 20.3263092 54.09336853 C18.19666101 54.08775518 16.06711661 54.07520054 13.9375 54.0625 C12.49674631 54.05748671 11.05599097 54.05292351 9.61523438 54.04882812 C6.07678898 54.03778145 2.53840461 54.02050792 -1 54 C-1.07073842 41.8025348 -0.8588315 29.62934197 -0.5 17.4375 C-0.45160383 15.73242808 -0.40342578 14.02734995 -0.35546875 12.32226562 C-0.23947964 8.21476825 -0.1205879 4.10736482 0 0 Z " fill="#26272B" transform="translate(332,208)"/>
<path d="M0 0 C8.58 0 17.16 0 26 0 C26 0.66 26 1.32 26 2 C26.70125 2.061875 27.4025 2.12375 28.125 2.1875 C32.03098649 3.29136575 34.14717827 5.14717827 37 8 C38.42807556 11.87620508 38.08042322 15.89841564 38 20 C37.071875 19.4740625 37.071875 19.4740625 36.125 18.9375 C35.42375 18.628125 34.7225 18.31875 34 18 C33.01 18.495 33.01 18.495 32 19 C31.6596875 17.329375 31.6596875 17.329375 31.3125 15.625 C30.40623447 11.93081242 30.40623447 11.93081242 27.8125 10.6875 C26.884375 10.460625 25.95625 10.23375 25 10 C23.3603125 9.4740625 23.3603125 9.4740625 21.6875 8.9375 C17.32695669 7.74756631 17.32695669 7.74756631 10 7 C9.67 14.92 9.34 22.84 9 31 C11.31 31 13.62 31 16 31 C15.34 32.32 14.68 33.64 14 35 C12.35 35 10.7 35 9 35 C8.87847513 42.73708326 9.15199233 50.307359 10 58 C7.01787087 59.49106457 4.28390342 59.11941467 1 59 C0 58 0 58 -0.12025452 55.67784119 C-0.11803391 54.64969803 -0.11581329 53.62155487 -0.11352539 52.56225586 C-0.11344986 51.40112778 -0.11337433 50.23999969 -0.11329651 49.04368591 C-0.10813522 47.780168 -0.10297394 46.51665009 -0.09765625 45.21484375 C-0.0962413 43.92888809 -0.09482635 42.64293243 -0.09336853 41.31800842 C-0.08954418 37.89356557 -0.07971462 34.46916491 -0.06866455 31.04473877 C-0.05844864 27.55261822 -0.05381582 24.06049067 -0.04882812 20.56835938 C-0.03862247 13.71220228 -0.01905077 6.85616115 0 0 Z " fill="#1D1E22" transform="translate(270,202)"/>
<path d="M0 0 C6.0546875 -0.1953125 6.0546875 -0.1953125 8 0 C10 2 10 2 10.24050903 4.10073853 C10.23606781 4.96677704 10.23162659 5.83281555 10.22705078 6.72509766 C10.22682419 8.19639633 10.22682419 8.19639633 10.22659302 9.69741821 C10.21627045 10.75891083 10.20594788 11.82040344 10.1953125 12.9140625 C10.1924826 13.99883881 10.18965271 15.08361511 10.18673706 16.20126343 C10.17551578 19.67595313 10.15040762 23.15038782 10.125 26.625 C10.11497272 28.97655879 10.10584643 31.3281216 10.09765625 33.6796875 C10.07557007 39.4532237 10.0410269 45.22656857 10 51 C16.93 51 23.86 51 31 51 C31 52.65 31 54.3 31 56 C24.46313616 56.98831156 18.10422885 57.11883529 11.5 57.0625 C10.48679687 57.05798828 9.47359375 57.05347656 8.4296875 57.04882812 C5.95306173 57.03714593 3.47656343 57.02076582 1 57 C-0.28566729 54.42866541 -0.12009778 52.602829 -0.11352539 49.72412109 C-0.11344986 48.6231308 -0.11337433 47.5221405 -0.11329651 46.38778687 C-0.10813522 45.19505157 -0.10297394 44.00231628 -0.09765625 42.7734375 C-0.0962413 41.55548492 -0.09482635 40.33753235 -0.09336853 39.08267212 C-0.08775639 35.1800901 -0.07520179 31.27756477 -0.0625 27.375 C-0.05748657 24.73437583 -0.05292339 22.09375076 -0.04882812 19.453125 C-0.03778301 12.96873055 -0.02103302 6.48436932 0 0 Z " fill="#212226" transform="translate(379,207)"/>
<path d="M0 0 C3.99955885 0.81479288 5.62050366 2.32951081 8.4375 5.3125 C10.77457714 7.73726519 12.97506623 9.98040918 15.625 12.0625 C18.5098787 14.41595367 20.76659437 17.10005964 23.1796875 19.92578125 C24.88594825 21.87003974 26.65296485 23.69023686 28.5 25.5 C31.53515393 28.48794042 34.34279376 31.6167075 37.125 34.83984375 C39.94127547 38.08442778 42.82500307 41.2669632 45.70703125 44.453125 C47.15229891 46.05843082 48.58853508 47.6719585 50.01171875 49.296875 C55.47354116 55.49734387 61.25881173 61.32910607 67.15258789 67.11572266 C70.39188061 70.3130815 73.52095192 73.54286075 76.4921875 76.9921875 C80.12520787 81.20895768 84.02821082 85.10429874 88 89 C100.5202952 101.2804428 100.5202952 101.2804428 105 108 C104.625 110.1875 104.625 110.1875 104 112 C103.443125 111.278125 102.88625 110.55625 102.3125 109.8125 C100.08293955 107.00809166 100.08293955 107.00809166 97.6875 104.6875 C94.8781982 101.8781982 92.30428934 98.93248393 89.7109375 95.92578125 C88.2378362 94.26770147 86.72638071 92.71945669 85.125 91.1875 C83 89 83 89 82 86 C80.515 85.505 80.515 85.505 79 85 C77.82881746 83.59458095 76.66217909 82.18492858 75.52734375 80.75 C73.22356151 78.11037227 70.55994578 75.9426788 67.8671875 73.7109375 C65.93407394 71.93959077 64.43913385 70.18998629 63 68 C63 67.34 63 66.68 63 66 C62.13375 65.62875 62.13375 65.62875 61.25 65.25 C58.67060021 63.81700012 56.93878408 62.21575324 55 60 C55 59.34 55 58.68 55 58 C54.4225 57.773125 53.845 57.54625 53.25 57.3125 C50.41027692 55.65599487 49.04775464 53.57432012 47 51 C45.85024353 50.00103126 44.68218776 49.02287002 43.5 48.0625 C40.2195626 45.35104639 38.25236117 42.58709372 36 39 C35.01 38.505 35.01 38.505 34 38 C34 37.34 34 36.68 34 36 C33.401875 35.773125 32.80375 35.54625 32.1875 35.3125 C29.39155078 33.63493047 28.57990273 31.83065906 27 29 C24.0861718 24.8990566 20.61286039 21.79132083 16.8046875 18.55078125 C15 17 15 17 13 15 C13 14.01 13 13.02 13 12 C12.2575 11.7525 11.515 11.505 10.75 11.25 C7.78209456 9.90095207 6.24467077 8.31949313 4 6 C3.01 5.67 2.02 5.34 1 5 C1.00666183 6.18493042 1.01332367 7.36986084 1.02018738 8.59069824 C1.08107459 19.77244721 1.12600924 30.95416243 1.15543652 42.13603973 C1.17107409 47.88438339 1.19227773 53.63259291 1.22631836 59.38085938 C1.25897953 64.93108941 1.27686737 70.48119065 1.28463173 76.0315094 C1.29016308 78.14614387 1.30096445 80.2607715 1.31719017 82.37535095 C1.33905403 85.34348637 1.34196315 88.31109353 1.34057617 91.27929688 C1.351362 92.14820557 1.36214783 93.01711426 1.3732605 93.91235352 C1.33833523 100.8462336 -0.09260346 106.13890519 -4 112 C-11.02163931 114.51719145 -17.66009371 113.15402004 -24.25 110.16796875 C-26 109 -26 109 -27 106 C-25.948125 106.33 -24.89625 106.66 -23.8125 107 C-18.06842883 108.40775984 -11.82831589 109.102446 -6 108 C-2.27869431 104.25996291 -0.88754636 101.05349273 -0.84178162 95.84284973 C-0.8319928 94.99731033 -0.82220398 94.15177094 -0.81211853 93.28060913 C-0.80636307 92.35632111 -0.8006076 91.43203308 -0.79467773 90.47973633 C-0.78477814 89.50394119 -0.77487854 88.52814606 -0.76467896 87.52278137 C-0.73305329 84.29255614 -0.70830223 81.06231619 -0.68359375 77.83203125 C-0.66302515 75.59429031 -0.6420287 73.35655326 -0.62062073 71.11882019 C-0.56539037 65.22518057 -0.5159853 59.33150583 -0.46777344 53.43780518 C-0.41756549 47.42530181 -0.36187573 41.41284953 -0.30664062 35.40039062 C-0.19904724 23.60030404 -0.09760485 11.80017313 0 0 Z " fill="#B89998" transform="translate(144,161)"/>
<path d="M0 0 C0.66 0 1.32 0 2 0 C2.80019807 10.17381727 3.13833128 20.25627693 3.09765625 30.46484375 C3.09578396 31.87830047 3.09436391 33.29175785 3.09336853 34.70521545 C3.0896071 38.36947521 3.07983388 42.03369335 3.06866455 45.69793701 C3.05831079 49.45942624 3.05384145 53.22092241 3.04882812 56.98242188 C3.03820372 64.32163326 3.02120722 71.66081073 3 79 C1 78 1 78 -0.21875 74.53515625 C-0.65396227 73.04662349 -1.0806659 71.55558353 -1.5 70.0625 C-1.71269531 69.33998047 -1.92539063 68.61746094 -2.14453125 67.87304688 C-5.02307528 57.86878187 -6.33824841 48.6205927 -6.25 38.1875 C-6.24323242 37.03620605 -6.23646484 35.88491211 -6.22949219 34.69873047 C-6.07845286 22.30823666 -4.33485724 11.67886294 0 0 Z " fill="#D2CECF" transform="translate(76,161)"/>
<path d="M0 0 C0.66 0.33 1.32 0.66 2 1 C-0.97 3.97 -3.94 6.94 -7 10 C-3.83922605 14.21436527 -2.8270487 14.71278701 2 16 C1.67 16.66 1.34 17.32 1 18 C0.89976303 19.4283275 0.86061837 20.86118007 0.85282898 22.29299927 C0.84567368 23.19503586 0.83851837 24.09707245 0.83114624 25.02644348 C0.82845734 26.01947983 0.82576843 27.01251617 0.82299805 28.03564453 C0.81642685 29.08003189 0.80985565 30.12441925 0.80308533 31.20045471 C0.7832881 34.67790805 0.77166378 38.15531766 0.76171875 41.6328125 C0.75764322 42.82563717 0.7535677 44.01846184 0.74936867 45.24743271 C0.72846197 51.5838987 0.71419084 57.92034287 0.70483398 64.25683594 C0.69387349 70.7429369 0.65960905 77.22868482 0.61966228 83.71466255 C0.59322697 88.74598735 0.58511765 93.77723236 0.58155251 98.80862045 C0.57674069 101.19472461 0.56528559 103.58082655 0.54651451 105.96686172 C0.33123357 132.18532456 0.33123357 132.18532456 6.69755554 157.42752075 C8.28242838 161.77467375 8.28242838 161.77467375 7 165 C4.49609375 166.265625 4.49609375 166.265625 1.4375 167.25 C0.42558594 167.58515625 -0.58632812 167.9203125 -1.62890625 168.265625 C-2.80259766 168.62914062 -2.80259766 168.62914062 -4 169 C-4 168.34 -4 167.68 -4 167 C-4.66 166.67 -5.32 166.34 -6 166 C-3.36 165.67 -0.72 165.34 2 165 C2 160.38 2 155.76 2 151 C1.34 151 0.68 151 0 151 C0 145.72 0 140.44 0 135 C-0.66 135 -1.32 135 -2 135 C-2.00423194 134.41616169 -2.00846388 133.83232338 -2.01282406 133.230793 C-2.11612124 119.02581208 -2.22475763 104.82088039 -2.33933926 90.61598587 C-2.39462121 83.74661192 -2.44809492 76.87723278 -2.49731445 70.0078125 C-2.54479894 63.38125597 -2.59731896 56.7547518 -2.65294075 50.12825775 C-2.67335645 47.59727015 -2.69207083 45.06626826 -2.70907402 42.53525543 C-2.73313523 38.9964327 -2.76318775 35.45770864 -2.79467773 31.91894531 C-2.8004332 30.86734222 -2.80618866 29.81573914 -2.81211853 28.73226929 C-2.82190735 27.76755707 -2.83169617 26.80284485 -2.84178162 25.80889893 C-2.84823417 24.9719109 -2.85468672 24.13492287 -2.8613348 23.27257156 C-3.0630633 19.96646122 -3.32240473 17.7355802 -5.59765625 15.265625 C-8.96382236 13.49223017 -11.65447001 13.67501427 -15.4375 13.75 C-16.73558594 13.76546875 -18.03367187 13.7809375 -19.37109375 13.796875 C-22.37380908 13.96494949 -25.08381806 14.30326289 -28 15 C-27.65775391 16.66289063 -27.65775391 16.66289063 -27.30859375 18.359375 C-27.01777949 19.82282738 -26.72743973 21.28637411 -26.4375 22.75 C-26.28603516 23.47960937 -26.13457031 24.20921875 -25.97851562 24.9609375 C-25.25442822 28.66557073 -24.90182769 31.39322322 -26 35 C-29 33 -29 33 -29.625 30.125 C-29.75836255 28.75078589 -29.88182104 27.37560304 -30 26 C-30.12632813 25.00226563 -30.25265625 24.00453125 -30.3828125 22.9765625 C-30.50398438 21.91179687 -30.62515625 20.84703125 -30.75 19.75 C-30.86859375 18.73421875 -30.9871875 17.7184375 -31.109375 16.671875 C-31 14 -31 14 -29.9765625 12.171875 C-26.93505665 10.36861066 -24.12591693 10.58253635 -20.625 10.5 C-12.93955489 10.31809597 -9.30306277 8.35698859 -3.6875 3.3125 C-2.99011719 2.68988281 -2.29273437 2.06726563 -1.57421875 1.42578125 C-1.05472656 0.95527344 -0.53523438 0.48476562 0 0 Z " fill="#8A2936" transform="translate(103,103)"/>
<path d="M0 0 C2.05078125 0.03255208 4.1015625 0.06510417 6.15234375 0.09765625 C6.18191051 3.22263562 6.19932918 6.34757802 6.21484375 9.47265625 C6.22322266 10.34277344 6.23160156 11.21289062 6.24023438 12.109375 C6.25623446 16.4293987 6.14264245 20.647486 5.65234375 24.94140625 C4.97584353 31.03411008 5.04356361 37.09943723 5.08984375 43.22265625 C5.09435547 44.36992187 5.09886719 45.5171875 5.10351562 46.69921875 C5.11518036 49.49875438 5.13154761 52.29817611 5.15234375 55.09765625 C2.17021462 56.58872082 -0.56375283 56.21707092 -3.84765625 56.09765625 C-5.42792096 54.51739154 -5.01802141 52.98869658 -5.03515625 50.78515625 C-5.00059888 45.4149413 -4.45175218 40.17477904 -3.84765625 34.84765625 C-2.84831867 25.99175173 -2.69192917 17.255494 -2.83398438 8.34863281 C-2.84751953 7.41631836 -2.86105469 6.48400391 -2.875 5.5234375 C-2.89296631 4.69239502 -2.91093262 3.86135254 -2.92944336 3.00512695 C-2.8197396 0.44657327 -2.55892566 0.13524977 0 0 Z " fill="#0B0B0B" transform="translate(433.84765625,206.90234375)"/>
<path d="M0 0 C7.47966105 -0.26244425 13.7053102 0.55668955 20 5 C21.61469808 8.22939616 21.57863559 11.5080015 21 15 C17.84395374 19.33956361 13.17910923 22.52378893 8 24 C4.99434721 24.1363269 2.00640901 24.09803508 -1 24 C-1.02893932 20.37501666 -1.04677792 16.75006287 -1.0625 13.125 C-1.07087891 12.09246094 -1.07925781 11.05992187 -1.08789062 9.99609375 C-1.09111328 9.00996094 -1.09433594 8.02382812 -1.09765625 7.0078125 C-1.10289307 6.09660645 -1.10812988 5.18540039 -1.11352539 4.24658203 C-1 2 -1 2 0 0 Z " fill="#CBCCCF" transform="translate(280,209)"/>
<path d="M0 0 C0.66 0 1.32 0 2 0 C2.01030746 1.25565765 2.02061493 2.51131531 2.03123474 3.80502319 C2.12917277 15.66316746 2.23192522 27.52126164 2.33933926 39.37932396 C2.39440277 45.47503305 2.44779538 51.57074706 2.49731445 57.66650391 C2.54520354 63.55393045 2.59755355 69.44130226 2.65294075 75.32866287 C2.67325362 77.56999974 2.69198415 79.81135154 2.70907402 82.0527153 C2.73336489 85.20235312 2.76338319 88.35188987 2.79467773 91.50146484 C2.8004332 92.41928741 2.80618866 93.33710999 2.81211853 94.28274536 C2.87070812 99.50192027 3.18847274 104.62171239 3.77893162 109.80851173 C4.09270316 112.91898206 4.09573296 116.00110148 4.0625 119.125 C4.05347656 120.24132812 4.04445313 121.35765625 4.03515625 122.5078125 C4.02355469 123.33023438 4.01195313 124.15265625 4 125 C4.66 125 5.32 125 6 125 C6.6364245 129.05720617 7 132.90202592 7 137 C7.29044914 138.34332728 7.60955794 139.68225804 8 141 C9.32 140.67 10.64 140.34 12 140 C12.495 138.02 12.495 138.02 13 136 C13.66 136 14.32 136 15 136 C15.12375 134.865625 15.2475 133.73125 15.375 132.5625 C15.58125 131.386875 15.7875 130.21125 16 129 C16.66 128.67 17.32 128.34 18 128 C17.6154927 131.84507302 16.73505527 134.66472848 14.875 138 C12.91294524 141.67003049 12.77639251 143.92130836 14 148 C13.443125 147.814375 12.88625 147.62875 12.3125 147.4375 C9.600867 146.92448835 7.65628961 147.3359276 5 148 C5.99 147.01 5.99 147.01 7 146 C6.73625543 142.39549086 5.75352463 139.22101765 4.55354309 135.84283447 C-0.94854338 119.43840474 -0.4090778 101.84553251 -0.29296875 84.765625 C-0.28735795 82.305565 -0.28309489 79.84550159 -0.28010559 77.38543701 C-0.26877356 70.98063535 -0.23940958 64.5760451 -0.20599365 58.17132568 C-0.17503862 51.60773578 -0.16154646 45.04411096 -0.14648438 38.48046875 C-0.11452631 25.65355681 -0.06406993 12.82678977 0 0 Z " fill="#E2C0C4" transform="translate(103,121)"/>
<path d="M0 0 C3 1 3 1 4.68359375 3.95703125 C5.28125912 5.2361799 5.86511642 6.5218404 6.4375 7.8125 C6.74244385 8.48667969 7.0473877 9.16085938 7.36157227 9.85546875 C14.76978949 26.5323156 14.76978949 26.5323156 14 35 C10.04 35 6.08 35 2 35 C-2.9454005 23.91031402 -2.650489 12.92819346 -1 1 C-0.67 0.67 -0.34 0.34 0 0 Z " fill="#0C0B0B" transform="translate(271,140)"/>
<path d="M0 0 C0.66 0 1.32 0 2 0 C2.50367757 1.45706726 3.00282556 2.91570096 3.5 4.375 C3.91765625 5.59316406 3.91765625 5.59316406 4.34375 6.8359375 C5 9 5 9 5 11 C4.01 11 3.02 11 2 11 C1.42818123 22.18088199 0.99611244 33.35827567 0.74609375 44.55078125 C0.72535294 45.46951523 0.70461212 46.38824921 0.6832428 47.33482361 C0.5793732 51.99645764 0.48233505 56.65813721 0.39282227 61.32006836 C0.35574969 63.06233976 0.31856388 64.80460875 0.28125 66.546875 C0.26770981 67.35534378 0.25416962 68.16381256 0.24021912 68.9967804 C0.1675619 72.23700377 0.03150157 74.9054953 -1 78 C-0.34 78 0.32 78 1 78 C1 64.8 1 51.6 1 38 C1.33 38 1.66 38 2 38 C3.30884438 42.98257689 3.14389713 47.93941777 3.1328125 53.05078125 C3.13376923 54.02355515 3.13472595 54.99632904 3.13571167 55.99858093 C3.13639105 58.05366073 3.13455364 60.1087427 3.13037109 62.16381836 C3.12503684 65.29090264 3.13031534 68.41784215 3.13671875 71.54492188 C3.13605759 73.54687531 3.13477563 75.54882866 3.1328125 77.55078125 C3.13483673 78.47812576 3.13686096 79.40547028 3.13894653 80.36091614 C3.12003809 85.66479502 2.77111329 90.75114594 2 96 C0.68 96 -0.64 96 -2 96 C-2.06095849 86.37505525 -2.1018651 76.75010316 -2.125 67.125 C-2.12671204 66.41771507 -2.12842407 65.71043015 -2.13018799 64.98171234 C-2.17666485 43.26439249 -1.8599046 21.65107026 0 0 Z " fill="#E5C0C4" transform="translate(268,164)"/>
<path d="M0 0 C2 1 2 1 2.81640625 3.3984375 C3.06261719 4.38070312 3.30882813 5.36296875 3.5625 6.375 C4.3054379 9.29285972 5.04749464 12.14248391 6 15 C6.09605169 16.43591966 6.13808623 17.87583068 6.14526367 19.31494141 C6.15155792 20.19030548 6.15785217 21.06566956 6.16433716 21.96755981 C6.16553558 22.9192807 6.16673401 23.87100159 6.16796875 24.8515625 C6.17206757 25.84686981 6.17616638 26.84217712 6.1803894 27.86764526 C6.1900003 31.12013134 6.18991027 34.3725017 6.1875 37.625 C6.18789276 38.72481201 6.18828552 39.82462402 6.18869019 40.95776367 C6.18259924 55.16237009 5.96315835 69.32211773 5.0625 83.5 C5.01902435 84.19845032 4.97554871 84.89690063 4.93075562 85.61651611 C4.21460538 96.78539462 4.21460538 96.78539462 3 98 C2.60056824 100.52195967 2.24920152 103.02963656 1.9375 105.5625 C1.84662109 106.27341797 1.75574219 106.98433594 1.66210938 107.71679688 C1.43760497 109.47738403 1.21831603 111.23863478 1 113 C0.34 113 -0.32 113 -1 113 C-0.87882812 112.08863281 -0.75765625 111.17726563 -0.6328125 110.23828125 C-0.06238179 105.82841303 0.47244098 101.41516334 1 97 C1.09052643 96.25964005 1.18105286 95.51928009 1.27432251 94.75648499 C3.04607649 79.89893958 3.31016716 65.13681909 3.26074219 50.18481445 C3.24990972 46.27995664 3.26076022 42.37554808 3.2734375 38.47070312 C3.27211752 35.95572816 3.26955848 33.44075348 3.265625 30.92578125 C3.26967346 29.77459305 3.27372192 28.62340485 3.27789307 27.43733215 C3.22314999 17.94924705 2.11135677 9.59647324 -2 1 C-1.34 0.67 -0.68 0.34 0 0 Z " fill="#8A2833" transform="translate(123,136)"/>
<path d="M0 0 C0.33 0 0.66 0 1 0 C2.28512574 6.89480157 2.14941424 13.75510547 2.125 20.75 C2.12378143 21.43299164 2.12256287 22.11598328 2.12130737 22.81967163 C2.09108796 37.65233221 1.83211082 52.48260256 1.5625 67.3125 C1.5429425 68.45738892 1.52338501 69.60227783 1.50323486 70.78186035 C1.44603712 74.05912069 1.38229438 77.33618541 1.31640625 80.61328125 C1.29968369 81.60356827 1.28296112 82.59385529 1.26573181 83.614151 C1.23582909 84.98717628 1.23582909 84.98717628 1.20532227 86.38793945 C1.18977798 87.18553177 1.1742337 87.98312408 1.15821838 88.80488586 C1.00166454 90.9769063 0.59502056 92.90929303 0 95 C-4.14925204 93.41092475 -6.68408194 90.36467701 -9.5625 87.125 C-10.04396484 86.59519531 -10.52542969 86.06539063 -11.02148438 85.51953125 C-13.49459315 82.77768026 -15.84727835 80.00076351 -18 77 C-16.515 76.505 -16.515 76.505 -15 76 C-14.67 77.32 -14.34 78.64 -14 80 C-13.34 80 -12.68 80 -12 80 C-12 80.66 -12 81.32 -12 82 C-11.34 82 -10.68 82 -10 82 C-10 82.66 -10 83.32 -10 84 C-7.36 84.66 -4.72 85.32 -2 86 C-1.97494385 85.36312256 -1.9498877 84.72624512 -1.92407227 84.07006836 C-1.84801981 82.14150903 -1.77165513 80.21296201 -1.69506836 78.28442383 C-1.60516937 76.01476407 -1.51616831 73.74506861 -1.42797852 71.4753418 C-1.21906154 66.16650087 -1.00203096 60.85971723 -0.7109375 55.5546875 C0.27413771 37.0456427 0.09414292 18.52877535 0 0 Z " fill="#DBB0B7" transform="translate(248,146)"/>
<path d="M0 0 C3.42487575 5.13731362 3.12776436 10.50460904 3.14526367 16.54321289 C3.15030159 17.63974182 3.15030159 17.63974182 3.15544128 18.75842285 C3.16489936 21.16318488 3.16689226 23.5678768 3.16796875 25.97265625 C3.1711865 27.65929695 3.17455096 29.34593738 3.17805481 31.03257751 C3.1840344 34.56721645 3.18589607 38.10183098 3.18530273 41.63647461 C3.18520155 46.13255045 3.19881376 50.62846683 3.21607494 55.12450504 C3.22728119 58.61041459 3.22921926 62.09628675 3.22869301 65.58221245 C3.22986171 67.23775211 3.23421999 68.8932931 3.24202538 70.54881477 C3.28348446 80.25603818 2.85442575 89.43686723 1 99 C0.34 99 -0.32 99 -1 99 C-0.67 66.33 -0.34 33.66 0 0 Z " fill="#DCC6C6" transform="translate(145,166)"/>
<path d="M0 0 C0.33 0 0.66 0 1 0 C1.00364563 0.83619873 1.00729126 1.67239746 1.01104736 2.53393555 C1.04939403 10.53226524 1.10675529 18.53020629 1.18390274 26.52825928 C1.22290805 30.63717928 1.25532011 34.74589999 1.27099609 38.85498047 C0.74143497 69.68712961 0.74143497 69.68712961 7.69628906 99.38671875 C9.28180199 103.78102425 9.28180199 103.78102425 8 107 C5.49609375 108.265625 5.49609375 108.265625 2.4375 109.25 C0.91962891 109.75273437 0.91962891 109.75273437 -0.62890625 110.265625 C-1.41136719 110.50796875 -2.19382812 110.7503125 -3 111 C-3 110.34 -3 109.68 -3 109 C-3.66 108.67 -4.32 108.34 -5 108 C-2.36 107.67 0.28 107.34 3 107 C3 102.38 3 97.76 3 93 C2.34 93 1.68 93 1 93 C-0.22726324 74.40011298 -0.11971174 55.81104323 -0.06866455 37.18157959 C-0.05827264 32.97717806 -0.0538336 28.77277016 -0.04882812 24.56835938 C-0.03823388 16.37888924 -0.02126003 8.18944938 0 0 Z " fill="#9B4853" transform="translate(102,161)"/>
<path d="M0 0 C0.99 0.33 1.98 0.66 3 1 C2.34 1 1.68 1 1 1 C1.01160156 1.69480469 1.02320313 2.38960937 1.03515625 3.10546875 C1.08678762 8.92506185 0.99111313 14.69914879 0.66746521 20.50849915 C-0.15643795 35.38942507 -0.32356472 50.28374108 -0.53222656 65.18280029 C-0.58341741 68.78401419 -0.63858189 72.38516731 -0.69335938 75.98632812 C-0.79934598 82.99083234 -0.90111084 89.99539167 -1 97 C0.32 97 1.64 97 3 97 C2.67 97.99 2.34 98.98 2 100 C2 99.34 2 98.68 2 98 C0.35 98 -1.3 98 -3 98 C-3.05178656 78.52294353 -2.97018163 59.05215161 -2.68261719 39.57714844 C-2.64231931 36.816121 -2.60791365 34.05510587 -2.578125 31.29394531 C-2.53422895 27.22701924 -2.47480728 23.16045983 -2.4140625 19.09375 C-2.40251129 17.86265503 -2.39096008 16.63156006 -2.37905884 15.36315918 C-2.35918915 14.21915649 -2.33931946 13.07515381 -2.31884766 11.89648438 C-2.30552399 10.89887085 -2.29220032 9.90125732 -2.2784729 8.87341309 C-1.96943217 5.68458694 -1.11520514 2.9942989 0 0 Z " fill="#975057" transform="translate(267,163)"/>
<path d="M0 0 C0.66 0.66 1.32 1.32 2 2 C2.99 2 3.98 2 5 2 C4.319375 2.515625 3.63875 3.03125 2.9375 3.5625 C0.62441172 5.93017674 0.62441172 5.93017674 1.125 9.4375 C1.87099306 12.85431685 1.87099306 12.85431685 2.98510742 15.40014648 C6.75874848 25.06709468 6.28488745 35.79013156 6.20581055 45.99926758 C6.18755664 48.42995779 6.18530172 50.86026388 6.18554688 53.29101562 C6.13242203 78.30136696 6.13242203 78.30136696 3 83 C3.00444122 82.32063385 3.00888245 81.6412677 3.01345825 80.9413147 C3.0578938 73.8354097 3.08795009 66.72954453 3.10986328 59.62353516 C3.11988671 56.97573237 3.13350899 54.32794056 3.15087891 51.68017578 C3.17528819 47.86227704 3.18652004 44.04452537 3.1953125 40.2265625 C3.20563507 39.05324371 3.21595764 37.87992493 3.22659302 36.67105103 C3.22771907 28.3192618 2.55841874 20.59286907 -0.625 12.8125 C-2.100385 9.12029287 -2.39973532 5.99735325 -2 2 C-1.34 1.34 -0.68 0.68 0 0 Z " fill="#8F343F" transform="translate(246,126)"/>
<path d="M0 0 C0.66 0.33 1.32 0.66 2 1 C-0.97 3.97 -3.94 6.94 -7 10 C-3.83922605 14.21436527 -2.8270487 14.71278701 2 16 C1.67 16.66 1.34 17.32 1 18 C-3.59574468 17.36170213 -3.59574468 17.36170213 -5.70703125 15.47265625 C-8.98725588 13.36593617 -11.57753729 13.67348934 -15.4375 13.75 C-16.73558594 13.76546875 -18.03367187 13.7809375 -19.37109375 13.796875 C-22.37380908 13.96494949 -25.08381806 14.30326289 -28 15 C-27.65775391 16.66289063 -27.65775391 16.66289063 -27.30859375 18.359375 C-27.01777949 19.82282738 -26.72743973 21.28637411 -26.4375 22.75 C-26.28603516 23.47960937 -26.13457031 24.20921875 -25.97851562 24.9609375 C-25.25442822 28.66557073 -24.90182769 31.39322322 -26 35 C-29 33 -29 33 -29.625 30.125 C-29.75836255 28.75078589 -29.88182104 27.37560304 -30 26 C-30.12632813 25.00226563 -30.25265625 24.00453125 -30.3828125 22.9765625 C-30.50398438 21.91179687 -30.62515625 20.84703125 -30.75 19.75 C-30.86859375 18.73421875 -30.9871875 17.7184375 -31.109375 16.671875 C-31 14 -31 14 -29.9765625 12.171875 C-26.93505665 10.36861066 -24.12591693 10.58253635 -20.625 10.5 C-12.93955489 10.31809597 -9.30306277 8.35698859 -3.6875 3.3125 C-2.99011719 2.68988281 -2.29273437 2.06726563 -1.57421875 1.42578125 C-1.05472656 0.95527344 -0.53523438 0.48476562 0 0 Z " fill="#8C2C37" transform="translate(103,103)"/>
<path d="M0 0 C0.33 0 0.66 0 1 0 C0.99333817 1.19523788 0.98667633 2.39047577 0.97981262 3.62193298 C0.91889934 14.90638372 0.87397829 26.19080092 0.84456348 37.47537899 C0.82893249 43.27638051 0.80774095 49.07724891 0.77368164 54.87817383 C0.7409969 60.48027918 0.72312769 66.08225677 0.71536827 71.68445015 C0.70984113 73.81779554 0.69904805 75.95113423 0.68280983 78.08442497 C0.66091458 81.08109318 0.65803815 84.0772388 0.65942383 87.07397461 C0.648638 87.94863876 0.63785217 88.82330292 0.6267395 89.72447205 C0.65365328 95.13167598 0.91831603 102.91831603 5 107 C7.52596259 107.23653523 10.03107207 107.42173692 12.5625 107.5625 C13.27341797 107.60568359 13.98433594 107.64886719 14.71679688 107.69335938 C16.47761912 107.79971777 18.2387832 107.90038846 20 108 C20 108.33 20 108.66 20 109 C19.09636719 109.06058594 18.19273438 109.12117188 17.26171875 109.18359375 C16.08222656 109.26738281 14.90273437 109.35117187 13.6875 109.4375 C12.51574219 109.51871094 11.34398438 109.59992188 10.13671875 109.68359375 C6.97409042 109.8867371 6.97409042 109.8867371 4 111 C-2.25015709 103.78828028 -2.25015709 103.78828028 -1.89868164 97.88085938 C-1.83045448 96.58601624 -1.83045448 96.58601624 -1.760849 95.26501465 C-1.70699539 94.30099731 -1.65314178 93.33697998 -1.59765625 92.34375 C-1.05119952 81.09392261 -0.82315702 69.85475223 -0.68359375 58.59375 C-0.67289478 57.74121643 -0.66219582 56.88868286 -0.65117264 56.01031494 C-0.58597881 50.73832462 -0.52610293 45.46628401 -0.46777344 40.19421387 C-0.4166864 35.64767376 -0.36146525 31.10118381 -0.30664062 26.5546875 C-0.20048815 17.70316794 -0.09875319 8.8516052 0 0 Z " fill="#81242D" transform="translate(79,162)"/>
<path d="M0 0 C-0.56589844 0.47050781 -1.13179687 0.94101563 -1.71484375 1.42578125 C-2.81505859 2.35970703 -2.81505859 2.35970703 -3.9375 3.3125 C-5.03384766 4.23482422 -5.03384766 4.23482422 -6.15234375 5.17578125 C-8.23820366 6.95975519 -8.23820366 6.95975519 -9 10 C-8.01 10.33 -7.02 10.66 -6 11 C-4.46484375 12.93359375 -4.46484375 12.93359375 -2.9375 15.4375 C-2.43089844 16.24058594 -1.92429687 17.04367188 -1.40234375 17.87109375 C2.42636278 26.41369522 2.27337179 35.46060605 2.1953125 44.6640625 C2.1924826 45.93728363 2.18965271 47.21050476 2.18673706 48.52230835 C2.17749985 51.87274023 2.15959792 55.22288837 2.1373291 58.57324219 C2.1167025 62.00583472 2.10769976 65.43845682 2.09765625 68.87109375 C2.07570089 75.58080611 2.04230259 82.29038671 2 89 C1.67 89 1.34 89 1 89 C0.99413376 88.30366455 0.98826752 87.6073291 0.98222351 86.88989258 C0.92410828 80.29933682 0.85192535 73.70909879 0.76428509 67.11886597 C0.71972444 63.73144958 0.68043801 60.3441495 0.65356445 56.95654297 C0.61991008 53.05406748 0.56758599 49.15221308 0.51171875 45.25 C0.50532883 44.04448486 0.4989389 42.83896973 0.49235535 41.59692383 C0.37767905 34.98904887 -0.29585106 30.03362962 -3 24 C-3.309375 22.7625 -3.61875 21.525 -3.9375 20.25 C-5.08493173 16.74020881 -6.26607144 15.39218749 -9 13 C-11.56687367 9.1496895 -10.83288724 7.41430237 -10 3 C-8.68 3 -7.36 3 -6 3 C-6 2.01 -6 1.02 -6 0 C-3 -1 -3 -1 0 0 Z " fill="#D9A9AD" transform="translate(125,123)"/>
<path d="M0 0 C6.23030114 4.61042285 10.07059253 9.77097834 13 17 C12.67 17.66 12.34 18.32 12 19 C11.67 19 11.34 19 11 19 C10.34 26.26 9.68 33.52 9 41 C8.34 41 7.68 41 7 41 C7.00523682 40.27820557 7.01047363 39.55641113 7.01586914 38.81274414 C7.03657358 35.56267151 7.04963918 32.31261272 7.0625 29.0625 C7.07087891 27.92619141 7.07925781 26.78988281 7.08789062 25.61914062 C7.09111328 24.53955078 7.09433594 23.45996094 7.09765625 22.34765625 C7.10289307 21.34742432 7.10812988 20.34719238 7.11352539 19.31665039 C7.26181095 17.03792772 7.26181095 17.03792772 6 16 C5.76712992 14.31816052 5.58735834 12.6287584 5.4375 10.9375 C5.31181641 9.55884766 5.31181641 9.55884766 5.18359375 8.15234375 C5.12300781 7.44207031 5.06242187 6.73179687 5 6 C3.87980469 6 2.75960938 6 1.60546875 6 C-3.59635417 6 -8.79817708 6 -14 6 C-14 5.01 -14 4.02 -14 3 C-9.38 2.67 -4.76 2.34 0 2 C0 1.34 0 0.68 0 0 Z " fill="#78212A" transform="translate(260,122)"/>
<path d="M0 0 C0.33 0 0.66 0 1 0 C2.30884438 4.98257689 2.14389713 9.93941777 2.1328125 15.05078125 C2.13376923 16.02355515 2.13472595 16.99632904 2.13571167 17.99858093 C2.13639105 20.05366073 2.13455364 22.1087427 2.13037109 24.16381836 C2.12503684 27.29090264 2.13031534 30.41784215 2.13671875 33.54492188 C2.13605759 35.54687531 2.13477563 37.54882866 2.1328125 39.55078125 C2.13483673 40.47812576 2.13686096 41.40547028 2.13894653 42.36091614 C2.12003809 47.66479502 1.77111329 52.75114594 1 58 C0.01 58 -0.98 58 -2 58 C-2 52.06 -2 46.12 -2 40 C-1.34 40 -0.68 40 0 40 C0 26.8 0 13.6 0 0 Z " fill="#BCB8BC" transform="translate(269,202)"/>
<path d="M0 0 C0.33 0 0.66 0 1 0 C1.48389805 7.74236877 0.38869494 13.41695759 -4 20 C-11.02163931 22.51719145 -17.66009371 21.15402004 -24.25 18.16796875 C-26 17 -26 17 -27 14 C-25.4221875 14.495 -25.4221875 14.495 -23.8125 15 C-18.06842883 16.40775984 -11.82831589 17.102446 -6 16 C-2.50307892 12.72754345 -1.42577608 9.8616179 -0.75 5.1875 C-0.60046875 4.21167969 -0.4509375 3.23585938 -0.296875 2.23046875 C-0.19890625 1.49441406 -0.1009375 0.75835937 0 0 Z " fill="#B5A29F" transform="translate(144,253)"/>
<path d="M0 0 C0.33 0 0.66 0 1 0 C1 21.12 1 42.24 1 64 C-1 63 -1 63 -1.66796875 61.1875 C-1.83941406 60.465625 -2.01085937 59.74375 -2.1875 59 C-2.36667969 58.278125 -2.54585938 57.55625 -2.73046875 56.8125 C-2.81941406 56.214375 -2.90835938 55.61625 -3 55 C-2.505 54.505 -2.505 54.505 -2 54 C-1.84757687 52.31379027 -1.76176927 50.6215037 -1.70288086 48.92944336 C-1.66291489 47.84839828 -1.62294891 46.76735321 -1.58177185 45.65354919 C-1.54318558 44.4775264 -1.5045993 43.3015036 -1.46484375 42.08984375 C-1.42186661 40.89267227 -1.37888947 39.69550079 -1.33460999 38.46205139 C-1.19774728 34.62067757 -1.06755761 30.77910967 -0.9375 26.9375 C-0.84614101 24.34047935 -0.75434993 21.74347386 -0.66210938 19.14648438 C-0.43638337 12.7644907 -0.21614239 6.38232504 0 0 Z " fill="#CE999E" transform="translate(78,176)"/>
<path d="M0 0 C0.12375 0.639375 0.2475 1.27875 0.375 1.9375 C0.684375 2.9584375 0.684375 2.9584375 1 4 C1.66 4.33 2.32 4.66 3 5 C2.72285156 5.54269531 2.44570312 6.08539063 2.16015625 6.64453125 C1.79792969 7.35996094 1.43570313 8.07539063 1.0625 8.8125 C0.70285156 9.52019531 0.34320313 10.22789062 -0.02734375 10.95703125 C-1.10730516 13.11810285 -1.10730516 13.11810285 -2 16 C-0.68 16.33 0.64 16.66 2 17 C2 17.66 2 18.32 2 19 C4.25028329 18.85860519 6.50022206 18.71171997 8.75 18.5625 C10.00296875 18.48128906 11.2559375 18.40007812 12.546875 18.31640625 C15.18317553 18.07484478 17.48037294 17.75716066 20 17 C18.87890625 18.96875 18.87890625 18.96875 17 21 C8.77810272 22.56827213 1.33450869 20.70864548 -6 17 C-5.43681602 13.62676259 -4.62491533 10.94239857 -3 7.9375 C-1.58073247 5.30246286 -0.62687901 2.93196537 0 0 Z " fill="#90323C" transform="translate(121,249)"/>
<path d="M0 0 C1.32 0.33 2.64 0.66 4 1 C3.34 1.66 2.68 2.32 2 3 C1.78227448 5.82976367 1.68856858 8.56454103 1.68115234 11.39697266 C1.67110672 12.26533249 1.6610611 13.13369232 1.65071106 14.02836609 C1.61974858 16.90692464 1.60280778 19.78538965 1.5859375 22.6640625 C1.56723635 24.6566143 1.54766374 26.6491581 1.5272522 28.64169312 C1.47581372 33.89253022 1.43625083 39.14339304 1.39910889 44.39434814 C1.35914251 49.74994324 1.30801666 55.10543032 1.2578125 60.4609375 C1.16091457 70.97388258 1.07655433 81.48688849 1 92 C0.67 92 0.34 92 0 92 C0 61.64 0 31.28 0 0 Z " fill="#C08589" transform="translate(144,161)"/>
<path d="M0 0 C0.99 0.33 1.98 0.66 3 1 C2.34 1 1.68 1 1 1 C1.01160156 1.69480469 1.02320313 2.38960937 1.03515625 3.10546875 C1.0993019 10.33559946 0.89861272 17.52835995 0.5625 24.75 C0.52326416 25.62422607 0.48402832 26.49845215 0.44360352 27.39916992 C0.1696557 32.96698848 -0.33337104 38.46529901 -1 44 C-1.33 44 -1.66 44 -2 44 C-2.04959331 38.69809316 -2.085811 33.39632263 -2.10986328 28.09423828 C-2.11989476 26.29213101 -2.13352315 24.4900399 -2.15087891 22.68798828 C-2.175253 20.09143065 -2.18651178 17.49508903 -2.1953125 14.8984375 C-2.20563507 14.0982016 -2.21595764 13.2979657 -2.22659302 12.47348022 C-2.22749887 7.91409479 -1.73602816 4.29501777 0 0 Z " fill="#903742" transform="translate(267,163)"/>
<path d="M0 0 C0.99 0 1.98 0 3 0 C5.31756757 21.02364865 5.31756757 21.02364865 2 26 C1.67 20.72 1.34 15.44 1 10 C-0.32 10 -1.64 10 -3 10 C-3.33 9.34 -3.66 8.68 -4 8 C-3.22265625 6.0546875 -3.22265625 6.0546875 -2.0625 3.875 C-1.49208984 2.78832031 -1.49208984 2.78832031 -0.91015625 1.6796875 C-0.60980469 1.12539062 -0.30945313 0.57109375 0 0 Z " fill="#290608" transform="translate(73,137)"/>
<path d="M0 0 C4.97165938 3.88031952 8.91665963 8.21204997 13 13 C14.47546412 14.66994534 15.9546064 16.33664845 17.4375 18 C18.11683594 18.763125 18.79617187 19.52625 19.49609375 20.3125 C19.99238281 20.869375 20.48867187 21.42625 21 22 C20.34 22.33 19.68 22.66 19 23 C14.3125 19.38671875 14.3125 19.38671875 13 18 C13 17.01 13 16.02 13 15 C12.195625 14.731875 11.39125 14.46375 10.5625 14.1875 C9.716875 13.795625 8.87125 13.40375 8 13 C7.67 12.01 7.34 11.02 7 10 C5.33729713 8.66172696 3.67083819 7.32810215 2 6 C2 5.34 2 4.68 2 4 C1.34 4 0.68 4 0 4 C0 2.68 0 1.36 0 0 Z " fill="#8C2F38" transform="translate(205,197)"/>
<path d="M0 0 C0.66 0 1.32 0 2 0 C2.50367757 1.45706726 3.00282556 2.91570096 3.5 4.375 C3.91765625 5.59316406 3.91765625 5.59316406 4.34375 6.8359375 C5 9 5 9 5 11 C4.01 11 3.02 11 2 11 C1.67 18.59 1.34 26.18 1 34 C0.67 34 0.34 34 0 34 C-0.71442552 22.57729176 -1.37448837 11.39768051 0 0 Z " fill="#DEC3C7" transform="translate(268,164)"/>
<path d="M0 0 C0.66 0 1.32 0 2 0 C1.57915235 10.91301484 0.25907118 21.31558789 -2 32 C-2.33 32 -2.66 32 -3 32 C-3.02701408 29.89590361 -3.04640223 27.79170822 -3.0625 25.6875 C-3.07410156 24.51574219 -3.08570312 23.34398437 -3.09765625 22.13671875 C-3 19 -3 19 -2 16 C-1.61496448 13.27102562 -1.2601109 10.54871837 -0.9375 7.8125 C-0.84662109 7.06291016 -0.75574219 6.31332031 -0.66210938 5.54101562 C-0.4386269 3.69434465 -0.21894487 1.84721446 0 0 Z " fill="#D9ADB2" transform="translate(124,217)"/>
<path d="M0 0 C1.18613892 0.00785522 1.18613892 0.00785522 2.39624023 0.01586914 C3.67724609 0.02070312 3.67724609 0.02070312 4.98413086 0.02563477 C5.88196289 0.03401367 6.77979492 0.04239258 7.70483398 0.05102539 C8.6065332 0.05553711 9.50823242 0.06004883 10.43725586 0.06469727 C12.67234712 0.07652315 14.90730835 0.09300319 17.14233398 0.11352539 C17.14233398 0.44352539 17.14233398 0.77352539 17.14233398 1.11352539 C8.72733398 1.60852539 8.72733398 1.60852539 0.14233398 2.11352539 C0.04041971 8.79854777 0.04041971 8.79854777 1.20483398 14.86352539 C2.07657729 18.03142918 2.15546409 19.9678627 1.14233398 23.11352539 C-2.06406087 15.71305156 -3.76990196 9.21896609 -2.85766602 1.11352539 C-1.85766602 0.11352539 -1.85766602 0.11352539 0 0 Z " fill="#D8ACB3" transform="translate(72.857666015625,112.886474609375)"/>
<path d="M0 0 C1.32 0 2.64 0 4 0 C3.4025696 1.69271945 2.71573527 3.35380887 2 5 C1.525625 6.093125 1.05125 7.18625 0.5625 8.3125 C-2 11 -2 11 -4.6015625 11.4140625 C-8.66784001 11.44624939 -12.12782624 11.29072459 -16 10 C-16 9.01 -16 8.02 -16 7 C-14.824375 7.226875 -13.64875 7.45375 -12.4375 7.6875 C-7.71625465 8.26715468 -5.05878701 7.48497164 -1 5 C0.05167527 2.42267086 0.05167527 2.42267086 0 0 Z " fill="#661E27" transform="translate(265,261)"/>
<path d="M0 0 C7.46089399 6.19095459 15.02998172 12.5725777 20 21 C18.68 21 17.36 21 16 21 C14 18.25 14 18.25 12 15 C11.2575 14.2575 10.515 13.515 9.75 12.75 C9.1725 12.1725 8.595 11.595 8 11 C8 10.34 8 9.68 8 9 C7.01 8.67 6.02 8.34 5 8 C5 7.34 5 6.68 5 6 C4.01 6 3.02 6 2 6 C1.34 4.02 0.68 2.04 0 0 Z " fill="#8F3640" transform="translate(226,220)"/>
<path d="M0 0 C1.65 0 3.3 0 5 0 C5 0.66 5 1.32 5 2 C5.66 2 6.32 2 7 2 C7.33 2.99 7.66 3.98 8 5 C9.83701853 6.45215373 9.83701853 6.45215373 12 7.8125 C15.87323944 10.5721831 15.87323944 10.5721831 17 14.375 C17 15.24125 17 16.1075 17 17 C12.45619909 13.30734335 8.67761045 9.54862345 5 5 C3.37068425 3.28989173 1.69470867 1.64628842 0 0 Z " fill="#8C2D37" transform="translate(154,168)"/>
<path d="M0 0 C0.66 0.33 1.32 0.66 2 1 C-0.97 3.97 -3.94 6.94 -7 10 C-3.83922605 14.21436527 -2.8270487 14.71278701 2 16 C1.67 16.66 1.34 17.32 1 18 C-2.91259689 17.45658377 -4.88773176 16.33420118 -8 14 C-10.64934822 13.28566879 -10.64934822 13.28566879 -13 13 C-9.0580583 8.11950075 -4.88049925 3.9419417 0 0 Z " fill="#72202A" transform="translate(103,103)"/>
<path d="M0 0 C1.70884005 1.62339805 3.37446717 3.29319053 5 5 C5 5.66 5 6.32 5 7 C5.639375 7.103125 6.27875 7.20625 6.9375 7.3125 C7.618125 7.539375 8.29875 7.76625 9 8 C9.33 8.99 9.66 9.98 10 11 C10.66 11.33 11.32 11.66 12 12 C12 12.66 12 13.32 12 14 C12.99 14.33 13.98 14.66 15 15 C15.33 16.65 15.66 18.3 16 20 C9.09043827 14.35954144 3.48507094 8.0208908 -2 1 C-1.34 0.67 -0.68 0.34 0 0 Z " fill="#DFBDC0" transform="translate(185,171)"/>
<path d="M0 0 C2.125 0 2.125 0 5 1 C11 7.39344262 11 7.39344262 11 11 C11.66 11 12.32 11 13 11 C14.625 12.5 14.625 12.5 16 14 C15.67 14.99 15.34 15.98 15 17 C8.84839808 12.52610769 3.57760955 6.73432386 0 0 Z " fill="#DDB8BC" transform="translate(201,191)"/>
<path d="M0 0 C6.66449937 5.21569516 11.72553454 11.44140914 17 18 C16.01 18.33 15.02 18.66 14 19 C13.67 17.68 13.34 16.36 13 15 C11.35 14.67 9.7 14.34 8 14 C8 12.35 8 10.7 8 9 C7.236875 8.95875 6.47375 8.9175 5.6875 8.875 C3 8 3 8 1.1875 5.0625 C0 2 0 2 0 0 Z " fill="#943A46" transform="translate(162,149)"/>
<path d="M0 0 C1.1653125 -0.02578125 2.330625 -0.0515625 3.53125 -0.078125 C5.00078125 0.08429688 5.00078125 0.08429688 6.5 0.25 C7.16 1.24 7.82 2.23 8.5 3.25 C2.97568622 5.86678021 -1.85421287 5.16382615 -7.5 3.25 C-7.83 2.59 -8.16 1.93 -8.5 1.25 C-5.65504507 -0.17247747 -3.1688204 0.04206399 0 0 Z " fill="#2E090B" transform="translate(92.5,270.75)"/>
<path d="M0 0 C1.14583407 1.14583407 2.2910195 2.2923216 3.43359375 3.44140625 C4.54059434 4.54288564 5.65895658 5.63300206 6.78515625 6.71484375 C10.09486541 9.92617515 12.86263196 12.85099146 15 17 C11.0256929 15.67523097 8.84720708 14.03702088 6 11 C5.01 10.34 4.02 9.68 3 9 C2.05078125 6.8359375 2.05078125 6.8359375 1.3125 4.375 C1.06113281 3.55773437 0.80976563 2.74046875 0.55078125 1.8984375 C0.36902344 1.27195313 0.18726563 0.64546875 0 0 Z " fill="#902D3B" transform="translate(190,180)"/>
<path d="M0 0 C1.33571892 2.67143785 2.58239174 5.23992474 3.6875 8 C3.95949219 8.66 4.23148438 9.32 4.51171875 10 C5.12303665 12.50395811 5.1445695 13.67238808 4 16 C1.49609375 17.265625 1.49609375 17.265625 -1.5625 18.25 C-2.57441406 18.58515625 -3.58632812 18.9203125 -4.62890625 19.265625 C-5.41136719 19.50796875 -6.19382812 19.7503125 -7 20 C-7 19.34 -7 18.68 -7 18 C-7.66 17.67 -8.32 17.34 -9 17 C-5.04 16.505 -5.04 16.505 -1 16 C-1 15.34 -1 14.68 -1 14 C0.32 14.33 1.64 14.66 3 15 C3 13.35 3 11.7 3 10 C2.34 10 1.68 10 1 10 C0.67 6.7 0.34 3.4 0 0 Z " fill="#964B56" transform="translate(106,252)"/>
<path d="M0 0 C2.3838235 2.3838235 2.34792802 3.22775338 2.66796875 6.5 C2.75626953 7.386875 2.84457031 8.27375 2.93554688 9.1875 C3.01869141 10.115625 3.10183594 11.04375 3.1875 12 C3.28224609 12.928125 3.37699219 13.85625 3.47460938 14.8125 C4.1334707 21.73305861 4.1334707 21.73305861 3 24 C0.52129883 20.28194824 0.28134418 16.89113111 -0.1875 12.5625 C-0.28224609 11.79873047 -0.37699219 11.03496094 -0.47460938 10.24804688 C-0.90108988 6.50738963 -1.07907334 3.65315003 0 0 Z " fill="#801D29" transform="translate(76,137)"/>
<path d="M0 0 C0.33 0 0.66 0 1 0 C1 11.22 1 22.44 1 34 C-1.475 34.495 -1.475 34.495 -4 35 C-4.33 34.34 -4.66 33.68 -5 33 C-3.02 32.505 -3.02 32.505 -1 32 C-0.67 21.44 -0.34 10.88 0 0 Z " fill="#87232E" transform="translate(249,209)"/>
<path d="M0 0 C3.5239931 0.65259131 6.12027681 1.85866737 9 4 C12 9.06896552 12 9.06896552 12 12 C12.66 12.33 13.32 12.66 14 13 C11 13 11 13 9.5703125 11.64453125 C8.85488281 10.73767578 8.85488281 10.73767578 8.125 9.8125 C6.21526326 7.45874946 4.30250284 5.23445588 2.125 3.125 C1.42375 2.42375 0.7225 1.7225 0 1 C0 0.67 0 0.34 0 0 Z " fill="#8B2D35" transform="translate(191,207)"/>
<path d="M0 0 C4.29511365 2.08619806 6.31486538 4.54109459 8.7890625 8.4765625 C10.02024902 10.3100166 10.02024902 10.3100166 13 11 C14.1875 13.5625 14.1875 13.5625 15 16 C12 16 12 16 9.87890625 13.98828125 C9.11449219 13.10527344 8.35007813 12.22226562 7.5625 11.3125 C6.80066406 10.44238281 6.03882813 9.57226562 5.25390625 8.67578125 C3.12585845 6.14941602 1.04914672 3.5906069 -1 1 C-0.67 0.67 -0.34 0.34 0 0 Z " fill="#8A2931" transform="translate(229,245)"/>
<path d="M0 0 C0 2.0217996 -0.0639477 4.04447908 -0.1875 6.0625 C0.04916925 11.03255429 1.41508656 15.31129774 3 20 C-2.95865187 14.19413408 -2.95865187 14.19413408 -3.09765625 10.1796875 C-3.08605469 9.08914062 -3.07445312 7.99859375 -3.0625 6.875 C-3.05347656 5.77929688 -3.04445312 4.68359375 -3.03515625 3.5546875 C-3.02355469 2.71164063 -3.01195312 1.86859375 -3 1 C-2.01 0.67 -1.02 0.34 0 0 Z " fill="#D8B2B7" transform="translate(245,125)"/>
<path d="M0 0 C4.52615993 3.67832017 8.39424999 7.41086363 12 12 C9.8125 12.375 9.8125 12.375 7 12 C3.19763168 8.28605885 1.36334053 5.20548201 0 0 Z " fill="#B49290" transform="translate(205,223)"/>
<path d="M0 0 C0.33 0 0.66 0 1 0 C1.34915606 9.15564771 0.27041977 17.95960217 -1 27 C-1.33 27 -1.66 27 -2 27 C-2.05444001 23.99975053 -2.0938836 21.00050961 -2.125 18 C-2.14175781 17.16082031 -2.15851563 16.32164062 -2.17578125 15.45703125 C-2.21849117 9.94745123 -1.55502007 5.28951708 0 0 Z " fill="#DDCDCF" transform="translate(124,206)"/>
<path d="M0 0 C3.73459834 0.68635861 7.04040751 2.26140065 10.16796875 4.3984375 C10.49796875 5.0584375 10.82796875 5.7184375 11.16796875 6.3984375 C10.51570313 6.181875 9.8634375 5.9653125 9.19140625 5.7421875 C2.41002934 3.58174884 -2.81191032 2.74664434 -9.83203125 4.3984375 C-7.00431577 0.6281502 -4.72146286 -0.23031526 0 0 Z " fill="#8E313D" transform="translate(130.83203125,121.6015625)"/>
<path d="M0 0 C12.03438713 -0.56905158 12.03438713 -0.56905158 16 3 C16.33 3.99 16.66 4.98 17 6 C17.66 6 18.32 6 19 6 C19.33 7.32 19.66 8.64 20 10 C19.34 9.67 18.68 9.34 18 9 C18 8.34 18 7.68 18 7 C17.29875 6.731875 16.5975 6.46375 15.875 6.1875 C13 5 13 5 10.125 3.4375 C6.70687269 1.86516144 3.72658671 1.37265867 0 1 C0 0.67 0 0.34 0 0 Z " fill="#D5A8AE" transform="translate(126,121)"/>
<path d="M0 0 C0.66 0 1.32 0 2 0 C2 6.6 2 13.2 2 20 C1.67 20 1.34 20 1 20 C0.95101562 19.07316406 0.90203125 18.14632812 0.8515625 17.19140625 C0.77679688 15.99386719 0.70203125 14.79632813 0.625 13.5625 C0.55539063 12.36753906 0.48578125 11.17257813 0.4140625 9.94140625 C0.27742188 8.97074219 0.14078125 8.00007812 0 7 C-0.66 6.67 -1.32 6.34 -2 6 C-1.34 4.02 -0.68 2.04 0 0 Z " fill="#DBB9BD" transform="translate(76,161)"/>
<path d="M0 0 C2 0 2 0 4.1875 2 C7.59598309 5.5411486 10.79385088 9.276432 14 13 C10.89448334 13 9.64738916 12.4606285 7 11 C7 9.68 7 8.36 7 7 C6.21625 6.773125 5.4325 6.54625 4.625 6.3125 C2 5 2 5 0.6875 2.375 C0.460625 1.59125 0.23375 0.8075 0 0 Z " fill="#913441" transform="translate(142,128)"/>
<path d="M0 0 C0.66 0 1.32 0 2 0 C2 0.66 2 1.32 2 2 C2.99 2 3.98 2 5 2 C5 2.99 5 3.98 5 5 C6.32 5.33 7.64 5.66 9 6 C9 6.99 9 7.98 9 9 C9.99 9.33 10.98 9.66 12 10 C11.67 11.32 11.34 12.64 11 14 C9.34827245 12.23436021 7.70361955 10.46295402 6.0625 8.6875 C5.59392578 8.18798828 5.12535156 7.68847656 4.64257812 7.17382812 C2.44302897 4.78438984 1.03973187 3.11919562 0 0 Z " fill="#DFB8BA" transform="translate(153,137)"/>
<path d="M0 0 C0.33 0 0.66 0 1 0 C2.33257403 16.70842825 2.33257403 16.70842825 1 25 C-1.24434537 21.63348195 -1.20138902 20.78403012 -0.9765625 16.89453125 C-0.925 15.91162109 -0.8734375 14.92871094 -0.8203125 13.91601562 C-0.75585938 12.89185547 -0.69140625 11.86769531 -0.625 10.8125 C-0.56828125 9.77673828 -0.5115625 8.74097656 -0.453125 7.67382812 C-0.31163334 5.11518729 -0.16022134 2.55752516 0 0 Z " fill="#220303" transform="translate(270,141)"/>
<path d="M0 0 C0.33 0 0.66 0 1 0 C1 3.3 1 6.6 1 10 C-3.5 7.75 -3.5 7.75 -5 4 C-3.35 3.67 -1.7 3.34 0 3 C0 2.01 0 1.02 0 0 Z " fill="#E2B4B9" transform="translate(247,231)"/>
<path d="M0 0 C4.42834676 1.39176612 7.03101453 3.43721744 10 7 C10 8.32 10 9.64 10 11 C5.86062408 7.69984002 2.41337795 4.82675589 0 0 Z " fill="#8E3039" transform="translate(216,233)"/>
<path d="M0 0 C0.99 0 1.98 0 3 0 C2.7834375 0.8353125 2.7834375 0.8353125 2.5625 1.6875 C1.97230872 4.11384195 1.476571 6.54906345 1 9 C-0.65 9.33 -2.3 9.66 -4 10 C-2.8905928 6.51329166 -1.73662334 3.22515763 0 0 Z " fill="#221415" transform="translate(73,137)"/>
<path d="M0 0 C4.13621084 3.3810038 7.81316569 6.66590534 11 11 C10.01 11.495 10.01 11.495 9 12 C8.67 11.34 8.34 10.68 8 10 C7.01 9.67 6.02 9.34 5 9 C1.65926381 6.24880549 0.47846065 4.30614589 0 0 Z " fill="#BA8B8C" transform="translate(227,246)"/>
<path d="M0 0 C1.32 0 2.64 0 4 0 C4.268125 0.639375 4.53625 1.27875 4.8125 1.9375 C5.88667752 4.33131686 5.88667752 4.33131686 9 5 C9.33 6.98 9.66 8.96 10 11 C6.40365256 7.50640535 3.16548033 3.88901869 0 0 Z " fill="#DEBDC0" transform="translate(216,208)"/>
<path d="M0 0 C4.29 0 8.58 0 13 0 C12.34 1.32 11.68 2.64 11 4 C5.06 3.01 5.06 3.01 -1 2 C-0.67 1.34 -0.34 0.68 0 0 Z " fill="#391114" transform="translate(249,271)"/>
<path d="M0 0 C4.13937592 3.30015998 7.58662205 6.17324411 10 11 C6.21479387 10.45925627 4.40822445 8.92427254 2 6 C2 5.01 2 4.02 2 3 C1.34 3 0.68 3 0 3 C0 2.01 0 1.02 0 0 Z " fill="#923743" transform="translate(216,209)"/>
<path d="M0 0 C1.17571451 3.67410785 1.07366746 7.16929183 1 11 C-0.65 9.68 -2.3 8.36 -4 7 C-3.43628586 3.73045798 -2.50037734 2.17424117 0 0 Z " fill="#87313B" transform="translate(120,126)"/>
<path d="M0 0 C1.32 0 2.64 0 4 0 C6.125 2.875 6.125 2.875 8 6 C8.66 6.66 9.32 7.32 10 8 C9.67 8.99 9.34 9.98 9 11 C7.5 9.625 7.5 9.625 6 8 C6 7.34 6 6.68 6 6 C5.01 5.67 4.02 5.34 3 5 C1.3125 2.4375 1.3125 2.4375 0 0 Z " fill="#8E303A" transform="translate(181,196)"/>
<path d="M0 0 C0.33 0 0.66 0 1 0 C1.2358396 5.77807024 0.86783046 10.51324804 -1 16 C-2.65 16.33 -4.3 16.66 -6 17 C-5.38125 16.236875 -4.7625 15.47375 -4.125 14.6875 C-1.127267 10.27594257 -0.70091179 5.1830582 0 0 Z " fill="#C09195" transform="translate(144,253)"/>
<path d="M0 0 C0.66 0 1.32 0 2 0 C2.66 0.99 3.32 1.98 4 3 C4.639375 3.28875 5.27875 3.5775 5.9375 3.875 C8.73067133 5.398548 9.62239322 7.1759061 11 10 C11 10.99 11 11.98 11 13 C10.62488281 12.55269531 10.24976563 12.10539063 9.86328125 11.64453125 C7.37291616 8.70251304 4.88339713 5.82016739 2.125 3.125 C1.42375 2.42375 0.7225 1.7225 0 1 C0 0.67 0 0.34 0 0 Z " fill="#B9A8A5" transform="translate(186,206)"/>
<path d="M0 0 C0.66 0 1.32 0 2 0 C2.50367757 1.45706726 3.00282556 2.91570096 3.5 4.375 C3.91765625 5.59316406 3.91765625 5.59316406 4.34375 6.8359375 C5 9 5 9 5 11 C4.34 11 3.68 11 3 11 C2.67 9.68 2.34 8.36 2 7 C1.34 7.99 0.68 8.98 0 10 C0 6.7 0 3.4 0 0 Z " fill="#C1A9AB" transform="translate(268,164)"/>
<path d="M0 0 C0.66 0 1.32 0 2 0 C2.66 1.65 3.32 3.3 4 5 C3.34 5 2.68 5 2 5 C1.67 9.29 1.34 13.58 1 18 C0.67 18 0.34 18 0 18 C0 12.06 0 6.12 0 0 Z " fill="#562023" transform="translate(269,136)"/>
<path d="M0 0 C0.66 0 1.32 0 2 0 C2.25028811 1.58013217 2.47440946 3.16442306 2.6875 4.75 C2.87892578 6.07257813 2.87892578 6.07257813 3.07421875 7.421875 C3 10 3 10 0 14 C0 9.38 0 4.76 0 0 Z " fill="#922E3C" transform="translate(103,240)"/>
<path d="M0 0 C0.99 0 1.98 0 3 0 C3 0.66 3 1.32 3 2 C3.928125 2.12375 3.928125 2.12375 4.875 2.25 C7 3 7 3 8.3125 4.875 C9 7 9 7 8 10 C6.66370254 8.52351062 5.33103329 7.0437367 4 5.5625 C3.2575 4.73878906 2.515 3.91507813 1.75 3.06640625 C0 1 0 1 0 0 Z " fill="#E2BEC1" transform="translate(165,151)"/>
<path d="M0 0 C0.66 0.33 1.32 0.66 2 1 C0.56877218 2.48523642 -0.87020889 3.96300462 -2.3125 5.4375 C-3.11300781 6.26121094 -3.91351563 7.08492188 -4.73828125 7.93359375 C-7 10 -7 10 -10 11 C-8.55218207 7.55571735 -6.72305391 5.63869038 -3.875 3.25 C-3.15054688 2.63640625 -2.42609375 2.0228125 -1.6796875 1.390625 C-0.84824219 0.70226562 -0.84824219 0.70226562 0 0 Z " fill="#362E2F" transform="translate(103,103)"/>
<path d="M0 0 C1.5 1.1875 1.5 1.1875 3 3 C3.1875 5.6875 3.1875 5.6875 3 8 C0.69 6.02 -1.62 4.04 -4 2 C-2.68 1.34 -1.36 0.68 0 0 Z " fill="#912734" transform="translate(151,160)"/>
<path d="M0 0 C2.42999536 2.27364177 3.42805835 3.68273845 4 7 C3.34 7 2.68 7 2 7 C1.67 8.32 1.34 9.64 1 11 C0 10 0 10 -0.09765625 7.71484375 C-0.08605469 6.79832031 -0.07445312 5.88179687 -0.0625 4.9375 C-0.05347656 4.01839844 -0.04445313 3.09929687 -0.03515625 2.15234375 C-0.02355469 1.44207031 -0.01195312 0.73179687 0 0 Z " fill="#8D303B" transform="translate(266,128)"/>
<path d="M0 0 C0.99 0.33 1.98 0.66 3 1 C3 1.66 3 2.32 3 3 C-1.455 4.485 -1.455 4.485 -6 6 C-6 5.34 -6 4.68 -6 4 C-6.66 3.67 -7.32 3.34 -8 3 C-5.36 2.67 -2.72 2.34 0 2 C0 1.34 0 0.68 0 0 Z " fill="#95414A" transform="translate(105,266)"/>
<path d="M0 0 C3.37830553 1.44784523 5.64961028 3.16332276 8 6 C8.75 8.75 8.75 8.75 9 11 C5.36440339 7.56638098 2.63886654 4.2026393 0 0 Z " fill="#E0B7BA" transform="translate(174,161)"/>
<path d="M0 0 C1.17539996 0.92652701 2.34010577 1.86663387 3.5 2.8125 C4.1496875 3.33457031 4.799375 3.85664063 5.46875 4.39453125 C7 6 7 6 7 9 C5.1875 8.875 5.1875 8.875 3 8 C0 2.96428571 0 2.96428571 0 0 Z " fill="#8F2E3C" transform="translate(162,149)"/>
<path d="M0 0 C0.66 0 1.32 0 2 0 C3.28317892 3.84953676 3.06643637 6.94738135 3 11 C0.39665076 8.28817788 0.00543309 7.10866187 -0.1875 3.25 C-0.125625 2.1775 -0.06375 1.105 0 0 Z " fill="#D9ACB3" transform="translate(123,144)"/>
<path d="M0 0 C0.33 0.99 0.66 1.98 1 3 C1.66 3 2.32 3 3 3 C3.625 6.375 3.625 6.375 4 10 C3.34 10.66 2.68 11.32 2 12 C2 10.35 2 8.7 2 7 C1.34 7 0.68 7 0 7 C0 4.69 0 2.38 0 0 Z " fill="#E1CACD" transform="translate(106,243)"/>
<path d="M0 0 C0.33 0 0.66 0 1 0 C1.125 6.625 1.125 6.625 0 10 C-3.0625 11.1875 -3.0625 11.1875 -6 12 C-5 9 -5 9 -3 7.6875 C-0.27485061 5.3881552 -0.30718006 3.45577567 0 0 Z " fill="#8F1B28" transform="translate(141,256)"/>
<path d="M0 0 C1.99097846 2.98646769 2.94124926 5.59687262 4 9 C2.35 9.33 0.7 9.66 -1 10 C-1.33 9.34 -1.66 8.68 -2 8 C-1.34 7.67 -0.68 7.34 0 7 C0 4.69 0 2.38 0 0 Z " fill="#B1B4B3" transform="translate(65,242)"/>
<path d="M0 0 C0.99 0.495 0.99 0.495 2 1 C2 1.66 2 2.32 2 3 C2.61875 3.04125 3.2375 3.0825 3.875 3.125 C4.57625 3.41375 5.2775 3.7025 6 4 C7.25 7.0625 7.25 7.0625 8 10 C6.84481082 9.09515208 5.70114594 8.1755794 4.5625 7.25 C3.60537109 6.48429688 3.60537109 6.48429688 2.62890625 5.703125 C0.81189446 3.80332371 0.39576803 2.56413092 0 0 Z " fill="#E2C1C3" transform="translate(145,127)"/>
<path d="M0 0 C0.66 0.99 1.32 1.98 2 3 C-0.64 4.98 -3.28 6.96 -6 9 C-6.66 8.67 -7.32 8.34 -8 8 C-5.36 5.36 -2.72 2.72 0 0 Z " fill="#A2A6A6" transform="translate(255,279)"/>
<path d="M0 0 C-0.33 0.66 -0.66 1.32 -1 2 C-1.99 2 -2.98 2 -4 2 C-4.33 2.99 -4.66 3.98 -5 5 C-5.99 4.34 -6.98 3.68 -8 3 C-8 2.34 -8 1.68 -8 1 C-2.25 -1.125 -2.25 -1.125 0 0 Z " fill="#D4BDBF" transform="translate(108,270)"/>
<path d="M0 0 C0.33 0 0.66 0 1 0 C1 3.96 1 7.92 1 12 C-0.32 11.34 -1.64 10.68 -3 10 C-3 9.34 -3 8.68 -3 8 C-2.01 8 -1.02 8 0 8 C0 5.36 0 2.72 0 0 Z " fill="#230809" transform="translate(76,249)"/>
<path d="M0 0 C2.3125 0.1875 2.3125 0.1875 5 1 C6.8125 3.5625 6.8125 3.5625 8 6 C5.6875 5.8125 5.6875 5.8125 3 5 C1.1875 2.4375 1.1875 2.4375 0 0 Z " fill="#250505" transform="translate(95,112)"/>
<path d="M0 0 C0.66 1.32 1.32 2.64 2 4 C2.66 4 3.32 4 4 4 C4 4.66 4 5.32 4 6 C4.66 6 5.32 6 6 6 C5.67 6.99 5.34 7.98 5 9 C2.69 6.69 0.38 4.38 -2 2 C-1.34 1.34 -0.68 0.68 0 0 Z " fill="#DEB7B9" transform="translate(232,222)"/>
<path d="M0 0 C2.31 1.98 4.62 3.96 7 6 C6.67 6.99 6.34 7.98 6 9 C5.67 8.01 5.34 7.02 5 6 C4.01 6 3.02 6 2 6 C1.34 4.02 0.68 2.04 0 0 Z " fill="#882D36" transform="translate(226,220)"/>
<path d="M0 0 C0.66 0 1.32 0 2 0 C3.5078125 1.75 3.5078125 1.75 5.125 4 C5.66382813 4.7425 6.20265625 5.485 6.7578125 6.25 C7.16773438 6.8275 7.57765625 7.405 8 8 C6.0625 7.6875 6.0625 7.6875 4 7 C3.67 6.01 3.34 5.02 3 4 C2.34 4 1.68 4 1 4 C0.67 2.68 0.34 1.36 0 0 Z " fill="#B68C8C" transform="translate(185,202)"/>
<path d="M0 0 C1.32 0.33 2.64 0.66 4 1 C4.33 1.99 4.66 2.98 5 4 C5.99 4 6.98 4 8 4 C8 4.66 8 5.32 8 6 C7.01 6.33 6.02 6.66 5 7 C3.35 4.69 1.7 2.38 0 0 Z " fill="#8B2B34" transform="translate(243,262)"/>
<path d="M0 0 C3.34998521 1.11666174 3.79340222 1.74694925 5.6875 4.5625 C6.12449219 5.20316406 6.56148437 5.84382812 7.01171875 6.50390625 C7.33785156 6.99761719 7.66398438 7.49132812 8 8 C4.79837298 7.40137646 4.08063485 7.08735442 1.75 4.5625 C0 2 0 2 0 0 Z " fill="#B88E90" transform="translate(194,212)"/>
<path d="M0 0 C1.96446905 1.6344795 2.92317791 2.46429394 3.29296875 5.04296875 C3.1953125 7.02864583 3.09765625 9.01432292 3 11 C0.60236815 8.60236815 0.65719414 7.66726502 0.375 4.375 C0.30023438 3.55773437 0.22546875 2.74046875 0.1484375 1.8984375 C0.09945312 1.27195313 0.05046875 0.64546875 0 0 Z " fill="#E3C6CA" transform="translate(245,142)"/>
<path d="M0 0 C0.33 1.32 0.66 2.64 1 4 C1.66 4.33 2.32 4.66 3 5 C2.01 6.485 2.01 6.485 1 8 C0.01 8 -0.98 8 -2 8 C-1.34 5.36 -0.68 2.72 0 0 Z " fill="#983040" transform="translate(121,249)"/>
<path d="M0 0 C0.33 0 0.66 0 1 0 C1 3.3 1 6.6 1 10 C-1.39223697 7.60776303 -1.6758631 6.32240324 -2 3 C-1.34 2.01 -0.68 1.02 0 0 Z " fill="#D6B8BD" transform="translate(77,228)"/>
<path d="M0 0 C2.31 0.66 4.62 1.32 7 2 C7 2.66 7 3.32 7 4 C5.35 4 3.7 4 2 4 C1.34 2.68 0.68 1.36 0 0 Z " fill="#B8A09E" transform="translate(117,267)"/>
<path d="M0 0 C2.31 1.98 4.62 3.96 7 6 C5.68 6.33 4.36 6.66 3 7 C1.25 5.8125 1.25 5.8125 0 4 C0 2.68 0 1.36 0 0 Z " fill="#D0C9C6" transform="translate(225,247)"/>
<path d="M0 0 C4.875 4.75 4.875 4.75 6 7 C4.125 6.875 4.125 6.875 2 6 C0.75 2.9375 0.75 2.9375 0 0 Z " fill="#933D47" transform="translate(190,180)"/>
</svg>
