<?xml version="1.0" encoding="UTF-8"?>
<svg version="1.1" xmlns="http://www.w3.org/2000/svg" width="500" height="500">
<path d="M0 0 C0.59522461 0.31163086 1.19044922 0.62326172 1.80371094 0.94433594 C11.98072221 6.30812604 21.02418185 12.84591714 30 20 C30.91313965 20.72727295 30.91313965 20.72727295 31.84472656 21.46923828 C53.07439398 38.57703417 69.66982021 59.72683316 82 84 C82.35787598 84.69270996 82.71575195 85.38541992 83.08447266 86.09912109 C106.37695531 131.55754992 109.06468679 185.23827157 94.16650391 233.71191406 C90.67841213 244.35375755 86.15754701 254.41106101 80.90380859 264.28955078 C80.10827345 265.79509353 79.34270919 267.31639234 78.58203125 268.83984375 C55.25544286 314.33011142 11.40800899 345.61628294 -36.15234375 361.48925781 C-83.07739441 376.30068993 -137.4580954 371.03950452 -181.25463867 349.02148438 C-195.24420595 341.73962753 -208.07759933 333.34739843 -220 323 C-221.24330078 321.92298828 -221.24330078 321.92298828 -222.51171875 320.82421875 C-225.04417431 318.5859574 -227.52919471 316.30608494 -230 314 C-231.29357422 312.80503906 -231.29357422 312.80503906 -232.61328125 311.5859375 C-249.17194281 295.72221253 -262.50966886 275.81459112 -272 255 C-272.3000293 254.34870117 -272.60005859 253.69740234 -272.90917969 253.02636719 C-285.18807718 225.99136824 -290.64892071 197.61438129 -290 168 C-289.98743164 167.32130859 -289.97486328 166.64261719 -289.96191406 165.94335938 C-289.06289845 126.20319976 -274.53620688 86.2696358 -250 55 C-249.39027344 54.19949219 -248.78054687 53.39898437 -248.15234375 52.57421875 C-217.66219962 13.31894079 -174.05352453 -12.81139709 -125 -21 C-123.72511719 -21.22429688 -122.45023438 -21.44859375 -121.13671875 -21.6796875 C-79.28623199 -27.82056294 -37.13061748 -19.77381423 0 0 Z " fill="#FEFEFE" transform="translate(343,77)"/>
<path d="M0 0 C3.72235576 2.84650735 7.28781781 5.73332517 10.453125 9.203125 C10.453125 9.863125 10.453125 10.523125 10.453125 11.203125 C9.793125 11.203125 9.133125 11.203125 8.453125 11.203125 C8.453125 13.513125 8.453125 15.823125 8.453125 18.203125 C9.113125 18.203125 9.773125 18.203125 10.453125 18.203125 C14.47190803 27.60756222 13.83084742 37.32058186 13.703125 47.328125 C13.69053458 49.12149528 13.67873914 50.91487131 13.66772461 52.70825195 C13.38529773 89.36077686 13.38529773 89.36077686 11.453125 97.203125 C7.11922701 95.53705229 4.32017465 92.32783893 1.140625 89.078125 C0.59728516 88.53414063 0.05394531 87.99015625 -0.50585938 87.4296875 C-4.07364797 83.82398852 -7.43475914 80.07646141 -10.75463867 76.24267578 C-13.76607341 72.81568684 -16.90983468 69.51480468 -20.046875 66.203125 C-24.42562198 61.58061272 -28.71183355 56.90475001 -32.88574219 52.09619141 C-35.33663285 49.3030982 -37.87977375 46.60040313 -40.421875 43.890625 C-44.12830147 39.91148875 -47.69758647 35.87932816 -51.109375 31.640625 C-61.88623839 17.44085803 -61.88623839 17.44085803 -76.546875 8.203125 C-81.52057923 7.80412881 -81.52057923 7.80412881 -85.984375 9.703125 C-86.5 10.198125 -87.015625 10.693125 -87.546875 11.203125 C-87.00280051 15.12046135 -85.90080115 17.09594249 -83.546875 20.203125 C-81.15576862 25.66758718 -81.27273279 30.8061488 -81.31640625 36.65625 C-81.31709358 38.17759552 -81.31709358 38.17759552 -81.3177948 39.72967529 C-81.3208111 41.87806364 -81.32867876 44.02644992 -81.34106445 46.17480469 C-81.35908092 49.40047316 -81.36157542 52.62584942 -81.36132812 55.8515625 C-81.41700894 90.2261771 -81.41700894 90.2261771 -84.421875 101.328125 C-84.58300781 101.99070312 -84.74414062 102.65328125 -84.91015625 103.3359375 C-86.11121127 108.10291558 -87.7623695 112.62459374 -89.546875 117.203125 C-83.76330435 119.21480175 -78.64468501 119.42397124 -72.546875 119.203125 C-70.08353931 114.1621582 -69.10269304 110.07256871 -69.11450195 104.43188477 C-69.1043103 103.68959122 -69.09411865 102.94729767 -69.08361816 102.18251038 C-69.05366216 99.75310549 -69.04424927 97.324096 -69.03515625 94.89453125 C-69.0182966 93.20058398 -69.00014463 91.50664912 -68.98075867 89.81272888 C-68.93339204 85.37244547 -68.90349665 80.9322124 -68.87731934 76.49176025 C-68.84744626 71.95339011 -68.8009392 67.41519319 -68.75585938 62.87695312 C-68.66997816 53.98576795 -68.6025656 45.09454697 -68.546875 36.203125 C-67.556875 36.203125 -66.566875 36.203125 -65.546875 36.203125 C-64.18510578 37.84663957 -62.85725434 39.51835156 -61.546875 41.203125 C-60.48361871 42.12269801 -59.39962465 43.0188041 -58.296875 43.890625 C-57.389375 44.65375 -56.481875 45.416875 -55.546875 46.203125 C-55.546875 46.863125 -55.546875 47.523125 -55.546875 48.203125 C-54.886875 48.203125 -54.226875 48.203125 -53.546875 48.203125 C-51.83694066 49.8253704 -50.17339816 51.49725925 -48.546875 53.203125 C-47.94875 53.739375 -47.350625 54.275625 -46.734375 54.828125 C-45.546875 56.203125 -45.546875 56.203125 -45.546875 59.203125 C-44.96566895 59.45602295 -44.38446289 59.7089209 -43.78564453 59.96948242 C-39.60771473 62.27167209 -36.65063456 66.05871517 -33.421875 69.515625 C-32.69355469 70.27552734 -31.96523437 71.03542969 -31.21484375 71.81835938 C-30.51746094 72.56021484 -29.82007813 73.30207031 -29.1015625 74.06640625 C-28.46718262 74.73969971 -27.83280273 75.41299316 -27.17919922 76.10668945 C-25.41817006 78.36842403 -24.59834736 80.55624664 -23.546875 83.203125 C-22.886875 83.368125 -22.226875 83.533125 -21.546875 83.703125 C-20.886875 83.868125 -20.226875 84.033125 -19.546875 84.203125 C-18.86555049 85.86385349 -18.19945373 87.530892 -17.546875 89.203125 C-16.99644531 89.45964844 -16.44601563 89.71617187 -15.87890625 89.98046875 C-12.39837261 91.80527114 -9.96441969 94.53511258 -7.234375 97.328125 C-6.36607056 98.20609741 -6.36607056 98.20609741 -5.48022461 99.10180664 C-1.86277206 102.78430118 1.62301726 106.54600983 4.953125 110.4921875 C6.5141629 112.27274636 8.17367432 113.88611162 9.890625 115.515625 C12.453125 118.203125 12.453125 118.203125 12.453125 121.203125 C11.463125 121.71875 10.473125 122.234375 9.453125 122.765625 C6.51661057 124.43102296 4.12473654 126.29638507 1.640625 128.578125 C-6.98726698 136.28395219 -16.59215408 140.03390989 -27.546875 143.203125 C-28.37703125 143.45191406 -29.2071875 143.70070313 -30.0625 143.95703125 C-48.81063406 148.64406476 -68.93473671 144.5605719 -85.6328125 135.53515625 C-91.7014611 131.82087132 -97.82136634 127.57036941 -102.546875 122.203125 C-102.546875 121.213125 -102.546875 120.223125 -102.546875 119.203125 C-99.906875 118.873125 -97.266875 118.543125 -94.546875 118.203125 C-94.81242188 117.27113281 -95.07796875 116.33914063 -95.3515625 115.37890625 C-95.70872166 114.09125348 -96.06546972 112.80348664 -96.421875 111.515625 C-96.94394531 109.65357422 -96.94394531 109.65357422 -97.4765625 107.75390625 C-100.51949063 95.48129688 -100.91336014 83.3691441 -100.98828125 70.8046875 C-100.99518415 69.89861126 -101.00208706 68.99253502 -101.00919914 68.05900192 C-101.04475825 63.27875396 -101.06845264 58.49861998 -101.08227539 53.71826172 C-101.09892896 48.79861393 -101.15758507 43.88037662 -101.22541904 38.96120644 C-101.27021016 35.15555517 -101.28376902 31.35024574 -101.28889275 27.54435349 C-101.29676482 25.73026016 -101.31634455 23.91617668 -101.34811592 22.10234451 C-101.57942773 7.98562439 -101.57942773 7.98562439 -99.01835632 3.56443787 C-97.27861916 1.79394624 -95.65633554 0.49420642 -93.546875 -0.796875 C-92.78761719 -1.40917969 -92.02835938 -2.02148438 -91.24609375 -2.65234375 C-85.90220198 -6.19072646 -80.60369577 -8.7177961 -74.546875 -10.796875 C-73.56589844 -11.17070312 -72.58492187 -11.54453125 -71.57421875 -11.9296875 C-47.6702265 -20.07812824 -20.29539472 -14.31883677 0 0 Z " fill="#FBF9FA" transform="translate(226.546875,181.796875)"/>
<path d="M0 0 C1.9812585 0.72045764 3.97669589 1.40781343 6 2 C6 2.66 6 3.32 6 4 C6.71414062 4.24492187 7.42828125 4.48984375 8.1640625 4.7421875 C16.58400871 8.476654 23.29180949 15.93986963 29 23 C29.80566406 23.93328125 30.61132812 24.8665625 31.44140625 25.828125 C39.6507617 35.69383502 46.46567198 48.96118462 46 62 C43.03 62 40.06 62 37 62 C36.01 57.545 36.01 57.545 35 53 C34.34 53 33.68 53 33 53 C33.00523682 53.69037354 33.01047363 54.38074707 33.01586914 55.09204102 C33.03677867 58.24885126 33.04970442 61.40564686 33.0625 64.5625 C33.07087891 65.64853516 33.07925781 66.73457031 33.08789062 67.85351562 C33.09111328 68.91376953 33.09433594 69.97402344 33.09765625 71.06640625 C33.10289307 72.03521729 33.10812988 73.00402832 33.11352539 74.00219727 C33 77 33 77 32.51367188 80.2265625 C31.8731971 84.93149504 31.76916413 89.56571549 31.68359375 94.30859375 C31.6524221 95.75867577 31.6524221 95.75867577 31.62062073 97.23805237 C31.55561009 100.30446758 31.49646723 103.37096322 31.4375 106.4375 C31.3942686 108.5253987 31.35065288 110.61328949 31.30664062 112.70117188 C31.19997885 117.80070033 31.09857691 122.90030911 31 128 C31.99 128 32.98 128 34 128 C32.57030404 132.46882108 30.1122485 135.4654867 26.9375 138.8125 C26.44000244 139.34020996 25.94250488 139.86791992 25.42993164 140.41162109 C23.96363685 141.95145382 22.48336942 143.47663778 21 145 C19.96359375 146.09248047 19.96359375 146.09248047 18.90625 147.20703125 C1.00030383 164.65111769 -22.59905375 169.56899475 -46.640625 169.2734375 C-67.18453648 168.65772977 -86.50330593 159.37625178 -101.25 145.125 C-102.52273991 143.77102137 -103.77136543 142.39412413 -105 141 C-105.79664062 140.09765625 -106.59328125 139.1953125 -107.4140625 138.265625 C-111.37793003 133.60965361 -114.33748519 129.96755317 -116 124 C-116.66 124 -117.32 124 -118 124 C-118.24234375 123.38253906 -118.4846875 122.76507813 -118.734375 122.12890625 C-119.06953125 121.28199219 -119.4046875 120.43507813 -119.75 119.5625 C-120.11480469 118.63953125 -120.47960937 117.7165625 -120.85546875 116.765625 C-121.83927492 114.38837323 -122.92349559 112.11689502 -124.0625 109.8125 C-133.63005057 88.2193325 -129.1062201 63.29210528 -121.34375 41.9453125 C-120 39 -120 39 -117.85546875 36.16796875 C-115.41057572 31.9936356 -115.57485342 28.91223633 -115.8125 24.1875 C-115.90557354 21.45658624 -115.96743117 18.73282058 -116 16 C-115.67 15.67 -115.34 15.34 -115 15 C-112.875 15 -110.75 15 -108.625 15 C-101.27389211 14.54521543 -97.88610757 12.24079763 -92.57421875 7.34765625 C-69.06205981 -14.09514728 -26.58511378 -16.36007002 0 0 Z M-68 4 C-68.97066406 4.37382812 -69.94132812 4.74765625 -70.94140625 5.1328125 C-79.49154074 8.72410682 -88.02177895 13.81440281 -94 21 C-94.49082464 23.84576715 -94.67638613 26.090914 -94.63110352 28.92944336 C-94.63825882 29.71413498 -94.64541412 30.4988266 -94.65278625 31.30729675 C-94.66968683 33.90207282 -94.65023364 36.49512091 -94.62890625 39.08984375 C-94.62973623 40.91329591 -94.6322005 42.73674799 -94.63621521 44.56019592 C-94.63907598 48.39281611 -94.62436986 52.22485304 -94.59692383 56.05737305 C-94.56324617 60.90444294 -94.56908017 65.75045216 -94.58707619 70.59757042 C-94.89452041 102.26697401 -94.89452041 102.26697401 -88 133 C-90.64 133.33 -93.28 133.66 -96 134 C-95.09682158 139.46660622 -91.22875702 141.80248894 -87 145 C-80.23274664 149.77960381 -73.40689776 153.49931779 -65.6875 156.4375 C-65.04232422 156.68443604 -64.39714844 156.93137207 -63.73242188 157.18579102 C-45.82367842 163.61744952 -23.54490762 160.70424011 -6.39453125 153.25390625 C1.2334417 149.25948648 8.12588463 144.25104655 14.37890625 138.34765625 C16 137 16 137 19 136 C18.53292113 131.65413572 15.93340749 129.66673739 12.875 126.75 C9.57965553 123.56071747 6.35050462 120.36981439 3.375 116.875 C-0.4928119 112.36099192 -4.53380564 107.92952334 -9 104 C-9.66 104 -10.32 104 -11 104 C-11.2475 103.195625 -11.495 102.39125 -11.75 101.5625 C-12.1625 100.716875 -12.575 99.87125 -13 99 C-13.66 98.835 -14.32 98.67 -15 98.5 C-15.66 98.335 -16.32 98.17 -17 98 C-17.28488281 97.25363281 -17.56976563 96.50726563 -17.86328125 95.73828125 C-19.174329 92.58005283 -20.70827439 91.02164184 -23.1875 88.6875 C-26.84403015 85.17205783 -30.18371561 81.55323647 -33.39453125 77.62890625 C-35.12985477 75.86824954 -36.79802106 75.0750561 -39 74 C-39.12375 73.401875 -39.2475 72.80375 -39.375 72.1875 C-40.37726402 68.67957592 -43.21569857 67.20423863 -46 65 C-46.33 64.34 -46.66 63.68 -47 63 C-47.66 63 -48.32 63 -49 63 C-49.25652344 62.40445313 -49.51304687 61.80890625 -49.77734375 61.1953125 C-51.10969687 58.80303629 -52.43368605 57.57271801 -54.5625 55.875 C-57.90277778 53.19444444 -57.90277778 53.19444444 -59 51 C-59.99 51 -60.98 51 -62 51 C-62.00586624 51.93658951 -62.01173248 52.87317902 -62.01777649 53.83815002 C-62.07508113 62.68053884 -62.14788304 71.52268354 -62.23571491 80.36482334 C-62.28037212 84.91027096 -62.31963842 89.45562992 -62.34643555 94.0012207 C-62.37251502 98.39100752 -62.41295006 102.78045228 -62.46318626 107.17002678 C-62.47982364 108.84164094 -62.49135737 110.51331422 -62.49761391 112.18499947 C-62.50728932 114.53328116 -62.53538814 116.88069392 -62.56762695 119.22875977 C-62.56619186 119.91424896 -62.56475677 120.59973816 -62.5632782 121.30599976 C-62.6588597 126.2542425 -63.86537877 129.63171402 -66 134 C-67.52040718 134.05506505 -69.04142704 134.09326375 -70.5625 134.125 C-71.40941406 134.14820313 -72.25632812 134.17140625 -73.12890625 134.1953125 C-76.61101255 133.95843452 -79.67886652 133.04272918 -83 132 C-82.66226563 131.03320312 -82.32453125 130.06640625 -81.9765625 129.0703125 C-74.96619067 108.74914125 -74.79913357 88.87426866 -74.75976562 67.51879883 C-74.74989664 64.27856273 -74.71867113 61.03892084 -74.6875 57.79882812 C-74.68098204 55.71614952 -74.67572686 53.63346649 -74.671875 51.55078125 C-74.6595282 50.59343582 -74.6471814 49.63609039 -74.63446045 48.6497345 C-74.65633266 42.07320911 -75.44198634 37.10615945 -79.75 31.875 C-81 30 -81 30 -80.875 27.375 C-80 25 -80 25 -77 23 C-70.45402521 22.38245521 -66.4490915 24.0836306 -61.32421875 28.09375 C-55.83755002 33.10084324 -50.9855716 38.24124587 -46.38671875 44.0703125 C-43.67258725 47.40189781 -40.80594418 50.54729972 -37.875 53.6875 C-34.70281515 57.08700754 -31.53873404 60.47951544 -28.5 64 C-24.93979929 68.11593936 -21.23769875 72.09583438 -17.53857422 76.08642578 C-14.53904351 79.32479937 -11.56584947 82.58300432 -8.625 85.875 C-4.7357692 90.21216781 -0.78365969 94.48798895 3.1875 98.75 C3.76999512 99.37632324 4.35249023 100.00264648 4.95263672 100.64794922 C6.62667337 102.44016438 8.3100522 104.22278726 10 106 C10.55768066 106.58974609 11.11536133 107.17949219 11.68994141 107.78710938 C13.08640748 109.23140832 14.53877914 110.62125037 16 112 C16.66 112 17.32 112 18 112 C21.661473 97.13872725 20.13752774 80.05393161 20.23117065 64.80703735 C20.24363072 63.03223472 20.26107209 61.25745941 20.28372192 59.48275757 C20.54032448 45.95882974 20.54032448 45.95882974 17 33 C16.34 33 15.68 33 15 33 C15 30.69 15 28.38 15 26 C15.66 26 16.32 26 17 26 C13.40048549 17.75711177 4.56516288 13.15049209 -3 9 C-3.82757813 8.54496094 -4.65515625 8.08992188 -5.5078125 7.62109375 C-23.95007719 -2.06254053 -48.57074014 -3.65167763 -68 4 Z " fill="#991926" transform="translate(220,167)"/>
<path d="M0 0 C0.66 0.33 1.32 0.66 2 1 C2.625 4.0625 2.625 4.0625 3 7 C4.32 7.33 5.64 7.66 7 8 C6.67 8.33 6.34 8.66 6 9 C5.88358919 11.5004607 5.83199942 13.97366756 5.82299805 16.4753418 C5.81642685 17.25944931 5.80985565 18.04355682 5.80308533 18.85142517 C5.78326042 21.46735735 5.77165388 24.08323114 5.76171875 26.69921875 C5.75764322 27.59757761 5.7535677 28.49593647 5.74936867 29.42151833 C5.72844407 34.19954831 5.71418436 38.97754925 5.70483398 43.75561523 C5.69605925 47.67276988 5.67540046 51.58955985 5.64331055 55.5065918 C4.99004507 85.53291981 4.99004507 85.53291981 10 115 C10.33 115.33 10.66 115.66 11 116 C11.04063832 117.66617115 11.042721 119.33388095 11 121 C8.36 121.33 5.72 121.66 3 122 C2.505 123.485 2.505 123.485 2 125 C1.37351562 124.98839844 0.74703125 124.97679687 0.1015625 124.96484375 C-0.71570313 124.95582031 -1.53296875 124.94679688 -2.375 124.9375 C-3.18710938 124.92589844 -3.99921875 124.91429687 -4.8359375 124.90234375 C-7.04937142 124.85533666 -7.04937142 124.85533666 -9 126 C-10.15330947 124.42210402 -11.29737927 122.8374518 -12.4375 121.25 C-13.07558594 120.36828125 -13.71367188 119.4865625 -14.37109375 118.578125 C-15.8275081 116.27300875 -16.55931821 114.65650428 -17 112 C-17.66 112 -18.32 112 -19 112 C-19.24234375 111.38253906 -19.4846875 110.76507813 -19.734375 110.12890625 C-20.06953125 109.28199219 -20.4046875 108.43507813 -20.75 107.5625 C-21.11480469 106.63953125 -21.47960937 105.7165625 -21.85546875 104.765625 C-22.83927492 102.38837323 -23.92349559 100.11689502 -25.0625 97.8125 C-34.63005057 76.2193325 -30.1062201 51.29210528 -22.34375 29.9453125 C-21 27 -21 27 -18.85546875 24.16796875 C-16.41057572 19.9936356 -16.57485342 16.91223633 -16.8125 12.1875 C-16.90557354 9.45658624 -16.96743117 6.73282058 -17 4 C-14.60043729 1.60043729 -8.4714488 2.53424018 -5.22265625 2.37890625 C-1.91423026 2.32736325 -1.91423026 2.32736325 0 0 Z " fill="#9A1623" transform="translate(121,179)"/>
<path d="M0 0 C1.67004829 0.31595508 3.33637583 0.65179959 5 1 C7.72502965 0.62277985 7.72502965 0.62277985 10 0 C13.17124879 4.26449509 13.40071705 7.92399071 13.25 13.0625 C13.24484375 13.76955078 13.2396875 14.47660156 13.234375 15.20507812 C13.15657905 20.38337072 13.15657905 20.38337072 12.51855469 22.89599609 C6.07603574 49.0361224 9.37916937 80.26997626 9 107 C7.72318359 107.19239258 6.44636719 107.38478516 5.13085938 107.58300781 C4.41265015 107.69122864 3.69444092 107.79944946 2.95446777 107.91094971 C1 108 1 108 -1.09375 106.671875 C-1.78984375 105.72054687 -1.78984375 105.72054687 -2.5 104.75 C-2.9846875 104.12609375 -3.469375 103.5021875 -3.96875 102.859375 C-5 101 -5 101 -5 98 C-5.66 98 -6.32 98 -7 98 C-8 97 -9 96 -10 95 C-10.99 94.67 -11.98 94.34 -13 94 C-13 93.01 -13 92.02 -13 91 C-13.99 90.67 -14.98 90.34 -16 90 C-16.33 89.34 -16.66 88.68 -17 88 C-17.99 87.67 -18.98 87.34 -20 87 C-20 86.01 -20 85.02 -20 84 C-20.66 83.34 -21.32 82.68 -22 82 C-21.34 82 -20.68 82 -20 82 C-19.67 80.35 -19.34 78.7 -19 77 C-17.02 76.505 -17.02 76.505 -15 76 C-15 77.32 -15 78.64 -15 80 C-14.01 80 -13.02 80 -12 80 C-11.34 80.99 -10.68 81.98 -10 83 C-9.01 83.33 -8.02 83.66 -7 84 C-7 84.99 -7 85.98 -7 87 C-5.02 87 -3.04 87 -1 87 C0.22608785 79.33588082 0.1639335 71.7022999 0.16796875 63.95703125 C0.17118728 62.50070667 0.17455179 61.0443824 0.17805481 59.58805847 C0.18401417 56.54966481 0.18589777 53.51129948 0.18530273 50.47290039 C0.18520073 46.58591016 0.19890625 42.69910102 0.21607494 38.81215382 C0.2272018 35.81039091 0.22922181 32.80867191 0.22869301 29.80689049 C0.22987003 28.37360695 0.23427618 26.94032217 0.24202538 25.5070591 C0.25184837 23.50448599 0.247677 21.50185912 0.24291992 19.49926758 C0.24434494 18.36201736 0.24576996 17.22476715 0.24723816 16.05305481 C-0.00352356 12.95648881 -0.76748657 10.82492116 -2 8 C-2.25 4.8125 -2.25 4.8125 -2 2 C-1.34 1.34 -0.68 0.68 0 0 Z " fill="#991624" transform="translate(240,193)"/>
<path d="M0 0 C5.59048707 0.06162742 8.27391701 2.72274927 12.3515625 6.2734375 C19.56522654 12.36451406 27.6043795 16.65949479 36.375 20 C37.02033691 20.2470166 37.66567383 20.4940332 38.33056641 20.74853516 C56.24405314 27.18125128 78.49710942 24.25788753 95.65625 16.82421875 C101.83866557 13.58246513 107.83942134 9.84769409 112.71875 4.83203125 C115.0625 2.5625 115.0625 2.5625 118.25 2.1875 C121.0625 2.5625 121.0625 2.5625 123.0625 3.5625 C123.0625 2.9025 123.0625 2.2425 123.0625 1.5625 C124.7125 1.5625 126.3625 1.5625 128.0625 1.5625 C127.03795913 7.99834828 121.28214274 12.21855813 116.26367188 15.87207031 C107.97889474 21.53598203 99.50077559 26.10085701 90.0625 29.5625 C89.32515625 29.86800781 88.5878125 30.17351562 87.828125 30.48828125 C70.18253939 37.7038211 45.71787167 35.1402497 28.37109375 28.0546875 C16.50472847 22.45365888 0.6556523 14.04377089 -4.9375 1.5625 C-3.9375 0.5625 -3.9375 0.5625 0 0 Z " fill="#0F0E0E" transform="translate(117.9375,302.4375)"/>
<path d="M0 0 C1.9812585 0.72045764 3.97669589 1.40781343 6 2 C6 2.66 6 3.32 6 4 C6.71027344 4.24105469 7.42054688 4.48210937 8.15234375 4.73046875 C11.43013102 6.19175937 13.79971636 8.02619087 16.5625 10.3125 C17.49191406 11.07175781 18.42132813 11.83101562 19.37890625 12.61328125 C21.92100682 14.92807029 24.03029617 17.18346388 26 20 C25.75 22.3125 25.75 22.3125 25 24 C22.00482686 24.78820346 20.02635452 25.29512322 17 25 C15.01498326 23.54765977 13.58360508 21.88176664 11.9609375 20.03515625 C-1.29559604 6.2768814 -21.49661247 1.07506195 -39.90307617 0.70776367 C-50.02160612 0.63412597 -58.48912218 1.25440333 -68 5 C-68.97066406 5.37382812 -69.94132812 5.74765625 -70.94140625 6.1328125 C-78.27325852 9.2123944 -85.34690283 13.34690283 -91 19 C-93.5 19.3125 -93.5 19.3125 -96 19 C-98 16 -98 16 -98.0625 13.6875 C-94.64465035 5.0423509 -82.44382488 -0.03214974 -74.5 -3.625 C-50.76079402 -12.98139624 -22.29145808 -13.71782036 0 0 Z " fill="#111111" transform="translate(220,167)"/>
<path d="M0 0 C19.92857143 0 19.92857143 0 26.375 4.75 C28.68663529 7.95072579 29 10.05160147 29 14 C27.51457341 18.29825565 25.49033538 22.02402984 22 25 C21.34 25 20.68 25 20 25 C22.25291511 29.2461722 24.98165033 32.06490336 28.5625 35.25 C30.01849609 36.55710937 30.01849609 36.55710937 31.50390625 37.890625 C33.79748181 39.99696495 33.79748181 39.99696495 36 41 C35.67 42.32 35.34 43.64 35 45 C32.3125 45.375 32.3125 45.375 29 45 C26.625 42.4375 26.625 42.4375 25.421875 40.79296875 C22.02410443 36.5084174 17.52833204 33.01888803 13 30 C13 29.34 13 28.68 13 28 C10.69 28 8.38 28 6 28 C6 33.28 6 38.56 6 44 C4.02 44 2.04 44 0 44 C0 29.48 0 14.96 0 0 Z " fill="#38373C" transform="translate(256,250)"/>
<path d="M0 0 C0.66 0.33 1.32 0.66 2 1 C2.625 4.0625 2.625 4.0625 3 7 C4.32 7.33 5.64 7.66 7 8 C6.67 8.33 6.34 8.66 6 9 C5.88358919 11.5004607 5.83199942 13.97366756 5.82299805 16.4753418 C5.81642685 17.25944931 5.80985565 18.04355682 5.80308533 18.85142517 C5.78326042 21.46735735 5.77165388 24.08323114 5.76171875 26.69921875 C5.75764322 27.59757761 5.7535677 28.49593647 5.74936867 29.42151833 C5.72844407 34.19954831 5.71418436 38.97754925 5.70483398 43.75561523 C5.69605925 47.67276988 5.67540046 51.58955985 5.64331055 55.5065918 C4.99004507 85.53291981 4.99004507 85.53291981 10 115 C10.33 115.33 10.66 115.66 11 116 C11.04063832 117.66617115 11.042721 119.33388095 11 121 C8.36 121.33 5.72 121.66 3 122 C2.67 122.99 2.34 123.98 2 125 C1.37351562 124.98839844 0.74703125 124.97679687 0.1015625 124.96484375 C-0.71570313 124.95582031 -1.53296875 124.94679688 -2.375 124.9375 C-3.18710938 124.92589844 -3.99921875 124.91429687 -4.8359375 124.90234375 C-7.04937142 124.85533666 -7.04937142 124.85533666 -9 126 C-10.98 123.03 -12.96 120.06 -15 117 C-11 118 -11 118 -9.75 120.0625 C-9.5025 120.701875 -9.255 121.34125 -9 122 C-7.67935547 121.7834375 -7.67935547 121.7834375 -6.33203125 121.5625 C-5.17058594 121.376875 -4.00914063 121.19125 -2.8125 121 C-1.66394531 120.814375 -0.51539062 120.62875 0.66796875 120.4375 C3.50415393 120.06510523 6.14719564 119.91403979 9 120 C7.79808763 113.53013127 6.36354288 107.44896141 3.9375 101.3125 C1.35939878 92.20320903 1.92281569 82.55764765 2.14059639 73.17890739 C2.19263662 70.9112296 2.23608155 68.64352407 2.27732849 66.37562561 C2.39578748 59.93595113 2.52809754 53.49660029 2.66870117 47.05737305 C2.75460643 43.09611949 2.82976819 39.13477371 2.89863396 35.17318916 C2.92681577 33.67697411 2.95907124 32.18082941 2.99569893 30.68479729 C3.19381076 22.57172001 3.13042975 14.89258145 1 7 C-0.93742341 6.97296619 -2.87495479 6.95358875 -4.8125 6.9375 C-6.43091797 6.92009766 -6.43091797 6.92009766 -8.08203125 6.90234375 C-11.06512169 6.86375234 -11.06512169 6.86375234 -14 8 C-13.71998887 12.30740531 -13.43424343 16.61436942 -13.14111328 20.92089844 C-13.00765264 22.88724929 -12.87679401 24.85377624 -12.74609375 26.8203125 C-12.62427734 28.54894531 -12.62427734 28.54894531 -12.5 30.3125 C-12.4278125 31.36050781 -12.355625 32.40851563 -12.28125 33.48828125 C-12.146911 35.99359838 -12.146911 35.99359838 -11 38 C-10.90455381 39.6476224 -10.87204844 41.29907886 -10.87060547 42.94946289 C-10.86745331 43.98136246 -10.86430115 45.01326202 -10.86105347 46.07643127 C-10.8630777 47.19718552 -10.86510193 48.31793976 -10.8671875 49.47265625 C-10.86623077 50.62487167 -10.86527405 51.7770871 -10.86428833 52.96421814 C-10.8636065 55.40965835 -10.865461 57.85510036 -10.86962891 60.30053711 C-10.87494313 64.02266586 -10.86970169 67.74467206 -10.86328125 71.46679688 C-10.8639427 73.84375026 -10.86522524 76.22070358 -10.8671875 78.59765625 C-10.86516327 79.70424088 -10.86313904 80.8108255 -10.86105347 81.95094299 C-10.87929602 88.05057116 -11.20158095 93.9515991 -12 100 C-12.99 99.67 -13.98 99.34 -15 99 C-22.60753993 82.87201536 -22.96516719 58.74624916 -17 42 C-16.64164062 41.32582031 -16.28328125 40.65164062 -15.9140625 39.95703125 C-14.83481584 37.64633649 -14.73280964 35.97737618 -14.75 33.4375 C-14.74484375 32.67308594 -14.7396875 31.90867188 -14.734375 31.12109375 C-14.8770439 28.70017238 -14.8770439 28.70017238 -17 26 C-17.268125 26.61875 -17.53625 27.2375 -17.8125 27.875 C-19 30 -19 30 -22 32 C-21.08353804 28.96862581 -20.30367558 26.41878453 -18.43359375 23.83984375 C-16.44783409 19.90619996 -16.70699351 16.58164549 -16.875 12.25 C-16.95235468 9.4970834 -16.99408854 6.75474108 -17 4 C-14.60043729 1.60043729 -8.4714488 2.53424018 -5.22265625 2.37890625 C-1.91423026 2.32736325 -1.91423026 2.32736325 0 0 Z " fill="#8A3541" transform="translate(121,179)"/>
<path d="M0 0 C10.95331404 7.45757552 17.52955378 22.31952782 20 35 C20.05334528 36.99928844 20.06820956 39.00116347 20 41 C17.03 41 14.06 41 11 41 C10.34 38.03 9.68 35.06 9 32 C8.34 32 7.68 32 7 32 C7.00523682 32.69037354 7.01047363 33.38074707 7.01586914 34.09204102 C7.03677867 37.24885126 7.04970442 40.40564686 7.0625 43.5625 C7.07087891 44.64853516 7.07925781 45.73457031 7.08789062 46.85351562 C7.09111328 47.91376953 7.09433594 48.97402344 7.09765625 50.06640625 C7.10289307 51.03521729 7.10812988 52.00402832 7.11352539 53.00219727 C7 56 7 56 6.51367188 59.2265625 C5.8731971 63.93149504 5.76916413 68.56571549 5.68359375 73.30859375 C5.66281265 74.27531509 5.64203156 75.24203644 5.62062073 76.23805237 C5.55561009 79.30446758 5.49646723 82.37096322 5.4375 85.4375 C5.3942686 87.5253987 5.35065288 89.61328949 5.30664062 91.70117188 C5.19997885 96.80070033 5.09857691 101.90030911 5 107 C5.99 107 6.98 107 8 107 C6.5140084 111.59306496 4.14985318 114.43569245 1 118 C0.505 117.01 0.505 117.01 0 116 C-1.65 116 -3.3 116 -5 116 C-5 116.66 -5 117.32 -5 118 C-6.98 117.67 -8.96 117.34 -11 117 C-10.505 116.01 -10.505 116.01 -10 115 C-9.01 115 -8.02 115 -7 115 C-9.14050841 111.07457253 -11.57924306 108.26182573 -14.8125 105.1875 C-19.0284931 101.07027101 -22.66544868 96.85272102 -26 92 C-22.77206212 92.70694507 -21.06195905 93.31945323 -19 96 C-19 96.99 -19 97.98 -19 99 C-17.35 99.33 -15.7 99.66 -14 100 C-13.67 100.99 -13.34 101.98 -13 103 C-12.34 103 -11.68 103 -11 103 C-10.87625 104.175625 -10.87625 104.175625 -10.75 105.375 C-10.29150599 108.1446618 -10.29150599 108.1446618 -8 109.125 C-7.34 109.41375 -6.68 109.7025 -6 110 C-5.67 110.99 -5.34 111.98 -5 113 C-2.36 112.67 0.28 112.34 3 112 C2.99555878 111.42990707 2.99111755 110.85981415 2.98654175 110.27244568 C2.46552328 40.0963035 2.46552328 40.0963035 6 26 C6.11962823 23.27915336 6.18506686 20.5952561 6.1875 17.875 C6.20586914 16.78251953 6.20586914 16.78251953 6.22460938 15.66796875 C6.22985188 13.77717022 6.12233385 11.88684419 6 10 C5.34 9.34 4.68 8.68 4 8 C4 7.01 4 6.02 4 5 C2.39125 5.495 2.39125 5.495 0.75 6 C-3 7 -3 7 -7 7 C-6.85892253 8.45880109 -6.71197585 9.91703551 -6.5625 11.375 C-6.44068359 12.59316406 -6.44068359 12.59316406 -6.31640625 13.8359375 C-6.10909886 16.04272805 -6.10909886 16.04272805 -5 18 C-4.89813996 20.05094022 -4.86157895 22.1052347 -4.85473633 24.15869141 C-4.84835648 25.45408844 -4.84197662 26.74948547 -4.83540344 28.08413696 C-4.83387404 29.50661176 -4.83276047 30.92908706 -4.83203125 32.3515625 C-4.82881756 33.80927564 -4.8254534 35.26698846 -4.82194519 36.72470093 C-4.8159494 39.7863642 -4.81410555 42.84799924 -4.81469727 45.90966797 C-4.81479846 49.81671391 -4.80119243 53.72357638 -4.78392506 57.63057899 C-4.77275305 60.64534318 -4.77077971 63.66006389 -4.77130699 66.67484665 C-4.77013293 68.11402387 -4.7657436 69.55320243 -4.75797462 70.99235916 C-4.72220686 78.30795792 -4.74118337 85.00253633 -7 92 C-8.98 92 -10.96 92 -13 92 C-13 91.01 -13 90.02 -13 89 C-13.639375 88.896875 -14.27875 88.79375 -14.9375 88.6875 C-15.618125 88.460625 -16.29875 88.23375 -17 88 C-17.33 87.01 -17.66 86.02 -18 85 C-18.99 85 -19.98 85 -21 85 C-21.495 82.03 -21.495 82.03 -22 79 C-17.33333333 83 -12.66666667 87 -8 91 C-7.28265132 75.15727815 -6.87770305 59.3236995 -6.82275391 43.46508789 C-6.81596761 41.70953721 -6.80576475 39.9539961 -6.79199219 38.19848633 C-6.7269418 29.21040629 -6.73461175 20.76606758 -9 12 C-9.66 12 -10.32 12 -11 12 C-11 9.69 -11 7.38 -11 5 C-8.5132579 3.5653411 -6.6883811 2.9511186 -3.8125 2.5 C-2.884375 2.335 -1.95625 2.17 -1 2 C-0.67 1.34 -0.34 0.68 0 0 Z " fill="#93414B" transform="translate(246,188)"/>
<path d="M0 0 C0.99 0.33 1.98 0.66 3 1 C5.33386503 8.00159508 4.00437536 13.41348479 1 20 C-1.01185779 27.25389289 -1.31847491 34.38682169 -1.25 41.875 C-1.24395752 42.93203125 -1.23791504 43.9890625 -1.23168945 45.078125 C-1.1233942 53.58422462 -0.91826645 61.89100142 2.625 69.75 C5.2587604 75.94396919 4.21585504 83.41242391 4 90 C3.01 89.67 2.02 89.34 1 89 C1 88.34 1 87.68 1 87 C0.34 87 -0.32 87 -1 87 C-1.24234375 86.38253906 -1.4846875 85.76507813 -1.734375 85.12890625 C-2.06953125 84.28199219 -2.4046875 83.43507813 -2.75 82.5625 C-3.11480469 81.63953125 -3.47960937 80.7165625 -3.85546875 79.765625 C-4.83927492 77.38837323 -5.92349559 75.11689502 -7.0625 72.8125 C-16.10854875 52.39631883 -12.30526356 29.37859315 -5.84179688 8.86669922 C-4.58447809 6.07857294 -2.45371476 4.72423199 0 3 C0 2.01 0 1.02 0 0 Z " fill="#120E0F" transform="translate(103,204)"/>
<path d="M0 0 C7.92 0 15.84 0 24 0 C24.33 1.32 24.66 2.64 25 4 C19.06 3.67 13.12 3.34 7 3 C7.33 7.29 7.66 11.58 8 16 C12.95 16.33 17.9 16.66 23 17 C23 18.32 23 19.64 23 21 C17.39 21 11.78 21 6 21 C5.67 25.95 5.34 30.9 5 36 C10.94 36 16.88 36 23 36 C23 37.65 23 39.3 23 41 C15.41 41 7.82 41 0 41 C0 27.47 0 13.94 0 0 Z " fill="#636265" transform="translate(302,255)"/>
<path d="M0 0 C2.31 0 4.62 0 7 0 C7 12.87 7 25.74 7 39 C15.415 38.505 15.415 38.505 24 38 C23.67 39.65 23.34 41.3 23 43 C15.41 43 7.82 43 0 43 C0 28.81 0 14.62 0 0 Z " fill="#38383A" transform="translate(339,254)"/>
<path d="M0 0 C0.66 0 1.32 0 2 0 C2 19.47 2 38.94 2 59 C-6.08377124 50.91622876 -5.23315111 38.80683529 -5.3125 28.0625 C-5.28773685 7.93160527 -5.28773685 7.93160527 0 0 Z " fill="#EDECED" transform="translate(106,218)"/>
<path d="M0 0 C1.98 0 3.96 0 6 0 C6.13088769 14.03921478 5.85120257 27.98555763 5 42 C2.69 42 0.38 42 -2 42 C-2.38269012 27.92550794 -1.20634311 14.01411353 0 0 Z " fill="#1E1D1D" transform="translate(379,254)"/>
<path d="M0 0 C0.33 0 0.66 0 1 0 C1.33 1.98 1.66 3.96 2 6 C2.33 5.67 2.66 5.34 3 5 C6.30516934 4.74964026 9.62396041 4.81478048 12.9375 4.8125 C14.33645508 4.79413086 14.33645508 4.79413086 15.76367188 4.77539062 C17.10075195 4.77249023 17.10075195 4.77249023 18.46484375 4.76953125 C19.285896 4.76542236 20.10694824 4.76131348 20.95288086 4.75708008 C23 5 23 5 25 7 C18.07 6.67 11.14 6.34 4 6 C4 20.52 4 35.04 4 50 C5.65 50 7.3 50 9 50 C9 50.33 9 50.66 9 51 C7.02 51 5.04 51 3 51 C2.67 51.66 2.34 52.32 2 53 C2 52.34 2 51.68 2 51 C1.01 51 0.02 51 -1 51 C-1.02479809 44.86190075 -1.04290645 38.72383095 -1.05493164 32.58569336 C-1.0599471 30.49942517 -1.06676105 28.41316047 -1.07543945 26.3269043 C-1.08762736 23.32079199 -1.09325631 20.31472634 -1.09765625 17.30859375 C-1.10281754 16.38227646 -1.10797882 15.45595917 -1.11329651 14.50157166 C-1.11372084 9.55563335 -0.84322739 4.87554661 0 0 Z " fill="#FCF6F8" transform="translate(252,244)"/>
<path d="M0 0 C9.23076923 0 9.23076923 0 15 3 C17 5 17 5 17.4375 8.375 C17 12 17 12 14.8125 14.3125 C9.2103361 17.67379834 6.94469919 18 0 18 C0 12.06 0 6.12 0 0 Z " fill="#F8F8F9" transform="translate(262,255)"/>
<path d="M0 0 C0.33 0 0.66 0 1 0 C1 20.13 1 40.26 1 61 C1.99 61 2.98 61 4 61 C2.5140084 65.59306496 0.14985318 68.43569245 -3 72 C-3.495 71.01 -3.495 71.01 -4 70 C-5.65 70 -7.3 70 -9 70 C-9 70.66 -9 71.32 -9 72 C-10.98 71.67 -12.96 71.34 -15 71 C-14.505 70.01 -14.505 70.01 -14 69 C-13.01 69 -12.02 69 -11 69 C-13.14050841 65.07457253 -15.57924306 62.26182573 -18.8125 59.1875 C-23.0284931 55.07027101 -26.66544868 50.85272102 -30 46 C-26.77206212 46.70694507 -25.06195905 47.31945323 -23 50 C-23 50.99 -23 51.98 -23 53 C-21.35 53.33 -19.7 53.66 -18 54 C-17.67 54.99 -17.34 55.98 -17 57 C-16.34 57 -15.68 57 -15 57 C-14.87625 58.175625 -14.87625 58.175625 -14.75 59.375 C-14.29150599 62.1446618 -14.29150599 62.1446618 -12 63.125 C-11.01 63.558125 -11.01 63.558125 -10 64 C-9.67 64.99 -9.34 65.98 -9 67 C-6.36 66.67 -3.72 66.34 -1 66 C-1.00222061 65.39437729 -1.00444122 64.78875458 -1.00672913 64.16477966 C-1.02907395 57.78800046 -1.04402664 51.41123262 -1.05493164 45.03442383 C-1.05992072 42.66332547 -1.06671435 40.29223013 -1.07543945 37.92114258 C-1.12088204 25.24266155 -1.16339139 12.63466662 0 0 Z " fill="#882D39" transform="translate(250,234)"/>
<path d="M0 0 C0.33 0 0.66 0 1 0 C1.01030746 0.62179642 1.02061493 1.24359283 1.03123474 1.88423157 C1.14085538 8.4563427 1.25529165 15.02835839 1.37231445 21.6003418 C1.41517378 24.04107635 1.4568742 26.48183159 1.49731445 28.92260742 C1.58259381 56.66617526 1.58259381 56.66617526 5 84.125 C5.17789063 85.08019531 5.35578125 86.03539062 5.5390625 87.01953125 C6.03979086 91.35011041 6.03979086 91.35011041 8 95 C8.04063832 96.66617115 8.042721 98.33388095 8 100 C5.36 100.33 2.72 100.66 0 101 C-0.33 101.99 -0.66 102.98 -1 104 C-1.62648438 103.98839844 -2.25296875 103.97679687 -2.8984375 103.96484375 C-3.71570313 103.95582031 -4.53296875 103.94679688 -5.375 103.9375 C-6.18710938 103.92589844 -6.99921875 103.91429687 -7.8359375 103.90234375 C-10.04937142 103.85533666 -10.04937142 103.85533666 -12 105 C-13.98 102.03 -15.96 99.06 -18 96 C-14 97 -14 97 -12.75 99.0625 C-12.5025 99.701875 -12.255 100.34125 -12 101 C-10.67935547 100.7834375 -10.67935547 100.7834375 -9.33203125 100.5625 C-8.17058594 100.376875 -7.00914063 100.19125 -5.8125 100 C-4.66394531 99.814375 -3.51539062 99.62875 -2.33203125 99.4375 C0.50415393 99.06510523 3.14719564 98.91403979 6 99 C4.79808763 92.53013127 3.36354288 86.44896141 0.9375 80.3125 C-1.78786269 70.68288516 -1.07304091 60.40190465 -0.87890625 50.48828125 C-0.85454296 49.02427502 -0.83070277 47.56026 -0.80735779 46.09623718 C-0.74513336 42.28058705 -0.67589921 38.46509659 -0.60510254 34.64959717 C-0.53385486 30.74108018 -0.46937808 26.83245179 -0.40429688 22.92382812 C-0.27608168 15.28242871 -0.14044587 7.64118546 0 0 Z " fill="#8D2030" transform="translate(124,200)"/>
<path d="M0 0 C0.66 0 1.32 0 2 0 C2 1.65 2 3.3 2 5 C2.66 5 3.32 5 4 5 C4 5.66 4 6.32 4 7 C4.66 7 5.32 7 6 7 C9.49595688 13.08973134 10.71311275 17.99995111 11 25 C8.03 25 5.06 25 2 25 C-0.97277221 17.00182715 -2.77031862 8.31095587 0 0 Z " fill="#190F10" transform="translate(255,204)"/>
<path d="M0 0 C0.99 1.32 1.98 2.64 3 4 C2.360625 4.763125 1.72125 5.52625 1.0625 6.3125 C-1.14232781 8.88246713 -1.14232781 8.88246713 -2 12 C-1.34 12.33 -0.68 12.66 0 13 C-0.99 13.33 -1.98 13.66 -3 14 C-0.74708489 18.2461722 1.98165033 21.06490336 5.5625 24.25 C7.01849609 25.55710937 7.01849609 25.55710937 8.50390625 26.890625 C10.79748181 28.99696495 10.79748181 28.99696495 13 30 C12.67 31.32 12.34 32.64 12 34 C9.3125 34.375 9.3125 34.375 6 34 C3.625 31.4375 3.625 31.4375 2.4296875 29.79296875 C0.1868426 26.98022063 -2.57489584 24.81343279 -5.328125 22.515625 C-7 21 -7 21 -8 19 C-7.34 18.67 -6.68 18.34 -6 18 C-5.34444881 15.47266765 -5.34444881 15.47266765 -5 13 C-6.65 12.67 -8.3 12.34 -10 12 C-7 10 -7 10 -3.875 8.25 C-0.71642931 6.24181925 -0.71642931 6.24181925 -0.125 2.75 C-0.08375 1.8425 -0.0425 0.935 0 0 Z " fill="#2C2B30" transform="translate(279,261)"/>
<path d="M0 0 C3 1 3 1 4.17089844 3.31787109 C5.34568282 8.53521447 5.28508439 13.58185022 5.265625 18.9140625 C5.26753845 20.07892181 5.2694519 21.24378113 5.27142334 22.44393921 C5.27278325 24.91347469 5.26910037 27.38301736 5.26074219 29.85253906 C5.25017563 33.56332295 5.26057351 37.2736075 5.2734375 40.984375 C5.28036085 51.8451007 5.16333262 62.64455541 4.109375 73.4609375 C3.99314789 74.66515854 3.99314789 74.66515854 3.87457275 75.89370728 C3.42771104 79.88982665 2.72449759 83.35647859 1 87 C0.34 87 -0.32 87 -1 87 C-0.10159184 79.55604671 -0.10159184 79.55604671 0.48535156 76.34350586 C1.05820844 72.62183843 1.34805994 68.92373576 1.55078125 65.16796875 C1.61353996 64.01049385 1.61353996 64.01049385 1.67756653 62.82963562 C2.15612802 53.06413825 2.18605359 43.29415264 2.18530273 33.51879883 C2.18752318 30.27868129 2.20585819 27.03888735 2.22460938 23.79882812 C2.22753846 21.71614698 2.2295265 19.63346424 2.23046875 17.55078125 C2.23765427 16.59343582 2.24483978 15.63609039 2.25224304 14.6497345 C2.23423891 9.3691605 1.73379568 4.99695634 0 0 Z " fill="#9A4650" transform="translate(142,201)"/>
<path d="M0 0 C1.65 0 3.3 0 5 0 C5 4.95 5 9.9 5 15 C9.95 15.33 14.9 15.66 20 16 C20 17.32 20 18.64 20 20 C16.87501937 20.02895976 13.7500731 20.04678483 10.625 20.0625 C9.73554688 20.07087891 8.84609375 20.07925781 7.9296875 20.08789062 C6.65351563 20.09272461 6.65351563 20.09272461 5.3515625 20.09765625 C4.17327881 20.10551147 4.17327881 20.10551147 2.97119141 20.11352539 C1 20 1 20 -1 19 C-1.02683987 16.02077407 -1.04676037 13.04178705 -1.0625 10.0625 C-1.07087891 9.21236328 -1.07925781 8.36222656 -1.08789062 7.48632812 C-1.09111328 6.67744141 -1.09433594 5.86855469 -1.09765625 5.03515625 C-1.10289307 4.2862915 -1.10812988 3.53742676 -1.11352539 2.76586914 C-1 1 -1 1 0 0 Z " fill="#1C1A1E" transform="translate(305,256)"/>
<path d="M0 0 C0.33 0 0.66 0 1 0 C1.06962235 9.78822836 1.12287333 19.57639745 1.15543652 29.36482334 C1.1710681 33.91037834 1.19226041 38.45576346 1.22631836 43.0012207 C1.25900146 47.39083963 1.27687187 51.78029553 1.28463173 56.17002678 C1.2901592 57.84171043 1.30095301 59.51338553 1.31719017 61.18499947 C1.33908385 63.53311314 1.34196201 65.88055985 1.34057617 68.22875977 C1.351362 68.91424896 1.36214783 69.59973816 1.3732605 70.30599976 C1.34313657 75.04737397 0.52654151 80.47345849 -3 84 C-9.43239876 84.64077536 -14.28537476 83.9815436 -20 81 C-19.44894091 77.0507432 -18.61064629 73.65079826 -17 70 C-15.62567543 73.81756824 -16.32024961 77.07255329 -17 81 C-15.06440687 81.13504138 -13.126128 81.23201129 -11.1875 81.3125 C-10.10855469 81.37050781 -9.02960938 81.42851562 -7.91796875 81.48828125 C-4.85854212 81.3167705 -4.85854212 81.3167705 -3.35935974 78.86819458 C-1.813098 75.60564428 -1.51158854 73.21855753 -1.33227539 69.62060547 C-1.23573166 67.76239166 -1.23573166 67.76239166 -1.13723755 65.86663818 C-0.91485476 59.60105122 -0.76519613 53.33931284 -0.68359375 47.0703125 C-0.66294543 45.70026131 -0.64194742 44.33021536 -0.62062073 42.96017456 C-0.56621109 39.40611084 -0.51645486 35.85199774 -0.46777344 32.29785156 C-0.41695428 28.65034751 -0.3615882 25.00291253 -0.30664062 21.35546875 C-0.20005597 14.23703936 -0.09840269 7.1185476 0 0 Z " fill="#923C47" transform="translate(157,218)"/>
<path d="M0 0 C6.6 0 13.2 0 20 0 C20.66 0.66 21.32 1.32 22 2 C15.07 1.67 8.14 1.34 1 1 C1 15.52 1 30.04 1 45 C2.65 45 4.3 45 6 45 C6 45.33 6 45.66 6 46 C4.02 46 2.04 46 0 46 C-0.33 46.66 -0.66 47.32 -1 48 C-1 47.34 -1 46.68 -1 46 C-1.99 46 -2.98 46 -4 46 C-4 31.48 -4 16.96 -4 2 C-3.67 2 -3.34 2 -3 2 C-3 16.19 -3 30.38 -3 45 C-2.34 45 -1.68 45 -1 45 C-0.67 30.15 -0.34 15.3 0 0 Z " fill="#C2ADB1" transform="translate(255,249)"/>
<path d="M0 0 C2 2 2 2 2.24723816 4.19203186 C2.24510063 5.55696022 2.24510063 5.55696022 2.24291992 6.94946289 C2.24599655 7.98136246 2.24907318 9.01326202 2.25224304 10.07643127 C2.24505753 11.19718552 2.23787201 12.31793976 2.23046875 13.47265625 C2.23001053 14.62487167 2.22955231 15.7770871 2.2290802 16.96421814 C2.22605326 19.40966822 2.21815387 21.8551163 2.20581055 24.30053711 C2.18769375 28.02269424 2.18529993 31.7446005 2.18554688 35.46679688 C2.1806261 37.84375213 2.17479536 40.22070571 2.16796875 42.59765625 C2.16685593 43.70424088 2.1657431 44.8108255 2.16459656 45.95094299 C2.12769643 52.04692021 1.79443322 57.95477921 1 64 C0.01 63.67 -0.98 63.34 -2 63 C-1.67 62.34 -1.34 61.68 -1 61 C-0.88029939 59.15218458 -0.8227304 57.3002064 -0.79467773 55.44873047 C-0.7647599 53.70715164 -0.7647599 53.70715164 -0.73423767 51.9303894 C-0.71752518 50.67203278 -0.70081268 49.41367615 -0.68359375 48.1171875 C-0.66281265 46.83264679 -0.64203156 45.54810608 -0.62062073 44.22463989 C-0.56540951 40.80850641 -0.51599612 37.39231255 -0.46777344 33.97607422 C-0.41755143 30.49050519 -0.36186903 27.00502391 -0.30664062 23.51953125 C-0.19907072 16.67976358 -0.09762316 9.83991666 0 3 C-0.66 2.67 -1.32 2.34 -2 2 C-1.34 1.34 -0.68 0.68 0 0 Z " fill="#A3545F" transform="translate(108,215)"/>
<path d="M0 0 C0.66 0 1.32 0 2 0 C2.33 4.62 2.66 9.24 3 14 C8.28 14.33 13.56 14.66 19 15 C19 15.99 19 16.98 19 18 C12.07 18 5.14 18 -2 18 C-2.04125 15.40125 -2.0825 12.8025 -2.125 10.125 C-2.14320801 9.30789551 -2.16141602 8.49079102 -2.18017578 7.64892578 C-2.19477217 5.76504951 -2.09943482 3.88130688 -2 2 C-1.34 1.34 -0.68 0.68 0 0 Z " fill="#252429" transform="translate(305,277)"/>
<path d="M0 0 C0.33 0 0.66 0 1 0 C1.33 4.29 1.66 8.58 2 13 C6.95 13 11.9 13 17 13 C16.01 13.495 16.01 13.495 15 14 C15 15.65 15 17.3 15 19 C13.35 19.33 11.7 19.66 10 20 C10 19.34 10 18.68 10 18 C7.03 18 4.06 18 1 18 C0.67 19.32 0.34 20.64 0 22 C-2.28734906 17.54799492 -2.09319338 13.6008714 -1.6875 8.75 C-1.63916016 8.0178125 -1.59082031 7.285625 -1.54101562 6.53125 C-1.14718094 1.14718094 -1.14718094 1.14718094 0 0 Z " fill="#17161B" transform="translate(259,260)"/>
<path d="M0 0 C0.33 0 0.66 0 1 0 C1.04969113 5.55011716 1.08585685 11.10010282 1.10986328 16.65039062 C1.11987847 18.53583026 1.13349452 20.42125453 1.15087891 22.30664062 C1.17532532 25.02738249 1.18652816 27.74791777 1.1953125 30.46875 C1.20563507 31.30241089 1.21595764 32.13607178 1.22659302 32.99499512 C1.22759968 38.32762391 0.48724147 42.87442038 -1 48 C-2.98 48 -4.96 48 -7 48 C-7 47.01 -7 46.02 -7 45 C-7.9590625 44.8453125 -7.9590625 44.8453125 -8.9375 44.6875 C-9.618125 44.460625 -10.29875 44.23375 -11 44 C-11.495 42.515 -11.495 42.515 -12 41 C-12.99 41 -13.98 41 -15 41 C-15.33 39.02 -15.66 37.04 -16 35 C-11.33333333 39 -6.66666667 43 -2 47 C-1.01 23.735 -1.01 23.735 0 0 Z " fill="#8B323F" transform="translate(240,232)"/>
<path d="M0 0 C0.99 0.33 1.98 0.66 3 1 C3.02505615 1.68626465 3.0501123 2.3725293 3.07592773 3.07958984 C3.19171427 6.17825817 3.31451885 9.27660923 3.4375 12.375 C3.47681641 13.45523437 3.51613281 14.53546875 3.55664062 15.6484375 C3.59853516 16.6796875 3.64042969 17.7109375 3.68359375 18.7734375 C3.72025146 19.72653809 3.75690918 20.67963867 3.79467773 21.66162109 C3.85763465 24.02132349 3.85763465 24.02132349 5 26 C3.02 26 1.04 26 -1 26 C-1.02886751 21.85418113 -1.04675327 17.70838784 -1.0625 13.5625 C-1.07087891 12.37849609 -1.07925781 11.19449219 -1.08789062 9.97460938 C-1.09111328 8.84990234 -1.09433594 7.72519531 -1.09765625 6.56640625 C-1.10289307 5.52427979 -1.10812988 4.48215332 -1.11352539 3.40844727 C-1 1 -1 1 0 0 Z " fill="#151418" transform="translate(341,270)"/>
<path d="M0 0 C0.33 0 0.66 0 1 0 C1.20496094 1.14339844 1.40992188 2.28679687 1.62109375 3.46484375 C1.8930231 4.95576676 2.16516974 6.44665016 2.4375 7.9375 C2.57220703 8.69224609 2.70691406 9.44699219 2.84570312 10.22460938 C3.24272034 13.91953174 3.24272034 13.91953174 5 17 C5.04063832 18.66617115 5.042721 20.33388095 5 22 C1.04 22.495 1.04 22.495 -3 23 C-3.33 23.99 -3.66 24.98 -4 26 C-4.62648438 25.98839844 -5.25296875 25.97679687 -5.8984375 25.96484375 C-7.12433594 25.95130859 -7.12433594 25.95130859 -8.375 25.9375 C-9.59316406 25.92009766 -9.59316406 25.92009766 -10.8359375 25.90234375 C-13.04937142 25.85533666 -13.04937142 25.85533666 -15 27 C-16.98 24.03 -18.96 21.06 -21 18 C-17 19 -17 19 -15.75 21.0625 C-15.5025 21.701875 -15.255 22.34125 -15 23 C-14.11957031 22.855625 -13.23914063 22.71125 -12.33203125 22.5625 C-11.17058594 22.376875 -10.00914063 22.19125 -8.8125 22 C-7.66394531 21.814375 -6.51539062 21.62875 -5.33203125 21.4375 C-2.49584607 21.06510523 0.14719564 20.91403979 3 21 C2.69217504 19.35328588 2.37860766 17.70764424 2.0625 16.0625 C1.88847656 15.14597656 1.71445313 14.22945313 1.53515625 13.28515625 C1.22285012 11.04710156 1.22285012 11.04710156 0 10 C-0.07205511 8.31391034 -0.08386068 6.62499341 -0.0625 4.9375 C-0.05347656 4.01839844 -0.04445313 3.09929687 -0.03515625 2.15234375 C-0.02355469 1.44207031 -0.01195313 0.73179687 0 0 Z " fill="#80222D" transform="translate(127,278)"/>
<path d="M0 0 C2.86041517 1.28941792 4.82848776 2.60347345 6.953125 4.90625 C7.75327026 5.76839111 7.75327026 5.76839111 8.56958008 6.64794922 C9.40138794 7.56471436 9.40138794 7.56471436 10.25 8.5 C11.10791138 9.43416748 11.10791138 9.43416748 11.9831543 10.38720703 C16.55917635 15.41289599 20.87708771 20.59412709 25 26 C21.86650268 27.04449911 21.01031744 26.93423645 18 26 C17.896875 25.21625 17.79375 24.4325 17.6875 23.625 C17.22404978 20.66954819 17.22404978 20.66954819 14 19 C14 17.68 14 16.36 14 15 C13.401875 14.95875 12.80375 14.9175 12.1875 14.875 C10 14 10 14 8.25 10.9375 C7.8375 9.968125 7.425 8.99875 7 8 C6.01 8 5.02 8 4 8 C4 6.68 4 5.36 4 4 C2.68 3.67 1.36 3.34 0 3 C0 2.01 0 1.02 0 0 Z " fill="#983A47" transform="translate(158,195)"/>
<path d="M0 0 C0.33 0 0.66 0 1 0 C1.33 3.96 1.66 7.92 2 12 C6.95 12.33 11.9 12.66 17 13 C17 14.32 17 15.64 17 17 C11.39 17 5.78 17 0 17 C-0.33 16.34 -0.66 15.68 -1 15 C-0.34 14.67 0.32 14.34 1 14 C0.67 13.67 0.34 13.34 0 13 C-0.07258946 10.81360547 -0.08373783 8.62499611 -0.0625 6.4375 C-0.05347656 5.23996094 -0.04445313 4.04242188 -0.03515625 2.80859375 C-0.02355469 1.88175781 -0.01195312 0.95492188 0 0 Z " fill="#4B494D" transform="translate(308,259)"/>
<path d="M0 0 C0.66 0 1.32 0 2 0 C2 19.47 2 38.94 2 59 C1.01 58.01 0.02 57.02 -1 56 C-0.01 55.505 -0.01 55.505 1 55 C0.67 38.5 0.34 22 0 5 C-0.66 6.65 -1.32 8.3 -2 10 C-2.6875 8.375 -2.6875 8.375 -3 6 C-1.5625 2.75 -1.5625 2.75 0 0 Z " fill="#F7E2E4" transform="translate(106,218)"/>
<path d="M0 0 C1.32 0.33 2.64 0.66 4 1 C5.36506425 6.460257 4.80645682 9.38708636 2.30078125 14.3984375 C0.67989452 16.39412386 -0.5024847 16.63194511 -3 17 C-2.40072174 13.64404172 -1.15377564 11.62198774 1 9 C0.649375 8.443125 0.29875 7.88625 -0.0625 7.3125 C-1.21845993 4.46113217 -0.80967438 2.91482778 0 0 Z " fill="#1E1E21" transform="translate(280,256)"/>
<path d="M0 0 C0.99 1.32 1.98 2.64 3 4 C2.360625 4.763125 1.72125 5.52625 1.0625 6.3125 C-1.14232781 8.88246713 -1.14232781 8.88246713 -2 12 C-1.34 12.33 -0.68 12.66 0 13 C-0.99 13.33 -1.98 13.66 -3 14 C-2.34 15.65 -1.68 17.3 -1 19 C-1.99 19.33 -2.98 19.66 -4 20 C-3.34 21.65 -2.68 23.3 -2 25 C-3.98 23.35 -5.96 21.7 -8 20 C-7.34 19.34 -6.68 18.68 -6 18 C-5.35232207 15.42938689 -5.35232207 15.42938689 -5 13 C-6.65 12.67 -8.3 12.34 -10 12 C-7 10 -7 10 -3.875 8.25 C-0.71642931 6.24181925 -0.71642931 6.24181925 -0.125 2.75 C-0.08375 1.8425 -0.0425 0.935 0 0 Z " fill="#545357" transform="translate(279,261)"/>
<path d="M0 0 C0 1.32 0 2.64 0 4 C-5.61 4 -11.22 4 -17 4 C-17 3.01 -17 2.02 -17 1 C-5.47835991 -0.14806378 -5.47835991 -0.14806378 0 0 Z " fill="#2B292C" transform="translate(363,292)"/>
<path d="M0 0 C3.48539917 0.64544429 6.02819057 2.10134397 9 4 C8.67 4.66 8.34 5.32 8 6 C7.34 6 6.68 6 6 6 C5.01 7.485 5.01 7.485 4 9 C3.38125 8.54625 2.7625 8.0925 2.125 7.625 C-2.0930587 5.43160948 -6.33975586 4.76916651 -11 4 C-11 3.67 -11 3.34 -11 3 C-7.04 3 -3.08 3 1 3 C0.67 2.01 0.34 1.02 0 0 Z " fill="#434246" transform="translate(274,251)"/>
<path d="M0 0 C0.79921875 0.00902344 1.5984375 0.01804687 2.421875 0.02734375 C3.02515625 0.03894531 3.6284375 0.05054688 4.25 0.0625 C3.26 0.5575 3.26 0.5575 2.25 1.0625 C2.25 2.7125 2.25 4.3625 2.25 6.0625 C0.6 6.3925 -1.05 6.7225 -2.75 7.0625 C-2.75 6.4025 -2.75 5.7425 -2.75 5.0625 C-5.06 4.7325 -7.37 4.4025 -9.75 4.0625 C-9.42 3.0725 -9.09 2.0825 -8.75 1.0625 C-5.8585914 -0.0569613 -3.07237388 -0.04518197 0 0 Z " fill="#1C1C20" transform="translate(271.75,272.9375)"/>
<path d="M0 0 C3 1 3 1 4.640625 3.65234375 C5.17171875 4.73644531 5.7028125 5.82054687 6.25 6.9375 C6.79140625 8.01902344 7.3328125 9.10054687 7.890625 10.21484375 C8.25671875 11.13394531 8.6228125 12.05304688 9 13 C8.67 13.66 8.34 14.32 8 15 C7.67 13.68 7.34 12.36 7 11 C6.34 11 5.68 11 5 11 C5 10.34 5 9.68 5 9 C4.34 9 3.68 9 3 9 C3 7.35 3 5.7 3 4 C2.34 4 1.68 4 1 4 C1 9.28 1 14.56 1 20 C0.34 20 -0.32 20 -1 20 C-1.02703562 17.41659616 -1.04685611 14.83347692 -1.0625 12.25 C-1.07087891 11.52039063 -1.07925781 10.79078125 -1.08789062 10.0390625 C-1.10391684 6.51329442 -0.95292713 3.38965084 0 0 Z " fill="#752A32" transform="translate(254,200)"/>
<path d="M0 0 C0.33 0 0.66 0 1 0 C1 7.59 1 15.18 1 23 C-0.32 23.33 -1.64 23.66 -3 24 C-3.33 23.34 -3.66 22.68 -4 22 C-3.34 22 -2.68 22 -2 22 C-2 17.05 -2 12.1 -2 7 C-1.34 7 -0.68 7 0 7 C0 4.69 0 2.38 0 0 Z " fill="#751C28" transform="translate(109,272)"/>
<path d="M0 0 C0.33 0 0.66 0 1 0 C1.05815112 4.39577761 1.09364767 8.79145598 1.125 13.1875 C1.14175781 14.43337891 1.15851563 15.67925781 1.17578125 16.96289062 C1.18222656 18.16494141 1.18867188 19.36699219 1.1953125 20.60546875 C1.20578613 21.71043701 1.21625977 22.81540527 1.22705078 23.95385742 C0.99727629 27.03654165 0.3081849 29.21840962 -1 32 C-1.66 32 -2.32 32 -3 32 C-2.09815951 24.52760736 -2.09815951 24.52760736 -1.5 21.3125 C-0.86237403 17.08822793 -0.64491671 12.88894353 -0.4375 8.625 C-0.39431641 7.79355469 -0.35113281 6.96210938 -0.30664062 6.10546875 C-0.20138195 4.07046772 -0.10026928 2.03525297 0 0 Z " fill="#A04F59" transform="translate(144,256)"/>
<path d="M0 0 C4.66666667 4 9.33333333 8 14 12 C14 10.35 14 8.7 14 7 C14.33 7 14.66 7 15 7 C15 8.98 15 10.96 15 13 C13.02 13 11.04 13 9 13 C9 12.01 9 11.02 9 10 C8.0409375 9.8453125 8.0409375 9.8453125 7.0625 9.6875 C6.381875 9.460625 5.70125 9.23375 5 9 C4.67 8.01 4.34 7.02 4 6 C3.01 6 2.02 6 1 6 C0.67 4.02 0.34 2.04 0 0 Z " fill="#A34C59" transform="translate(224,267)"/>
<path d="M0 0 C1.76923828 0.01353516 1.76923828 0.01353516 3.57421875 0.02734375 C4.47785156 0.03894531 5.38148438 0.05054688 6.3125 0.0625 C6.6425 1.0525 6.9725 2.0425 7.3125 3.0625 C5.72308594 3.04509766 5.72308594 3.04509766 4.1015625 3.02734375 C2.71354342 3.01796524 1.32552245 3.00886511 -0.0625 3 C-1.11050781 2.98743164 -1.11050781 2.98743164 -2.1796875 2.97460938 C-6.06045376 2.8789558 -6.06045376 2.8789558 -9.6875 4.0625 C-9.6875 3.0725 -9.6875 2.0825 -9.6875 1.0625 C-6.26517028 -0.07827657 -3.60076783 -0.03565117 0 0 Z " fill="#1C1B1E" transform="translate(267.6875,250.9375)"/>
<path d="M0 0 C1.66666667 1.66666667 3.33333333 3.33333333 5 5 C4.67 5.66 4.34 6.32 4 7 C4.33 7.99 4.66 8.98 5 10 C5.66 10.33 6.32 10.66 7 11 C7 11.99 7 12.98 7 14 C6.34 14 5.68 14 5 14 C3.59765625 12.390625 3.59765625 12.390625 2.0625 10.25 C1.55847656 9.55390625 1.05445313 8.8578125 0.53515625 8.140625 C0.02855469 7.43421875 -0.47804687 6.7278125 -1 6 C-1.99705016 4.66445937 -2.9961686 3.33045117 -4 2 C-2.68 1.34 -1.36 0.68 0 0 Z " fill="#9D3945" transform="translate(198,251)"/>
<path d="M0 0 C0.66 0 1.32 0 2 0 C1.67 4.62 1.34 9.24 1 14 C0.01 14 -0.98 14 -2 14 C-2.05389087 12.04196493 -2.09274217 10.08351091 -2.125 8.125 C-2.14820313 7.03445313 -2.17140625 5.94390625 -2.1953125 4.8203125 C-2 2 -2 2 0 0 Z " fill="#17151C" transform="translate(305,277)"/>
<path d="M0 0 C0 0.33 0 0.66 0 1 C-1.98 1 -3.96 1 -6 1 C-6.12375 2.0725 -6.2475 3.145 -6.375 4.25 C-6.89643936 7.37863615 -7.40088254 9.33480424 -9 12 C-11.12758042 9.70221314 -12.01532597 8.62836483 -11.9375 5.4375 C-9.6860533 -0.41626143 -5.75806812 -0.33219624 0 0 Z " fill="#99414D" transform="translate(150,189)"/>
<path d="M0 0 C0.33 0 0.66 0 1 0 C1 5.28 1 10.56 1 16 C0.01 15.67 -0.98 15.34 -2 15 C-2 14.34 -2 13.68 -2 13 C-2.66 13 -3.32 13 -4 13 C-4.33 11.35 -4.66 9.7 -5 8 C-4.34 8 -3.68 8 -3 8 C-3 8.66 -3 9.32 -3 10 C-2.34 10 -1.68 10 -1 10 C-0.67 6.7 -0.34 3.4 0 0 Z " fill="#2A070B" transform="translate(106,278)"/>
<path d="M0 0 C0.66 0.33 1.32 0.66 2 1 C2.7166207 3.31847874 3.38242027 5.65319703 4 8 C4.33 8.66 4.66 9.32 5 10 C3.125 11.0625 3.125 11.0625 1 12 C0.34 11.67 -0.32 11.34 -1 11 C-1.02688151 9.35425434 -1.04634123 7.70838587 -1.0625 6.0625 C-1.07410156 5.14597656 -1.08570313 4.22945313 -1.09765625 3.28515625 C-1 1 -1 1 0 0 Z " fill="#15141A" transform="translate(305,264)"/>
<path d="M0 0 C1.51340155 4.2038932 0.72030914 5.95783601 0 11 C4.62 11.66 9.24 12.32 14 13 C14 13.33 14 13.66 14 14 C7.48208608 14.3540919 2.82478551 14.03901852 -3 11 C-2.44894091 7.0507432 -1.61064629 3.65079826 0 0 Z " fill="#AE6A70" transform="translate(140,288)"/>
<path d="M0 0 C3.23490776 0.55774272 4.97855006 1.37211508 7 4 C7 4.99 7 5.98 7 7 C8.65 7.33 10.3 7.66 12 8 C12.33 9.32 12.66 10.64 13 12 C10 12 10 12 7.51953125 9.62890625 C6.60868353 8.61434157 5.7066273 7.59183057 4.8125 6.5625 C4.34908203 6.04623047 3.88566406 5.52996094 3.40820312 4.99804688 C0 1.15817148 0 1.15817148 0 0 Z " fill="#92313C" transform="translate(220,280)"/>
<path d="M0 0 C0.66 0 1.32 0 2 0 C1.67 6.6 1.34 13.2 1 20 C2.32 20.33 3.64 20.66 5 21 C5 22.65 5 24.3 5 26 C4.67 24.68 4.34 23.36 4 22 C2.02 22.99 2.02 22.99 0 24 C0 16.08 0 8.16 0 0 Z " fill="#302F33" transform="translate(303,255)"/>
<path d="M0 0 C1.43655854 -0.08131463 2.8744483 -0.13933559 4.3125 -0.1875 C5.51326172 -0.23970703 5.51326172 -0.23970703 6.73828125 -0.29296875 C9 0 9 0 12 3 C9.03 3 6.06 3 3 3 C3.66 3.66 4.32 4.32 5 5 C4.67 5.99 4.34 6.98 4 8 C2.35 6.02 0.7 4.04 -1 2 C-0.67 1.34 -0.34 0.68 0 0 Z " fill="#2D1517" transform="translate(114,303)"/>
<path d="M0 0 C0.99 0.33 1.98 0.66 3 1 C3.7166207 3.31847874 4.38242027 5.65319703 5 8 C5.66 8.66 6.32 9.32 7 10 C5.35 10.33 3.7 10.66 2 11 C1.71125 10.030625 1.4225 9.06125 1.125 8.0625 C0.35785318 4.89335797 0.35785318 4.89335797 -2 4 C-2 3.01 -2 2.02 -2 1 C-1.34 0.67 -0.68 0.34 0 0 Z " fill="#9A1623" transform="translate(211,262)"/>
<path d="M0 0 C0.33 0 0.66 0 1 0 C1.20496094 1.14339844 1.40992188 2.28679687 1.62109375 3.46484375 C1.8930231 4.95576676 2.16516974 6.44665016 2.4375 7.9375 C2.57220703 8.69224609 2.70691406 9.44699219 2.84570312 10.22460938 C3.24272034 13.91953174 3.24272034 13.91953174 5 17 C5.04063832 18.66617115 5.042721 20.33388095 5 22 C4.34 22 3.68 22 3 22 C2.86722656 21.21753906 2.73445312 20.43507813 2.59765625 19.62890625 C2.42105469 18.61699219 2.24445313 17.60507812 2.0625 16.5625 C1.88847656 15.55316406 1.71445313 14.54382813 1.53515625 13.50390625 C1.25248903 11.0712562 1.25248903 11.0712562 0 10 C-0.07205511 8.31391034 -0.08386068 6.62499341 -0.0625 4.9375 C-0.05347656 4.01839844 -0.04445313 3.09929687 -0.03515625 2.15234375 C-0.02355469 1.44207031 -0.01195313 0.73179687 0 0 Z " fill="#A35560" transform="translate(127,278)"/>
<path d="M0 0 C0.33 0 0.66 0 1 0 C1.33 7.92 1.66 15.84 2 24 C2.66 24 3.32 24 4 24 C3.67 24.99 3.34 25.98 3 27 C2.01 26.67 1.02 26.34 0 26 C0 17.42 0 8.84 0 0 Z " fill="#7A1E29" transform="translate(249,272)"/>
<path d="M0 0 C2.475 0.495 2.475 0.495 5 1 C5 2.32 5 3.64 5 5 C6.98 5.66 8.96 6.32 11 7 C11 8.65 11 10.3 11 12 C6.51768669 9.03998178 3.40185737 6.93715126 1 2 C0.67 1.34 0.34 0.68 0 0 Z " fill="#99404C" transform="translate(177,234)"/>
<path d="M0 0 C3.44428265 1.44781793 5.36130962 3.27694609 7.75 6.125 C8.36359375 6.84945312 8.9771875 7.57390625 9.609375 8.3203125 C10.29773438 9.15175781 10.29773438 9.15175781 11 10 C10.01 10.33 9.02 10.66 8 11 C7.34 10.01 6.68 9.02 6 8 C5.34 8 4.68 8 4 8 C4 6.68 4 5.36 4 4 C2.68 3.67 1.36 3.34 0 3 C0 2.01 0 1.02 0 0 Z " fill="#994752" transform="translate(158,195)"/>
<path d="M0 0 C0 0.99 0 1.98 0 3 C-3.96 3 -7.92 3 -12 3 C-12.33 2.34 -12.66 1.68 -13 1 C-8.62426048 0.40667939 -4.42471556 -0.13827236 0 0 Z " fill="#191919" transform="translate(324,292)"/>
<path d="M0 0 C3.08599279 2.11146875 4.80598615 3.59510152 6.4375 7 C7 10 7 10 6.125 12.375 C5.75375 12.91125 5.3825 13.4475 5 14 C3.03398058 7.18446602 3.03398058 7.18446602 2.5625 4.625 C2.376875 4.08875 2.19125 3.5525 2 3 C1.01 2.67 0.02 2.34 -1 2 C-0.67 1.34 -0.34 0.68 0 0 Z " fill="#8C3C45" transform="translate(248,190)"/>
<path d="M0 0 C3.875 1.75 3.875 1.75 5 4 C5.99 3.67 6.98 3.34 8 3 C8.33 2.34 8.66 1.68 9 1 C9 1.99 9 2.98 9 4 C7 6 7 6 4.5 6.3125 C3.675 6.209375 2.85 6.10625 2 6 C0 3 0 3 0 0 Z " fill="#210F10" transform="translate(122,180)"/>
<path d="M0 0 C0.33 1.32 0.66 2.64 1 4 C0.67 3.34 0.34 2.68 0 2 C-1.65 2 -3.3 2 -5 2 C-5 2.66 -5 3.32 -5 4 C-7.97 3.505 -7.97 3.505 -11 3 C-10 1 -10 1 -8.3125 0.375 C-5.51555886 -0.07855802 -2.82858003 -0.06428591 0 0 Z " fill="#492326" transform="translate(246,302)"/>
<path d="M0 0 C5.75 1.875 5.75 1.875 8 3 C8 4.65 8 6.3 8 8 C6.68 7.34 5.36 6.68 4 6 C4 5.34 4 4.68 4 4 C3.34 4 2.68 4 2 4 C1.34 2.68 0.68 1.36 0 0 Z " fill="#9F4E59" transform="translate(169,226)"/>
<path d="M0 0 C2.31 0 4.62 0 7 0 C7 0.66 7 1.32 7 2 C7.66 2 8.32 2 9 2 C9 3.65 9 5.3 9 7 C5.48144841 5.59257936 4.61387166 4.33533477 3 1 C2.01 0.67 1.02 0.34 0 0 Z " fill="#A54552" transform="translate(158,217)"/>
<path d="M0 0 C2.0625 0.4375 2.0625 0.4375 4 1 C4.33 3.31 4.66 5.62 5 8 C4.67 6.68 4.34 5.36 4 4 C2.02 4.99 2.02 4.99 0 6 C-0.38218767 4.34385343 -0.71395102 2.67542976 -1 1 C-0.67 0.67 -0.34 0.34 0 0 Z " fill="#2B2A2E" transform="translate(280,256)"/>
<path d="M0 0 C1.32 0.33 2.64 0.66 4 1 C4.66666667 2.33333333 5.33333333 3.66666667 6 5 C8.05000871 5.80528889 8.05000871 5.80528889 10 6 C9.01 6 8.02 6 7 6 C6.67 6.99 6.34 7.98 6 9 C4.02 6.03 2.04 3.06 0 0 Z " fill="#8A3542" transform="translate(106,296)"/>
<path d="M0 0 C3 1 3 1 4.421875 3.21484375 C4.86015625 4.11332031 5.2984375 5.01179687 5.75 5.9375 C6.19859375 6.83339844 6.6471875 7.72929687 7.109375 8.65234375 C7.40328125 9.42707031 7.6971875 10.20179688 8 11 C7.67 11.66 7.34 12.32 7 13 C6.67 11.68 6.34 10.36 6 9 C5.34 9 4.68 9 4 9 C4 8.34 4 7.68 4 7 C3.34 7 2.68 7 2 7 C2 5.35 2 3.7 2 2 C1.34 2 0.68 2 0 2 C0 1.34 0 0.68 0 0 Z " fill="#4E4547" transform="translate(255,202)"/>
<path d="M0 0 C2.31 0 4.62 0 7 0 C7.33 1.32 7.66 2.64 8 4 C5.69 4 3.38 4 1 4 C1.66 3.67 2.32 3.34 3 3 C3 2.34 3 1.68 3 1 C2.01 0.67 1.02 0.34 0 0 Z " fill="#2B2A2D" transform="translate(319,255)"/>
<path d="M0 0 C0.66 0 1.32 0 2 0 C2 2.64 2 5.28 2 8 C1.34 7.01 0.68 6.02 0 5 C-0.66 6.65 -1.32 8.3 -2 10 C-2.6875 8.375 -2.6875 8.375 -3 6 C-1.5625 2.75 -1.5625 2.75 0 0 Z " fill="#C7B9BA" transform="translate(106,218)"/>
<path d="M0 0 C0.33 1.32 0.66 2.64 1 4 C0.34 4 -0.32 4 -1 4 C-1.268125 4.61875 -1.53625 5.2375 -1.8125 5.875 C-3 8 -3 8 -6 10 C-4.79157144 5.56909529 -3.48331435 3.01887244 0 0 Z " fill="#47373A" transform="translate(105,201)"/>
<path d="M0 0 C3.625 0.375 3.625 0.375 7 1 C6.67 1.99 6.34 2.98 6 4 C3.69 4.33 1.38 4.66 -1 5 C-1.33 4.01 -1.66 3.02 -2 2 C-1.34 1.34 -0.68 0.68 0 0 Z " fill="#1C0303" transform="translate(239,187)"/>
<path d="M0 0 C1.5 1.375 1.5 1.375 3 3 C3 3.66 3 4.32 3 5 C3.99 5.33 4.98 5.66 6 6 C5.67 6.99 5.34 7.98 5 9 C0.125 4.25 0.125 4.25 -1 2 C-0.67 1.34 -0.34 0.68 0 0 Z " fill="#963643" transform="translate(189,244)"/>
<path d="M0 0 C5.875 4.625 5.875 4.625 7 8 C4.83125748 7.49396008 3.00032373 7.00016187 1 6 C0.375 2.9375 0.375 2.9375 0 0 Z " fill="#9A4350" transform="translate(183,222)"/>
<path d="M0 0 C-0.66 1.32 -1.32 2.64 -2 4 C-4.31 3.67 -6.62 3.34 -9 3 C-8.67 2.01 -8.34 1.02 -8 0 C-5.04215769 -1.22393475 -3.00272755 -0.96516243 0 0 Z " fill="#2E2D31" transform="translate(271,274)"/>
<path d="M0 0 C1.66611905 -0.042721 3.33382885 -0.04063832 5 0 C6 1 6 1 6.0625 3.5625 C6.041875 4.366875 6.02125 5.17125 6 6 C3.37812506 4.95125002 2.20628639 4.35068687 0.75 1.875 C0.5025 1.25625 0.255 0.6375 0 0 Z " fill="#9E4D57" transform="translate(207,267)"/>
<path d="M0 0 C0.33 0 0.66 0 1 0 C1 1.65 1 3.3 1 5 C1.66 5 2.32 5 3 5 C2.34 7.97 1.68 10.94 1 14 C0.67 14 0.34 14 0 14 C0 9.38 0 4.76 0 0 Z " fill="#0C0001" transform="translate(256,204)"/>
<path d="M0 0 C4.6875 3.61328125 4.6875 3.61328125 6 5 C6 5.99 6 6.98 6 8 C5.01 8 4.02 8 3 8 C0 2.25 0 2.25 0 0 Z " fill="#E0BFC2" transform="translate(233,295)"/>
<path d="M0 0 C0.33 0 0.66 0 1 0 C1 1.98 1 3.96 1 6 C-0.32 6 -1.64 6 -3 6 C-3.33 4.35 -3.66 2.7 -4 1 C-3.34 1 -2.68 1 -2 1 C-2 1.66 -2 2.32 -2 3 C-1.34 3 -0.68 3 0 3 C0 2.01 0 1.02 0 0 Z " fill="#302A2A" transform="translate(105,285)"/>
<path d="M0 0 C2.33944736 0.28730055 4.6739143 0.61936779 7 1 C7 1.33 7 1.66 7 2 C5.02 2.33 3.04 2.66 1 3 C0.67 4.98 0.34 6.96 0 9 C-0.33 9 -0.66 9 -1 9 C-1.09765625 2.84765625 -1.09765625 2.84765625 -1 1 C-0.67 0.67 -0.34 0.34 0 0 Z " fill="#C6C6C9" transform="translate(262,277)"/>
<path d="M0 0 C0 0.66 0 1.32 0 2 C-1.670625 2.2165625 -1.670625 2.2165625 -3.375 2.4375 C-6.82142047 2.78372035 -6.82142047 2.78372035 -9 4 C-9 3.01 -9 2.02 -9 1 C-5.8035914 -0.06546953 -3.34252724 -0.07427838 0 0 Z " fill="#151316" transform="translate(267,251)"/>
<path d="M0 0 C0.33 1.32 0.66 2.64 1 4 C2.98 4 4.96 4 7 4 C7 4.33 7 4.66 7 5 C5.02 5 3.04 5 1 5 C0.67 5.66 0.34 6.32 0 7 C0 6.34 0 5.68 0 5 C-0.99 5 -1.98 5 -3 5 C-2.67 3.68 -2.34 2.36 -2 1 C-2 1.99 -2 2.98 -2 4 C-1.34 4 -0.68 4 0 4 C0 2.68 0 1.36 0 0 Z " fill="#C7B9BF" transform="translate(254,290)"/>
<path d="M0 0 C3.25511789 0.56122722 4.99840071 1.33120095 7 4 C7.6875 6.6875 7.6875 6.6875 8 9 C5.06799526 6.14723863 2.35684596 3.34920216 0 0 Z " fill="#943D4A" transform="translate(220,280)"/>
<path d="M0 0 C2.5 2.3125 2.5 2.3125 5 5 C5 5.99 5 6.98 5 8 C3.0625 7.375 3.0625 7.375 1 6 C0.25 2.875 0.25 2.875 0 0 Z " fill="#221E1F" transform="translate(240,181)"/>
<path d="M0 0 C-0.33 1.32 -0.66 2.64 -1 4 C-2.98 4 -4.96 4 -7 4 C-6.34 3.67 -5.68 3.34 -5 3 C-5 2.34 -5 1.68 -5 1 C-2 0 -2 0 0 0 Z " fill="#3E3D41" transform="translate(292,291)"/>
<path d="M0 0 C0.99 0 1.98 0 3 0 C3 1.65 3 3.3 3 5 C1.68 5 0.36 5 -1 5 C-0.67 3.35 -0.34 1.7 0 0 Z " fill="#16151A" transform="translate(258,288)"/>
<path d="M0 0 C0.99 0.33 1.98 0.66 3 1 C3.33 2.65 3.66 4.3 4 6 C2.0625 5.1875 2.0625 5.1875 0 4 C-0.33 3.01 -0.66 2.02 -1 1 C-0.67 0.67 -0.34 0.34 0 0 Z " fill="#17161B" transform="translate(275,279)"/>
<path d="M0 0 C2.02054804 1.64169528 4.02043058 3.30911778 6 5 C6 5.33 6 5.66 6 6 C4.35 6 2.7 6 1 6 C0.67 4.02 0.34 2.04 0 0 Z " fill="#9C404E" transform="translate(224,267)"/>
<path d="M0 0 C0.99 1.32 1.98 2.64 3 4 C1.68 5.65 0.36 7.3 -1 9 C-1.66 8.67 -2.32 8.34 -3 8 C-2.34 7.34 -1.68 6.68 -1 6 C-0.60235737 4.01178687 -0.26224651 2.01055661 0 0 Z " fill="#464549" transform="translate(279,261)"/>
<path d="M0 0 C2.5 2.3125 2.5 2.3125 5 5 C5 5.99 5 6.98 5 8 C4.67 7.34 4.34 6.68 4 6 C1.98330173 4.86649466 1.98330173 4.86649466 0 4 C0 2.68 0 1.36 0 0 Z " fill="#923E49" transform="translate(207,248)"/>
</svg>
