<?xml version="1.0" encoding="UTF-8"?>
<svg version="1.1" xmlns="http://www.w3.org/2000/svg" width="512" height="512">
<path d="M0 0 C22.37492579 17.58799777 36.70401716 40.79431829 42.28955078 68.69042969 C42.48033203 69.61339844 42.67111328 70.53636719 42.86767578 71.48730469 C43.46961249 76.05756487 43.5538762 80.58493994 43.60205078 85.19042969 C43.63105469 86.1146875 43.66005859 87.03894531 43.68994141 87.99121094 C43.74367708 93.76986312 43.19887848 97.13073851 39.28955078 101.69042969 C35.47024906 105.31876632 32.40676072 106.00043427 27.28955078 106.19042969 C22.17234084 106.00043427 19.1088525 105.31876632 15.28955078 101.69042969 C10.82554712 96.37251624 10.43294316 91.40740946 9.78955078 84.62792969 C7.13354079 61.49948873 -1.90625024 41.64653435 -20.33544922 26.87792969 C-38.59409533 14.01872756 -59.62613878 8.55180908 -81.78857422 11.96777344 C-96.16130592 14.61613535 -108.55625308 20.26892421 -119.71044922 29.69042969 C-120.30212891 30.13773437 -120.89380859 30.58503906 -121.50341797 31.04589844 C-135.74882961 42.16188326 -143.83582585 60.20674226 -146.71044922 77.69042969 C-147.1956821 81.64242722 -147.60294456 85.60201641 -147.85229492 89.57617188 C-148.35073205 95.86546444 -150.58215749 99.66855255 -155.21044922 104.06542969 C-160.3754493 106.46346544 -165.11067802 106.44424504 -170.71044922 105.69042969 C-175.67618738 103.3849084 -178.12155862 100.46369673 -180.71044922 95.69042969 C-181.2912156 92.44757173 -181.2804533 89.29010411 -181.21044922 86.00292969 C-181.19691406 85.07883301 -181.18337891 84.15473633 -181.16943359 83.20263672 C-180.27815896 52.85266282 -165.77854346 25.62699887 -143.96044922 5.00292969 C-103.47583737 -29.79851109 -42.5873451 -32.60612605 0 0 Z " fill="#76001D" transform="translate(324.71044921875,310.3095703125)"/>
<path d="M0 0 C0.87398438 0.36222656 1.74796875 0.72445312 2.6484375 1.09765625 C19.64501156 8.81148601 30.22394899 23.03316094 37.16796875 39.82421875 C41.44573387 53.58135072 40.91933828 71.91051088 35 85 C34.525625 86.07121094 34.05125 87.14242187 33.5625 88.24609375 C25.53216014 104.6349364 12.16958173 115.82172733 -5 122 C-22.41583776 127.05565077 -41.59997305 125.04391086 -57.41992188 116.45800781 C-74.01348922 106.84535938 -83.29171747 92.23924455 -88.54418945 74.12304688 C-92.26634629 56.78620922 -88.3583481 38.65283905 -79.20947266 23.81640625 C-69.87596627 9.79919037 -55.0079121 -0.15444843 -38.51611328 -3.60522461 C-25.76822399 -5.60535434 -11.88337086 -5.22251889 0 0 Z M-49 38.8125 C-50.04531344 40.17472998 -51.04814944 41.57089846 -52 43 C-52.43183594 43.64324219 -52.86367187 44.28648437 -53.30859375 44.94921875 C-57.12729409 51.88630414 -57.22743166 60.31421294 -56 68 C-53.17337673 77.11947068 -48.00886048 83.51443324 -39.8046875 88.2734375 C-31.35897835 92.42272318 -22.94051119 92.98473421 -14 90 C-5.5102584 86.06236505 0.37666949 80.92006923 4.375 72.4375 C7.26224878 64.46723761 7.27679138 55.61434805 4.4375 47.625 C0.47673234 39.19105767 -5.47128212 33.67318164 -14 30 C-26.53899999 25.88271642 -40.01485904 29.31337852 -49 38.8125 Z " fill="#76001D" transform="translate(281,148)"/>
<path d="M0 0 C1.30365551 1.08998583 2.59459989 2.19528814 3.875 3.3125 C4.84308594 4.08464844 5.81117188 4.85679687 6.80859375 5.65234375 C20.31087339 16.92327862 29.49458504 36.38770719 31.09814453 53.72509766 C31.25440335 56.27765151 31.33589336 58.81806543 31.375 61.375 C31.40291626 62.57141113 31.40291626 62.57141113 31.43139648 63.79199219 C31.37359045 69.09218794 30.33611071 72.09427132 26.875 76.3125 C23.05569828 79.94083663 19.99220994 80.62250458 14.875 80.8125 C9.75779006 80.62250458 6.69430172 79.94083663 2.875 76.3125 C-1.12156406 71.33193343 -1.9155754 67.19672264 -2.625 61.0625 C-4.63227189 46.62389083 -9.58150658 36.39246731 -20.94921875 26.87890625 C-32.50044983 18.5628494 -44.31065442 17.16204012 -58.125 18.3125 C-70.62890577 20.60465397 -80.69967476 28.17502924 -88.125 38.3125 C-93.58243306 47.38044856 -95.36142847 56.23793204 -96.3671875 66.69140625 C-97.45381456 71.88369124 -99.82299006 75.07559055 -103.625 78.6875 C-108.79000009 81.08553575 -113.5252288 81.06631535 -119.125 80.3125 C-124.09249299 78.00616397 -126.50933254 75.06974519 -129.125 70.3125 C-129.69418422 67.31633739 -129.69628826 64.41734956 -129.625 61.375 C-129.61146484 60.53670654 -129.59792969 59.69841309 -129.58398438 58.8347168 C-129.00882661 41.24057391 -121.64795606 24.51858448 -110.125 11.3125 C-108.96677734 9.86037109 -108.96677734 9.86037109 -107.78515625 8.37890625 C-99.77117411 -1.22163081 -88.61503866 -7.26593272 -77.125 -11.6875 C-76.01253906 -12.12191406 -74.90007812 -12.55632812 -73.75390625 -13.00390625 C-49.0695884 -21.04522205 -20.46495623 -15.7264261 0 0 Z " fill="#75001D" transform="translate(465.125,223.6875)"/>
<path d="M0 0 C1.30365551 1.08998583 2.59459989 2.19528814 3.875 3.3125 C4.84308594 4.08464844 5.81117188 4.85679687 6.80859375 5.65234375 C20.31087339 16.92327862 29.49458504 36.38770719 31.09814453 53.72509766 C31.25440335 56.27765151 31.33589336 58.81806543 31.375 61.375 C31.40291626 62.57141113 31.40291626 62.57141113 31.43139648 63.79199219 C31.37359045 69.09218794 30.33611071 72.09427132 26.875 76.3125 C23.05569828 79.94083663 19.99220994 80.62250458 14.875 80.8125 C9.75779006 80.62250458 6.69430172 79.94083663 2.875 76.3125 C-1.12156406 71.33193343 -1.9155754 67.19672264 -2.625 61.0625 C-4.63227189 46.62389083 -9.58150658 36.39246731 -20.94921875 26.87890625 C-32.50044983 18.5628494 -44.31065442 17.16204012 -58.125 18.3125 C-70.62890577 20.60465397 -80.69967476 28.17502924 -88.125 38.3125 C-93.58243306 47.38044856 -95.36142847 56.23793204 -96.3671875 66.69140625 C-97.45381456 71.88369124 -99.82299006 75.07559055 -103.625 78.6875 C-108.79000009 81.08553575 -113.5252288 81.06631535 -119.125 80.3125 C-124.09249299 78.00616397 -126.50933254 75.06974519 -129.125 70.3125 C-129.69418422 67.31633739 -129.69628826 64.41734956 -129.625 61.375 C-129.61146484 60.53670654 -129.59792969 59.69841309 -129.58398438 58.8347168 C-129.00882661 41.24057391 -121.64795606 24.51858448 -110.125 11.3125 C-108.96677734 9.86037109 -108.96677734 9.86037109 -107.78515625 8.37890625 C-99.77117411 -1.22163081 -88.61503866 -7.26593272 -77.125 -11.6875 C-76.01253906 -12.12191406 -74.90007812 -12.55632812 -73.75390625 -13.00390625 C-49.0695884 -21.04522205 -20.46495623 -15.7264261 0 0 Z " fill="#75001D" transform="translate(145.125,223.6875)"/>
<path d="M0 0 C10.63879445 8.01319454 18.03916224 17.37500003 20.6875 30.6875 C22.17610155 45.466963 20.68515734 58.32023658 11.53125 70.44140625 C4.04011293 79.56726179 -5.34743416 86.87641063 -17.3125 88.6875 C-31.45295902 89.96836177 -44.33755554 89.06844427 -56.1875 80.4375 C-65.92147921 72.06048815 -74.2261099 61.69049732 -75.53369141 48.44726562 C-76.33518162 31.70805722 -73.63887295 19.75156979 -62.65625 6.72265625 C-46.76679612 -10.40347683 -19.22019308 -12.75600258 0 0 Z M-40.6875 32.3125 C-42.89157893 36.89020239 -43.1096639 40.69302411 -42.3125 45.6875 C-39.98281069 50.52608548 -37.15108548 53.35781069 -32.3125 55.6875 C-27.31802411 56.4846639 -23.51520239 56.26657893 -18.9375 54.0625 C-15.35342287 50.81976355 -12.71714759 48.22274104 -11.9296875 43.2890625 C-11.67366081 37.60527006 -12.37623068 34.03811345 -16.3125 29.6875 C-20.66311345 25.75123068 -24.23027006 25.04866081 -29.9140625 25.3046875 C-34.84774104 26.09214759 -37.44476355 28.72842287 -40.6875 32.3125 Z " fill="#76001D" transform="translate(443.3125,103.3125)"/>
<path d="M0 0 C10.63879445 8.01319454 18.03916224 17.37500003 20.6875 30.6875 C22.17610155 45.466963 20.68515734 58.32023658 11.53125 70.44140625 C4.04011293 79.56726179 -5.34743416 86.87641063 -17.3125 88.6875 C-31.45295902 89.96836177 -44.33755554 89.06844427 -56.1875 80.4375 C-65.92147921 72.06048815 -74.2261099 61.69049732 -75.53369141 48.44726562 C-76.33518162 31.70805722 -73.63887295 19.75156979 -62.65625 6.72265625 C-46.76679612 -10.40347683 -19.22019308 -12.75600258 0 0 Z M-40.6875 32.3125 C-42.89157893 36.89020239 -43.1096639 40.69302411 -42.3125 45.6875 C-39.98281069 50.52608548 -37.15108548 53.35781069 -32.3125 55.6875 C-27.31802411 56.4846639 -23.51520239 56.26657893 -18.9375 54.0625 C-15.35342287 50.81976355 -12.71714759 48.22274104 -11.9296875 43.2890625 C-11.67366081 37.60527006 -12.37623068 34.03811345 -16.3125 29.6875 C-20.66311345 25.75123068 -24.23027006 25.04866081 -29.9140625 25.3046875 C-34.84774104 26.09214759 -37.44476355 28.72842287 -40.6875 32.3125 Z " fill="#76001D" transform="translate(123.3125,103.3125)"/>
</svg>
