<?xml version="1.0" encoding="UTF-8"?>
<svg version="1.1" xmlns="http://www.w3.org/2000/svg" width="512" height="512">
<path d="M0 0 C0.8681461 -0.00644889 1.73629221 -0.01289778 2.63074577 -0.0195421 C3.57995686 -0.01644489 4.52916795 -0.01334769 5.50714302 -0.01015663 C7.02500096 -0.0169533 7.02500096 -0.0169533 8.57352269 -0.02388728 C11.97438528 -0.03657778 15.37508868 -0.0349079 18.77597237 -0.03325844 C21.21014806 -0.03924076 23.64432184 -0.04604561 26.07849312 -0.05361366 C32.01027314 -0.06947119 37.94201566 -0.07572333 43.87381254 -0.07683842 C48.69537284 -0.07778873 53.51692003 -0.08189818 58.33847618 -0.08823967 C72.00816331 -0.10585269 85.67781904 -0.11507842 99.34751759 -0.11357872 C100.08445454 -0.11349881 100.82139149 -0.1134189 101.58065987 -0.11333656 C102.68741476 -0.11321392 102.68741476 -0.11321392 103.81652834 -0.1130888 C115.77534871 -0.11227583 127.73404315 -0.13141618 139.69282709 -0.1596133 C151.97170643 -0.18833674 164.25052434 -0.2021539 176.52943814 -0.20042574 C183.42326368 -0.19976167 190.3169572 -0.20526168 197.21075249 -0.22678185 C203.69337514 -0.24688877 210.17579086 -0.24632543 216.6584301 -0.23174858 C219.03927708 -0.22965272 221.42014129 -0.23440733 223.80095863 -0.2464695 C227.04824012 -0.26185743 230.29455108 -0.25265577 233.54181099 -0.23720741 C234.95893546 -0.2526381 234.95893546 -0.2526381 236.40468872 -0.26838052 C241.98315821 -0.20963225 245.26071181 0.47630994 249.65146065 4.25726891 C255.30241006 11.82675144 254.18457417 20.94452593 254.10556221 29.96430016 C254.10443293 31.76841265 254.10506916 33.57252698 254.10733223 35.37663841 C254.10847716 40.25840269 254.08500356 45.13977168 254.0570364 50.02144432 C254.03198597 55.12900334 254.02967787 60.236572 254.02493477 65.34418297 C254.0125157 75.00902116 253.97970851 84.67367779 253.93953681 94.33843613 C253.89478586 105.34443254 253.87282369 116.35043775 253.85275507 127.35650253 C253.81097498 149.99019188 253.74064367 172.6237202 253.65146065 195.25726891 C254.45246193 195.24838646 255.25346321 195.23950401 256.07873726 195.2303524 C263.6409324 195.15008243 271.20291991 195.08924191 278.76543045 195.05002022 C282.65308168 195.0291777 286.5403798 195.0009221 290.42782784 194.95551109 C294.18204259 194.91193272 297.9359185 194.88810671 301.69036674 194.87775993 C303.1200805 194.87038992 304.54977648 194.85599777 305.97934532 194.83434868 C307.98721546 194.8051613 309.99542921 194.80363371 312.00351143 194.80316734 C313.71560295 194.78984367 313.71560295 194.78984367 315.46228218 194.77625084 C320.41997898 195.52401135 324.46764443 198.40317559 327.65146065 202.25726891 C328.82006659 205.76308674 328.79958799 208.91587639 328.79863167 212.56300926 C328.80230836 213.31271278 328.80598504 214.06241629 328.80977315 214.83483809 C328.82081195 217.35431736 328.82465413 219.87375539 328.8284626 222.39325523 C328.83472703 224.1967488 328.84137382 226.00024107 328.84837532 227.80373192 C328.86578516 232.70875489 328.87633676 237.61376812 328.88458085 242.51881433 C328.88973041 245.58246419 328.89580612 248.64611103 328.90209198 251.70975876 C328.92114291 261.29284123 328.93537499 270.87591599 328.94370395 280.45901376 C328.95348094 291.52574308 328.97981297 302.59227264 329.02020484 313.65893155 C329.05034635 322.21018451 329.0651709 330.76138013 329.06848496 339.31268519 C329.07083742 344.42139177 329.0798235 349.52988489 329.10494614 354.63853455 C329.12819789 359.44433975 329.13247176 364.24979052 329.12218475 369.05563736 C329.1216886 370.81888189 329.12803245 372.5821437 329.1417408 374.34533501 C329.15942022 376.7541748 329.15237394 379.16173711 329.13920784 381.57057762 C329.15566171 382.61519424 329.15566171 382.61519424 329.17244798 383.68091422 C329.10715445 388.63480004 327.7034639 391.41468851 324.65146065 395.25726891 C318.56083713 400.58391236 310.56709551 399.69762338 302.9834919 399.51508141 C300.97831107 399.50410559 298.97312786 399.49319181 296.96793079 399.48575211 C292.06278396 399.46267038 287.15879813 399.40009995 282.25473213 399.29535484 C263.93030813 398.01681538 263.93030813 398.01681538 247.8506794 404.95648766 C246.09464217 406.70059381 244.35879066 408.46545494 242.65146065 410.25726891 C239.44716965 412.41628074 236.09224754 414.19260489 232.65146065 415.94476891 C231.31824776 416.62938194 231.31824776 416.62938194 229.95810127 417.32782555 C209.14801251 427.69442765 185.35310867 433.45480045 162.06552315 433.39008141 C161.28309242 433.39103813 160.5006617 433.39199486 159.69452095 433.39298058 C158.05256252 433.3936557 156.41060132 433.39184848 154.76864815 433.38764 C152.28941883 433.38229683 149.81037184 433.38760044 147.33114815 433.39398766 C140.61055297 433.39432485 134.02593975 433.3896833 127.34677315 432.54633141 C122.87703664 432.06764592 120.56551789 432.7080202 116.90146065 435.50726891 C109.26791839 440.9660128 102.82783667 443.42404227 93.33896065 443.31976891 C92.27032784 443.31074547 91.20169502 443.30172203 90.1006794 443.29242516 C88.88831612 443.27502281 88.88831612 443.27502281 87.65146065 443.25726891 C87.46583565 444.53601891 87.28021065 445.81476891 87.08896065 447.13226891 C85.7364013 453.19021079 82.51014795 457.49716695 78.65146065 462.25726891 C78.12552315 462.90953453 77.59958565 463.56180016 77.05771065 464.23383141 C70.60594681 471.41299999 61.08383532 475.71097798 51.65146065 477.25726891 C48.64197143 477.38955415 45.66077834 477.38265714 42.65146065 477.25726891 C42.40396065 478.41226891 42.15646065 479.56726891 41.90146065 480.75726891 C39.05870242 491.78020897 32.33749897 500.6145922 22.65146065 506.69476891 C15.2255117 511.01368019 7.80953804 512.80477175 -0.72353935 512.69476891 C-1.96853203 512.68340904 -1.96853203 512.68340904 -3.23867607 512.67181969 C-16.21370474 512.3247041 -26.66433111 506.60000553 -35.55166435 497.28461266 C-38.43716325 494.02901716 -41.17355043 490.6595433 -43.90322685 487.27289391 C-46.47018671 484.10725012 -49.08578545 480.98885327 -51.72353935 477.88226891 C-52.18470146 477.33876793 -52.64586357 476.79526695 -53.12100029 476.23529625 C-54.06085266 475.12814886 -55.00095778 474.02121598 -55.94131279 472.91449547 C-58.24749372 470.19861134 -60.54775218 467.47772228 -62.84853935 464.75726891 C-63.76517682 463.67391087 -64.68184351 462.59057755 -65.59853935 461.50726891 C-93.09853935 429.00726891 -93.09853935 429.00726891 -94.47402763 427.38153648 C-95.38886234 426.30047159 -96.30390077 425.21957906 -97.21914482 424.1388607 C-99.54055862 421.39721233 -101.85813051 418.65246879 -104.16885185 415.90180016 C-106.45524957 413.18122103 -108.7556416 410.47301174 -111.06387138 407.77094078 C-112.28378832 406.33356241 -113.48659928 404.88171734 -114.6883831 403.42914391 C-122.03932424 394.79921653 -130.17385211 389.5137049 -141.34853935 387.25726891 C-147.71442943 386.7703948 -154.08826755 386.82093473 -160.4696331 386.81781578 C-174.45823837 386.61396173 -174.45823837 386.61396173 -179.34853935 382.25726891 C-182.85450492 377.76946235 -183.84949478 374.86981966 -183.85647392 369.19818687 C-183.86271389 368.51125692 -183.86895385 367.82432697 -183.8753829 367.11658096 C-183.89126921 364.82718466 -183.87872689 362.53885958 -183.86611748 360.24945641 C-183.87154058 358.60314884 -183.87866429 356.95684614 -183.88735771 355.3105526 C-183.90557177 350.84771609 -183.89853152 346.38525002 -183.88584137 341.92240715 C-183.87570375 337.24869868 -183.88510917 332.57502161 -183.89138603 327.90131187 C-183.89866022 320.0531095 -183.88908075 312.20505777 -183.87002373 304.35687828 C-183.84825541 295.28746722 -183.85530694 286.21841586 -183.87732935 277.14901352 C-183.89548988 269.35774917 -183.89803848 261.56659301 -183.88757467 253.77531433 C-183.88134333 249.12387383 -183.88049422 244.47260232 -183.89372063 239.82117271 C-183.90528802 235.44780987 -183.89723732 231.07491011 -183.8741436 226.70159721 C-183.86886124 225.09801311 -183.87036224 223.49438994 -183.87919426 221.89082146 C-183.89015283 219.69880785 -183.87638498 217.50827087 -183.85647392 215.31635094 C-183.85496582 214.09078484 -183.85345772 212.86521873 -183.85190392 211.60251427 C-183.05681917 206.31856354 -180.55893588 203.26181143 -176.51626396 199.90668297 C-170.7448485 196.95454546 -163.97231731 197.76922476 -157.6649456 197.86664391 C-156.24006256 197.87411446 -154.81516917 197.87980354 -153.39027214 197.88379478 C-149.65986022 197.89898738 -145.93008213 197.93821233 -142.19991875 197.9826107 C-138.38561385 198.02370238 -134.57120544 198.04183528 -130.75674248 198.06195641 C-123.28705407 198.10471438 -115.81788589 198.17288627 -108.34853935 198.25726891 C-108.3574218 197.12245079 -108.36630424 195.98763268 -108.37545586 194.81842613 C-108.4566519 184.10762091 -108.51655772 173.3968784 -108.55578804 162.68583488 C-108.57663502 157.1795675 -108.60490017 151.6735492 -108.65029716 146.16742516 C-108.69385753 140.85060246 -108.71769819 135.5340189 -108.72804832 130.21703148 C-108.73542138 128.19169413 -108.74981924 126.16636941 -108.77145958 124.14113426 C-108.80062884 121.29739988 -108.80448969 118.45464519 -108.80264091 115.61078453 C-108.81702202 114.77927879 -108.83140312 113.94777306 -108.84622002 113.09107018 C-108.76848721 101.99236233 -102.73917164 96.06474573 -95.14541435 88.56830406 C-94.21491264 87.63400566 -93.28441093 86.69970726 -92.3257122 85.73709679 C-89.78937669 83.19112487 -87.24081455 80.65773462 -84.68949699 78.12678766 C-82.01552385 75.47046453 -79.35218332 72.80351846 -76.68740654 70.13797569 C-72.21535767 65.66779539 -67.73565685 61.20540342 -63.2508831 56.74799156 C-58.06818168 51.59679387 -52.89606147 46.43516387 -47.72982216 41.26745951 C-42.22121583 35.75750216 -36.70502453 30.25518704 -31.18656731 24.75509787 C-29.59932942 23.17211936 -28.0135146 21.58772704 -26.42800713 20.00301552 C-23.47519796 17.05258937 -20.51395514 14.11077279 -17.55166435 11.16986656 C-16.67465874 10.29195457 -15.79765312 9.41404259 -14.89407158 8.50952721 C-14.08659477 7.71058037 -13.27911797 6.91163353 -12.44717216 6.08847618 C-11.39859032 5.04492187 -11.39859032 5.04492187 -10.328825 3.98028564 C-7.03586344 1.11512935 -4.360384 0.00820622 0 0 Z M16.65146065 30.25726891 C16.32146065 57.97726891 15.99146065 85.69726891 15.65146065 114.25726891 C14.66146065 115.90726891 13.67146065 117.55726891 12.65146065 119.25726891 C12.65146065 119.91726891 12.65146065 120.57726891 12.65146065 121.25726891 C3.72865076 125.18184325 -5.38902338 124.73526874 -14.9461956 124.76898766 C-16.74938477 124.7858536 -18.55256233 124.80400639 -20.35572624 124.82338524 C-25.07546164 124.87068355 -29.79514989 124.90062294 -34.51504326 124.92682457 C-40.19213142 124.96200127 -45.86903869 125.01895613 -51.54598045 125.07221794 C-60.14680976 125.15049511 -68.74740611 125.20127949 -77.34853935 125.25726891 C-77.34853935 149.34726891 -77.34853935 173.43726891 -77.34853935 198.25726891 C-54.97167248 198.46126744 -54.97167248 198.46126744 -32.5946331 198.59906578 C-23.46691111 198.64057493 -14.339642 198.6893269 -5.21230888 198.78534508 C1.43565342 198.85524714 8.08324777 198.90030728 14.73156738 198.91588837 C18.2500878 198.92499276 21.76755585 198.9462955 25.28573799 198.9973793 C29.21903985 199.0540242 33.15132436 199.05518972 37.0850544 199.05194664 C38.24383598 199.07711357 39.40261757 199.1022805 40.59651375 199.12821007 C46.32143843 199.07718264 49.8115411 198.71667689 54.19345284 194.85310936 C54.77737801 194.23760247 55.36130318 193.62209558 55.96292305 192.98793697 C58.68859281 190.1942594 61.97373372 188.66839986 65.46396065 187.00726891 C66.15683174 186.6700985 66.84970284 186.33292809 67.56357002 185.98554039 C81.65906796 179.31173361 96.54327193 177.59918606 111.77646065 180.88226891 C112.62555 181.05758141 113.47463936 181.23289391 114.34945869 181.41351891 C121.10314018 182.84191184 127.7797103 184.53757931 134.46396065 186.25726891 C164.03897227 193.81145956 191.80564714 195.25726891 222.65146065 195.25726891 C222.65146065 140.80726891 222.65146065 86.35726891 222.65146065 30.25726891 C154.67146065 30.25726891 86.69146065 30.25726891 16.65146065 30.25726891 Z M-19.13393974 56.91327477 C-19.93469429 57.71087715 -20.73544884 58.50847954 -21.56046867 59.33025169 C-22.43025856 60.20206581 -23.30004845 61.07387993 -24.1961956 61.97211266 C-25.08262245 62.85758278 -25.9690493 63.7430529 -26.88233757 64.65535545 C-28.76074272 66.53307838 -30.63809453 68.41179013 -32.51382256 70.29218102 C-34.92387872 72.70793447 -37.33839522 75.11917199 -39.7542944 77.52908039 C-42.04985402 79.82016728 -44.34161025 82.11505077 -46.6336956 84.40961266 C-47.50550972 85.27940254 -48.37732384 86.14919243 -49.27555656 87.04533958 C-50.07315895 87.84609413 -50.87076134 88.64684868 -51.69253349 89.47186852 C-52.40011299 90.18024361 -53.10769249 90.8886187 -53.83671379 91.6184597 C-55.46154884 93.00816314 -55.46154884 93.00816314 -55.34853935 94.25726891 C-41.81853935 94.25726891 -28.28853935 94.25726891 -14.34853935 94.25726891 C-14.34853935 80.72726891 -14.34853935 67.19726891 -14.34853935 53.25726891 C-16.32003539 53.25726891 -17.84382089 55.62460487 -19.13393974 56.91327477 Z M61.1656208 228.79926109 C57.11917749 232.69564282 52.79474394 236.28667638 48.5147419 239.92133141 C41.99810521 245.4658126 35.60859673 251.0992621 29.36044502 256.94501305 C24.99226219 261.00551099 20.45555187 264.79016231 15.7959919 268.51508141 C13.61120062 270.22888402 13.61120062 270.22888402 11.65146065 272.25726891 C11.97605072 275.54291539 13.13552543 277.13288264 15.58896065 279.25726891 C22.85859456 285.06707775 30.22923304 286.96604309 39.4756794 286.64008141 C51.82180473 285.15186458 60.14912789 276.73501314 69.1397419 268.94745445 C73.3001586 265.36121543 77.544705 261.91459724 81.90146065 258.56976891 C82.45019844 258.1479232 82.99893623 257.7260775 83.56430244 257.29144859 C87.90271987 253.99345367 90.02615207 253.12998186 95.47470284 253.08026695 C96.69647224 253.06743172 97.91824165 253.05459648 99.17703438 253.0413723 C100.51746401 253.03320366 101.85789823 253.02576017 103.19833565 253.01898766 C103.87303146 253.01491213 104.54772728 253.0108366 105.24286842 253.00663757 C108.81591168 252.9857745 112.38891653 252.97147545 115.96200752 252.96210289 C119.64524804 252.95105459 123.3278817 252.91667475 127.01090813 252.87693119 C129.84887976 252.85072734 132.68670785 252.84240765 135.52478981 252.83882141 C137.53998109 252.83160706 139.55507412 252.80518119 141.57010078 252.77843285 C152.91360442 252.80531779 152.91360442 252.80531779 157.65146065 257.25726891 C161.25110297 261.21687546 161.16073479 265.47276117 160.99521065 270.59711266 C160.49689429 274.45340176 159.35816648 276.48116036 156.65146065 279.25726891 C150.72318819 282.47881696 145.38330478 282.78521522 138.71396065 282.94476891 C137.74394112 282.97892906 136.77392159 283.01308922 135.77450752 283.04828453 C133.40027428 283.13015464 131.02638188 283.19949969 128.65146065 283.25726891 C132.27066221 288.16999556 135.98253844 292.9462995 139.96396065 297.56976891 C143.38516289 301.57577221 146.76983387 305.60319081 150.08896065 309.69476891 C153.01828655 313.29888595 156.00498115 316.84148418 159.04623604 320.35077477 C173.29365146 336.80328155 183.98839984 350.28429227 182.83798409 373.08344078 C181.82851764 384.84821729 174.93560544 394.26898643 166.65146065 402.25726891 C193.20768054 399.21770157 217.40033096 392.51881392 237.65146065 374.25726891 C255.95453313 359.17467838 259.2322346 368.98725457 298.65146065 368.25726891 C298.65146065 321.39726891 298.65146065 274.53726891 298.65146065 226.25726891 C264.89286172 226.00831756 264.89286172 226.00831756 231.13412666 225.77924156 C224.51852608 225.7247982 224.51852608 225.7247982 221.3952198 225.69681358 C219.27134284 225.67943844 217.14743563 225.66550329 215.0235157 225.65457726 C179.28883321 225.46272164 145.77115862 220.42488965 111.22079659 211.64053917 C89.45914032 206.1288026 76.54588835 213.86704865 61.1656208 228.79926109 Z M-153.34853935 229.25726891 C-153.34853935 270.83726891 -153.34853935 312.41726891 -153.34853935 355.25726891 C-146.41853935 355.91726891 -139.48853935 356.57726891 -132.34853935 357.25726891 C-118.04653216 360.70507421 -106.79012331 366.9084166 -96.34853935 377.25726891 C-95.43008232 378.11965172 -95.43008232 378.11965172 -94.4930706 378.99945641 C-90.22637813 383.08064051 -86.56097455 387.5823281 -82.8602581 392.17523766 C-80.11694807 395.54144546 -77.30706643 398.84207278 -74.47353935 402.13226891 C-69.18562302 408.27718659 -63.93741672 414.45412967 -58.70742607 420.64838219 C-56.4230775 423.3529918 -54.13564427 426.05499018 -51.84853935 428.75726891 C-50.9318581 429.84058989 -50.01519142 430.92392322 -49.09853935 432.00726891 C-48.64478935 432.54351891 -48.19103935 433.07976891 -47.72353935 433.63226891 C-40.16103935 442.56976891 -40.16103935 442.56976891 -32.59853935 451.50726891 C-31.91706841 452.3126107 -31.91706841 452.3126107 -31.22183037 453.13422203 C-30.31077265 454.21097078 -29.39980173 455.28779297 -28.48892021 456.36469078 C-26.11216536 459.1743956 -23.73364203 461.98257686 -21.3524456 464.78851891 C-20.86002373 465.36924156 -20.36760185 465.94996422 -19.8602581 466.54828453 C-18.92462358 467.65162712 -17.98846338 468.75452425 -17.05166435 469.85687828 C-15.06450027 472.20125161 -13.12889393 474.54957586 -11.2821331 477.00726891 C-8.80454479 479.89028076 -6.9354545 481.00913308 -3.20010185 481.59320641 C2.22875851 481.68844957 5.50596121 481.10666124 9.65146065 477.25726891 C11.80643433 473.57295906 12.63639895 471.08566207 12.71396065 466.81976891 C11.28857121 462.04052198 8.82638539 459.04099366 5.65146065 455.25726891 C4.046551 453.29954442 2.44241084 451.34118892 0.83896065 449.38226891 C0.06939034 448.45672203 -0.70017998 447.53117516 -1.4930706 446.57758141 C-5.4484997 441.63121323 -4.90077555 436.37988762 -4.34853935 430.25726891 C-2.56329762 426.01731978 -0.70977262 424.14878213 3.40146065 422.31976891 C8.90971866 420.59971808 13.3164322 421.16427687 18.58896065 423.63226891 C22.51206149 426.54535734 25.33045425 430.63900675 28.36239815 434.42133141 C34.41644963 442.50406487 34.41644963 442.50406487 43.27646065 446.44476891 C47.42496918 446.53759268 50.20417071 445.66235491 53.65146065 443.25726891 C56.4271932 440.55655615 57.53028611 438.65865955 58.65146065 434.94476891 C58.65146065 426.55678206 53.34293797 421.64474266 47.9131794 415.75726891 C43.03662678 410.36695167 39.34052529 406.06679593 39.02646065 398.56976891 C39.32066121 393.78900976 40.2752548 390.8111698 43.65146065 387.25726891 C48.05947475 384.25180474 52.42538024 383.27737883 57.65146065 384.25726891 C62.31749918 386.17312579 65.15541344 388.48234274 68.46396065 392.25726891 C69.7478669 393.71133141 69.7478669 393.71133141 71.05771065 395.19476891 C74.3336672 399.01998763 77.46189989 402.96380211 80.5459919 406.94476891 C83.22071399 409.88249706 85.75725871 411.89134353 89.71396065 412.65570641 C94.18284058 412.60164737 97.04844223 412.15970041 100.65146065 409.25726891 C104.04125312 405.77331553 105.55340337 403.16013303 105.65146065 398.25726891 C103.6640185 391.01730107 98.43229526 385.86987882 93.65146065 380.25726891 C91.97520749 378.24410293 90.31311871 376.22008057 88.65146065 374.19476891 C87.53771065 372.84705406 87.53771065 372.84705406 86.40146065 371.47211266 C82.70887796 366.7986877 83.17559857 362.02605306 83.65146065 356.25726891 C85.08924491 352.97090487 86.8943618 350.55485128 89.65146065 348.25726891 C92.50842023 347.30494905 94.48623105 347.06215793 97.46396065 347.00726891 C98.29540596 346.98148766 99.12685127 346.95570641 99.9834919 346.92914391 C104.47233851 347.48121289 107.6180937 349.18733963 110.7491169 352.42914391 C111.39751534 353.27992516 112.04591377 354.13070641 112.71396065 355.00726891 C113.47321846 355.97148766 114.23247627 356.93570641 115.0147419 357.92914391 C115.42933662 358.457015 115.84393135 358.98488609 116.27108955 359.52875328 C118.90942691 362.83250788 121.6520266 366.0458988 124.40146065 369.25726891 C125.21562447 370.22744957 125.21562447 370.22744957 126.04623604 371.21722984 C129.47018256 375.2075395 132.54154291 378.5484714 137.86239815 379.76117516 C142.46021017 379.88566465 145.07300026 379.39377157 148.65146065 376.38226891 C151.86996209 373.29787169 152.87234347 371.15366584 153.15146065 366.69476891 C153.03842762 360.09175626 149.9562802 356.96793003 145.65146065 352.25726891 C144.20049121 350.57780035 142.76255938 348.88761765 141.32406807 347.19745445 C139.76712814 345.37132283 138.20019245 343.55414823 136.6319294 341.73773766 C133.32359135 337.89149263 130.12028769 333.96395156 126.9209919 330.02680016 C122.56640271 324.71285224 118.10067629 319.49200125 113.65146065 314.25726891 C106.90514729 306.3198823 100.21648119 298.34602261 93.65146065 290.25726891 C90.11406743 291.81207662 87.46661373 293.95463925 84.52646065 296.44476891 C66.92762887 310.98597872 49.68202296 318.26856591 26.65146065 316.25726891 C11.76617144 314.28899489 -3.63559377 306.15491582 -12.93447685 294.22211266 C-18.9781864 285.15654833 -19.82126998 274.84825628 -17.7665081 264.25726891 C-14.24456712 252.93559562 -5.07894805 245.72981221 3.77792549 238.45477867 C4.35107491 237.98096764 4.92422432 237.5071566 5.5147419 237.01898766 C6.02303535 236.60608482 6.53132881 236.19318199 7.0550251 235.76776695 C9.13376669 233.80092582 10.86373768 231.49192262 12.65146065 229.25726891 C-42.12853935 229.25726891 -96.90853935 229.25726891 -153.34853935 229.25726891 Z " fill="#78001E" transform="translate(183.348539352417,-0.25726890563964844)"/>
<path d="M0 0 C1.07109009 -0.0071553 2.14218018 -0.01431061 3.24572754 -0.02168274 C4.42600525 -0.02437164 5.60628296 -0.02706055 6.82232666 -0.02983093 C8.68099365 -0.03968773 8.68099365 -0.03968773 10.57720947 -0.04974365 C14.69309731 -0.06951476 18.80894613 -0.08114778 22.92486572 -0.09111023 C24.341881 -0.0951577 25.75889608 -0.09927462 27.17591095 -0.10346031 C33.83409446 -0.12251494 40.49226687 -0.13674453 47.1504724 -0.14507228 C54.83435125 -0.1548416 62.51794178 -0.18115167 70.20171905 -0.22157317 C76.14150923 -0.25174683 82.08121683 -0.26654239 88.02108216 -0.26985329 C91.56823909 -0.27220271 95.11508812 -0.28114807 98.66216278 -0.30631447 C102.62189426 -0.33395408 106.58124749 -0.32976017 110.54107666 -0.32279968 C111.71325745 -0.33560974 112.88543823 -0.3484198 114.09313965 -0.36161804 C120.34316581 -0.32152171 124.21294032 -0.10344898 128.94049072 4.14717102 C132.05566814 7.94557273 133.27833543 11.88578292 132.94049072 16.77217102 C132.04527397 21.96442819 129.98762393 25.6888032 125.63863277 28.78700352 C122.65442351 30.29138112 120.83961938 30.52619227 117.5202179 30.53485107 C116.44500381 30.54475571 115.36978973 30.55466034 114.26199341 30.56486511 C113.09250153 30.56036346 111.92300964 30.55586182 110.71807861 30.55122375 C108.8587545 30.56151863 108.8587545 30.56151863 106.96186829 30.57202148 C103.56912207 30.58717376 100.17692588 30.58878714 96.7841866 30.5830791 C93.94872286 30.57998524 91.11330868 30.5860819 88.277852 30.59211785 C81.58698703 30.6061573 74.89624975 30.60460677 68.2053833 30.59321594 C61.30984765 30.58173587 54.41470099 30.59580951 47.5192166 30.62261242 C41.59207935 30.6447861 35.66506405 30.65140305 29.73788828 30.64553601 C26.20087171 30.64216909 22.66410445 30.64456346 19.12712288 30.66178703 C15.18202655 30.68016008 11.23740674 30.66605179 7.29229736 30.64888 C5.54109589 30.66338196 5.54109589 30.66338196 3.7545166 30.67817688 C-2.48204589 30.62128515 -6.34728788 30.39240528 -11.05950928 26.14717102 C-14.17786931 22.27610339 -15.20468384 18.07403286 -15.05950928 13.14717102 C-14.15581853 8.70133528 -12.80003105 5.85156978 -9.49700928 2.70967102 C-5.97202758 0.45006737 -4.16566431 0.01905414 0 0 Z " fill="#7C001F" transform="translate(244.05950927734375,119.85282897949219)"/>
<path d="M0 0 C1.07109009 -0.0071553 2.14218018 -0.01431061 3.24572754 -0.02168274 C4.42600525 -0.02437164 5.60628296 -0.02706055 6.82232666 -0.02983093 C8.68099365 -0.03968773 8.68099365 -0.03968773 10.57720947 -0.04974365 C14.69309731 -0.06951476 18.80894613 -0.08114778 22.92486572 -0.09111023 C24.341881 -0.0951577 25.75889608 -0.09927462 27.17591095 -0.10346031 C33.83409446 -0.12251494 40.49226687 -0.13674453 47.1504724 -0.14507228 C54.83435125 -0.1548416 62.51794178 -0.18115167 70.20171905 -0.22157317 C76.14150923 -0.25174683 82.08121683 -0.26654239 88.02108216 -0.26985329 C91.56823909 -0.27220271 95.11508812 -0.28114807 98.66216278 -0.30631447 C102.62189426 -0.33395408 106.58124749 -0.32976017 110.54107666 -0.32279968 C111.71325745 -0.33560974 112.88543823 -0.3484198 114.09313965 -0.36161804 C120.34316581 -0.32152171 124.21294032 -0.10344898 128.94049072 4.14717102 C132.05566814 7.94557273 133.27833543 11.88578292 132.94049072 16.77217102 C132.04527397 21.96442819 129.98762393 25.6888032 125.63863277 28.78700352 C122.65442351 30.29138112 120.83961938 30.52619227 117.5202179 30.53485107 C116.44500381 30.54475571 115.36978973 30.55466034 114.26199341 30.56486511 C113.09250153 30.56036346 111.92300964 30.55586182 110.71807861 30.55122375 C108.8587545 30.56151863 108.8587545 30.56151863 106.96186829 30.57202148 C103.56912207 30.58717376 100.17692588 30.58878714 96.7841866 30.5830791 C93.94872286 30.57998524 91.11330868 30.5860819 88.277852 30.59211785 C81.58698703 30.6061573 74.89624975 30.60460677 68.2053833 30.59321594 C61.30984765 30.58173587 54.41470099 30.59580951 47.5192166 30.62261242 C41.59207935 30.6447861 35.66506405 30.65140305 29.73788828 30.64553601 C26.20087171 30.64216909 22.66410445 30.64456346 19.12712288 30.66178703 C15.18202655 30.68016008 11.23740674 30.66605179 7.29229736 30.64888 C5.54109589 30.66338196 5.54109589 30.66338196 3.7545166 30.67817688 C-2.48204589 30.62128515 -6.34728788 30.39240528 -11.05950928 26.14717102 C-14.17786931 22.27610339 -15.20468384 18.07403286 -15.05950928 13.14717102 C-14.15581853 8.70133528 -12.80003105 5.85156978 -9.49700928 2.70967102 C-5.97202758 0.45006737 -4.16566431 0.01905414 0 0 Z " fill="#7C001F" transform="translate(244.05950927734375,59.85282897949219)"/>
</svg>
