<?xml version="1.0" encoding="UTF-8"?>
<svg version="1.1" xmlns="http://www.w3.org/2000/svg" width="512" height="512">
<path d="M0 0 C14.48789575 11.49976725 24.12078817 24.742363 28 43 C28.39372322 47.03035623 28.42186324 51.02294331 28.3984375 55.0703125 C28.40274277 56.75107376 28.40274277 56.75107376 28.40713501 58.46578979 C28.40916429 60.82387806 28.40371456 63.1819836 28.39111328 65.54003906 C28.37513575 69.09479737 28.39095484 72.64840292 28.41015625 76.203125 C28.43224722 98.64735271 26.09599002 120.91197681 13 140 C11.55404216 141.36737317 10.09544539 142.72149522 8.625 144.0625 C3.87526088 149.03884881 4.30251711 154.11549046 4.41650391 160.61743164 C4.61239515 164.78168591 4.83718263 168.34578534 7 172 C9.60403074 173.36348719 11.92827734 174.35804858 14.6796875 175.3125 C15.4730954 175.60390869 16.2665033 175.89531738 17.08395386 176.19555664 C19.7150775 177.1531706 22.3557303 178.07934896 25 179 C25.90576782 179.3187207 26.81153564 179.63744141 27.74475098 179.96582031 C35.52277991 182.69894509 43.32250843 185.36819909 51.12841797 188.02050781 C78.67229745 197.39504405 103.06996151 206.44705806 117.4296875 233.71484375 C122.41140043 243.98778431 124.27842884 253.64665516 124.5 265 C124.5460437 266.38131104 124.5460437 266.38131104 124.59301758 267.79052734 C124.5948303 274.34172113 124.5948303 274.34172113 121.65625 277.59375 C118.39107048 279.32237445 116.64588565 279.60764761 113 279 C110.37890625 277.52734375 110.37890625 277.52734375 108 275 C107.18605211 272.04839585 107.07979053 269.11128384 106.9375 266.0625 C105.62684671 249.07081624 100.03417761 234.48375484 86.859375 223.16015625 C73.40846421 212.98289428 54.83925986 208.57407426 39.16235352 202.94750977 C35.92341603 201.78433606 32.68923172 200.60846328 29.45582294 199.43002415 C26.34495898 198.29955324 23.22877973 197.18404021 20.11328125 196.06640625 C18.95605057 195.64259171 17.79881989 195.21877716 16.60652161 194.78211975 C15.534077 194.40099533 14.46163239 194.01987091 13.35668945 193.62719727 C12.41598099 193.28777603 11.47527252 192.9483548 10.50605774 192.59864807 C7.84548279 191.96308887 6.51841435 191.99239327 4 193 C2.50617104 194.60482066 2.50617104 194.60482066 1.25 196.625 C-5.46163705 206.00451277 -14.995421 212.63429289 -26.46875 214.71484375 C-41.04513344 216.35693633 -54.06857448 213.80152692 -66 205 C-70.4882572 201.17635012 -73.93772458 197.02213169 -77 192 C-84.60078157 194.20941206 -92.09788821 196.67484121 -99.5859375 199.23828125 C-100.76411041 199.64153122 -101.94228333 200.04478119 -103.15615845 200.46025085 C-105.63576893 201.31043087 -108.11495967 202.16183598 -110.59375 203.0144043 C-113.10973336 203.87813644 -115.62698655 204.73817867 -118.14550781 205.59448242 C-121.81602373 206.84252497 -125.48255951 208.10168976 -129.1484375 209.36328125 C-130.25818939 209.73850418 -131.36794128 210.11372711 -132.51132202 210.50032043 C-152.33099917 217.37174615 -165.38905475 226.50810117 -174.95703125 245.3828125 C-177.93794372 252.86300485 -178.52421202 260.32684349 -178.94726562 268.28515625 C-179.43996071 274.40238033 -179.43996071 274.40238033 -182.38671875 277.546875 C-185.62842733 279.34943941 -187.34246548 279.60958909 -191 279 C-193.65625 277.59375 -193.65625 277.59375 -196 275 C-196.7138862 271.65715025 -196.61431974 268.40428716 -196.5 265 C-196.479375 264.0510083 -196.45875 263.1020166 -196.4375 262.12426758 C-195.77893931 242.07075163 -186.71340543 225.17454379 -172.375 211.375 C-160.73620322 201.45871275 -147.31245513 196.57556225 -133.0625 191.6875 C-131.21239795 191.0408773 -129.36279356 190.39282909 -127.51367188 189.7434082 C-122.89262741 188.12319592 -118.26686017 186.51700953 -113.63946533 184.91503906 C-107.42574434 182.76089164 -101.22021183 180.58352935 -95.01803589 178.39639282 C-93.03617848 177.70020873 -91.05165754 177.01209433 -89.06665039 176.32495117 C-87.88965576 175.91220947 -86.71266113 175.49946777 -85.5 175.07421875 C-84.4790625 174.71932373 -83.458125 174.36442871 -82.40625 173.9987793 C-79.87164986 173.12631823 -79.87164986 173.12631823 -78 171 C-75.84038294 164.26862356 -75.79333676 155.91580125 -77 149 C-78.60373866 146.16742263 -80.31149397 144.48432408 -82.70703125 142.30078125 C-96.80379167 128.15599098 -100.29608572 102.5894361 -100.3359375 83.7265625 C-100.3459227 82.03725113 -100.3459227 82.03725113 -100.35610962 80.31381226 C-100.36616215 77.94913346 -100.37092896 75.58442671 -100.37060547 73.21972656 C-100.37498069 69.64079258 -100.41138772 66.0630919 -100.44921875 62.484375 C-100.55508542 41.02380787 -97.2311534 24.57406839 -81.796875 8.73046875 C-60.06553312 -12.48490552 -25.8796573 -16.98352511 0 0 Z M-73.9921875 25.2109375 C-85.43552828 41.10694006 -84.41957795 59.34034446 -84 78 C-83.98598145 78.7940625 -83.97196289 79.588125 -83.95751953 80.40625 C-83.52524948 100.65609651 -79.23287092 120.13559225 -66 136 C-65.14398193 136.7221167 -64.28796387 137.4442334 -63.40600586 138.18823242 C-60.30394762 141.81343838 -60.39299041 143.74053853 -60.44140625 148.4609375 C-60.44490334 149.52412704 -60.44490334 149.52412704 -60.44847107 150.60879517 C-60.45818094 152.10325203 -60.47990502 153.59767361 -60.51293945 155.09179688 C-60.56220135 157.3612413 -60.57441561 159.62850732 -60.58007812 161.8984375 C-60.68681003 172.94166212 -60.68681003 172.94166212 -62.12084961 177.78759766 C-63.40195359 181.06516965 -63.40195359 181.06516965 -61.4375 184.125 C-55.02637827 191.68683589 -48.86304088 197.12485548 -38.68359375 198.2578125 C-30.08849028 198.66133848 -23.17491821 196.117801 -16.625 190.5625 C-12.41584393 186.61164579 -12.41584393 186.61164579 -9 182 C-9.07533247 179.3727086 -9.07533247 179.3727086 -10 177 C-11.10514766 173.68455701 -11.32107631 170.79589889 -11.5625 167.3125 C-11.64628906 166.13300781 -11.73007812 164.95351562 -11.81640625 163.73828125 C-11.87699219 162.83464844 -11.93757813 161.93101562 -12 161 C-12.79664063 161.27714844 -13.59328125 161.55429688 -14.4140625 161.83984375 C-15.47367187 162.20207031 -16.53328125 162.56429687 -17.625 162.9375 C-19.19121094 163.47697266 -19.19121094 163.47697266 -20.7890625 164.02734375 C-27.34808897 166.01420213 -34.9545152 167.48005541 -41.5625 165.0625 C-43.59670337 162.14386038 -43.48470672 159.64699601 -43.53125 156.15625 C-43 154 -43 154 -41.32421875 152.27734375 C-38.58355581 150.77113067 -36.41323599 150.42323922 -33.3125 150.0625 C-25.11407701 148.85420623 -18.68139821 145.89969202 -12 141 C-11.030625 140.29875 -10.06125 139.5975 -9.0625 138.875 C4.26668574 127.46493786 9.93052097 108.00539311 11.31640625 91.15234375 C11.40286102 89.7476611 11.48472667 88.34269005 11.5625 86.9375 C11.6049585 86.19959229 11.64741699 85.46168457 11.69116211 84.70141602 C12.04340712 78.12924713 12.10301565 71.58155551 12 65 C11.27039063 65.20496094 10.54078125 65.40992188 9.7890625 65.62109375 C-16.45978125 72.39394356 -43.57971585 68.61190415 -67 55 C-75.19598484 49.83476063 -75.19598484 49.83476063 -77 45 C-76.96986729 42.24787881 -76.45482541 39.72895247 -76 37 C-72.54937199 35.91074646 -69.60478889 35.58932785 -66 36 C-63.67439042 37.27533429 -61.64126566 38.5331122 -59.5 40.0625 C-42.70777254 51.95524962 -21.18414352 54.95553679 -1.17578125 51.7109375 C3.19956942 50.7314617 7.05346512 49.1007395 11 47 C8.94309859 34.45290139 2.49312512 23.91254404 -7.5 16.02734375 C-29.47555499 0.98303212 -56.85542238 4.88022333 -73.9921875 25.2109375 Z " fill="#6F001B" transform="translate(292,30)"/>
<path d="M0 0 C9.10522258 7.6060243 16.2486743 18.50820626 17.68830872 30.51528931 C17.80744565 33.07446461 17.84059374 35.61776941 17.83203125 38.1796875 C17.8372731 39.11511887 17.84251495 40.05055023 17.84791565 41.014328 C17.85430056 42.98162856 17.853045 44.94896748 17.84448242 46.91625977 C17.8359889 49.89214663 17.86475738 52.86609971 17.89648438 55.84179688 C17.94418193 68.45178968 17.14189053 79.29832628 9.8984375 90.09765625 C9.33125 90.96390625 8.7640625 91.83015625 8.1796875 92.72265625 C6.3984375 95.09765625 6.3984375 95.09765625 4.1953125 96.83203125 C1.37349013 100.38998119 1.96992751 103.95356412 2.1484375 108.34765625 C2.16648438 109.188125 2.18453125 110.02859375 2.203125 110.89453125 C2.25012952 112.9627302 2.32187026 115.03034066 2.3984375 117.09765625 C3.17034424 117.40993164 3.94225098 117.72220703 4.73754883 118.04394531 C7.60967716 119.21242995 10.47719335 120.39142552 13.34204102 121.57763672 C15.1888776 122.33856717 17.04071161 123.08733151 18.89257812 123.8359375 C20.05595703 124.31933594 21.21933594 124.80273438 22.41796875 125.30078125 C23.49151611 125.74067383 24.56506348 126.18056641 25.67114258 126.63378906 C28.51496033 128.16019952 29.77094291 129.34566074 31.3984375 132.09765625 C32.24776847 136.01529099 31.96046258 139.16094778 29.8984375 142.59765625 C26.44907352 144.66727464 23.29006557 144.49185953 19.3984375 144.09765625 C16.77335771 143.2973882 14.43638646 142.47546573 11.94140625 141.39453125 C11.27176346 141.11546936 10.60212067 140.83640747 9.91218567 140.54888916 C8.51022975 139.9605723 7.11119967 139.36523759 5.71508789 138.76318359 C3.58151478 137.84575449 1.43760851 136.95678357 -0.70898438 136.0703125 C-2.0762204 135.49253808 -3.44278257 134.91316587 -4.80859375 134.33203125 C-5.44610062 134.06831726 -6.08360748 133.80460327 -6.74043274 133.53289795 C-10.34606365 131.95645161 -12.72059551 130.61078506 -14.6015625 127.09765625 C-15.03393555 124.99121094 -15.03393555 124.99121094 -15.11328125 122.76953125 C-15.14873047 121.9703125 -15.18417969 121.17109375 -15.22070312 120.34765625 C-15.24326172 119.52265625 -15.26582031 118.69765625 -15.2890625 117.84765625 C-15.32322266 117.0071875 -15.35738281 116.16671875 -15.39257812 115.30078125 C-15.47479818 113.23353421 -15.53986407 111.16561751 -15.6015625 109.09765625 C-17.0865625 109.59265625 -17.0865625 109.59265625 -18.6015625 110.09765625 C-22.58870251 110.46683588 -24.94694754 110.43192772 -28.5390625 108.59765625 C-31.05091387 105.55298792 -31.13008825 103.92330431 -31.0703125 100.09765625 C-30.43715191 97.39617105 -29.54937587 96.08647622 -27.6015625 94.09765625 C-24.74609375 92.859375 -24.74609375 92.859375 -21.4140625 91.78515625 C-11.56332688 88.15132933 -6.25836912 83.19819973 -1.7890625 73.65234375 C0.43912762 66.98243254 0.91855195 60.08081846 1.3984375 53.09765625 C0.62242187 53.1440625 -0.15359375 53.19046875 -0.953125 53.23828125 C-17.10838938 53.77807529 -33.39046159 47.85238733 -45.6015625 37.09765625 C-47.20576768 33.8892459 -47.07618995 30.57825755 -46.6015625 27.09765625 C-45.1015625 24.59765625 -45.1015625 24.59765625 -42.6015625 23.09765625 C-37.94990579 22.08274933 -35.79643764 22.43539866 -31.61328125 24.75390625 C-29.96079306 25.81466514 -28.30856181 26.87599478 -26.66894531 27.95654297 C-18.4015314 33.32774424 -9.22567538 35.47944258 0.3984375 37.09765625 C-1.49715067 27.12087639 -4.53139152 19.55265087 -12.78515625 13.1953125 C-20.81690594 8.34171752 -29.26510554 6.59785061 -38.390625 8.7578125 C-47.37618694 11.61685494 -54.00386969 16.78644232 -58.6015625 25.09765625 C-61.93688007 33.17263563 -61.78340959 41.8120763 -61.7890625 50.41015625 C-61.80130859 51.37888672 -61.81355469 52.34761719 -61.82617188 53.34570312 C-61.84314918 61.82869681 -61.6043627 70.99737758 -56.9140625 78.34765625 C-56.45644531 79.0953125 -55.99882813 79.84296875 -55.52734375 80.61328125 C-53.81758904 83.08033946 -53.81758904 83.08033946 -51.85546875 84.29418945 C-48.99145745 86.4287365 -46.97150508 88.33587267 -46.21316528 91.94732666 C-45.70837574 96.69705271 -45.77964019 101.44516563 -45.90869141 106.21411133 C-45.97666286 108.78895789 -45.9906966 111.35988185 -45.99609375 113.93554688 C-46.01508747 115.57686228 -46.03711745 117.21814596 -46.0625 118.859375 C-46.06897552 119.62610031 -46.07545105 120.39282562 -46.0821228 121.18278503 C-46.18007588 124.32656723 -46.39168833 126.70677802 -47.8918457 129.50073242 C-49.73200743 131.2194955 -51.1400718 132.02133216 -53.49609375 132.88671875 C-54.2761377 133.18312256 -55.05618164 133.47952637 -55.85986328 133.78491211 C-57.12419189 134.24909546 -57.12419189 134.24909546 -58.4140625 134.72265625 C-60.22152255 135.42068343 -62.02746071 136.12266137 -63.83203125 136.828125 C-64.77481934 137.19599121 -65.71760742 137.56385742 -66.68896484 137.94287109 C-91.00194949 147.14946832 -91.00194949 147.14946832 -106.484375 167.03125 C-109.65359869 175.72999334 -109.77536908 184.36953627 -109.8515625 193.53515625 C-109.86582275 194.97544189 -109.86582275 194.97544189 -109.88037109 196.44482422 C-110.02769421 203.10470828 -110.02769421 203.10470828 -107.6015625 209.09765625 C-105.24968462 210.60057821 -103.11716633 211.76228265 -100.6015625 212.91015625 C-99.55415894 213.41228638 -99.55415894 213.41228638 -98.4855957 213.92456055 C-94.57013242 215.78294461 -90.61242227 217.54205449 -86.64453125 219.28515625 C-85.42926758 219.81919067 -85.42926758 219.81919067 -84.18945312 220.36401367 C-82.6151618 221.05012416 -81.03711282 221.72768981 -79.45507812 222.39575195 C-78.73384766 222.70601318 -78.01261719 223.01627441 -77.26953125 223.3359375 C-76.63297607 223.60446533 -75.9964209 223.87299316 -75.34057617 224.1496582 C-73.36344784 225.227461 -72.061402 226.38806769 -70.6015625 228.09765625 C-69.92291396 231.16854091 -70.02885198 234.01169182 -70.6015625 237.09765625 C-72.5390625 239.72265625 -72.5390625 239.72265625 -75.6015625 241.09765625 C-83.77170645 241.09765625 -90.43100856 237.87030419 -97.65844727 234.42529297 C-99.65488541 233.47701523 -101.66293213 232.55777239 -103.67382812 231.640625 C-113.90918826 226.88971187 -122.54344104 222.16466378 -126.6015625 211.09765625 C-127.13280351 208.08199231 -127.18724616 205.15102918 -127.16796875 202.09375 C-127.17416733 201.25280289 -127.18036591 200.41185577 -127.18675232 199.54542542 C-127.1938179 197.77305244 -127.19073382 196.00061264 -127.17797852 194.22827148 C-127.16421978 191.56559462 -127.19810041 188.90651588 -127.23632812 186.24414062 C-127.31963639 168.19485757 -122.85032855 154.09846486 -110.3125 140.640625 C-97.59213318 129.11153063 -79.35051373 123.33118609 -63.6015625 117.09765625 C-62.3645217 106.12522014 -62.3645217 106.12522014 -65.4296875 95.875 C-67.00021424 94.10945753 -68.61436167 92.38176087 -70.26953125 90.6953125 C-75.62599577 84.72873142 -78.65385847 75.82924212 -78.79443359 67.81079102 C-78.81049652 66.97214005 -78.82655945 66.13348907 -78.84310913 65.26942444 C-78.88810942 61.416689 -78.92867979 57.56411968 -78.95166016 53.71118164 C-78.96813117 51.69315996 -78.99530232 49.67519444 -79.03369141 47.6574707 C-79.36754897 29.98769644 -77.24050493 16.65771924 -64.796875 3.13671875 C-46.95022009 -13.82130604 -19.53923534 -14.28769912 0 0 Z " fill="#71001C" transform="translate(142.6015625,69.90234375)"/>
<path d="M0 0 C5.8722047 4.85872774 10.20416029 10.47623046 13.62109375 17.28515625 C14.15065674 18.29243774 14.15065674 18.29243774 14.69091797 19.32006836 C18.69932519 28.2610087 18.22529654 37.6505531 18.14257812 47.25463867 C18.12116428 50.21291326 18.14243528 53.16875307 18.16796875 56.12695312 C18.1875288 68.68410565 17.33073659 79.5362342 10.12109375 90.28515625 C9.55390625 91.15140625 8.98671875 92.01765625 8.40234375 92.91015625 C6.62109375 95.28515625 6.62109375 95.28515625 4.44921875 97.01953125 C1.61047294 100.53763504 1.94665743 104.13872392 1.87109375 108.53515625 C1.82662109 109.79585937 1.82662109 109.79585937 1.78125 111.08203125 C1.71077739 113.14922775 1.66364436 115.21719658 1.62109375 117.28515625 C2.47993164 117.56206299 3.33876953 117.83896973 4.22363281 118.12426758 C9.41407587 119.89780572 14.43817714 122.04002052 19.48730469 124.1784668 C20.7338891 124.70401619 21.98257622 125.22460819 23.23339844 125.73999023 C31.43050891 129.11864604 38.58330675 132.89005444 45.62109375 138.28515625 C46.58583618 138.97496582 46.58583618 138.97496582 47.57006836 139.67871094 C57.40970992 146.80720296 63.32466983 159.70164927 65.62109375 171.28515625 C66.2118979 177.14923788 66.19877159 183.02837312 66.14257812 188.91625977 C66.12098612 191.61108913 66.14255347 194.30329429 66.16796875 196.99804688 C66.16532752 198.73568288 66.1602068 200.47331728 66.15234375 202.2109375 C66.16044067 203.00381668 66.1685376 203.79669586 66.17687988 204.61360168 C66.06699799 211.22174237 64.07954565 216.13483164 60.01879883 221.33837891 C53.60399383 226.9759967 46.02197575 230.20776991 38.30859375 233.66015625 C36.9245701 234.29304741 35.54110156 234.92715396 34.15820312 235.5625 C20.35145 241.87553838 20.35145 241.87553838 13.62109375 241.28515625 C11.18359375 239.84765625 11.18359375 239.84765625 9.62109375 237.28515625 C9.01391308 234.16333112 8.74979201 231.35906549 9.62109375 228.28515625 C13.29102302 224.89997026 17.28339407 222.8639696 21.8203125 220.90234375 C22.83470146 220.45183151 22.83470146 220.45183151 23.86958313 219.99221802 C26.01289473 219.04116577 28.16030184 218.09989835 30.30859375 217.16015625 C32.46712952 216.21229527 34.62461965 215.26227501 36.77973938 214.30667114 C38.11650128 213.71425404 39.45530076 213.12640857 40.79631042 212.54367065 C43.50058514 211.34791442 45.51033709 210.39591291 47.62109375 208.28515625 C51.92793194 195.48612978 49.4478631 175.92759219 43.93359375 163.97265625 C35.04910984 147.7442284 16.75876504 142.76480361 0.49487305 136.05371094 C-0.58109131 135.60801758 -1.65705566 135.16232422 -2.765625 134.703125 C-3.72686279 134.30891357 -4.68810059 133.91470215 -5.6784668 133.50854492 C-12.90389018 130.23518839 -12.90389018 130.23518839 -14.37890625 127.28515625 C-14.52895598 125.91169275 -14.62728631 124.53230365 -14.6953125 123.15234375 C-14.73720703 122.34667969 -14.77910156 121.54101562 -14.82226562 120.7109375 C-14.86158203 119.86917969 -14.90089844 119.02742187 -14.94140625 118.16015625 C-14.98458984 117.31066406 -15.02777344 116.46117187 -15.07226562 115.5859375 C-15.17844861 113.48587402 -15.27919122 111.38553677 -15.37890625 109.28515625 C-16.86390625 109.78015625 -16.86390625 109.78015625 -18.37890625 110.28515625 C-22.36604626 110.65433588 -24.72429129 110.61942772 -28.31640625 108.78515625 C-30.82825762 105.74048792 -30.907432 104.11080431 -30.84765625 100.28515625 C-30.21449566 97.58367105 -29.32671962 96.27397622 -27.37890625 94.28515625 C-24.5234375 93.046875 -24.5234375 93.046875 -21.19140625 91.97265625 C-10.9212831 88.18412193 -6.32375081 83.19529115 -1.5078125 73.4453125 C1.07922181 66.20340676 0.80359639 58.57364003 0.80859375 50.97265625 C0.82083984 50.00392578 0.83308594 49.03519531 0.84570312 48.03710938 C0.86908643 36.3532534 -0.4372847 25.41697424 -8.56640625 16.53515625 C-15.1939096 10.27902162 -23.65124022 7.88001758 -32.59375 8.01171875 C-41.47152096 8.88330917 -48.39818515 12.79543761 -54.37890625 19.28515625 C-61.62715555 28.63158298 -61.55895891 39.27024805 -61.56640625 50.59765625 C-61.58477539 52.05075195 -61.58477539 52.05075195 -61.60351562 53.53320312 C-61.62049293 62.01619681 -61.38170645 71.18487758 -56.69140625 78.53515625 C-56.23378906 79.2828125 -55.77617187 80.03046875 -55.3046875 80.80078125 C-53.59493279 83.26783946 -53.59493279 83.26783946 -51.6328125 84.48168945 C-48.7688012 86.6162365 -46.74884883 88.52337267 -45.99050903 92.13482666 C-45.48571949 96.88455271 -45.55698394 101.63266563 -45.68603516 106.40161133 C-45.75400661 108.97645789 -45.76804035 111.54738185 -45.7734375 114.12304688 C-45.79243122 115.76436228 -45.8144612 117.40564596 -45.83984375 119.046875 C-45.84631927 119.81360031 -45.8527948 120.58032562 -45.85946655 121.37028503 C-45.95413371 124.40860634 -46.17195321 126.86151382 -47.51538086 129.61157227 C-50.04354611 131.88205212 -52.60151113 132.9863544 -55.734375 134.30078125 C-56.35484207 134.561474 -56.97530914 134.82216675 -57.61457825 135.09075928 C-58.92592134 135.63766722 -60.23977503 136.17858924 -61.5559082 136.71386719 C-63.55032504 137.52858707 -65.53179579 138.37015008 -67.51367188 139.21484375 C-79.68390896 144.29709659 -79.68390896 144.29709659 -86.37890625 143.28515625 C-89.66729835 140.57223277 -90.28742124 138.93698696 -90.87890625 134.72265625 C-90.28436235 130.63516692 -89.47001254 129.89225521 -86.37890625 127.28515625 C-83.81347656 125.91308594 -83.81347656 125.91308594 -80.95703125 124.70703125 C-79.93222656 124.26875 -78.90742188 123.83046875 -77.8515625 123.37890625 C-76.78808594 122.93546875 -75.72460938 122.49203125 -74.62890625 122.03515625 C-73.54996094 121.57625 -72.47101563 121.11734375 -71.359375 120.64453125 C-68.70274999 119.51605337 -66.04267271 118.39664679 -63.37890625 117.28515625 C-62.14186545 106.31272014 -62.14186545 106.31272014 -65.20703125 96.0625 C-66.77692577 94.29766825 -68.39106865 92.57120836 -70.046875 90.88671875 C-75.03592393 85.32104608 -78.44358408 76.53142226 -78.57177734 69.02001953 C-78.58784027 68.16127228 -78.6039032 67.30252502 -78.62045288 66.41775513 C-78.66532405 62.46080539 -78.70604054 58.50402088 -78.72900391 54.546875 C-78.74546424 52.47351784 -78.77262071 50.40021505 -78.81103516 48.32714844 C-79.14000404 30.45984699 -77.16595315 17.0061466 -64.57421875 3.32421875 C-46.8068148 -13.55850119 -19.5553506 -14.09654994 0 0 Z " fill="#71001C" transform="translate(430.37890625,69.71484375)"/>
<path d="M0 0 C2.98835108 2.63301978 4.86541135 5.21933148 6.6640625 8.75390625 C7.14746094 9.69298828 7.63085938 10.63207031 8.12890625 11.59960938 C8.86947266 13.06624023 8.86947266 13.06624023 9.625 14.5625 C11.13163202 17.50765601 12.64188999 20.4453553 14.20727539 23.35986328 C15.64017769 26.11977846 16.72622635 28.91876495 17.79077148 31.83935547 C21.30786991 40.97443486 21.30786991 40.97443486 28.40905762 47.28762817 C35.34005528 49.66857239 42.55659036 50.30060897 49.8125 51 C53.04891369 51.3942203 56.28144152 51.81239746 59.51408386 52.23632812 C61.51465333 52.48977611 63.51815574 52.72132499 65.52412415 52.92773438 C71.59107783 53.5864028 75.56430921 54.56430921 80 59 C80.53367525 63.80120576 80.67371791 65.94376238 78.05297852 70.05249023 C76.69837524 71.44769897 76.69837524 71.44769897 75.31640625 72.87109375 C74.82547989 73.38280624 74.33455353 73.89451874 73.82875061 74.42173767 C70.30744458 77.98617147 66.50621354 80.96637474 62.46484375 83.91015625 C50.622212 92.61916822 50.622212 92.61916822 44.61407471 105.47955322 C44.13542872 116.70342871 46.70910488 128.10208662 49.47279358 138.92414856 C51.04877015 145.20669512 52.85665509 152.7508536 49.5 158.625 C45.94730399 160.5789828 42.91619645 160.62317378 39 160 C34.84070107 158.47774409 30.94408836 156.50690393 27 154.5 C25.89873779 153.95770752 24.79747559 153.41541504 23.6628418 152.85668945 C18.74869718 150.42854502 13.86773875 147.94384952 9.01953125 145.38671875 C7.93575195 144.82210937 7.93575195 144.82210937 6.83007812 144.24609375 C5.52742813 143.56261234 4.23238521 142.86433658 2.94726562 142.1484375 C-1.23096656 139.94443175 -3.46927627 139.88312079 -8 141 C-10.69378464 142.10231777 -13.26333786 143.40984856 -15.84765625 144.74609375 C-16.58197372 145.11726822 -17.3162912 145.48844269 -18.07286072 145.87086487 C-20.40666394 147.0521968 -22.73472851 148.24433335 -25.0625 149.4375 C-27.39484817 150.62499552 -29.72833805 151.81018953 -32.06285095 152.99342346 C-33.51125484 153.7283909 -34.95824076 154.4661615 -36.40357971 155.20713806 C-42.83843968 158.48778275 -47.66920958 160.69817052 -55 160 C-57.5 158.625 -57.5 158.625 -59 156 C-59.74718795 149.18269564 -58.4816438 143.22944526 -56.5625 136.7421875 C-51.36587842 118.50916251 -51.36587842 118.50916251 -54.22283936 100.41400146 C-61.09228385 89.65505439 -71.57872436 81.37690433 -81.62670898 73.70922852 C-84.7696306 71.27449721 -87.55934318 69.0325792 -88.43359375 65 C-88.43488281 64.34 -88.43617188 63.68 -88.4375 63 C-88.45683594 62.34 -88.47617188 61.68 -88.49609375 61 C-87.7448662 57.97142911 -86.44451435 56.94464097 -84 55 C-81.20829945 54.05429188 -78.37119708 53.60809702 -75.46484375 53.1484375 C-74.6309462 53.00346832 -73.79704865 52.85849915 -72.93788147 52.70913696 C-70.27340052 52.24938083 -67.60582926 51.81180663 -64.9375 51.375 C-63.1696697 51.07439596 -61.40208782 50.77232705 -59.63476562 50.46875 C-58.77556519 50.32295502 -57.91636475 50.17716003 -57.03112793 50.02694702 C-55.32555306 49.73384824 -53.62132374 49.43280459 -51.9185791 49.12368774 C-48.42946018 48.50235145 -45.20237144 48.00109087 -41.6484375 47.98193359 C-38.41201084 47.91194757 -36.77322983 47.70550347 -34 46 C-29.66645048 40.63407113 -26.99339668 34.09180125 -24.125 27.875 C-22.90303656 25.32763159 -21.6699004 22.78590928 -20.43527222 20.24465942 C-19.67380121 18.66671339 -18.92176102 17.08416623 -18.18118286 15.49630737 C-9.94458085 -2.04520625 -9.94458085 -2.04520625 0 0 Z M-5 28 C-5.26627197 28.50748779 -5.53254395 29.01497559 -5.80688477 29.5378418 C-7.97386643 33.66615871 -10.14571585 37.79181249 -12.32421875 41.9140625 C-13.93274504 44.96041898 -15.52290949 48.01402747 -17.08203125 51.0859375 C-17.67371094 52.23320312 -18.26539063 53.38046875 -18.875 54.5625 C-19.38804687 55.57441406 -19.90109375 56.58632813 -20.4296875 57.62890625 C-22.90766158 61.37052382 -25.3062226 61.8528379 -29.66699219 62.77783203 C-31.1258454 63.02771439 -32.58589794 63.27066296 -34.046875 63.5078125 C-35.20367767 63.70333206 -35.20367767 63.70333206 -36.3838501 63.90280151 C-38.83826816 64.31622399 -41.29406052 64.72072419 -43.75 65.125 C-45.41806732 65.40436 -47.08603739 65.68430133 -48.75390625 65.96484375 C-52.83484129 66.64997066 -56.91703159 67.32710148 -61 68 C-59.47396585 71.21630141 -57.90199229 73.28769299 -55.3125 75.75 C-51.92851221 79.04236358 -48.81087965 82.46180234 -45.73828125 86.04296875 C-43.40404295 88.67095389 -40.91235704 91.11588895 -38.3828125 93.5546875 C-35.35557156 96.71875289 -35.79429378 99.80804974 -35.83544922 103.96923828 C-36.14562539 109.68218626 -37.13722446 115.29728904 -38.0625 120.9375 C-38.45572542 123.3413926 -38.84275608 125.74630931 -39.22265625 128.15234375 C-39.39547119 129.20413818 -39.56828613 130.25593262 -39.74633789 131.33959961 C-40.19087691 134.10211279 -40.19087691 134.10211279 -39 137 C-37.69180298 136.32626343 -37.69180298 136.32626343 -36.35717773 135.63891602 C-33.09904586 133.96436685 -29.83415981 132.3033701 -26.56713867 130.64624023 C-25.15805319 129.92917839 -23.75078863 129.2085259 -22.34545898 128.48413086 C-20.31710333 127.43939468 -18.28240089 126.40804065 -16.24609375 125.37890625 C-15.31596718 124.89448814 -15.31596718 124.89448814 -14.36705017 124.40028381 C-9.38521805 121.90780015 -4.76230818 120.1738753 0.73144531 121.81689453 C2.01680176 122.46827393 2.01680176 122.46827393 3.328125 123.1328125 C4.29363281 123.60976563 5.25914062 124.08671875 6.25390625 124.578125 C7.24261719 125.08859375 8.23132813 125.5990625 9.25 126.125 C11.21302139 127.10781071 13.17656195 128.08958513 15.140625 129.0703125 C16.10033203 129.55532227 17.06003906 130.04033203 18.04882812 130.54003906 C22.64479664 132.81368993 27.31601405 134.91504104 32 137 C31.52155349 133.31240619 31.04211288 129.62494227 30.5625 125.9375 C30.42779297 124.89916016 30.29308594 123.86082031 30.15429688 122.79101562 C29.03905137 113.53973785 29.03905137 113.53973785 27.4453125 104.3671875 C26.95899141 100.58337216 26.87110961 97.58309054 29.16748047 94.36279297 C32.32663072 90.79017945 35.85869221 87.62545647 39.41455078 84.45556641 C41.43746043 82.5983771 43.2279215 80.59570976 45 78.5 C46.89502313 76.2599976 48.81920526 74.15527695 50.9375 72.125 C53.23215846 70.25436301 53.23215846 70.25436301 53 68 C51.96069336 67.82871582 50.92138672 67.65743164 49.85058594 67.48095703 C45.98799203 66.84262066 42.1268622 66.1957806 38.26611328 65.54638672 C36.59625222 65.26672631 34.92600507 64.98936098 33.25537109 64.71435547 C30.8514815 64.31823565 28.44910987 63.91383154 26.046875 63.5078125 C24.9294693 63.32643234 24.9294693 63.32643234 23.78948975 63.14138794 C16.43519363 61.88169377 16.43519363 61.88169377 14 60 C12.58465949 57.69281622 11.38290203 55.48518036 10.21484375 53.05859375 C9.87248184 52.37571793 9.53011993 51.6928421 9.17738342 50.98927307 C8.08602412 48.81080342 7.01029867 46.62516316 5.9375 44.4375 C4.86044775 42.24665325 3.77997202 40.05791967 2.68690491 37.87501526 C2.00729302 36.51756567 1.33691656 35.1554453 0.67674255 33.78843689 C-1.17476077 29.85252234 -1.17476077 29.85252234 -5 28 Z " fill="#6E001B" transform="translate(260,336)"/>
<path d="M0 0 C4.7786206 5.52171874 7.91199905 12.46786087 11.0625 19 C12.28869647 21.518255 13.52007737 24.03249629 14.77783203 26.53515625 C15.59982872 28.19294262 16.38697749 29.86842057 17.14013672 31.55859375 C17.52572754 32.36425781 17.91131836 33.16992188 18.30859375 34 C18.63529053 34.721875 18.9619873 35.44375 19.29858398 36.1875 C21.95898854 39.02160007 25.31668516 39.34393452 29 40 C29.65898788 40.12163513 30.31797577 40.24327026 30.99693298 40.36859131 C33.02091769 40.72403134 35.04808107 41.04828728 37.078125 41.3671875 C38.58346251 41.61510235 40.08866737 41.8638237 41.59375 42.11328125 C43.93183531 42.49819791 46.27027301 42.87817342 48.61132812 43.24462891 C50.89461298 43.60407012 53.17374648 43.9838532 55.453125 44.3671875 C56.15109192 44.47151093 56.84905884 44.57583435 57.56817627 44.68331909 C61.90170869 45.43384333 64.36495068 46.42409559 67 50 C67.72143649 53.93510811 68.0936659 56.38744316 65.81030273 59.75415039 C60.18217651 65.9161166 54.299359 71.81276031 48.375 77.6875 C47.34090959 78.71655953 46.30705398 79.74585507 45.2734375 80.77539062 C43.37302143 82.66772395 41.471024 84.5584121 39.56787109 86.44799805 C37.79461674 88.2102939 36.04019628 89.99167271 34.30151367 91.78808594 C32 94 32 94 29.90234375 94.62890625 C26.53318725 94.51503814 24.35538604 94.24603649 21.5625 92.3125 C19.77150186 89.66182276 19.07633741 88.20617138 19 85 C21.31906585 78.51447685 26.33569383 74.33046399 31.1875 69.625 C32.4549707 68.37783203 32.4549707 68.37783203 33.74804688 67.10546875 C35.82538837 65.06333644 37.90941808 63.028561 40 61 C35.9086564 59.69122527 31.97306696 58.79791252 27.71484375 58.2109375 C26.77189453 58.07300781 25.82894531 57.93507813 24.85742188 57.79296875 C22.91012506 57.51422526 20.95931742 57.25899967 19.00585938 57.02734375 C14.0506061 56.26082271 10.81669122 55.52668291 7.65234375 51.4765625 C6.72410636 50.0114149 5.84116962 48.51681106 5 47 C4.54133545 46.19739746 4.0826709 45.39479492 3.61010742 44.56787109 C2.23005939 42.06883228 0.91881453 39.5446322 -0.375 37 C-0.82488281 36.12988281 -1.27476563 35.25976562 -1.73828125 34.36328125 C-2.83210098 32.24546007 -3.919164 30.12446814 -5 28 C-5.33733154 28.64026123 -5.67466309 29.28052246 -6.0222168 29.94018555 C-7.56792672 32.86103518 -9.12754181 35.77423694 -10.6875 38.6875 C-11.21794922 39.69490234 -11.74839844 40.70230469 -12.29492188 41.74023438 C-18.00166326 52.34847142 -18.00166326 52.34847142 -22 55 C-26.55069664 56.30503795 -31.14050706 57.07532574 -35.8125 57.8125 C-37.71032227 58.13637695 -37.71032227 58.13637695 -39.64648438 58.46679688 C-42.76178037 58.9958094 -45.87897234 59.50613636 -49 60 C-49.22101016 62.16183153 -49.22101016 62.16183153 -47.36352539 63.84765625 C-46.24192017 64.94400391 -46.24192017 64.94400391 -45.09765625 66.0625 C-44.29005859 66.85914063 -43.48246094 67.65578125 -42.65039062 68.4765625 C-41.36938477 69.72566406 -41.36938477 69.72566406 -40.0625 71 C-38.38454004 72.64361203 -36.70865062 74.2893414 -35.03515625 75.9375 C-33.91185913 77.03384766 -33.91185913 77.03384766 -32.76586914 78.15234375 C-29.42541866 81.64750886 -29.82803928 84.55523522 -29.87548828 89.18359375 C-30.07410812 93.67629665 -30.72364959 98.06416674 -31.4375 102.5 C-31.57220703 103.39203125 -31.70691406 104.2840625 -31.84570312 105.203125 C-32.85679945 111.7135989 -32.85679945 111.7135989 -34 114 C-33.30438965 113.64172119 -32.6087793 113.28344238 -31.89208984 112.91430664 C-28.72399222 111.28856539 -25.54962962 109.67544619 -22.375 108.0625 C-20.73337891 107.21655273 -20.73337891 107.21655273 -19.05859375 106.35351562 C-17.99511719 105.81533203 -16.93164062 105.27714844 -15.8359375 104.72265625 C-14.37486572 103.97640991 -14.37486572 103.97640991 -12.88427734 103.21508789 C-8.60595708 101.41271783 -5.38393139 100.57994022 -0.8984375 101.94140625 C0.84566406 102.74384766 0.84566406 102.74384766 2.625 103.5625 C3.27944092 103.86333496 3.93388184 104.16416992 4.6081543 104.47412109 C7.08292751 105.62760074 9.54078564 106.81369947 12 108 C13.13228027 108.5377002 14.26456055 109.07540039 15.43115234 109.62939453 C18.59546061 111.13341469 21.74962458 112.65726539 24.89837646 114.193573 C26.16983061 114.81227221 27.4433079 115.42683168 28.71881104 116.03713989 C30.53432108 116.90889615 32.33963402 117.80179043 34.14453125 118.6953125 C35.20003174 119.21109863 36.25553223 119.72688477 37.34301758 120.25830078 C40.33692933 122.22086316 41.54721066 123.74925394 43 127 C42.88200002 130.42199954 42.64983667 132.91693888 40.875 135.875 C37.95650244 137.62609853 35.35459828 138.19900159 32 138 C28.0858798 136.67668334 24.48272209 134.82291055 20.8125 132.9375 C19.790354 132.43250977 18.76820801 131.92751953 17.71508789 131.40722656 C13.45748834 129.29622186 9.22860493 127.13756509 5.0390625 124.89453125 C4.01554687 124.35183594 2.99203125 123.80914062 1.9375 123.25 C1.10089844 122.78078125 0.26429687 122.3115625 -0.59765625 121.828125 C-4.85490634 120.36058513 -8.28710944 121.6806927 -12.29223633 123.47460938 C-13.47605114 124.0902461 -14.65583346 124.71368266 -15.83203125 125.34375 C-17.13850654 126.01985083 -18.4451526 126.69562176 -19.75195312 127.37109375 C-21.78186559 128.43245708 -23.80922081 129.49826235 -25.83325195 130.57080078 C-40.24564872 138.17807487 -40.24564872 138.17807487 -48 138 C-51.0625 136.125 -51.0625 136.125 -53 133 C-53.53214246 127.06949673 -52.63490007 121.69673081 -51.484375 115.88671875 C-51.05505873 113.60051514 -50.62931926 111.31367127 -50.20458984 109.02661133 C-49.90172449 107.46820481 -49.57714079 105.91386153 -49.23095703 104.36450195 C-47.05781469 95.58978002 -47.05781469 95.58978002 -49.05072021 87.1270752 C-52.19646159 83.14258915 -56.03826592 80.13496783 -60 77 C-61.24705272 75.66001718 -62.46813974 74.29357985 -63.625 72.875 C-67.07784991 68.76405741 -70.9895483 65.19528923 -74.9609375 61.58984375 C-77.50169642 58.36278788 -77.80041889 56.05814925 -78 52 C-76.89791992 48.60191974 -76.07902124 48.05268083 -73 46 C-71.14086914 45.51393127 -71.14086914 45.51393127 -69.03515625 45.17797852 C-68.24423584 45.04766739 -67.45331543 44.91735626 -66.63842773 44.78309631 C-65.78837158 44.64971359 -64.93831543 44.51633087 -64.0625 44.37890625 C-62.26297957 44.08032671 -60.46350167 43.78149073 -58.6640625 43.48242188 C-55.82716677 43.019692 -52.98972462 42.56085759 -50.15136719 42.10717773 C-47.41159323 41.66646661 -44.67457534 41.21103419 -41.9375 40.75390625 C-41.08744385 40.62254776 -40.2373877 40.49118927 -39.36157227 40.35585022 C-38.17519165 40.15565529 -38.17519165 40.15565529 -36.96484375 39.95141602 C-36.2699585 39.83975601 -35.57507324 39.72809601 -34.85913086 39.61305237 C-30.59236939 38.20607867 -29.08199696 34.5201342 -27.1451416 30.70568848 C-26.79818237 30.00874878 -26.45122314 29.31180908 -26.09375 28.59375 C-25.54479065 27.51208557 -25.54479065 27.51208557 -24.98474121 26.40856934 C-23.81758646 24.10848177 -22.65790935 21.80475434 -21.5 19.5 C-19.97538458 16.46533756 -18.44321555 13.4346727 -16.90625 10.40625 C-16.55929077 9.7093103 -16.21233154 9.01237061 -15.8548584 8.29431152 C-12.08603008 0.87197561 -8.7163438 -2.65922353 0 0 Z " fill="#6D001B" transform="translate(101,315)"/>
<path d="M0 0 C6.54779907 2.26196695 9.44699416 8.59574244 12.42578125 14.484375 C12.94787422 15.49664154 12.94787422 15.49664154 13.48051453 16.52935791 C14.20747805 17.94269854 14.93081343 19.35791083 15.65063477 20.77490234 C16.75619829 22.94969286 17.87422811 25.11772564 18.99414062 27.28515625 C19.70125638 28.66368545 20.40766253 30.04257893 21.11328125 31.421875 C21.44757645 32.07081726 21.78187164 32.71975952 22.126297 33.3883667 C24.4375 37.95560469 24.4375 37.95560469 24.4375 40.1875 C25.70980469 40.35765625 26.98210937 40.5278125 28.29296875 40.703125 C37.86289738 42.00761489 47.42048799 43.41381738 56.9375 45.0625 C57.8143042 45.19946289 58.6911084 45.33642578 59.59448242 45.47753906 C64.97364788 46.45069667 67.9718807 47.66622111 71.4375 52.1875 C72.19418624 55.28303461 72.08234722 57.06705336 70.47753906 59.85546875 C67.30366391 64.20476735 63.74118265 67.90445001 59.78515625 71.54296875 C59.27780441 72.01583817 58.77045258 72.48870758 58.24772644 72.97590637 C53.98804655 76.94533604 53.98804655 76.94533604 51.85913086 78.81958008 C45.21954671 84.50138481 45.21954671 84.50138481 41.89526367 92.29541016 C42.12365295 95.70119692 42.70686488 98.85408136 43.4375 102.1875 C43.79777489 104.66486437 44.14509615 107.14414179 44.48046875 109.625 C45.05232025 113.44393908 45.63650512 117.26018313 46.24023438 121.07421875 C46.42263672 122.30785156 46.60503906 123.54148437 46.79296875 124.8125 C46.96465576 125.91851562 47.13634277 127.02453125 47.31323242 128.1640625 C47.44851597 131.45551914 46.94420046 133.28480589 45.4375 136.1875 C43.22343534 138.48063839 41.95330756 139.12139273 38.78393555 139.52758789 C34.30604347 139.07251357 31.44231499 137.23808924 27.64453125 134.93359375 C11.52653945 124.33830397 11.52653945 124.33830397 -6.52734375 121.6796875 C-10.60861384 123.36434555 -14.02848011 125.82558482 -17.45166016 128.58789062 C-21.12475912 131.37139102 -25.24422975 133.24318363 -29.375 135.25 C-30.47932373 135.83841675 -30.47932373 135.83841675 -31.60595703 136.4387207 C-35.73919981 138.59563371 -38.7815837 139.81140257 -43.5625 139.1875 C-46.97889845 137.2135809 -48.28518412 136.00211541 -49.5625 132.25 C-49.5625 128.40850054 -48.92162843 127.22196887 -46.5625 124.1875 C-43.93164836 122.36339683 -41.11778755 120.97590335 -38.25 119.5625 C-37.01020386 118.93323608 -37.01020386 118.93323608 -35.74536133 118.29125977 C-33.9647352 117.38991422 -32.18099564 116.49469852 -30.39453125 115.60498047 C-27.45917477 114.13578394 -24.54144481 112.63525952 -21.625 111.12890625 C-19.66713107 110.12669642 -17.70880712 109.12537492 -15.75 108.125 C-14.82598389 107.64788574 -13.90196777 107.17077148 -12.94995117 106.67919922 C-12.07314697 106.23721191 -11.19634277 105.79522461 -10.29296875 105.33984375 C-9.52364014 104.94788818 -8.75431152 104.55593262 -7.96166992 104.15209961 C-4.01352727 102.5647269 -0.96307338 101.74382221 3.16650391 103.05200195 C4.07319824 103.50534912 4.97989258 103.95869629 5.9140625 104.42578125 C6.914375 104.91626953 7.9146875 105.40675781 8.9453125 105.91210938 C10.48832031 106.69811523 10.48832031 106.69811523 12.0625 107.5 C13.09890625 108.01240234 14.1353125 108.52480469 15.203125 109.05273438 C17.955536 110.41649357 20.69791433 111.79821219 23.4375 113.1875 C24.77038529 113.85506201 26.10354481 114.52207849 27.4375 115.1875 C27.25574219 114.1519397 27.25574219 114.1519397 27.0703125 113.09545898 C26.51996029 109.93966533 25.97866105 106.7823822 25.4375 103.625 C25.24671875 102.53896484 25.0559375 101.45292969 24.859375 100.33398438 C22.41059961 85.94742896 22.41059961 85.94742896 24.65234375 82.10546875 C25.22082031 81.53441406 25.78929687 80.96335937 26.375 80.375 C27.00921875 79.71242188 27.6434375 79.04984375 28.296875 78.3671875 C29.35648438 77.28824219 29.35648438 77.28824219 30.4375 76.1875 C32.00728826 74.46494711 33.5696525 72.735603 35.125 71 C36.21361328 69.80310547 36.21361328 69.80310547 37.32421875 68.58203125 C39.44638938 66.17742756 41.44241656 63.69784744 43.4375 61.1875 C42.19661621 60.99172363 42.19661621 60.99172363 40.93066406 60.79199219 C37.84960212 60.2979494 34.77138716 59.78938766 31.69433594 59.27099609 C29.71211658 58.94159079 27.72714482 58.62888963 25.7421875 58.31640625 C24.49179687 58.10371094 23.24140625 57.89101563 21.953125 57.671875 C20.80102539 57.48334961 19.64892578 57.29482422 18.46191406 57.10058594 C13.99030208 55.75058361 12.25740406 53.53959539 9.88183594 49.62207031 C9.40004883 48.67944336 8.91826172 47.73681641 8.421875 46.765625 C7.62910156 45.22841797 7.62910156 45.22841797 6.8203125 43.66015625 C6.28148437 42.59667969 5.74265625 41.53320312 5.1875 40.4375 C4.63320313 39.35855469 4.07890625 38.27960938 3.5078125 37.16796875 C2.14417673 34.5112301 0.78770816 31.85108092 -0.5625 29.1875 C-2.80759381 32.01340397 -4.46326771 34.81213835 -6.015625 38.06640625 C-6.47066406 38.98744141 -6.92570312 39.90847656 -7.39453125 40.85742188 C-8.33838579 42.78283314 -9.26816674 44.7152086 -10.18359375 46.65429688 C-12.27483442 50.8338493 -13.6829342 53.61227065 -17.64453125 56.203125 C-19.42529297 56.74829102 -19.42529297 56.74829102 -21.5625 57.1875 C-22.48820801 57.37948975 -23.41391602 57.57147949 -24.36767578 57.76928711 C-27.57109127 58.36952127 -30.77818247 58.88360112 -34 59.375 C-35.6696582 59.64086914 -35.6696582 59.64086914 -37.37304688 59.91210938 C-40.10168773 60.34541286 -42.83136009 60.77029121 -45.5625 61.1875 C-41.30751636 66.21187282 -36.93012885 71.09480027 -32.44335938 75.91210938 C-25.66198279 83.2451267 -25.66198279 83.2451267 -25.34765625 86.22265625 C-25.78701936 89.43433872 -26.09953266 91.5949018 -28.125 94.1875 C-31.67799334 95.64513829 -34.83577217 95.98723593 -38.5625 95.1875 C-41.62538259 93.23528309 -43.99833012 90.73274327 -46.4921875 88.109375 C-47.20859406 87.38639221 -47.92500061 86.66340942 -48.66311646 85.91851807 C-50.16990496 84.39093194 -51.66714024 82.85387083 -53.15527344 81.30810547 C-55.43308782 78.94208304 -57.73663211 76.60385965 -60.046875 74.26953125 C-61.5093774 72.78018091 -62.9703681 71.2893443 -64.4296875 69.796875 C-65.11610321 69.09568542 -65.80251892 68.39449585 -66.50973511 67.67205811 C-67.14444733 67.01167542 -67.77915955 66.35129272 -68.43310547 65.67089844 C-68.99077606 65.09353943 -69.54844666 64.51618042 -70.12301636 63.92132568 C-72.43651768 61.13476535 -73.46650414 58.83204365 -74 55.25 C-73.39216645 50.99516518 -71.89367364 49.86451811 -68.5625 47.1875 C-65.64812556 46.12506228 -62.70704942 45.64407965 -59.6484375 45.16796875 C-58.79698151 45.01967117 -57.94552551 44.8713736 -57.06826782 44.71858215 C-54.36081887 44.25193527 -51.64964053 43.81345951 -48.9375 43.375 C-47.10646626 43.06232524 -45.27573218 42.74789029 -43.4453125 42.43164062 C-30.29046336 40.1875 -30.29046336 40.1875 -26.5625 40.1875 C-26.29985352 39.33679932 -26.03720703 38.48609863 -25.76660156 37.60961914 C-23.80567491 32.0365638 -21.02694506 26.86502562 -18.33251953 21.61938477 C-17.31679139 19.6333907 -16.32051893 17.63837332 -15.32421875 15.64257812 C-14.6704518 14.3639788 -14.01554094 13.0859636 -13.359375 11.80859375 C-12.48297363 10.08274048 -12.48297363 10.08274048 -11.58886719 8.32202148 C-8.61330143 3.71921561 -5.75138946 0.30270471 0 0 Z " fill="#6E001B" transform="translate(418.5625,313.8125)"/>
</svg>
