<?xml version="1.0" encoding="UTF-8"?>
<svg version="1.1" xmlns="http://www.w3.org/2000/svg" width="512" height="512">
<path d="M0 0 C1.29109177 -0.00852997 2.58218353 -0.01705994 3.91239929 -0.02584839 C5.33610547 -0.02514942 6.75981155 -0.02422638 8.18351746 -0.02310181 C9.68850029 -0.02908867 11.19348006 -0.03589459 12.69845581 -0.04345703 C16.78122776 -0.06110915 20.86391585 -0.0658121 24.94672227 -0.0670886 C27.49950101 -0.06851132 30.05225851 -0.07278322 32.60503197 -0.07808304 C41.51662421 -0.09658139 50.42815665 -0.10475398 59.33976746 -0.10317993 C67.63714116 -0.10197889 75.93425458 -0.12307423 84.23156244 -0.15466726 C91.36295186 -0.18084996 98.49425639 -0.19154638 105.6256935 -0.19026911 C109.88153498 -0.18976002 114.13714515 -0.19541364 118.39293861 -0.21662521 C122.39774005 -0.23604111 126.40209035 -0.23610947 130.40690804 -0.22159195 C131.87259839 -0.21950682 133.33831722 -0.22418716 134.80395889 -0.23631287 C143.96320117 -0.30715205 150.15827777 0.15222205 157.60221863 5.77523804 C162.92820551 11.75073551 171.60612488 23.96912997 171.60612488 32.26742554 C172.3149884 32.25854309 173.02385193 32.24966064 173.75419617 32.24050903 C180.46218803 32.16007973 187.17004366 32.09931818 193.87841034 32.06017685 C197.3265962 32.0393766 200.77438082 32.01120017 204.22233582 31.96566772 C208.19396523 31.91355309 212.16543695 31.89441765 216.13737488 31.87680054 C217.97845825 31.84583282 217.97845825 31.84583282 219.85673523 31.8142395 C228.01649969 31.81211537 233.53836441 32.70282011 239.84831238 38.23226929 C240.3871405 38.88324585 240.92596863 39.53422241 241.48112488 40.20492554 C242.03542175 40.85332397 242.58971863 41.50172241 243.16081238 42.16976929 C246.23534458 46.63199575 246.85683979 50.45683867 246.86339378 55.82615376 C246.86689986 56.47448495 246.87040593 57.12281615 246.87401825 57.79079375 C246.8833325 59.96630214 246.87840897 62.14154285 246.87355042 64.31706238 C246.87728667 65.89135207 246.88188809 67.46563991 246.88728106 69.0399248 C246.89952958 73.36860558 246.89924842 77.69720918 246.89689231 82.02590334 C246.89648461 86.69337256 246.9075188 91.36081688 246.91700745 96.02827454 C246.93362856 105.17372713 246.93911749 114.31915395 246.9402322 123.46462039 C246.94118215 130.89769406 246.94528976 138.33075921 246.95163345 145.76383018 C246.96924887 166.83270431 246.97847185 187.90155805 246.97697251 208.97043959 C246.97689259 210.1065431 246.97681268 211.2426466 246.97673035 212.41317749 C246.97664859 213.55066634 246.97656682 214.68815519 246.97648259 215.8601134 C246.97566959 234.29695956 246.99480984 252.73372404 247.02300708 271.17054657 C247.0517238 290.09619701 247.06554804 309.0218076 247.06381953 327.94748038 C247.06315521 338.57487829 247.06866585 349.20219056 247.09017563 359.82956886 C247.10837147 368.87769752 247.1127479 377.92570174 247.09915678 386.97384075 C247.09261908 391.59053619 247.09253886 396.20699278 247.10986328 400.82366562 C247.12556362 405.05101396 247.12276162 409.27793347 247.10529502 413.50527116 C247.10221841 415.03351962 247.10588242 416.56179985 247.11701517 418.09001086 C247.17943724 427.26754263 246.96190116 434.29681801 240.64128113 441.50961304 C239.99030457 442.04844116 239.339328 442.58726929 238.66862488 443.14242554 C238.02022644 443.69672241 237.371828 444.25101929 236.70378113 444.82211304 C232.47029161 447.7390425 228.81379923 448.51669645 223.71427917 448.49447632 C222.55345322 448.49432526 221.39262726 448.49417419 220.19662476 448.49401855 C218.95375198 448.48369598 217.71087921 448.47337341 216.43034363 448.46273804 C214.50989983 448.45849319 214.50989983 448.45849319 212.55065918 448.4541626 C209.15909413 448.44655334 205.76770238 448.42692847 202.37620544 448.40475464 C198.91055139 448.38423759 195.44486913 448.37514839 191.97917175 448.36508179 C185.18808122 448.34304045 178.39711876 448.30957683 171.60612488 448.26742554 C171.31495789 449.17371704 171.02379089 450.08000854 170.72380066 451.01376343 C167.30504346 460.96609571 161.97149206 472.76622409 152.60612488 478.26742554 C148.67613202 480.1325882 145.54806129 480.52188334 141.21224976 480.53485107 C139.92115799 480.54338104 138.63006622 480.55191101 137.29985046 480.56069946 C135.87614429 480.56000049 134.4524382 480.55907746 133.0287323 480.55795288 C131.52374946 480.56393975 130.01876969 480.57074566 128.51379395 480.57830811 C124.431022 480.59596023 120.34833391 480.60066318 116.26552749 480.60193968 C113.71274875 480.60336239 111.15999125 480.60763429 108.60721779 480.61293411 C99.69562555 480.63143246 90.7840931 480.63960505 81.8724823 480.63803101 C73.5751086 480.63682997 65.27799517 480.65792531 56.98068732 480.68951833 C49.84929789 480.71570104 42.71799336 480.72639745 35.58655626 480.72512019 C31.33071478 480.7246111 27.0751046 480.73026472 22.81931114 480.75147629 C18.8145097 480.77089218 14.81015941 480.77096055 10.80534172 480.75644302 C9.33965137 480.75435789 7.87393254 480.75903823 6.40829086 480.77116394 C-2.75095142 480.84200312 -8.94602802 480.38262903 -16.38996887 474.75961304 C-21.71595575 468.78411556 -30.39387512 456.56572111 -30.39387512 448.26742554 C-31.10273865 448.27630798 -31.81160217 448.28519043 -32.54194641 448.29434204 C-39.24993827 448.37477134 -45.95779391 448.43553289 -52.66616058 448.47467422 C-56.11434644 448.49547447 -59.56213106 448.5236509 -63.01008606 448.56918335 C-66.98171547 448.62129798 -70.95318719 448.64043342 -74.92512512 448.65805054 C-76.7662085 448.68901825 -76.7662085 448.68901825 -78.64448547 448.72061157 C-86.80424993 448.7227357 -92.32611465 447.83203097 -98.63606262 442.30258179 C-99.17489075 441.65160522 -99.71371887 441.00062866 -100.26887512 440.32992554 C-100.823172 439.6815271 -101.37746887 439.03312866 -101.94856262 438.36508179 C-105.02309482 433.90285532 -105.64459003 430.07801241 -105.65114403 424.70869732 C-105.6546501 424.06036612 -105.65815618 423.41203492 -105.6617685 422.74405733 C-105.67108274 420.56854894 -105.66615921 418.39330822 -105.66130066 416.2177887 C-105.66503691 414.643499 -105.66963833 413.06921116 -105.6750313 411.49492627 C-105.68727983 407.16624549 -105.68699866 402.83764189 -105.68464255 398.50894773 C-105.68423485 393.84147851 -105.69526904 389.17403419 -105.70475769 384.50657654 C-105.7213788 375.36112394 -105.72686774 366.21569712 -105.72798245 357.07023069 C-105.72893239 349.63715702 -105.73304 342.20409186 -105.7393837 334.77102089 C-105.75699911 313.70214676 -105.76622209 292.63329303 -105.76472275 271.56441148 C-105.76464284 270.42830798 -105.76456292 269.29220447 -105.76448059 268.12167358 C-105.76439883 266.98418473 -105.76431707 265.84669588 -105.76423283 264.67473767 C-105.76341984 246.23789151 -105.78256008 227.80112703 -105.81075732 209.36430451 C-105.83947404 190.43865407 -105.85329829 171.51304348 -105.85156977 152.58737069 C-105.85090545 141.95997279 -105.8564161 131.33266051 -105.87792587 120.70528221 C-105.89612171 111.65715356 -105.90049814 102.60914934 -105.88690703 93.56101032 C-105.88036932 88.94431488 -105.8802891 84.32785829 -105.89761353 79.71118546 C-105.91331386 75.48383711 -105.91051186 71.2569176 -105.89304526 67.02957992 C-105.88996865 65.50133145 -105.89363266 63.97305123 -105.90476541 62.44484022 C-105.96718749 53.26730844 -105.7496514 46.23803306 -99.42903137 39.02523804 C-98.77805481 38.48640991 -98.12707825 37.94758179 -97.45637512 37.39242554 C-96.48377747 36.56098022 -96.48377747 36.56098022 -95.49153137 35.71273804 C-91.25804186 32.79580858 -87.60154948 32.01815462 -82.50202942 32.04037476 C-81.34120346 32.04052582 -80.1803775 32.04067688 -78.984375 32.04083252 C-77.74150223 32.05115509 -76.49862946 32.06147766 -75.21809387 32.07211304 C-73.29765007 32.07635788 -73.29765007 32.07635788 -71.33840942 32.08068848 C-67.94684437 32.08829773 -64.55545262 32.10792261 -61.16395569 32.13009644 C-57.69830163 32.15061348 -54.23261938 32.15970268 -50.766922 32.16976929 C-43.97583146 32.19181062 -37.184869 32.22527424 -30.39387512 32.26742554 C-30.10270813 31.36113403 -29.81154114 30.45484253 -29.5115509 29.52108765 C-26.09279371 19.56875537 -20.7592423 7.76862699 -11.39387512 2.26742554 C-7.46388226 0.40226287 -4.33581153 0.01296774 0 0 Z M-5.79353333 19.84579468 C-6.15277893 20.47090942 -6.51202454 21.09602417 -6.88215637 21.74008179 C-7.29417297 22.45309448 -7.70618958 23.16610718 -8.13069153 23.90072632 C-10.86308601 29.02013725 -13.39161731 34.23254222 -15.907547 39.46078491 C-16.54079895 40.75532593 -16.54079895 40.75532593 -17.18684387 42.07601929 C-17.56349182 42.85775513 -17.94013977 43.63949097 -18.32820129 44.44491577 C-19.39387512 46.26742554 -19.39387512 46.26742554 -21.39387512 47.26742554 C-23.27158201 47.37202009 -25.15294224 47.41343235 -27.03352356 47.42514038 C-28.21525146 47.43540253 -29.39697937 47.44566467 -30.61451721 47.45623779 C-31.89779907 47.46353912 -33.18108093 47.47084045 -34.50325012 47.47836304 C-36.51206449 47.49924427 -38.52087886 47.52014291 -40.52968216 47.54206276 C-45.4918313 47.59523877 -50.45398832 47.63938011 -55.41633606 47.66879272 C-58.1969336 47.68571728 -60.97725508 47.71043829 -63.75770569 47.74365234 C-66.37750561 47.77460747 -68.99747263 47.79403692 -71.6174469 47.80072021 C-72.81178345 47.81728668 -74.00612 47.83385315 -75.23664856 47.85092163 C-76.28318604 47.85900848 -77.32972351 47.86709534 -78.40797424 47.87542725 C-82.01065009 48.34839766 -84.34972514 49.28277807 -87.39387512 51.26742554 C-89.39156862 55.09740536 -89.6450169 58.33323377 -89.64835072 62.61309719 C-89.65418291 63.90124181 -89.6600151 65.18938643 -89.66602403 66.51656574 C-89.66239092 67.94405314 -89.65856655 69.37154006 -89.65457153 70.79902649 C-89.65759189 72.31699406 -89.66148079 73.8349601 -89.6661641 75.35292345 C-89.67646774 79.52584836 -89.67425627 83.69868757 -89.66998351 87.87161958 C-89.66752058 92.37135715 -89.67652502 96.87107386 -89.684021 101.37080383 C-89.69678192 110.1867215 -89.69855997 119.00260872 -89.69622073 127.81853407 C-89.69443904 134.98274588 -89.69618402 142.14694843 -89.70044518 149.31115913 C-89.70104036 150.33008228 -89.70163555 151.34900543 -89.70224878 152.39880504 C-89.7034605 154.46861899 -89.70467464 156.53843293 -89.70589115 158.60824687 C-89.71677198 178.02658556 -89.71460158 197.44490689 -89.70850631 216.86324657 C-89.70333616 234.63537841 -89.71459423 252.40745545 -89.73360453 270.17957645 C-89.75296692 288.42042908 -89.76124177 306.66125576 -89.75748128 324.90211874 C-89.75556687 335.14602147 -89.75808015 345.38987754 -89.77219582 355.6337719 C-89.78409019 364.3540282 -89.78553635 373.07420913 -89.77340565 381.79446643 C-89.7675034 386.24480408 -89.7664546 390.69500375 -89.77840805 395.14533234 C-89.78922098 399.2183163 -89.78621853 403.2910463 -89.77214637 407.36401815 C-89.76948674 408.83839355 -89.7719055 410.31278855 -89.77988223 411.78714477 C-89.78996742 413.79004557 -89.77978782 415.79301778 -89.76860523 417.79591274 C-89.76866025 418.90882071 -89.76871526 420.02172868 -89.76877195 421.16836113 C-89.33327028 424.7684122 -88.26374972 427.17549356 -86.39387512 430.26742554 C-82.7773562 432.3928749 -79.50487063 432.521746 -75.36604309 432.53866577 C-74.1748587 432.54885239 -72.98367432 432.559039 -71.75639343 432.5695343 C-69.84057968 432.57274437 -69.84057968 432.57274437 -67.88606262 432.57601929 C-65.87326806 432.59473476 -63.86047349 432.61346694 -61.84768867 432.63320255 C-56.89198799 432.67855487 -51.93615374 432.70225823 -46.9803009 432.72372437 C-44.19437827 432.73651593 -41.40871202 432.75717716 -38.62290955 432.78599548 C-35.99985859 432.81232819 -33.37664686 432.82613313 -30.75346375 432.82637024 C-29.56858368 432.83970901 -28.38370361 432.85304779 -27.16291809 432.86679077 C-26.1187674 432.87186142 -25.0746167 432.87693207 -23.99882507 432.88215637 C-21.01303662 433.32375112 -20.1800283 433.89242797 -18.39387512 436.26742554 C-17.39861262 438.04886177 -16.46750144 439.86676269 -15.58137512 441.70492554 C-15.063172 442.76453491 -14.54496887 443.82414429 -14.01106262 444.91586304 C-12.93293762 447.15023804 -11.85481262 449.38461304 -10.77668762 451.61898804 C-10.2584845 452.67859741 -9.74028137 453.73820679 -9.20637512 454.82992554 C-8.73844543 455.8005896 -8.27051575 456.77125366 -7.78840637 457.77133179 C-6.1567328 460.69189037 -4.91609619 462.77045153 -1.65521049 463.83506393 C1.05784313 464.35379292 3.5981461 464.39981528 6.36170959 464.40786743 C7.53651886 464.41357758 8.71132812 464.41928772 9.92173767 464.4251709 C11.20703369 464.42628876 12.49232971 464.42740662 13.8165741 464.42855835 C15.18672316 464.43318874 16.55687093 464.4382137 17.92701721 464.44360352 C21.64607239 464.4567068 25.36510953 464.46316822 29.08418417 464.46761417 C31.4086198 464.47054777 33.73305052 464.47465308 36.05748367 464.47911835 C43.33289373 464.49278677 50.60829255 464.50245708 57.88371456 464.50632024 C66.27726053 464.51080189 74.67064372 464.52835744 83.0641402 464.55732083 C89.55598403 464.57894353 96.04778207 464.5890248 102.53966153 464.59036136 C106.41536352 464.59140881 110.29091236 464.59730402 114.16657639 464.61518097 C117.81261569 464.6316723 121.45838689 464.63381216 125.10445023 464.62504196 C127.07613831 464.62390585 129.04781754 464.63761434 131.01945496 464.65179443 C132.19990387 464.64622528 133.38035278 464.64065613 134.59657288 464.63491821 C136.12909604 464.63711805 136.12909604 464.63711805 137.69257927 464.63936234 C141.93293416 464.09804799 145.46627383 462.72059971 148.14176941 459.30966187 C148.68486755 458.21561035 148.68486755 458.21561035 149.23893738 457.09945679 C149.65272644 456.28799194 150.0665155 455.4765271 150.49284363 454.64047241 C150.90147644 453.79549194 151.31010925 452.95051147 151.73112488 452.07992554 C152.14749207 451.25428101 152.56385925 450.42863647 152.99284363 449.57797241 C154.60581637 446.36972412 156.18702621 443.1480425 157.73014832 439.90560913 C160.39940824 434.37078386 160.39940824 434.37078386 162.60612488 433.26742554 C164.48383176 433.16283099 166.365192 433.12141872 168.24577332 433.10971069 C170.01836517 433.09431747 170.01836517 433.09431747 171.82676697 433.07861328 C173.11004883 433.07131195 174.39333069 433.06401062 175.71549988 433.05648804 C177.72431425 433.03560681 179.73312861 433.01470816 181.74193192 432.99278831 C186.70408106 432.9396123 191.66623808 432.89547096 196.62858582 432.86605835 C199.40918335 432.84913379 202.18950484 432.82441278 204.96995544 432.79119873 C207.58975537 432.76024361 210.20972238 432.74081415 212.82969666 432.73413086 C214.0240332 432.71756439 215.21836975 432.70099792 216.44889832 432.68392944 C217.49543579 432.67584259 218.54197327 432.66775574 219.620224 432.65942383 C223.22289985 432.18645341 225.56197489 431.252073 228.60612488 429.26742554 C230.60381838 425.43744571 230.85726666 422.20161731 230.86060047 417.92175388 C230.86643266 416.63360926 230.87226486 415.34546464 230.87827379 414.01828533 C230.87464067 412.59079794 230.8708163 411.16331102 230.86682129 409.73582458 C230.86984164 408.21785702 230.87373054 406.69989097 230.87841386 405.18192762 C230.8887175 401.00900272 230.88650603 396.8361635 230.88223326 392.66323149 C230.87977034 388.16349392 230.88877478 383.66377722 230.89627075 379.16404724 C230.90903168 370.34812958 230.91080972 361.53224235 230.90847049 352.71631701 C230.9066888 345.5521052 230.90843377 338.38790264 230.91269493 331.22369194 C230.91358771 329.69530722 230.91358771 329.69530722 230.91449853 328.13604603 C230.91571026 326.06623209 230.91692439 323.99641815 230.91814091 321.9266042 C230.92902173 302.50826551 230.92685134 283.08994418 230.92075606 263.67160451 C230.91558591 245.89947267 230.92684398 228.12739562 230.94585428 210.35527463 C230.96521668 192.114422 230.97349153 173.87359531 230.96973103 155.63273233 C230.96781662 145.38882961 230.9703299 135.14497353 230.98444557 124.90107918 C230.99633995 116.18082288 230.99778611 107.46064194 230.9856554 98.74038465 C230.97975315 94.29004699 230.97870436 89.83984732 230.99065781 85.38951874 C231.00147073 81.31653478 230.99846829 77.24380477 230.98439612 73.17083292 C230.98173649 71.69645753 230.98415526 70.22206252 230.99213199 68.7477063 C231.00221718 66.74480551 230.99203757 64.7418333 230.98085499 62.73893833 C230.98093751 61.06957638 230.98093751 61.06957638 230.9810217 59.36648995 C230.54552004 55.76643888 229.47599947 53.35935751 227.60612488 50.26742554 C223.98960595 48.14197617 220.71712039 48.01310508 216.57829285 47.9961853 C214.79151627 47.98090538 214.79151627 47.98090538 212.96864319 47.96531677 C211.05282944 47.9621067 211.05282944 47.9621067 209.09831238 47.95883179 C207.08551782 47.94011631 205.07272325 47.92138413 203.05993843 47.90164852 C198.10423775 47.8562962 193.14840349 47.83259284 188.19255066 47.81112671 C185.40662802 47.79833514 182.62096178 47.77767391 179.8351593 47.74885559 C177.21210835 47.72252288 174.58889661 47.70871795 171.9657135 47.70848083 C170.78083344 47.69514206 169.59595337 47.68180328 168.37516785 47.6680603 C167.33101715 47.66298965 166.28686646 47.65791901 165.21107483 47.6526947 C162.22528637 47.21109995 161.39227805 46.64242311 159.60612488 44.26742554 C158.61086238 42.4859893 157.67975119 40.66808839 156.79362488 38.82992554 C156.27542175 37.77031616 155.75721863 36.71070679 155.22331238 35.61898804 C154.14518738 33.38461304 153.06706238 31.15023804 151.98893738 28.91586304 C151.47073425 27.85625366 150.95253113 26.79664429 150.41862488 25.70492554 C149.95069519 24.73426147 149.4827655 23.76359741 149.00065613 22.76351929 C147.3690295 19.84304474 146.12825113 17.76485711 142.86788082 16.69936657 C140.15170547 16.18064235 137.61046004 16.13824843 134.84381104 16.13371277 C133.66755661 16.12944778 132.49130219 16.1251828 131.27940369 16.12078857 C129.34910309 16.12146835 129.34910309 16.12146835 127.37980652 16.12216187 C126.00803537 16.11916902 124.63626505 16.11576621 123.26449585 16.11198425 C119.54137073 16.10315353 115.8182686 16.10080655 112.09513402 16.10016847 C109.7686961 16.09945753 107.44226403 16.09732239 105.11582756 16.09467125 C96.99873865 16.08542145 88.88166615 16.08133597 80.76457214 16.0821228 C73.19943855 16.08272376 65.63437622 16.07216757 58.06926066 16.05637914 C51.57233694 16.04330341 45.07543651 16.03793891 38.57849973 16.03857821 C34.69895544 16.03883316 30.8194745 16.0359838 26.93994331 16.02540016 C23.2914863 16.01571842 19.64315323 16.01564048 15.99469185 16.02291679 C14.01924668 16.02446075 12.04380152 16.01611672 10.06837463 16.00747681 C8.88930038 16.0116713 7.71022614 16.01586578 6.49542236 16.02018738 C4.96151651 16.01937023 4.96151651 16.01937023 3.39662266 16.01853657 C-0.25383137 16.34412641 -3.3089545 17.04398025 -5.79353333 19.84579468 Z " fill="#7C001F" transform="translate(185.3938751220703,15.732574462890625)"/>
<path d="M0 0 C0.6815918 0.21430664 1.36318359 0.42861328 2.06542969 0.64941406 C16.29351879 5.23201941 28.68612402 12.18713576 40 22 C40.80824219 22.66386719 41.61648438 23.32773438 42.44921875 24.01171875 C62.63859101 41.15842267 75.81374274 66.75985723 79 93 C79.31167763 97.8577634 79.3818035 102.69552175 79.375 107.5625 C79.37445618 108.22163391 79.37391235 108.88076782 79.37335205 109.55987549 C79.33181094 120.54101814 78.38494788 130.5566372 75 141 C74.78569336 141.6815918 74.57138672 142.36318359 74.35058594 143.06542969 C69.76798059 157.29351879 62.81286424 169.68612402 53 181 C52.33613281 181.80824219 51.67226563 182.61648438 50.98828125 183.44921875 C33.84157733 203.63859101 8.24014277 216.81374274 -18 220 C-22.8577634 220.31167763 -27.69552175 220.3818035 -32.5625 220.375 C-33.55120087 220.37418427 -33.55120087 220.37418427 -34.55987549 220.37335205 C-45.54101814 220.33181094 -55.5566372 219.38494788 -66 216 C-66.6815918 215.78569336 -67.36318359 215.57138672 -68.06542969 215.35058594 C-82.29351879 210.76798059 -94.68612402 203.81286424 -106 194 C-106.80824219 193.33613281 -107.61648437 192.67226563 -108.44921875 191.98828125 C-128.63859101 174.84157733 -141.81374274 149.24014277 -145 123 C-145.31167763 118.1422366 -145.3818035 113.30447825 -145.375 108.4375 C-145.37445618 107.77836609 -145.37391235 107.11923218 -145.37335205 106.44012451 C-145.33181094 95.45898186 -144.38494788 85.4433628 -141 75 C-140.67854004 73.9776123 -140.67854004 73.9776123 -140.35058594 72.93457031 C-135.76798059 58.70648121 -128.81286424 46.31387598 -119 35 C-118.33613281 34.19175781 -117.67226562 33.38351563 -116.98828125 32.55078125 C-102.8307809 15.88104424 -83.78741476 5.12294985 -63 -1 C-61.89398438 -1.3403125 -60.78796875 -1.680625 -59.6484375 -2.03125 C-40.85348648 -6.7850081 -18.43058805 -5.97380185 0 0 Z M-97 37 C-97.87269531 37.804375 -98.74539062 38.60875 -99.64453125 39.4375 C-115.69620866 54.83940936 -127.75713957 78.0812913 -128.23828125 100.67578125 C-128.71692976 129.09848809 -121.96566092 153.22736118 -101.8046875 174.15234375 C-100.87914062 175.09207031 -99.95359375 176.03179687 -99 177 C-98.21882813 177.80566406 -97.43765625 178.61132812 -96.6328125 179.44140625 C-86.53603926 189.21521873 -73.31660071 195.80255478 -60 200 C-59.00871094 200.31839844 -58.01742187 200.63679687 -56.99609375 200.96484375 C-31.88051375 207.65205953 -6.38116421 202.39170949 16.0234375 190.37890625 C38.08960548 177.19610962 53.84457989 154.93759543 60.375 130.25 C66.46172378 104.3662979 60.92244803 78.00552618 47.3671875 55.52734375 C43.38928885 49.33093574 38.22927087 44.14103593 33 39 C32.236875 38.23816406 31.47375 37.47632813 30.6875 36.69140625 C-4.41728497 3.58707778 -62.0870786 4.55345452 -97 37 Z " fill="#6E001B" transform="translate(289,148)"/>
<path d="M0 0 C1.18142578 -0.01891296 1.18142578 -0.01891296 2.38671875 -0.03820801 C3.22847656 -0.03011108 4.07023437 -0.02201416 4.9375 -0.01367188 C5.81019531 -0.01749878 6.68289062 -0.02132568 7.58203125 -0.02526855 C9.42449092 -0.02798678 11.26698924 -0.02063182 13.109375 -0.00390625 C15.92795934 0.01750565 18.74399485 -0.00370989 21.5625 -0.02929688 C23.35417229 -0.02665358 25.14584299 -0.02152857 26.9375 -0.01367188 C27.77925781 -0.0217688 28.62101562 -0.02986572 29.48828125 -0.03820801 C35.32465618 0.05522414 35.32465618 0.05522414 38.46679688 2.42578125 C40.05894695 4.69031343 40.480297 5.77856983 40.4375 8.51757812 C40.4478125 9.17757813 40.458125 9.83757812 40.46875 10.51757812 C39.9375 12.51757812 39.9375 12.51757812 35.9375 16.51757812 C26.6975 16.51757812 17.4575 16.51757812 7.9375 16.51757812 C7.9375 42.91757812 7.9375 69.31757813 7.9375 96.51757812 C92.4175 96.51757812 176.8975 96.51757812 263.9375 96.51757812 C263.9375 70.11757813 263.9375 43.71757812 263.9375 16.51757812 C254.6975 16.51757812 245.4575 16.51757812 235.9375 16.51757812 C231.9375 12.51757812 231.9375 12.51757812 231.40625 10.51757812 C231.4165625 9.85757812 231.426875 9.19757813 231.4375 8.51757812 C231.42203125 7.52757812 231.42203125 7.52757812 231.40625 6.51757812 C232.21738576 3.46389057 233.40730288 2.42646043 235.9375 0.51757812 C238.93486221 -0.08356741 241.88859277 -0.04299951 244.9375 -0.01367188 C246.24654297 -0.01941223 246.24654297 -0.01941223 247.58203125 -0.02526855 C249.42449092 -0.02798678 251.26698924 -0.02063182 253.109375 -0.00390625 C255.92795934 0.01750565 258.74399485 -0.00370989 261.5625 -0.02929688 C263.35417229 -0.02665358 265.14584299 -0.02152857 266.9375 -0.01367188 C267.77925781 -0.0217688 268.62101562 -0.02986572 269.48828125 -0.03820801 C270.27589844 -0.02559937 271.06351562 -0.01299072 271.875 0 C272.90947266 0.00477356 272.90947266 0.00477356 273.96484375 0.00964355 C277.09171373 0.81477388 278.09847113 1.8406418 279.9375 4.51757812 C280.53561623 7.82719714 280.4836234 11.09951661 280.45507812 14.45507812 C280.46559204 15.96787354 280.46559204 15.96787354 280.47631836 17.51123047 C280.49393218 20.84695927 280.4822631 24.1818406 280.46875 27.51757812 C280.47144393 29.83398603 280.47532551 32.15039284 280.48034668 34.46679688 C280.48624634 39.32237511 280.47766338 44.17765908 280.45898438 49.03320312 C280.43619496 55.26122458 280.44931548 61.48855658 280.47327423 67.71655273 C280.48771932 72.50005297 280.48313205 77.2833894 280.47276306 82.06689453 C280.47009223 84.36344484 280.473378 86.66000995 280.48268127 88.95654297 C280.49282527 92.16478953 280.47737483 95.37191519 280.45507812 98.58007812 C280.46317505 99.53188965 280.47127197 100.48370117 280.47961426 101.46435547 C280.46833496 102.33914551 280.45705566 103.21393555 280.44543457 104.11523438 C280.44317242 105.25230835 280.44317242 105.25230835 280.44086456 106.41235352 C279.65716147 109.69003964 278.7820475 110.63981613 275.9375 112.51757812 C272.24725517 113.12235812 268.5856292 113.05648811 264.85351562 113.0255127 C263.70952553 113.03175266 262.56553543 113.03799262 261.38687897 113.04442167 C258.21098984 113.05762996 255.03571064 113.05285784 251.85983658 113.0404768 C248.43508887 113.03143873 245.01042458 113.04538981 241.58569336 113.05639648 C234.87648198 113.0741997 228.16744941 113.07033378 221.45823097 113.05874592 C216.0064001 113.04971892 210.5546194 113.04848441 205.1027832 113.05284119 C203.93967676 113.05376058 203.93967676 113.05376058 202.75307322 113.05469856 C201.17794226 113.05597743 199.60281132 113.05727429 198.0276804 113.05858892 C183.2514502 113.06999999 168.4753192 113.05687278 153.69910526 113.03538746 C141.01549965 113.01751598 128.33204047 113.02061994 115.6484375 113.0390625 C100.92573383 113.06045994 86.20311714 113.06890131 71.48040009 113.05661345 C69.91100567 113.05533922 68.34161124 113.05408174 66.7722168 113.05284119 C66.00000872 113.05222408 65.22780065 113.05160698 64.43219233 113.05097118 C58.98577954 113.04751489 53.53942184 113.05335262 48.09301758 113.0627594 C41.4572451 113.07396828 34.82166192 113.07096293 28.18591118 113.04963642 C24.79903619 113.03911081 21.41247703 113.03502942 18.02560425 113.04823303 C14.35724576 113.05910741 10.68978511 113.04552166 7.02148438 113.0255127 C5.9463987 113.03443558 4.87131302 113.04335847 3.76364899 113.05255175 C-3.36696398 112.97672008 -3.36696398 112.97672008 -6.72350311 110.7609787 C-8.19688245 108.29242924 -8.56475424 106.97045977 -8.57043457 104.11523438 C-8.58171387 103.24044434 -8.59299316 102.3656543 -8.60461426 101.46435547 C-8.59651733 100.51254395 -8.58842041 99.56073242 -8.58007812 98.58007812 C-8.5870874 97.57154785 -8.59409668 96.56301758 -8.60131836 95.52392578 C-8.61893218 92.18819698 -8.6072631 88.85331565 -8.59375 85.51757812 C-8.59644393 83.20117022 -8.60032551 80.88476341 -8.60534668 78.56835938 C-8.61124634 73.71278114 -8.60266338 68.85749717 -8.58398438 64.00195312 C-8.56119496 57.77393167 -8.57431548 51.54659967 -8.59827423 45.31860352 C-8.61271932 40.53510328 -8.60813205 35.75176685 -8.59776306 30.96826172 C-8.59509223 28.67171141 -8.598378 26.3751463 -8.60768127 24.07861328 C-8.61782527 20.87036672 -8.60237483 17.66324106 -8.58007812 14.45507812 C-8.58817505 13.5032666 -8.59627197 12.55145508 -8.60461426 11.57080078 C-8.52230174 5.18687701 -8.52230174 5.18687701 -6.28405762 1.92883301 C-3.92482707 0.43012075 -2.76250896 0.01274756 0 0 Z " fill="#7E001F" transform="translate(120.0625,327.482421875)"/>
<path d="M0 0 C1.1439901 -0.00623996 2.28798019 -0.01247993 3.46663666 -0.01890898 C6.64252578 -0.03211727 9.81780499 -0.02734515 12.99367905 -0.0149641 C16.41842676 -0.00592603 19.84309105 -0.01987711 23.26782227 -0.03088379 C29.97703364 -0.048687 36.68606621 -0.04482109 43.39528465 -0.03323323 C48.84711553 -0.02420623 54.29889622 -0.02297171 59.75073242 -0.02732849 C60.91383887 -0.02824789 60.91383887 -0.02824789 62.10044241 -0.02918586 C63.67557336 -0.03046474 65.2507043 -0.03176159 66.82583523 -0.03307623 C81.60206543 -0.0444873 96.37819643 -0.03136008 111.15441036 -0.00987476 C123.83801597 0.00799672 136.52147516 0.00489276 149.20507812 -0.0135498 C163.9277818 -0.03494724 178.65039849 -0.04338861 193.37311554 -0.03110075 C194.94250996 -0.02982653 196.51190439 -0.02856905 198.08129883 -0.02732849 C198.8535069 -0.02671139 199.62571498 -0.02609429 200.4213233 -0.02545848 C205.86773609 -0.02200219 211.31409379 -0.02783992 216.76049805 -0.0372467 C223.39627053 -0.04845558 230.0318537 -0.04545024 236.66760445 -0.02412373 C240.05447943 -0.01359812 243.4410386 -0.00951672 246.82791138 -0.02272034 C250.49626987 -0.03359472 254.16373051 -0.02000897 257.83203125 0 C258.90711693 -0.00892289 259.98220261 -0.01784577 261.08986664 -0.02703905 C268.2204796 0.04879261 268.2204796 0.04879261 271.57701874 2.264534 C273.05039807 4.73308346 273.41826986 6.05505292 273.4239502 8.91027832 C273.44086914 10.22246338 273.44086914 10.22246338 273.45812988 11.56115723 C273.4459845 12.98887451 273.4459845 12.98887451 273.43359375 14.44543457 C273.44410767 15.95822998 273.44410767 15.95822998 273.45483398 17.50158691 C273.47244781 20.83731571 273.46077872 24.17219705 273.44726562 27.50793457 C273.44995955 29.82434248 273.45384114 32.14074929 273.4588623 34.45715332 C273.46476197 39.31273155 273.45617901 44.16801553 273.4375 49.02355957 C273.41471059 55.25158103 273.4278311 61.47891302 273.45178986 67.70690918 C273.46623495 72.49040942 273.46164768 77.27374584 273.45127869 82.05725098 C273.44860785 84.35380128 273.45189363 86.6503664 273.4611969 88.94689941 C273.47134089 92.15514597 273.45589046 95.36227163 273.43359375 98.57043457 C273.44169067 99.52224609 273.4497876 100.47405762 273.45812988 101.45471191 C273.37581736 107.83863568 273.37581736 107.83863568 271.13757324 111.09667969 C268.7783427 112.59539194 267.61602458 113.01276514 264.85351562 113.0255127 C263.67208984 113.04442566 263.67208984 113.04442566 262.46679688 113.0637207 C261.62503906 113.05562378 260.78328125 113.04752686 259.91601562 113.03918457 C258.60697266 113.04492493 258.60697266 113.04492493 257.27148438 113.05078125 C255.4290247 113.05349947 253.58652638 113.04614451 251.74414062 113.02941895 C248.92555629 113.00800705 246.10952078 113.02922258 243.29101562 113.05480957 C241.49934334 113.05216628 239.70767264 113.04704126 237.91601562 113.03918457 C236.65337891 113.05132996 236.65337891 113.05132996 235.36523438 113.0637207 C229.52885944 112.97028856 229.52885944 112.97028856 226.38671875 110.59973145 C224.79456868 108.33519927 224.37321862 107.24694287 224.41601562 104.50793457 C224.40054688 103.51793457 224.40054688 103.51793457 224.38476562 102.50793457 C224.91601562 100.50793457 224.91601562 100.50793457 228.91601562 96.50793457 C238.15601563 96.50793457 247.39601563 96.50793457 256.91601562 96.50793457 C256.91601562 70.10793457 256.91601562 43.70793457 256.91601562 16.50793457 C172.43601562 16.50793457 87.95601562 16.50793457 0.91601562 16.50793457 C0.91601562 42.90793457 0.91601562 69.30793457 0.91601562 96.50793457 C10.15601563 96.50793457 19.39601563 96.50793457 28.91601562 96.50793457 C32.91601562 100.50793457 32.91601562 100.50793457 33.44726562 102.50793457 C33.43695313 103.16793457 33.42664063 103.82793457 33.41601562 104.50793457 C33.42632812 105.16793457 33.43664062 105.82793457 33.44726562 106.50793457 C32.63612987 109.56162213 31.44621275 110.59905226 28.91601562 112.50793457 C25.91865341 113.1090801 22.96492286 113.06851221 19.91601562 113.03918457 C19.04332031 113.04301147 18.170625 113.04683838 17.27148438 113.05078125 C15.4290247 113.05349947 13.58652638 113.04614451 11.74414062 113.02941895 C8.92555629 113.00800705 6.10952078 113.02922258 3.29101562 113.05480957 C1.49934334 113.05216628 -0.29232736 113.04704126 -2.08398438 113.03918457 C-3.34662109 113.05132996 -3.34662109 113.05132996 -4.63476562 113.0637207 C-5.81619141 113.04480774 -5.81619141 113.04480774 -7.02148438 113.0255127 C-7.71113281 113.02233032 -8.40078125 113.01914795 -9.11132812 113.01586914 C-12.23819811 112.21073882 -13.2449555 111.18487089 -15.08398438 108.50793457 C-15.6821006 105.19831556 -15.63010778 101.92599609 -15.6015625 98.57043457 C-15.60857178 97.5619043 -15.61558105 96.55337402 -15.62280273 95.51428223 C-15.64041656 92.17855343 -15.62874747 88.84367209 -15.61523438 85.50793457 C-15.6179283 83.19152666 -15.62180989 80.87511985 -15.62683105 78.55871582 C-15.63273072 73.70313759 -15.62414776 68.84785361 -15.60546875 63.99230957 C-15.58267934 57.76428811 -15.59579985 51.53695612 -15.61975861 45.30895996 C-15.6342037 40.52545972 -15.62961643 35.7421233 -15.61924744 30.95861816 C-15.6165766 28.66206786 -15.61986238 26.36550274 -15.62916565 24.06896973 C-15.63930964 20.86072317 -15.62385921 17.65359751 -15.6015625 14.44543457 C-15.60965942 13.49362305 -15.61775635 12.54181152 -15.62609863 11.56115723 C-15.61481934 10.68636719 -15.60354004 9.81157715 -15.59191895 8.91027832 C-15.59041084 8.152229 -15.58890274 7.39417969 -15.58734894 6.61315918 C-13.71897465 -1.20095373 -6.51677347 -0.05408725 0 0 Z " fill="#7E001F" transform="translate(127.083984375,71.4920654296875)"/>
<path d="M0 0 C2.9762167 0.67407595 4.11178005 2.13474707 6.03515625 4.4609375 C8.44383848 16.01478873 4.58175603 30.25438312 3.03515625 41.7734375 C2.74533044 43.97841543 2.45626161 46.18349299 2.16796875 48.38867188 C1.4657576 53.74727413 0.75420037 59.1045694 0.03515625 64.4609375 C1.91460937 64.39132813 1.91460937 64.39132813 3.83203125 64.3203125 C5.48304906 64.28278937 7.13409267 64.24638979 8.78515625 64.2109375 C10.02265625 64.16066406 10.02265625 64.16066406 11.28515625 64.109375 C17.40209898 64.01071463 17.40209898 64.01071463 20.56860352 66.26269531 C22.29599125 68.85190776 22.80522799 70.88825033 22.63232422 74.00195312 C21.23696938 79.7476661 17.67497784 84.72560763 14.59765625 89.7109375 C13.82283988 90.99483914 13.04959148 92.2796882 12.27783203 93.56542969 C10.27589684 96.89127014 8.25357795 100.20419863 6.2255249 103.51416016 C4.35521677 106.5729382 2.50214685 109.64208236 0.6484375 112.7109375 C-1.80712786 116.77283242 -4.27111944 120.82937104 -6.74586487 124.87960815 C-9.9549233 130.13293731 -13.12865132 135.4042242 -16.26171875 140.703125 C-16.95485751 141.87210462 -17.64805311 143.04105054 -18.34130859 144.20996094 C-19.64399789 146.41049692 -20.94146283 148.61413663 -22.23291016 150.82128906 C-22.81218262 151.79807617 -23.39145508 152.77486328 -23.98828125 153.78125 C-24.49278809 154.63992676 -24.99729492 155.49860352 -25.51708984 156.38330078 C-26.96484375 158.4609375 -26.96484375 158.4609375 -29.96484375 160.4609375 C-37.12363416 161.14272706 -37.12363416 161.14272706 -40.06469727 158.7590332 C-43.67857526 154.38829781 -42.42465598 148.84297574 -41.96484375 143.4609375 C-41.1465822 135.33419865 -40.0516143 127.24268999 -38.96484375 119.1484375 C-38.67501794 116.94345957 -38.38594911 114.73838201 -38.09765625 112.53320312 C-37.3954451 107.17460087 -36.68388787 101.8173056 -35.96484375 96.4609375 C-37.2178125 96.50734375 -38.47078125 96.55375 -39.76171875 96.6015625 C-41.41273656 96.63908563 -43.06378017 96.67548521 -44.71484375 96.7109375 C-45.53984375 96.74445313 -46.36484375 96.77796875 -47.21484375 96.8125 C-53.33178648 96.91116037 -53.33178648 96.91116037 -56.49829102 94.65917969 C-58.22567875 92.06996724 -58.73491549 90.03362467 -58.56201172 86.91992188 C-57.16665688 81.1742089 -53.60466534 76.19626737 -50.52734375 71.2109375 C-49.75252738 69.92703586 -48.97927898 68.6421868 -48.20751953 67.35644531 C-46.20558434 64.03060486 -44.18326545 60.71767637 -42.1552124 57.40771484 C-40.28490427 54.3489368 -38.43183435 51.27979264 -36.578125 48.2109375 C-34.12255964 44.14904258 -31.65856806 40.09250396 -29.18382263 36.04226685 C-25.9747642 30.78893769 -22.80103618 25.5176508 -19.66796875 20.21875 C-18.97482999 19.04977038 -18.28163439 17.88082446 -17.58837891 16.71191406 C-16.28568961 14.51137808 -14.98822467 12.30773837 -13.69677734 10.10058594 C-13.11750488 9.12379883 -12.53823242 8.14701172 -11.94140625 7.140625 C-11.43689941 6.28194824 -10.93239258 5.42327148 -10.41259766 4.53857422 C-7.55577195 0.43881254 -4.75846623 0.20170762 0 0 Z M-16.96484375 49.4609375 C-18.35542529 51.61707907 -19.68867934 53.78430344 -21 55.98828125 C-21.39811386 56.65179092 -21.79622772 57.3153006 -22.20640564 57.99891663 C-23.04959536 59.40602442 -23.8909777 60.81421656 -24.73071289 62.22338867 C-26.02109533 64.38795602 -27.31768762 66.54870576 -28.61523438 68.70898438 C-29.43136159 70.0726941 -30.24712895 71.43661927 -31.0625 72.80078125 C-31.45309097 73.45183334 -31.84368195 74.10288544 -32.24610901 74.77366638 C-34.1368712 77.4450161 -34.1368712 77.4450161 -34.96484375 80.4609375 C-34.06121094 80.49832031 -33.15757812 80.53570312 -32.2265625 80.57421875 C-30.45732422 80.67283203 -30.45732422 80.67283203 -28.65234375 80.7734375 C-27.48058594 80.83144531 -26.30882812 80.88945312 -25.1015625 80.94921875 C-21.96484375 81.4609375 -21.96484375 81.4609375 -20.0625 82.640625 C-18.48410923 85.25816983 -18.63982561 87.23145176 -18.71484375 90.2734375 C-18.740625 91.418125 -18.76640625 92.5628125 -18.79296875 93.7421875 C-19.0664073 99.65840347 -19.46935912 105.55936163 -19.96484375 111.4609375 C-17.06864825 107.97687662 -14.61907431 104.42495449 -12.29296875 100.5390625 C-11.62910156 99.43175781 -10.96523438 98.32445312 -10.28125 97.18359375 C-9.9423877 96.61398926 -9.60352539 96.04438477 -9.25439453 95.45751953 C-8.20797661 93.6993998 -7.15520873 91.94520162 -6.1015625 90.19140625 C-2.76425649 85.58807119 -2.76425649 85.58807119 -0.96484375 80.4609375 C-1.86847656 80.42355469 -2.77210938 80.38617188 -3.703125 80.34765625 C-4.88261719 80.28191406 -6.06210937 80.21617187 -7.27734375 80.1484375 C-8.44910156 80.09042969 -9.62085938 80.03242188 -10.828125 79.97265625 C-13.96484375 79.4609375 -13.96484375 79.4609375 -15.8671875 78.28125 C-17.44557827 75.66370517 -17.28986189 73.69042324 -17.21484375 70.6484375 C-17.1890625 69.50375 -17.16328125 68.3590625 -17.13671875 67.1796875 C-16.8632802 61.26347153 -16.46032838 55.36251337 -15.96484375 49.4609375 C-16.29484375 49.4609375 -16.62484375 49.4609375 -16.96484375 49.4609375 Z " fill="#74001D" transform="translate(273.96484375,175.5390625)"/>
<path d="M0 0 C1.051875 -0.00515625 2.10375 -0.0103125 3.1875 -0.015625 C4.280625 -0.00015625 5.37375 0.0153125 6.5 0.03125 C8.1396875 0.00804687 8.1396875 0.00804687 9.8125 -0.015625 C10.864375 -0.01046875 11.91625 -0.0053125 13 0 C14.43859375 0.00676758 14.43859375 0.00676758 15.90625 0.01367188 C19.44755692 0.72033327 20.37405726 1.5885656 22.5 4.53125 C23.10709092 7.83847568 23.04611474 11.114207 23.01757812 14.46875 C23.0245874 15.47728027 23.03159668 16.48581055 23.03881836 17.52490234 C23.05643218 20.86063114 23.0447631 24.19551248 23.03125 27.53125 C23.03394393 29.84765791 23.03782551 32.16406472 23.04284668 34.48046875 C23.04874634 39.33604698 23.04016338 44.19133096 23.02148438 49.046875 C22.99869496 55.27489646 23.01181548 61.50222845 23.03577423 67.73022461 C23.05021932 72.51372485 23.04563205 77.29706127 23.03526306 82.08056641 C23.03259223 84.37711671 23.035878 86.67368183 23.04518127 88.97021484 C23.05532527 92.1784614 23.03987483 95.38558706 23.01757812 98.59375 C23.02567505 99.54556152 23.03377197 100.49737305 23.04211426 101.47802734 C22.95937047 107.89539924 22.95937047 107.89539924 20.62976074 111.11999512 C17.92884489 112.9097176 16.22869733 113.04731124 13 113.0625 C11.948125 113.06765625 10.89625 113.0728125 9.8125 113.078125 C8.719375 113.06265625 7.62625 113.0471875 6.5 113.03125 C4.8603125 113.05445313 4.8603125 113.05445313 3.1875 113.078125 C2.135625 113.07296875 1.08375 113.0678125 0 113.0625 C-0.9590625 113.05798828 -1.918125 113.05347656 -2.90625 113.04882812 C-6.21298564 112.388975 -7.40908706 111.12011445 -9.5 108.53125 C-10.03125 106.53125 -10.03125 106.53125 -10 104.53125 C-10.01546875 103.54125 -10.01546875 103.54125 -10.03125 102.53125 C-9.5 100.53125 -9.5 100.53125 -5.5 96.53125 C-1.54 96.53125 2.42 96.53125 6.5 96.53125 C6.5 70.13125 6.5 43.73125 6.5 16.53125 C2.54 16.53125 -1.42 16.53125 -5.5 16.53125 C-9.5 12.53125 -9.5 12.53125 -10.03125 10.53125 C-10.0209375 9.87125 -10.010625 9.21125 -10 8.53125 C-10.01546875 7.54125 -10.01546875 7.54125 -10.03125 6.53125 C-8.65240655 1.34030994 -4.94094259 0.02324368 0 0 Z " fill="#7A001E" transform="translate(377.5,199.46875)"/>
<path d="M0 0 C1.051875 -0.00515625 2.10375 -0.0103125 3.1875 -0.015625 C4.280625 -0.00015625 5.37375 0.0153125 6.5 0.03125 C8.1396875 0.00804687 8.1396875 0.00804687 9.8125 -0.015625 C10.864375 -0.01046875 11.91625 -0.0053125 13 0 C14.43859375 0.00676758 14.43859375 0.00676758 15.90625 0.01367188 C19.21298564 0.673525 20.40908706 1.94238555 22.5 4.53125 C23.03125 6.53125 23.03125 6.53125 23 8.53125 C23.0103125 9.19125 23.020625 9.85125 23.03125 10.53125 C22.5 12.53125 22.5 12.53125 18.5 16.53125 C14.54 16.53125 10.58 16.53125 6.5 16.53125 C6.5 42.93125 6.5 69.33125 6.5 96.53125 C10.46 96.53125 14.42 96.53125 18.5 96.53125 C22.5 100.53125 22.5 100.53125 23.03125 102.53125 C23.0209375 103.19125 23.010625 103.85125 23 104.53125 C23.0103125 105.19125 23.020625 105.85125 23.03125 106.53125 C22.2561666 109.44921104 20.80895833 110.6243588 18.5 112.53125 C15.90625 113.04882812 15.90625 113.04882812 13 113.0625 C11.948125 113.06765625 10.89625 113.0728125 9.8125 113.078125 C8.719375 113.06265625 7.62625 113.0471875 6.5 113.03125 C4.8603125 113.05445313 4.8603125 113.05445313 3.1875 113.078125 C2.135625 113.07296875 1.08375 113.0678125 0 113.0625 C-0.9590625 113.05798828 -1.918125 113.05347656 -2.90625 113.04882812 C-6.44755692 112.34216673 -7.37405726 111.4739344 -9.5 108.53125 C-10.10709092 105.22402432 -10.04611474 101.948293 -10.01757812 98.59375 C-10.0245874 97.58521973 -10.03159668 96.57668945 -10.03881836 95.53759766 C-10.05643218 92.20186886 -10.0447631 88.86698752 -10.03125 85.53125 C-10.03394393 83.21484209 -10.03782551 80.89843528 -10.04284668 78.58203125 C-10.04874634 73.72645302 -10.04016338 68.87116904 -10.02148438 64.015625 C-9.99869496 57.78760354 -10.01181548 51.56027155 -10.03577423 45.33227539 C-10.05021932 40.54877515 -10.04563205 35.76543873 -10.03526306 30.98193359 C-10.03259223 28.68538329 -10.035878 26.38881817 -10.04518127 24.09228516 C-10.05532527 20.8840386 -10.03987483 17.67691294 -10.01757812 14.46875 C-10.02567505 13.51693848 -10.03377197 12.56512695 -10.04211426 11.58447266 C-9.95937047 5.16710076 -9.95937047 5.16710076 -7.62976074 1.94250488 C-4.92884489 0.1527824 -3.22869733 0.01518876 0 0 Z " fill="#7A001E" transform="translate(121.5,199.46875)"/>
<path d="M0 0 C2.875 0.3125 2.875 0.3125 6 1 C8.32307913 4.48461869 8.24226532 5.83010104 8.1875 9.9375 C8.17783203 11.49791016 8.17783203 11.49791016 8.16796875 13.08984375 C7.93952722 18.40775012 7.47319883 23.6989751 7 29 C7.50450684 28.15703369 8.00901367 27.31406738 8.52880859 26.44555664 C10.39849665 23.32460713 12.27487415 20.20772566 14.15332031 17.09204102 C14.96603075 15.74190874 15.77691256 14.39067399 16.5859375 13.03833008 C17.74783216 11.09685537 18.91620377 9.15941534 20.0859375 7.22265625 C20.44746918 6.61535172 20.80900085 6.00804718 21.18148804 5.38233948 C23.77225659 1.11387171 23.77225659 1.11387171 26 0 C24.47043463 4.17016075 22.42654758 7.93878293 20.19140625 11.76171875 C19.8240184 12.39358597 19.45663055 13.02545319 19.07810974 13.6764679 C18.30413372 15.00452908 17.52830703 16.33151326 16.75073242 17.6574707 C15.56262364 19.68728876 14.38562417 21.72328312 13.20898438 23.75976562 C12.45379538 25.0524752 11.69795817 26.34480635 10.94140625 27.63671875 C10.59130997 28.24505051 10.24121368 28.85338226 9.88050842 29.48014832 C8.11318593 32.46908764 6.94627298 34.03581801 4 36 C4.09087891 35.17761841 4.09087891 35.17761841 4.18359375 34.33862305 C6.43815465 19.64912432 6.43815465 19.64912432 6 5 C4.2041166 2.77226194 2.41824074 1.6121605 0 0 Z " fill="#000000" transform="translate(248,256)"/>
<path d="M0 0 C1.43256444 3.91701185 0.66626659 7.55542869 0.0625 11.5625 C-1.43984867 21.27266943 -1.43984867 21.27266943 -1 31 C0.78916027 33.24038544 2.57646492 34.38430994 5 36 C2.125 35.6875 2.125 35.6875 -1 35 C-3.32307913 31.51538131 -3.24226532 30.16989896 -3.1875 26.0625 C-3.18105469 25.02222656 -3.17460937 23.98195312 -3.16796875 22.91015625 C-2.93952722 17.59224988 -2.47319883 12.3010249 -2 7 C-2.50450684 7.84296631 -3.00901367 8.68593262 -3.52880859 9.55444336 C-5.39849665 12.67539287 -7.27487415 15.79227434 -9.15332031 18.90795898 C-9.96603075 20.25809126 -10.77691256 21.60932601 -11.5859375 22.96166992 C-12.74783216 24.90314463 -13.91620377 26.84058466 -15.0859375 28.77734375 C-15.62823502 29.68830055 -15.62823502 29.68830055 -16.18148804 30.61766052 C-18.77225659 34.88612829 -18.77225659 34.88612829 -21 36 C-19.47110392 31.81960901 -17.41043979 28.05975152 -15.15625 24.23828125 C-14.78649048 23.60641403 -14.41673096 22.97454681 -14.0357666 22.3235321 C-13.25746763 20.99553947 -12.47744742 19.66855427 -11.69580078 18.3425293 C-10.49928642 16.31128861 -9.30984491 14.27602594 -8.12109375 12.24023438 C-7.36239761 10.94767096 -6.60329701 9.65534485 -5.84375 8.36328125 C-5.48849243 7.75494949 -5.13323486 7.14661774 -4.76721191 6.51985168 C-3.32627193 4.08345001 -2.01083892 2.01083892 0 0 Z " fill="#000000" transform="translate(259,220)"/>
</svg>
