<?xml version="1.0" standalone="no"?>
<!DOCTYPE svg PUBLIC "-//W3C//DTD SVG 20010904//EN"
 "http://www.w3.org/TR/2001/REC-SVG-20010904/DTD/svg10.dtd">
<svg version="1.0" xmlns="http://www.w3.org/2000/svg"
 width="512.000000pt" height="512.000000pt" viewBox="0 0 512.000000 512.000000"
 preserveAspectRatio="xMidYMid meet">

<g transform="translate(0.000000,512.000000) scale(0.100000,-0.100000)"
fill="#000000" stroke="none">
<path d="M2305 5085 c-23 -22 -25 -32 -25 -108 l0 -84 -66 -22 c-36 -12 -99
-38 -140 -58 l-74 -37 -65 63 c-93 89 -91 90 -292 -112 -132 -132 -163 -168
-163 -191 0 -20 16 -45 61 -92 l62 -64 -36 -73 c-20 -41 -46 -104 -58 -141
l-22 -66 -84 0 c-76 0 -86 -2 -108 -25 l-25 -24 0 -231 0 -231 25 -24 c22 -23
32 -25 108 -25 l84 0 22 -67 c12 -38 38 -101 58 -142 l35 -74 -24 -24 c-17
-16 -179 -84 -484 -203 -363 -141 -464 -185 -484 -207 -14 -15 -118 -157 -233
-315 -219 -302 -231 -325 -190 -370 9 -10 100 -45 209 -80 l194 -61 2 -603 c3
-589 3 -604 23 -623 28 -27 1931 -764 1958 -759 55 12 1914 742 1932 759 20
19 20 35 23 623 l3 603 193 61 c109 35 200 70 209 80 41 45 29 68 -191 370
-114 158 -218 300 -232 315 -20 23 -120 66 -484 207 -303 118 -468 187 -484
203 l-24 24 35 74 c20 41 46 104 58 142 l22 67 84 0 c76 0 86 2 108 25 l25 24
0 231 0 231 -25 24 c-22 23 -32 25 -108 25 l-84 0 -22 66 c-12 37 -38 100 -58
141 l-36 73 62 64 c45 47 61 72 61 92 0 23 -31 59 -162 191 -202 202 -200 201
-292 113 l-66 -63 -73 36 c-41 20 -104 46 -141 58 l-66 22 0 84 c0 76 -2 86
-25 108 l-24 25 -231 0 -231 0 -24 -25z m377 -216 c4 -95 16 -111 98 -128 75
-16 198 -66 260 -106 81 -51 111 -48 177 17 l53 53 87 -88 88 -87 -53 -53
c-62 -62 -67 -94 -25 -160 41 -65 80 -158 108 -254 32 -113 44 -123 141 -123
l74 0 0 -120 0 -120 -65 0 c-88 0 -121 -18 -135 -73 -27 -104 -64 -199 -105
-272 -60 -105 -59 -125 7 -192 l53 -53 -88 -87 -87 -88 -53 53 c-59 58 -97 67
-145 33 -66 -46 -193 -98 -319 -131 -55 -14 -73 -47 -73 -135 l0 -65 -120 0
-120 0 0 65 c0 88 -18 121 -73 135 -104 27 -199 64 -272 105 -105 60 -125 59
-192 -7 l-53 -53 -87 88 -88 87 53 53 c66 67 67 87 7 192 -41 73 -78 168 -105
272 -14 55 -47 73 -135 73 l-65 0 0 120 0 120 64 0 c36 0 76 4 90 10 29 11 31
15 76 157 17 56 52 137 76 179 59 103 58 124 -8 191 l-53 53 88 87 87 88 53
-53 c68 -67 90 -68 195 -8 69 40 123 61 272 107 56 18 70 43 70 132 l0 67 119
0 119 0 4 -81z m-838 -2129 c20 0 45 16 91 61 l63 60 84 -39 c45 -22 109 -48
141 -58 l57 -18 0 -83 c0 -76 2 -86 25 -108 l24 -25 231 0 231 0 24 25 c23 22
25 32 25 108 l0 83 58 18 c31 10 95 36 140 58 l84 39 63 -60 c92 -89 89 -90
264 83 l146 143 308 -120 c169 -66 307 -123 307 -126 0 -8 -1631 -641 -1650
-641 -20 0 -1650 633 -1650 641 0 3 138 60 308 126 l307 120 146 -144 c116
-114 151 -143 173 -143z m-269 -394 c462 -180 843 -331 847 -335 4 -3 -65
-106 -153 -228 l-160 -222 -97 46 c-392 184 -864 370 -1367 538 -143 48 -261
88 -263 90 -2 2 205 293 295 413 16 21 31 32 42 29 9 -2 394 -152 856 -331z
m3007 110 c88 -120 157 -220 155 -222 -2 -2 -97 -35 -213 -73 -515 -170 -1013
-365 -1416 -554 l-97 -46 -161 222 c-122 168 -158 224 -147 231 26 17 1692
664 1706 663 8 -1 86 -100 173 -221z m-3352 -691 c224 -86 544 -223 734 -314
82 -39 161 -71 177 -71 33 0 40 8 206 238 l128 177 3 -789 c1 -434 1 -791 -1
-793 -2 -2 -390 147 -863 331 l-859 334 -3 518 c-1 286 0 524 2 530 5 13 168
-43 476 -161z m3138 -364 l-3 -524 -859 -334 c-472 -183 -860 -332 -862 -330
-2 2 -3 359 -2 793 l3 789 128 -177 c166 -231 173 -238 207 -238 15 0 90 30
166 66 190 90 416 188 619 269 268 107 589 223 598 215 4 -3 6 -242 5 -529z"/>
<path d="M2395 4494 c-84 -20 -210 -84 -273 -138 -169 -145 -252 -322 -252
-536 0 -388 302 -690 690 -690 387 0 690 303 690 689 0 119 -19 202 -70 306
-87 179 -254 316 -446 365 -93 24 -249 26 -339 4z m300 -159 c181 -47 333
-199 380 -380 21 -83 19 -209 -5 -286 -15 -49 -74 -167 -94 -186 -2 -2 -20 13
-42 34 -21 20 -63 52 -92 70 -29 19 -50 38 -48 42 3 4 21 31 39 58 109 162 42
387 -141 471 -118 54 -268 26 -361 -67 -112 -112 -128 -275 -40 -411 l38 -60
-52 -33 c-29 -19 -70 -50 -91 -70 -22 -21 -40 -36 -42 -34 -20 19 -79 137 -94
186 -25 79 -27 215 -4 292 53 179 200 326 375 373 72 19 201 20 274 1z m-54
-331 c94 -48 112 -183 35 -260 -89 -89 -243 -48 -275 74 -38 139 110 254 240
186z m27 -512 c59 -19 131 -62 165 -100 19 -20 18 -21 -30 -45 -79 -40 -150
-57 -243 -57 -93 0 -164 17 -243 57 -48 24 -49 25 -30 45 33 37 105 81 162 99
73 23 145 23 219 1z"/>
</g>
</svg>
