<?xml version="1.0" encoding="UTF-8"?>
<svg version="1.1" xmlns="http://www.w3.org/2000/svg" width="512" height="512">
<path d="M0 0 C13.39061048 0.68993829 26.77595552 1.15299083 40.18040216 1.47037566 C41.14407787 1.49342343 42.10775359 1.51647121 43.10063159 1.5402174 C50.64595695 1.71922379 58.19151268 1.88745731 65.73715913 2.05230987 C102.25002148 2.85273604 138.66228968 4.58349885 175.16575372 6.19449675 C175.49575372 102.22449675 175.82575372 198.25449675 176.16575372 297.19449675 C188.04575372 285.31449675 199.92575372 273.43449675 212.16575372 261.19449675 C223.95670339 254.11992695 232.30008487 251.35259562 245.90794122 253.6593405 C256.40437899 256.42242147 264.88819456 263.04356198 270.45090997 272.34293425 C275.3891325 281.86538486 275.65085164 293.22168408 273.43528497 303.62418425 C268.71632691 316.46929032 257.39761389 325.07067768 246.96425569 333.2116667 C239.50262226 339.04701217 232.34249461 345.18574895 225.23970354 351.45152724 C220.5016039 355.60956867 215.73353387 359.61111758 210.67112482 363.370278 C193.30970822 376.58078152 188.88758314 385.68413698 176.16575372 406.19449675 C175.83575372 443.15449675 175.50575372 480.11449675 175.16575372 518.19449675 C38.87575372 518.19449675 -97.41424628 518.19449675 -237.83424628 518.19449675 C-241.3027423 414.75803018 -241.3027423 414.75803018 -242.03346503 370.964028 C-242.20174773 360.94648844 -242.37548195 350.92906614 -242.55836737 340.91178191 C-242.58104977 339.656918 -242.60373216 338.40205409 -242.6271019 337.109164 C-242.95175447 319.5312282 -243.48170241 301.96995429 -244.17557968 284.40287395 C-251.96730961 86.8294087 -251.96730961 86.8294087 -210.30433142 41.1410681 C-157.17439355 -13.50607664 -69.55929219 -3.62277669 0 0 Z M-137.83424628 23.19449675 C-137.83424628 50.58449675 -137.83424628 77.97449675 -137.83424628 106.19449675 C-165.22424628 106.19449675 -192.61424628 106.19449675 -220.83424628 106.19449675 C-220.83424628 236.54449675 -220.83424628 366.89449675 -220.83424628 501.19449675 C-95.76424628 501.19449675 29.30575372 501.19449675 158.16575372 501.19449675 C158.16575372 475.78449675 158.16575372 450.37449675 158.16575372 424.19449675 C152.56589352 428.79045834 152.56589352 428.79045834 148.16477716 433.92301238 C120.10118126 471.45368232 82.82708429 479.34369157 39.16575372 489.19449675 C41.14443179 482.08968899 43.12673581 474.98590266 45.11330354 467.88329661 C46.03627997 464.58295593 46.95814077 461.28231327 47.8771795 457.9808737 C48.94111395 454.15913975 50.01038932 450.33891618 51.07981622 446.5187155 C51.55833536 444.795604 51.55833536 444.795604 52.04652154 443.03768218 C52.68572921 440.76014639 53.34969337 438.4893941 54.03982961 436.22677004 C54.85272673 433.47617327 55.43918774 430.76412189 55.9291271 427.9392668 C58.96544526 412.99896362 67.73185111 406.59067827 79.57790005 397.86303699 C115.66657588 370.85692983 157.75585156 336.8503653 165.03463781 290.00126421 C167.22751882 274.27602655 167.6613955 258.48361553 167.63840997 242.6280905 C167.63956744 241.89251666 167.6407249 241.15694283 167.64191744 240.39907888 C167.64347192 239.31715544 167.64347192 239.31715544 167.6450578 238.21337497 C167.64601835 237.58835612 167.64697891 236.96333727 167.64796858 236.31937845 C167.53676828 212.01976936 165.71517452 187.90118671 164.22825372 163.63199675 C162.22762872 117.28762175 160.22700372 70.94324675 158.16575372 23.19449675 C60.48575372 23.19449675 -37.19424628 23.19449675 -137.83424628 23.19449675 Z M-161.62941229 40.86026824 C-162.12699042 41.35609404 -162.62456854 41.85191985 -163.13722479 42.36277068 C-164.79006839 44.01119376 -166.43920485 45.66327091 -168.08815253 47.3155905 C-169.23000925 48.45677424 -170.37201444 49.59780946 -171.51416266 50.73870146 C-173.91081945 53.13388101 -176.30565049 55.53086773 -178.69923651 57.92911589 C-181.77516635 61.01074303 -184.85556248 64.08786029 -187.93733561 67.16364253 C-190.29734999 69.52005201 -192.65498794 71.8788275 -195.01190245 74.23833716 C-196.14712683 75.374231 -197.28310105 76.50937592 -198.41981947 77.64377463 C-200.00513023 79.22656002 -201.58722359 80.81249116 -203.16847479 82.39933074 C-204.52296477 83.7550141 -204.52296477 83.7550141 -205.90481818 85.13808501 C-207.94828497 86.84606674 -207.94828497 86.84606674 -207.83424628 88.19449675 C-190.67424628 88.19449675 -173.51424628 88.19449675 -155.83424628 88.19449675 C-155.83424628 71.03449675 -155.83424628 53.87449675 -155.83424628 36.19449675 C-157.98611704 36.19449675 -160.28040197 39.51244543 -161.62941229 40.86026824 Z M220.97825372 277.50699675 C219.35856852 279.05340446 217.75324816 280.61506066 216.16575372 282.19449675 C215.51735528 282.8287155 214.86895685 283.46293425 214.20090997 284.11637175 C212.8406999 285.46057935 211.50031223 286.82481829 210.16575372 288.19449675 C211.80353417 292.39075584 214.89898554 295.1812646 218.04856622 298.27262175 C218.6228335 298.84405913 219.19710077 299.41549651 219.78877008 300.00425017 C221.61811182 301.8224262 223.45429565 303.63351167 225.29075372 305.44449675 C226.53470146 306.67841004 227.77819642 307.91277997 229.02122247 309.14762175 C232.06417739 312.16856418 235.11328627 315.18316767 238.16575372 318.19449675 C250.87031932 307.76882703 250.87031932 307.76882703 257.61106622 293.09293425 C257.93846011 287.61454311 256.11919195 282.70808454 253.16575372 278.19449675 C248.85593716 273.53711434 243.92534569 271.16257178 237.66965997 270.26480925 C230.59180249 270.06605506 226.17303584 272.9101193 220.97825372 277.50699675 Z M196.16575372 302.19449675 C157.88575372 340.47449675 119.60575372 378.75449675 80.16575372 418.19449675 C83.13575372 421.65949675 83.13575372 421.65949675 86.16575372 425.19449675 C90.12614246 425.60611344 90.12614246 425.60611344 92.45394266 423.39849913 C93.29830503 422.55044959 94.1426674 421.70240004 95.01261652 420.82865202 C95.48564274 420.3590435 95.95866896 419.88943498 96.44602931 419.4055959 C98.03251793 417.82570878 99.60426597 416.23192415 101.17649591 414.63785613 C102.30921734 413.50400671 103.44281969 412.37103676 104.57723749 411.23888457 C107.65823803 408.159034 110.72673077 405.0669857 113.7931751 401.97265112 C116.99846369 398.74239633 120.2150459 395.52342844 123.43046319 392.3032614 C129.51929701 386.20198376 135.59786082 380.0905792 141.67282832 373.97549832 C148.58872699 367.01492577 155.51595605 360.06567685 162.44417465 353.11737025 C176.69737196 338.82233676 190.93623316 324.51309608 205.16575372 310.19449675 C204.2361395 309.04225647 203.29674122 307.89790499 202.35325372 306.75699675 C201.83118341 306.11891081 201.3091131 305.48082488 200.77122247 304.823403 C199.15740962 302.93966925 199.15740962 302.93966925 196.16575372 302.19449675 Z M217.16575372 323.19449675 C178.88575372 361.47449675 140.60575372 399.75449675 101.16575372 439.19449675 C104.13575372 442.65949675 104.13575372 442.65949675 107.16575372 446.19449675 C111.12614246 446.60611344 111.12614246 446.60611344 113.45394266 444.39849913 C114.29830503 443.55044959 115.1426674 442.70240004 116.01261652 441.82865202 C116.48564274 441.3590435 116.95866896 440.88943498 117.44602931 440.4055959 C119.03251793 438.82570878 120.60426597 437.23192415 122.17649591 435.63785613 C123.30921734 434.50400671 124.44281969 433.37103676 125.57723749 432.23888457 C128.65823803 429.159034 131.72673077 426.0669857 134.7931751 422.97265112 C137.99846369 419.74239633 141.2150459 416.52342844 144.43046319 413.3032614 C150.51929701 407.20198376 156.59786082 401.0905792 162.67282832 394.97549832 C169.58872699 388.01492577 176.51595605 381.06567685 183.44417465 374.11737025 C197.69737196 359.82233676 211.93623316 345.51309608 226.16575372 331.19449675 C225.2361395 330.04225647 224.29674122 328.89790499 223.35325372 327.75699675 C222.83118341 327.11891081 222.3091131 326.48082488 221.77122247 325.823403 C220.15740962 323.93966925 220.15740962 323.93966925 217.16575372 323.19449675 Z M72.16575372 436.19449675 C69.93857738 441.91965005 68.06305402 447.65286194 66.41575372 453.56949675 C66.18243341 454.37516081 65.9491131 455.18082488 65.70872247 456.010903 C64.26865354 460.14698804 64.26865354 460.14698804 65.16575372 464.19449675 C74.07575372 461.55449675 82.98575372 458.91449675 92.16575372 456.19449675 C87.58371793 450.7894449 87.58371793 450.7894449 82.77122247 445.667153 C82.20854669 445.10318816 81.64587091 444.53922331 81.06614435 443.95816863 C80.50089044 443.39678191 79.93563653 442.83539519 79.35325372 442.25699675 C78.76866388 441.66853972 78.18407403 441.08008269 77.58176935 440.47379363 C75.24952373 437.56026914 75.24952373 437.56026914 72.16575372 436.19449675 Z " fill="#73001C" transform="translate(237.83424627780914,-6.194496750831604)"/>
<path d="M0 0 C1.9541984 -0.00542786 3.90839271 -0.01255424 5.86257935 -0.02124023 C11.1435929 -0.03939744 16.42429212 -0.03243751 21.70531082 -0.01972389 C27.2468268 -0.00955673 32.78831688 -0.01899986 38.32983398 -0.02526855 C47.63367517 -0.03253415 56.9373891 -0.0229858 66.24121094 -0.00390625 C76.97893313 0.01786032 87.71635145 0.01080819 98.45406628 -0.01121187 C107.69347569 -0.02939686 116.93279393 -0.03190904 126.17221546 -0.0214572 C131.68166391 -0.01523931 137.19096979 -0.01433962 142.70040894 -0.02760315 C147.88146986 -0.03920615 153.06214116 -0.0310548 158.24316025 -0.00802612 C160.13813507 -0.00276276 162.033143 -0.00421188 163.9281044 -0.01307678 C179.64867597 -0.07980769 190.49577479 1.99750511 202.28125 13.13867188 C209.71838515 21.02998321 212.70515965 30.8267819 212.7434082 41.41625977 C212.7499794 42.20872101 212.7565506 43.00118225 212.76332092 43.81765747 C212.7830124 46.43768417 212.79471004 49.05765353 212.8046875 51.67773438 C212.80876303 52.5760391 212.81283855 53.47434383 212.81703758 54.39986992 C212.83788513 59.15874881 212.85219001 63.91759902 212.86157227 68.67651367 C212.87260691 73.56982009 212.90697641 78.46266804 212.94674397 83.35581303 C212.97301174 87.13674205 212.9812733 90.91756375 212.98485374 94.69857597 C212.98969701 96.50093097 213.00124578 98.3032819 213.01989174 100.10554695 C213.16251943 114.81081515 211.40771198 126.98113288 200.9765625 138.23242188 C192.50667732 146.06457453 181.74160046 149.83289783 170.31976318 149.78500366 C169.51708362 149.78953478 168.71440405 149.79406589 167.88740087 149.79873431 C165.21230937 149.81133962 162.53742249 149.80976045 159.86230469 149.80810547 C157.93825521 149.81409317 156.01420812 149.82089928 154.09016418 149.82846069 C148.87305146 149.84610417 143.65600438 149.85081541 138.43886471 149.85209227 C135.17614754 149.85351547 131.91344698 149.85778829 128.65073395 149.8630867 C117.25884444 149.88158218 105.86700168 149.889758 94.47509766 149.88818359 C83.87153439 149.88698264 73.26817482 149.90807733 62.66466308 149.93967092 C53.54849219 149.96586085 44.43238772 149.97654973 35.31617951 149.97527277 C29.8770724 149.9747639 24.43814634 149.98040575 18.99907684 150.00162888 C13.88047834 150.02105673 8.76223272 150.0211046 3.64362144 150.00659561 C1.77121398 150.00451199 -0.10121583 150.00918159 -1.97358513 150.02131653 C-17.08809629 150.11288445 -29.00636287 148.09243732 -40.59375 137.55273438 C-49.12728114 128.73209378 -52.58681675 118.10587464 -52.57885742 106.02441406 C-52.58221603 105.28711563 -52.58557465 104.5498172 -52.58903503 103.79017639 C-52.5985074 101.36075133 -52.60048646 98.93139549 -52.6015625 96.50195312 C-52.6047783 94.80430066 -52.60814262 93.10664847 -52.61164856 91.40899658 C-52.61763101 87.85159666 -52.61948943 84.294221 -52.61889648 80.73681641 C-52.61879506 76.19659943 -52.63243074 71.65653953 -52.64966869 67.11635971 C-52.66083393 63.6091644 -52.66281428 60.10200648 -52.66228676 56.59479523 C-52.6634607 54.92199412 -52.66784928 53.24919186 -52.67561913 51.57640839 C-52.734993 37.47018726 -51.43505359 26.26256246 -43.24609375 14.33007812 C-30.43005779 1.51404217 -17.23911523 -0.08064709 0 0 Z M-29.43359375 26.51757812 C-29.96984375 27.15695313 -30.50609375 27.79632813 -31.05859375 28.45507812 C-34.21321389 33.18700834 -34.73465665 37.50434672 -34.73999023 43.08666992 C-34.74831375 43.83211563 -34.75663727 44.57756134 -34.76521301 45.34559631 C-34.78924701 47.80271686 -34.79807844 50.25957135 -34.8046875 52.71679688 C-34.81366126 54.43447444 -34.82278324 56.15215124 -34.83204651 57.86982727 C-34.84852284 61.47012222 -34.85623372 65.07032435 -34.85913086 68.6706543 C-34.8645028 73.26265202 -34.90213891 77.85376511 -34.94787502 82.44551373 C-34.97776493 85.99480797 -34.98485705 89.54389266 -34.98585701 93.09330177 C-34.99003832 94.78484954 -35.0023879 96.47639914 -35.02337456 98.16782188 C-35.14047963 108.42518436 -34.88047005 117.17061839 -27.87620544 125.33232117 C-18.85902531 133.9773588 -6.97945085 132.94908405 4.61132812 132.90576172 C6.44039726 132.90983133 8.26946394 132.9151754 10.098526 132.92169189 C15.04684839 132.93532488 19.99498235 132.93008345 24.94330788 132.92055464 C30.13209144 132.9129372 35.32085933 132.92000943 40.50964355 132.92471313 C49.2217904 132.93016462 57.93386085 132.922995 66.64599609 132.90869141 C76.70543843 132.89236609 86.76469833 132.89765502 96.82413626 132.91417062 C105.47493341 132.92780278 114.12567577 132.92969669 122.7764802 132.92185462 C127.93711237 132.91718762 133.09765891 132.91652644 138.25828552 132.92646408 C143.11094604 132.93515665 147.96337229 132.92907005 152.81600761 132.91178131 C154.5924942 132.90782869 156.36900063 132.90892944 158.1454792 132.91556931 C174.44607646 133.05502806 174.44607646 133.05502806 188.56640625 125.51757812 C193.63017147 118.39740121 195.6803251 113.22331036 195.72753906 104.50512695 C195.73250397 103.80698883 195.73746887 103.10885071 195.74258423 102.38955688 C195.75716308 100.08456425 195.76400193 97.77964051 195.76953125 95.47460938 C195.77528776 93.86520894 195.78104543 92.25580851 195.7868042 90.64640808 C195.79730311 87.2713489 195.80315252 83.89631344 195.80664062 80.52124023 C195.81211233 76.21520962 195.83611651 71.90949728 195.86461258 67.60356617 C195.88332266 64.27737033 195.88844907 60.95124972 195.8899765 57.62500572 C195.89298648 56.03871617 195.90095855 54.45242742 195.91416168 52.86618996 C195.99723648 42.11503377 196.03259431 32.33567701 188.31640625 24.02148438 C182.34739585 18.89186606 175.70347539 17.36893297 168.02183533 17.36367798 C167.24636921 17.35929572 166.47090309 17.35491347 165.671938 17.35039842 C163.06506234 17.33700962 160.45822049 17.33083132 157.85131836 17.32470703 C155.98535001 17.31680597 154.11938318 17.30853702 152.25341797 17.29992676 C146.11687683 17.27370168 139.98032887 17.25839617 133.84375 17.24414062 C131.7306321 17.23878068 129.61751425 17.23340317 127.50439644 17.22800827 C118.71234065 17.20637664 109.92028669 17.18764122 101.12821102 17.17638588 C88.53341669 17.16015612 75.93893134 17.12700504 63.34425348 17.06998503 C54.48636051 17.03125244 45.62855005 17.0117491 36.77057463 17.00646532 C31.48172008 17.00281573 26.19319504 16.99083635 20.9044323 16.95836258 C15.92456238 16.92822463 10.94522035 16.92199062 5.96527863 16.93374634 C4.14242902 16.93396661 2.31955451 16.92570016 0.49678993 16.9080925 C-10.79143724 16.80503 -21.73251975 16.96824637 -29.43359375 26.51757812 Z " fill="#72001C" transform="translate(167.43359375,32.482421875)"/>
<path d="M0 0 C3.8447546 0.55171366 5.50873547 2.21462331 8.125 5 C10.77060724 7.89285588 10.77060724 7.89285588 14 10 C12.70176525 13.81562395 11.25033142 16.07090879 8.3125 18.8125 C5.6698837 21.35584091 3.13943642 23.90471655 0.75 26.6875 C-2.41776847 30.37112067 -5.6968217 33.93846688 -9 37.5 C-10.03527414 38.62489152 -11.07043273 39.74988938 -12.10546875 40.875 C-13.83659763 42.75383226 -15.5844444 44.60279885 -17.36328125 46.4375 C-18.00652344 47.118125 -18.64976562 47.79875 -19.3125 48.5 C-19.86550781 49.0671875 -20.41851562 49.634375 -20.98828125 50.21875 C-22.22230964 51.99910998 -22.22230964 51.99910998 -21.796875 54.33203125 C-21.23789793 56.20350839 -20.64499107 58.0650268 -20.02734375 59.91796875 C-15.15137357 74.54587929 -15.1678877 90.03935503 -21.44140625 104.26953125 C-29.44474655 120.22050414 -41.94691627 131.10168526 -58.8125 136.8125 C-74.61128435 140.72286768 -90.89141817 138.49965842 -105.125 130.9375 C-118.56615019 122.59226804 -128.10273975 110.07341139 -132.33984375 94.8125 C-135.10235095 78.85861226 -133.79014665 62.16325015 -124.75390625 48.37109375 C-115.37052293 35.68576262 -102.6124542 25.25248247 -86.69921875 22.28125 C-67.1311641 20.24232101 -49.83153389 24.45506803 -34.2578125 36.93359375 C-33.84273438 37.28550781 -33.42765625 37.63742187 -33 38 C-32.73574219 37.40703125 -32.47148437 36.8140625 -32.19921875 36.203125 C-30.95629575 33.91970946 -29.69598354 32.52573277 -27.8125 30.75 C-25.36401744 28.37176079 -23.03928947 25.96200541 -20.8125 23.375 C-17.09913085 19.06378683 -13.23479451 14.90073233 -9.35083008 10.74365234 C-6.10781688 7.25675943 -3.0192163 3.68278032 0 0 Z M-104.0625 50.8828125 C-112.54474714 59.91348079 -116.53371089 70.94100602 -116.24609375 83.20703125 C-115.30860872 93.84674231 -110.01474834 104.00990123 -102.2578125 111.33203125 C-92.50114373 118.5398125 -82.08575072 122.06683802 -70 121 C-58.22289455 118.65306182 -47.83350049 113.09726191 -41 103 C-35.12986488 93.46716219 -32.54958297 83.08616092 -35 72 C-35.97954513 69.78373299 -35.97954513 69.78373299 -37 68 C-42.192248 73.09822339 -47.29057947 78.20913668 -52.0234375 83.73828125 C-54.62384944 86.71385143 -57.31140003 89.60420366 -60 92.5 C-64.41758693 97.26226033 -68.76962335 102.0695258 -73 107 C-77.08395331 105.55310299 -80.33602755 103.55669889 -83.88671875 101.0859375 C-84.42980179 100.71143463 -84.97288483 100.33693176 -85.53242493 99.95108032 C-87.25402381 98.76365645 -88.97122505 97.57010372 -90.6875 96.375 C-92.95861507 94.79415985 -95.23383968 93.21951012 -97.51171875 91.6484375 C-98.51678467 90.94895996 -99.52185059 90.24948242 -100.55737305 89.52880859 C-102.80228489 87.82315349 -102.80228489 87.82315349 -105 88 C-102.03 83.38 -99.06 78.76 -96 74 C-92.67986073 75.32805571 -90.31210418 76.2911468 -87.44921875 78.1640625 C-86.83369141 78.56367188 -86.21816406 78.96328125 -85.58398438 79.375 C-84.64522461 79.99375 -84.64522461 79.99375 -83.6875 80.625 C-83.04232422 81.04523438 -82.39714844 81.46546875 -81.73242188 81.8984375 C-80.15239276 82.92838241 -78.57583953 83.96365628 -77 85 C-76.26523438 84.26394531 -75.53046875 83.52789062 -74.7734375 82.76953125 C-73.1173109 81.11573722 -71.45723292 79.46586349 -69.7890625 77.82421875 C-65.63555162 73.72318906 -61.6419802 69.55727693 -57.83984375 65.12890625 C-54.29419759 61.02619467 -50.6355327 57.0229931 -47 53 C-49.52092573 46.85690204 -55.91792905 43.70844858 -61.8125 41.1875 C-77.09863016 36.14247285 -92.33813813 40.17989125 -104.0625 50.8828125 Z " fill="#6E001B" transform="translate(166,341)"/>
<path d="M0 0 C4.69159716 3.38772897 9.0299782 6.78185183 13 11 C11.63389732 14.03726958 10.06926193 16.20915026 7.76953125 18.609375 C7.13080078 19.28226563 6.49207031 19.95515625 5.83398438 20.6484375 C4.83334961 21.68871094 4.83334961 21.68871094 3.8125 22.75 C-0.06176666 26.80545127 -3.91167455 30.85933431 -7.58203125 35.1015625 C-9.76341581 37.62246577 -11.99258918 40.05076621 -14.34375 42.4140625 C-14.86710937 42.94773438 -15.39046875 43.48140625 -15.9296875 44.03125 C-16.99592687 45.11340339 -18.07460173 46.18341576 -19.1640625 47.2421875 C-20.95015149 49.01561932 -20.95015149 49.01561932 -23 52 C-23.08765208 55.12542884 -23.08765208 55.12542884 -22 58 C-21.7628125 58.78503906 -21.525625 59.57007813 -21.28125 60.37890625 C-21.0234375 61.09949219 -20.765625 61.82007813 -20.5 62.5625 C-15.32039153 77.09130176 -17.22995024 93.33219849 -23.4375 107.21484375 C-31.33342871 121.96276829 -44.22468887 131.85695186 -60 137 C-75.26666024 141.31982669 -91.27349369 139.25324211 -105.1875 131.72265625 C-119.36505442 123.03890417 -128.31396049 111.15635632 -133.140625 95.23828125 C-136.87999919 79.29173333 -133.92364701 62.61542876 -125.73828125 48.62109375 C-116.12662404 34.12801063 -102.32709094 25.8558052 -85.5 22.25 C-84.345 22.1675 -83.19 22.085 -82 22 C-81.16597656 21.93683594 -80.33195312 21.87367188 -79.47265625 21.80859375 C-62.2033682 21.09000593 -48.44906092 27.72548478 -35 38 C-25.27561488 27.69255034 -25.27561488 27.69255034 -15.85546875 17.109375 C-13.18155446 14.06955665 -10.43452424 11.09871648 -7.6875 8.125 C-7.15882324 7.55249512 -6.63014648 6.97999023 -6.08544922 6.39013672 C-4.08509699 4.22949779 -2.0822397 2.0822397 0 0 Z M-108.10546875 54.28515625 C-115.00741942 63.33568858 -118.51287505 74.65343713 -117 86 C-114.74831961 97.48357001 -109.64269276 106.85737951 -100.1875 113.9375 C-89.12848366 120.91860895 -77.67699876 123.02653382 -64.84765625 120.33984375 C-54.22296676 116.89762317 -44.85453091 109.04001111 -39.4921875 99.24609375 C-34.7085665 88.76313003 -34.03245805 79.08536331 -37 68 C-42.00881159 72.04967746 -46.28609177 76.40057333 -50.546875 81.2265625 C-53.6178691 84.69854628 -56.75296486 88.10831951 -59.89770508 91.51342773 C-62.15509653 93.96386727 -64.37473881 96.43195084 -66.55859375 98.94921875 C-67.34363281 99.85285156 -68.12867188 100.75648438 -68.9375 101.6875 C-69.62714844 102.49574219 -70.31679687 103.30398438 -71.02734375 104.13671875 C-73.24737175 106.23365609 -73.97459523 106.82795133 -77 107 C-79.33783276 105.73955562 -81.36521686 104.47026864 -83.515625 102.94140625 C-84.13145447 102.51826645 -84.74728394 102.09512665 -85.3817749 101.65916443 C-87.34626801 100.30532906 -89.29802582 98.93430675 -91.25 97.5625 C-92.57992774 96.64141988 -93.91064827 95.72148334 -95.2421875 94.80273438 C-98.5041384 92.54832155 -101.75477719 90.27841948 -105 88 C-103.60933499 84.39739045 -102.06406575 81.37592185 -99.875 78.1875 C-99.33617188 77.39730469 -98.79734375 76.60710937 -98.2421875 75.79296875 C-97.62730469 74.90544922 -97.62730469 74.90544922 -97 74 C-92.56829827 75.51896368 -88.96975924 77.92639809 -85.1875 80.625 C-84.59001953 81.04523438 -83.99253906 81.46546875 -83.37695312 81.8984375 C-81.91479435 82.92779728 -80.45695101 83.9632823 -79 85 C-75.88163667 83.62647072 -73.88134572 82.08161027 -71.57421875 79.5859375 C-70.94193359 78.90660156 -70.30964844 78.22726562 -69.65820312 77.52734375 C-69.00787109 76.81707031 -68.35753906 76.10679687 -67.6875 75.375 C-67.04876953 74.68792969 -66.41003906 74.00085938 -65.75195312 73.29296875 C-59.64143277 66.69335913 -53.723461 59.93752848 -48 53 C-50.42296712 47.15711574 -55.73266611 44.49985122 -61.2890625 41.94921875 C-78.45943462 35.89077641 -95.97661096 41.12118258 -108.10546875 54.28515625 Z " fill="#6E001B" transform="translate(167,192)"/>
<path d="M0 0 C65.67 0 131.34 0 199 0 C199 5.61 199 11.22 199 17 C133.33 17 67.66 17 0 17 C0 11.39 0 5.78 0 0 Z " fill="#6F001B" transform="translate(181,297)"/>
<path d="M0 0 C65.67 0 131.34 0 199 0 C199 5.61 199 11.22 199 17 C133.33 17 67.66 17 0 17 C0 11.39 0 5.78 0 0 Z " fill="#6F001B" transform="translate(181,231)"/>
<path d="M0 0 C54.78 0 109.56 0 166 0 C166 5.61 166 11.22 166 17 C111.22 17 56.44 17 0 17 C0 11.39 0 5.78 0 0 Z " fill="#6F001B" transform="translate(181,264)"/>
<path d="M0 0 C16.83 0 33.66 0 51 0 C51 16.83 51 33.66 51 51 C34.17 51 17.34 51 0 51 C0 34.17 0 17.34 0 0 Z M18 18 C18 22.95 18 27.9 18 33 C22.95 33 27.9 33 33 33 C33 28.05 33 23.1 33 18 C28.05 18 23.1 18 18 18 Z " fill="#71001C" transform="translate(148,82)"/>
<path d="M0 0 C16.83 0 33.66 0 51 0 C51 16.83 51 33.66 51 51 C34.17 51 17.34 51 0 51 C0 34.17 0 17.34 0 0 Z M18 18 C18 22.95 18 27.9 18 33 C23.28 33 28.56 33 34 33 C34 28.05 34 23.1 34 18 C28.72 18 23.44 18 18 18 Z " fill="#72001C" transform="translate(222,82)"/>
<path d="M0 0 C16.5 0 33 0 50 0 C50 16.83 50 33.66 50 51 C33.5 51 17 51 0 51 C0 34.17 0 17.34 0 0 Z M17 18 C17 22.95 17 27.9 17 33 C22.28 33 27.56 33 33 33 C33 28.05 33 23.1 33 18 C27.72 18 22.44 18 17 18 Z " fill="#71001C" transform="translate(297,82)"/>
<path d="M0 0 C30.36 0 60.72 0 92 0 C92 5.94 92 11.88 92 18 C61.64 18 31.28 18 0 18 C0 12.06 0 6.12 0 0 Z " fill="#6F001B" transform="translate(181,445)"/>
<path d="M0 0 C30.36 0 60.72 0 92 0 C92 5.94 92 11.88 92 18 C61.64 18 31.28 18 0 18 C0 12.06 0 6.12 0 0 Z " fill="#6F001B" transform="translate(181,412)"/>
<path d="M0 0 C30.36 0 60.72 0 92 0 C92 5.94 92 11.88 92 18 C61.64 18 31.28 18 0 18 C0 12.06 0 6.12 0 0 Z " fill="#6F001B" transform="translate(181,379)"/>
<path d="M0 0 C5.61 0 11.22 0 17 0 C17 5.61 17 11.22 17 17 C11.39 17 5.78 17 0 17 C0 11.39 0 5.78 0 0 Z " fill="#630018" transform="translate(363,264)"/>
<path d="M0 0 C0.66 0.33 1.32 0.66 2 1 C-2.33333333 5.33333333 -6.66666667 9.66666667 -11 14 C-8.8527917 7.73730913 -5.24125182 3.93093886 0 0 Z " fill="#160005" transform="translate(132,40)"/>
</svg>
