<?xml version="1.0" encoding="UTF-8"?>
<svg version="1.1" xmlns="http://www.w3.org/2000/svg" width="512" height="512">
<path d="M0 0 C1.79451824 0.48594937 3.58945991 0.97033714 5.38476562 1.45336914 C9.4990993 2.56354167 13.61043458 3.68412547 17.72021484 4.81103516 C24.88404773 6.77336253 32.05525219 8.70775751 39.2276001 10.63866615 C52.56500229 14.22941173 65.89894468 17.83280771 79.23046875 21.4453125 C91.8361056 24.86097655 104.44257822 28.27350726 117.05078125 31.6796875 C117.79453947 31.88062201 118.53829769 32.08155651 119.30459404 32.28857994 C122.31289187 33.10129339 125.3211954 33.91398577 128.32950878 34.72664165 C143.15773225 38.73235633 157.98508252 42.74130315 172.8125 46.75 C174.05793076 47.08670589 174.05793076 47.08670589 175.32852173 47.43021393 C180.51070823 48.83124435 185.6928632 50.23239133 190.87498856 51.63364792 C192.63842562 52.1104681 194.40187118 52.58725683 196.16532516 53.06401443 C205.94212502 55.707232 215.71824753 58.35290757 225.49267578 61.00488281 C229.04454285 61.96829633 232.59647102 62.9314843 236.1484375 63.89453125 C237.02910511 64.13334393 237.90977272 64.3721566 238.81712723 64.61820602 C250.90047778 67.89363025 262.99221603 71.1361734 275.09114075 74.35357666 C281.685807 76.10758008 288.27771433 77.87184712 294.86893749 79.63874054 C300.21033701 81.06968233 305.5550132 82.48738945 310.90257645 83.89511013 C314.20075251 84.76684826 317.49535614 85.6515248 320.78911972 86.53977394 C322.30489338 86.94574003 323.82209337 87.34642655 325.34082413 87.74118614 C338.54801045 91.17890875 350.86885675 96.11615585 358.34765625 108.23828125 C366.78310744 124.44516852 363.83584528 138.75785209 359.15234375 155.47265625 C358.6532046 157.30479213 358.15566914 159.13736554 357.65960693 160.97033691 C356.32146657 165.89806038 354.96202927 170.81967379 353.59865952 175.74046707 C352.16770266 180.92033781 350.75715981 186.10575894 349.3449707 191.29077148 C347.00665614 199.86823542 344.65792849 208.44278172 342.30273438 217.015625 C338.98830656 229.08535531 335.71321298 241.16549248 332.453125 253.25 C332.07526226 254.65037412 332.07526226 254.65037412 331.68976593 256.07903862 C330.69058671 259.78214144 329.69149165 263.48526693 328.69267654 267.18846798 C326.08415024 276.85822355 323.46468129 286.52500683 320.84375 296.19140625 C320.62246178 297.00757479 320.40117355 297.82374332 320.17317963 298.66464424 C319.95528023 299.46830862 319.73738083 300.271973 319.51287842 301.09999084 C319.29871655 301.88987302 319.08455467 302.67975519 318.86390305 303.49357319 C318.44287734 305.04641716 318.02183927 306.59925777 317.60078812 308.15209484 C315.96794623 314.174724 314.33834411 320.19822492 312.70939636 326.22190857 C311.56112528 330.46592619 310.41043369 334.70928361 309.25869751 338.95236206 C308.76239644 340.78243356 308.26705695 342.61276618 307.77279663 344.44338989 C307.12604875 346.83802463 306.47569164 349.2316472 305.82421875 351.625 C305.55569092 352.62447914 305.55569092 352.62447914 305.28173828 353.64414978 C304.57870752 356.21374671 303.85058252 358.664226 302.76823425 361.10202026 C301.70994728 364.03413498 301.5611724 366.26520028 301.55712891 369.37548828 C301.55016998 370.48078888 301.54321106 371.58608948 301.53604126 372.72488403 C301.53753677 374.50462112 301.53753677 374.50462112 301.5390625 376.3203125 C301.51876446 378.85156685 301.49791351 381.38281681 301.4765625 383.9140625 C301.45402199 387.89001158 301.43751361 391.86578696 301.43164062 395.84179688 C301.42206541 399.6891191 301.3882169 403.53566579 301.3515625 407.3828125 C301.35660797 408.55715851 301.36165344 409.73150452 301.36685181 410.94143677 C301.22752686 422.7508393 298.05241207 432.14013269 289.8125 440.75 C281.63259824 448.22876732 272.43745926 451.86920651 261.39991474 451.88142776 C259.44527254 451.88718948 259.44527254 451.88718948 257.45114261 451.8930676 C256.00676042 451.8922874 254.56237829 451.89140862 253.11799622 451.89044189 C251.58225657 451.89302616 250.0465176 451.89603949 248.51077956 451.8994453 C244.28859203 451.90751137 240.06642151 451.90930465 235.84422719 451.91004276 C231.29124774 451.911894 226.73827709 451.91944169 222.18530273 451.92617798 C212.22863456 451.93975903 202.2719704 451.94578566 192.3152945 451.95018864 C186.09806562 451.95295144 179.88083829 451.95718886 173.66361046 451.96169281 C156.44923532 451.97388516 139.23486143 451.98418455 122.02048206 451.9875679 C120.36789041 451.98789725 120.36789041 451.98789725 118.68191306 451.98823325 C117.57755255 451.98845153 116.47319205 451.98866981 115.33536607 451.9888947 C113.09751944 451.98933817 110.8596728 451.98978473 108.62182617 451.99023438 C107.51177747 451.9904558 106.40172878 451.99067723 105.25804224 451.99090537 C87.27198718 451.99485324 69.28597264 452.01230708 51.29993323 452.0355939 C32.83306239 452.05931023 14.36621187 452.07176988 -4.10067445 452.07293582 C-14.46878759 452.07385242 -24.83684793 452.07960097 -35.20494652 452.09775543 C-44.03377853 452.11316019 -52.86254144 452.11827465 -61.69138434 452.11001733 C-66.19487761 452.10611218 -70.69823172 452.10703387 -75.20170784 452.12107468 C-79.32793921 452.13382152 -83.45392696 452.13260924 -87.58015803 452.12048396 C-89.06941181 452.11852833 -90.5586829 452.12159925 -92.04791238 452.13032833 C-105.40668671 452.20364563 -115.54834021 450.16994854 -126.1875 441.75 C-133.04811533 434.78774592 -138.29712635 425.48436289 -138.32172108 415.52754211 C-138.32617892 414.68747997 -138.33063676 413.84741783 -138.33522969 412.98189926 C-138.33504533 412.06401752 -138.33486097 411.14613579 -138.33467102 410.20043945 C-138.33834771 409.22135242 -138.3420244 408.2422654 -138.3458125 407.23350906 C-138.35685034 403.94342785 -138.3606934 400.65337821 -138.36450195 397.36328125 C-138.37076662 395.00780639 -138.37741342 392.65233252 -138.38441467 390.29685974 C-138.40364282 383.22091638 -138.41424402 376.14497657 -138.42314246 369.0690136 C-138.42752929 365.7333047 -138.43289516 362.3975973 -138.43813133 359.06188965 C-138.45514353 347.96650523 -138.46963562 336.87112178 -138.47688007 325.77572632 C-138.47878984 322.89752196 -138.48071019 320.01931761 -138.48266602 317.14111328 C-138.48314976 316.42578485 -138.4836335 315.71045642 -138.4841319 314.97345138 C-138.49242439 303.39698072 -138.51774808 291.82061366 -138.55024669 280.24418819 C-138.58337155 268.34723099 -138.60133382 256.45032633 -138.60452431 244.55332279 C-138.60668465 237.87839652 -138.61580981 231.20360091 -138.64098549 224.52871704 C-138.66430349 218.24468723 -138.66848421 211.96092843 -138.65822411 205.67686653 C-138.65772952 203.3759375 -138.66402707 201.07499496 -138.67778015 198.77410698 C-138.76632042 183.0773786 -138.77897845 169.68577979 -127.1875 157.75 C-119.5724247 150.49480539 -111.32071355 146.88881507 -100.83203125 146.1484375 C-99.23838745 146.03121338 -99.23838745 146.03121338 -97.61254883 145.91162109 C-96.81228271 145.85828613 -96.0120166 145.80495117 -95.1875 145.75 C-94.98277573 144.9951683 -94.77805145 144.24033661 -94.56712341 143.46263123 C-93.75327284 140.46202429 -92.93935371 137.46143595 -92.12541962 134.46085167 C-91.55125113 132.3440232 -90.97719197 130.2271651 -90.40313721 128.11030579 C-88.28030884 120.28324016 -86.15469449 112.45694323 -84.0246582 104.63183594 C-83.14641828 101.4043591 -82.26843577 98.17681233 -81.390625 94.94921875 C-81.17079641 94.14104328 -80.95096783 93.33286781 -80.72447777 92.50020218 C-77.88655993 82.06240751 -75.08074493 71.61679797 -72.31437492 61.15982246 C-71.1539545 56.78096423 -69.98272616 52.40497949 -68.8130188 48.02859497 C-68.1922827 45.69353914 -67.57702259 43.3570201 -66.96749878 41.01901245 C-66.12116582 37.77441881 -65.25600356 34.53538233 -64.38671875 31.296875 C-64.14987366 30.36756668 -63.91302856 29.43825836 -63.66900635 28.48078918 C-60.66909315 17.48306496 -54.57370047 7.30694943 -44.69921875 1.21484375 C-29.42667702 -6.73429405 -15.90652428 -4.42635754 0 0 Z M-36.375 23.4375 C-41.69170947 30.1923358 -43.69102118 40.47913859 -45.1875 48.75 C-36.3630836 51.8610908 -27.33878003 54.22770349 -18.3125 56.66796875 C-16.50762353 57.15792298 -14.70280529 57.64809177 -12.89804077 58.13845825 C-8.01595923 59.46419356 -3.13298098 60.78659738 1.75019073 62.1083107 C5.86952899 63.22371444 9.98834392 64.34104382 14.10716438 65.45835781 C51.51801781 75.60640858 88.94415325 85.69788504 126.37261963 95.78074265 C152.40696052 102.79428153 178.43523048 109.83026946 204.46266174 116.86940002 C213.85654373 119.40997555 223.25064801 121.94972702 232.64493752 124.48879528 C240.32030084 126.56331813 247.99550232 128.63843906 255.67059898 130.71394825 C261.17650375 132.20284504 266.68255232 133.69120821 272.18872643 135.17910862 C275.62284387 136.10730873 279.05674188 137.03631928 282.49063492 137.9653492 C284.95606241 138.63191416 287.42184625 139.29714832 289.88766479 139.96226501 C297.4668051 142.00955767 305.03601668 144.08484986 312.58740234 146.23242188 C313.95172054 146.61810923 315.31607399 147.0036719 316.6804657 147.38909912 C319.18100424 148.09564109 321.67677806 148.81454434 324.17170715 149.54107666 C325.26126205 149.84946472 326.35081696 150.15785278 327.47338867 150.47558594 C328.41478195 150.74755798 329.35617523 151.01953003 330.32609558 151.29974365 C332.89121214 151.76425377 334.37486548 151.59796993 336.8125 150.75 C337.69141954 147.75670281 338.53591412 144.7546842 339.375 141.75 C339.62185547 140.91082031 339.86871094 140.07164062 340.12304688 139.20703125 C341.91236718 132.70499409 342.43248564 127.41628328 339.625 121.0625 C335.38804894 115.65673485 331.2059972 113.16187957 324.65283203 111.26806641 C323.96134127 111.06481562 323.2698505 110.86156483 322.55740547 110.65215492 C320.31388138 109.99973576 318.06458222 109.37218826 315.8125 108.75 C315.06724815 108.54149162 314.32199631 108.33298325 313.55416107 108.11815643 C307.8365174 106.52285872 302.10314141 104.98882551 296.3671875 103.4609375 C294.49785041 102.96027659 292.62860014 102.4592914 290.75942993 101.95800781 C286.7962362 100.89571813 282.83253753 99.83534323 278.8684082 98.77655029 C269.39798292 96.24685547 259.93038615 93.70660409 250.46245575 91.16759109 C247.27161215 90.31201056 244.08066714 89.45680906 240.88970947 88.60165405 C223.71010857 83.99661525 206.54079928 79.35448861 189.37813568 74.68676376 C185.9033826 73.74178088 182.42849326 72.79729932 178.95361328 71.8527832 C178.25858389 71.66386537 177.5635545 71.47494753 176.84746361 71.28030491 C175.43559939 70.89654695 174.02373352 70.5127951 172.611866 70.1290493 C171.19417278 69.74370962 169.77648631 69.35834511 168.35880661 68.9729557 C149.09762985 63.73708211 129.8300617 58.52481883 110.5625 53.3125 C109.67345726 53.07198536 108.78441452 52.83147072 107.86843109 52.58366776 C95.4062684 49.21227006 82.94385992 45.84178159 70.4813385 42.47171021 C67.80033653 41.74671074 65.11934397 41.02167651 62.43835449 40.29663086 C51.24186553 37.268668 40.045238 34.24121813 28.84846497 31.21430588 C26.4674416 30.57059473 24.08644006 29.92680288 21.70544434 29.2829895 C17.98529761 28.27709381 14.26507813 27.2714676 10.54480362 26.26604462 C8.57131836 25.73264228 6.59789813 25.19899933 4.6244812 24.66534424 C2.22564282 24.0171715 -0.17364311 23.37065231 -2.57342529 22.72598267 C-5.14827552 22.03064309 -7.72003159 21.32723021 -10.29034424 20.61557007 C-11.64488646 20.24456841 -12.9994394 19.87360584 -14.35400391 19.50268555 C-16.1741954 18.99936958 -16.1741954 18.99936958 -18.03115845 18.48588562 C-24.93271328 16.87682181 -31.29072966 18.41891791 -36.375 23.4375 Z M-51.1875 70.75 C-54.8175 83.95 -58.4475 97.15 -62.1875 110.75 C-59.3802373 113.5572627 -56.10144776 114.04083367 -52.36181641 115.02148438 C-51.14601646 115.3489566 -51.14601646 115.3489566 -49.90565491 115.68304443 C-47.20178878 116.40965541 -44.49545448 117.12660959 -41.7890625 117.84375 C-39.88258996 118.35438062 -37.97629198 118.86566337 -36.07015991 119.37756348 C-31.01218348 120.73425308 -25.95213512 122.08304551 -20.89154053 123.42993164 C-12.91538239 125.55429306 -4.94259937 127.69129491 3.03059769 129.82673645 C5.75840293 130.55629728 8.48693884 131.28305795 11.21566772 132.00915527 C12.09369741 132.24408125 12.9717271 132.47900723 13.87636375 132.72105217 C15.70834637 133.20915081 17.54179442 133.69177712 19.37655067 134.16934395 C24.54790182 135.5327563 29.66266123 137.0018735 34.75137341 138.64391005 C57.376164 145.92280275 77.87804478 148.16102147 101.57905293 147.76393938 C106.07903965 147.69984226 110.57915598 147.69543147 115.07952881 147.6836853 C123.53630781 147.65305451 131.99173691 147.57163244 140.44793105 147.47019041 C150.10256074 147.35697763 159.75726769 147.30307939 169.41239977 147.25323606 C189.2131761 147.14973628 209.01275183 146.9747617 228.8125 146.75 C225.12577934 144.82267292 221.39314367 143.69652171 217.38891602 142.62475586 C216.63834364 142.42023237 215.88777126 142.21570889 215.11445427 142.00498772 C212.5995302 141.32084541 210.08299303 140.64284214 207.56640625 139.96484375 C205.76521042 139.47631438 203.96411104 138.98742931 202.1631012 138.49821472 C197.26212255 137.16817793 192.3596828 135.84360164 187.45694733 134.52005768 C183.32404954 133.4035961 179.19202398 132.28392583 175.06000137 131.16423035 C142.12031785 122.23859908 109.16297435 113.37836112 76.20250511 104.52984524 C51.58274263 97.92044014 26.9693014 91.28850171 2.36843109 84.60909271 C0.16519653 84.01091338 -2.03809423 83.4129414 -4.24139404 82.81500244 C-7.64925012 81.89004895 -11.05691828 80.96440646 -14.4644165 80.03813553 C-16.34478824 79.52702234 -18.22524956 79.01623873 -20.10571289 78.50546265 C-25.39208726 77.06693119 -30.67515513 75.6191629 -35.94775391 74.13085938 C-37.22257378 73.77166412 -37.22257378 73.77166412 -38.52314758 73.4052124 C-40.03981176 72.9761654 -41.55552965 72.54374991 -43.06999207 72.10699463 C-45.88769248 71.30862453 -48.24019805 70.75 -51.1875 70.75 Z M-68.1875 133.75 C-68.69262244 135.35256108 -69.19141627 136.95711792 -69.6875 138.5625 C-69.9659375 139.45582031 -70.244375 140.34914062 -70.53125 141.26953125 C-71.31538351 143.80573395 -71.31538351 143.80573395 -71.1875 146.75 C-54.6875 146.75 -38.1875 146.75 -21.1875 146.75 C-23.81574994 144.99783337 -25.30018272 144.30209142 -28.24414062 143.51318359 C-29.46055237 143.18306778 -29.46055237 143.18306778 -30.70153809 142.84628296 C-32.00943298 142.50084946 -32.00943298 142.50084946 -33.34375 142.1484375 C-34.69176697 141.7864476 -34.69176697 141.7864476 -36.0670166 141.41714478 C-37.96600056 140.90855755 -39.86572122 140.40271424 -41.76611328 139.89941406 C-44.67804414 139.1275066 -47.58717915 138.34568824 -50.49609375 137.5625 C-52.34098785 137.06972066 -54.18603496 136.57751374 -56.03125 136.0859375 C-56.90317993 135.85160004 -57.77510986 135.61726257 -58.67346191 135.37582397 C-59.48440308 135.16205109 -60.29534424 134.9482782 -61.13085938 134.72802734 C-61.84350952 134.53864594 -62.55615967 134.34926453 -63.29040527 134.15414429 C-65.35324881 133.64582112 -65.35324881 133.64582112 -68.1875 133.75 Z M295.8125 164.75 C296.01746094 165.35328125 296.22242188 165.9565625 296.43359375 166.578125 C296.70300781 167.37734375 296.97242188 168.1765625 297.25 169 C297.51683594 169.78890625 297.78367187 170.5778125 298.05859375 171.390625 C299.5395831 176.02543104 300.00924501 180.27673254 300.12890625 185.140625 C300.14968735 185.84523865 300.17046844 186.54985229 300.19187927 187.27581787 C300.25703837 189.51711681 300.31610248 191.75852864 300.375 194 C300.41821726 195.52344897 300.46183257 197.04688671 300.50585938 198.5703125 C300.61268491 202.29675591 300.71404639 206.02332494 300.8125 209.75 C306.16798437 211.58773063 311.43283039 213.22721103 316.98217773 214.37231445 C317.58618408 214.49695068 318.19019043 214.62158691 318.8125 214.75 C321.62849633 207.82993332 323.5541126 200.70744692 325.45678711 193.49389648 C326.00373596 191.42335707 326.55907261 189.3551909 327.11523438 187.28710938 C327.46664462 185.96627844 327.81757365 184.64531935 328.16796875 183.32421875 C328.48403076 182.13401123 328.80009277 180.94380371 329.12573242 179.7175293 C329.92523413 176.77053495 329.92523413 176.77053495 329.8125 173.75 C313.09714559 167.56491685 313.09714559 167.56491685 295.8125 164.75 Z M-113.625 176.875 C-116.36658509 181.91951656 -116.33340528 186.26473021 -116.32794189 191.87127686 C-116.33091302 192.81628532 -116.33388414 193.76129378 -116.3369453 194.73493886 C-116.34564729 197.91542384 -116.34714181 201.09587124 -116.34863281 204.27636719 C-116.35325994 206.55113811 -116.35828445 208.82590826 -116.36367798 211.10067749 C-116.37681446 217.29085479 -116.38324941 223.48102123 -116.38768864 229.67121029 C-116.39061745 233.53690424 -116.39472189 237.40259521 -116.39919281 241.26828766 C-116.41130343 251.97247098 -116.4216848 262.67665067 -116.4250679 273.3808403 C-116.42528747 274.06595981 -116.42550703 274.75107933 -116.42573325 275.45696004 C-116.42595153 276.14371546 -116.42616981 276.83047087 -116.4263947 277.53803706 C-116.42683817 278.92965492 -116.42728473 280.32127277 -116.42773438 281.71289062 C-116.4279558 282.40318057 -116.42817723 283.09347052 -116.42840537 283.80467835 C-116.43235238 294.98687957 -116.44980324 306.16901558 -116.4730939 317.35119161 C-116.49681625 328.83338298 -116.50901226 340.31552699 -116.51043582 351.79774594 C-116.5114848 358.24391262 -116.51741237 364.68998735 -116.53525543 371.13613129 C-116.55171373 377.20013366 -116.55390243 383.26397476 -116.54511642 389.32799149 C-116.54434484 391.55361233 -116.54870465 393.77924176 -116.55857468 396.00484085 C-116.57126074 399.0436828 -116.56543524 402.08195072 -116.55499268 405.12078857 C-116.56304908 406.00105233 -116.57110548 406.88131608 -116.57940602 407.7882545 C-116.52555499 414.4910688 -115.2626757 419.14120769 -111 424.5 C-103.27219716 430.68224227 -94.95818581 430.17849653 -85.49841309 430.13095093 C-83.99990419 430.13441039 -82.50139784 430.13917689 -81.00289679 430.14513266 C-76.89757553 430.15763269 -72.79246405 430.15147685 -68.68714213 430.14217401 C-64.2548995 430.13537977 -59.82269265 430.14586661 -55.39045715 430.15411377 C-46.71262714 430.16744928 -38.03487501 430.16457417 -29.35704195 430.15587585 C-22.30399539 430.149099 -15.25097064 430.14818259 -8.19792175 430.1514473 C-6.69182811 430.15213684 -6.69182811 430.15213684 -5.15530834 430.15284032 C-3.11553545 430.15379951 -1.07576257 430.15477215 0.9640103 430.1557581 C20.08819115 430.16431146 39.21232884 430.1544787 58.33650261 430.138357 C74.74372517 430.12495387 91.15088406 430.12728198 107.55810547 430.14111328 C126.61414498 430.15717003 145.67014667 430.16348749 164.726192 430.15427649 C166.75843524 430.15332085 168.7906785 430.15237774 170.82292175 430.1514473 C171.82280818 430.15098447 172.82269461 430.15052164 173.85288063 430.15004479 C180.8969502 430.14745519 187.94099578 430.15182526 194.98506165 430.15888596 C203.57014792 430.1673022 212.15515191 430.16501818 220.74022877 430.14904372 C225.1199478 430.14116271 229.49952967 430.13806655 233.87924767 430.14799118 C237.88992633 430.15694206 241.9003409 430.1519988 245.91099566 430.13605852 C247.36041557 430.13271239 248.80985787 430.13440106 250.25926334 430.14168589 C262.81433099 430.23535466 262.81433099 430.23535466 273.625 424.4375 C278.50648092 418.44025202 279.25173551 413.66611592 279.20690918 406.19876099 C279.21604584 404.76621107 279.21604584 404.76621107 279.22536707 403.30472076 C279.24200116 400.10813659 279.23722058 396.91195057 279.23242188 393.71533203 C279.23976195 391.42203355 279.248348 389.12873877 279.25808716 386.83544922 C279.28031828 380.60816056 279.28323302 374.38100417 279.28133965 368.15368128 C279.28122002 362.95481562 279.28978102 357.75597805 279.29811716 352.5571202 C279.31845716 339.59047238 279.31949923 326.62391055 279.31231004 313.65725361 C279.30673539 302.40472337 279.32755827 291.15242087 279.36067051 279.89994384 C279.39443027 268.33740041 279.40909868 256.7749939 279.40495348 245.21239746 C279.40288514 238.72427397 279.40837876 232.23637728 279.43284607 225.74829483 C279.45509664 219.64638552 279.45324883 213.54495036 279.43291855 207.44303894 C279.42950557 205.20493579 279.43460989 202.96680082 279.44890213 200.72874069 C279.46708372 197.67034295 279.45435257 194.61355559 279.43395996 191.5552063 C279.44647781 190.67211985 279.45899566 189.7890334 279.47189283 188.87918675 C279.38325749 182.66743709 277.72219973 178.58711759 273.8125 173.75 C269.18576118 169.45374252 265.91382814 168.62596276 259.70289326 168.61298561 C258.41648073 168.60791107 257.13006821 168.60283653 255.80467349 168.59760821 C254.36874986 168.59700651 252.93282617 168.59650744 251.49690247 168.59609985 C249.97796236 168.59208567 248.45902333 168.58764752 246.94008559 168.5828203 C242.75512858 168.57084411 238.5701831 168.56520393 234.3852123 168.56063914 C229.87585974 168.55468705 225.36652099 168.54307626 220.85717773 168.53234863 C209.96174896 168.50781624 199.06631561 168.49319657 188.17086771 168.48028857 C185.09433885 168.47657735 182.01781044 168.47260406 178.94128203 168.4685359 C159.84276799 168.44330091 140.74425324 168.42124445 121.6457262 168.40880775 C117.22109283 168.40587798 112.79645949 168.40291633 108.37182617 168.39990234 C107.27208431 168.39915629 106.17234245 168.39841024 105.03927507 168.39764158 C87.21984136 168.38498505 69.40050737 168.3517584 51.58112029 168.31010051 C33.29286532 168.26769641 15.00466142 168.24411451 -3.28364259 168.23888719 C-13.55451639 168.23547143 -23.82523434 168.22369667 -34.0960598 168.19078445 C-42.84231588 168.16280379 -51.58838417 168.15177592 -60.33468153 168.16297992 C-64.79750579 168.16817158 -69.25993666 168.16524697 -73.72270393 168.14051437 C-77.80957515 168.11805396 -81.89576965 168.11873638 -85.98265246 168.13771825 C-87.45982441 168.14052279 -88.93704193 168.13489436 -90.41414049 168.11990531 C-100.47097276 168.02410546 -107.23787951 168.68638399 -113.625 176.875 Z M300.8125 232.75 C300.8125 248.59 300.8125 264.43 300.8125 280.75 C302.83574072 276.70351855 304.03014374 272.74532833 305.1953125 268.40625 C305.41444305 267.60014282 305.63357361 266.79403564 305.85934448 265.96350098 C306.32030893 264.26286504 306.77909369 262.56163699 307.23583984 260.85986328 C307.93547938 258.25751582 308.64501799 255.65800772 309.35546875 253.05859375 C309.80268379 251.40380799 310.24931806 249.74886515 310.6953125 248.09375 C310.90777618 247.31761353 311.12023987 246.54147705 311.33914185 245.74182129 C312.26637255 242.25999504 312.8125 239.3798609 312.8125 235.75 C306.8725 234.265 306.8725 234.265 300.8125 232.75 Z " fill="#74001D" transform="translate(143.1875,32.25)"/>
<path d="M0 0 C3.58221436 1.97010739 3.58221436 1.97010739 7.625 1.75 C8.594375 1.234375 9.56375 0.71875 10.5625 0.1875 C24.86677097 -6.72854558 38.29772995 -7.46335486 53.5625 -2.8125 C68.49224043 3.30206946 78.45783886 14.009237 84.65625 28.796875 C89.12726556 42.45831142 87.20470016 57.35861141 81.4375 70.25 C74.56388025 83.23350397 63.28224818 91.64272663 49.5625 96.1875 C35.55477611 99.89596687 21.88311574 98.01424744 9.0625 91.375 C6.08921394 89.96268912 5.59175514 90.18314803 2.5625 91.1875 C0.7003785 91.98159936 -1.15305649 92.79621177 -3 93.625 C-15.85080589 98.97950246 -28.96901923 99.80235533 -42.25 95.0625 C-54.99973844 89.58495019 -65.68924386 80.56833983 -71.44140625 67.73046875 C-77.10458589 53.27270425 -77.10458589 39.10229575 -71.44140625 24.64453125 C-65.70294031 11.83722838 -55.00773446 2.68270776 -42.296875 -2.77734375 C-28.4577247 -7.78741865 -12.96490884 -7.13557389 0 0 Z M-48.4375 29.1875 C-52.74367405 35.52808698 -54.34318536 42.55386623 -53.4375 50.1875 C-51.19077208 59.47217081 -46.87197101 65.74852248 -39.375 71.5625 C-31.76533715 75.77210073 -23.33166154 76.68799539 -14.875 74.53515625 C-6.45047284 71.12731801 -0.57685012 65.34072023 3.65234375 57.3984375 C6.6968708 50.00271943 6.19523199 42.62939163 3.46484375 35.28125 C0.2754716 27.88080207 -5.7132236 21.57198012 -13.125 18.25 C-27.5138861 13.6807482 -38.75087465 18.60936222 -48.4375 29.1875 Z M20.5625 20.1875 C20.91183594 21.07953125 21.26117188 21.9715625 21.62109375 22.890625 C22.07613281 24.06109375 22.53117187 25.2315625 23 26.4375 C23.45246094 27.59765625 23.90492188 28.7578125 24.37109375 29.953125 C28.42730477 40.9647405 27.89088322 53.88796749 23.53515625 64.70703125 C22.55943495 67.1953165 22.01098051 69.55798797 21.5625 72.1875 C28.5696134 76.09844701 36.35448884 76.52329523 44.12109375 74.53125 C52.55010425 71.1421158 58.42633713 65.33473468 62.65234375 57.3984375 C65.6968708 50.00271943 65.19523199 42.62939163 62.46484375 35.28125 C59.2754716 27.88080207 53.2867764 21.57198012 45.875 18.25 C37.40336203 15.55979544 28.4915115 16.45620047 20.5625 20.1875 Z " fill="#73001C" transform="translate(128.4375,229.8125)"/>
<path d="M0 0 C16.5 0 33 0 50 0 C50 7.26 50 14.52 50 22 C33.5 22 17 22 0 22 C0 14.74 0 7.48 0 0 Z " fill="#6F001B" transform="translate(331,388)"/>
<path d="M0 0 C16.5 0 33 0 50 0 C50 7.26 50 14.52 50 22 C33.5 22 17 22 0 22 C0 14.74 0 7.48 0 0 Z " fill="#6F001B" transform="translate(156,388)"/>
<path d="M0 0 C16.17 0 32.34 0 49 0 C49 7.26 49 14.52 49 22 C32.83 22 16.66 22 0 22 C0 14.74 0 7.48 0 0 Z " fill="#6F001B" transform="translate(244,388)"/>
<path d="M0 0 C16.17 0 32.34 0 49 0 C49 7.26 49 14.52 49 22 C32.83 22 16.66 22 0 22 C0 14.74 0 7.48 0 0 Z " fill="#6F001B" transform="translate(69,388)"/>
<path d="M0 0 C4.95 0.99 4.95 0.99 10 2 C6 3 6 3 3 2 C3.45052734 2.90492188 3.45052734 2.90492188 3.91015625 3.828125 C4.48056641 5.02695313 4.48056641 5.02695313 5.0625 6.25 C5.44535156 7.03890625 5.82820313 7.8278125 6.22265625 8.640625 C7.08564091 11.25993522 6.93045933 12.44855176 6 15 C5.18618205 13.06305322 4.37399084 11.12542289 3.5625 9.1875 C3.11003906 8.10855469 2.65757812 7.02960938 2.19140625 5.91796875 C1.39624987 3.9704874 0.66520352 1.99561057 0 0 Z " fill="#000000" transform="translate(436,195)"/>
</svg>
